<?xml version="1.0" encoding="UTF-8"?>
<svg id="Layer_2" data-name="Layer 2" xmlns="http://www.w3.org/2000/svg" version="1.1" viewBox="0 0 612 792">
  <defs>
    <style>
      .cls-1 {
        fill: #000;
      }

      .cls-1, .cls-2 {
        stroke: #000;
        stroke-linecap: round;
        stroke-linejoin: round;
        stroke-width: .8px;
      }

      .cls-2 {
        fill: none;
      }
    </style>
  </defs>
  <polygon class="cls-2" points="177.9 139.6 175.9 141.8 157.8 173.1 190.6 173.1 190.6 175.4 157.8 175.4 175.9 206.7 178 208.8 210.6 209.1 210.6 211.2 177.8 211.2 175.7 213.7 157.8 244.8 190.6 244.8 190.6 247.1 157.8 247.1 175.9 278.4 178 280.5 210.6 280.8 210.6 283.3 177.9 283.4 175.8 285.8 157.8 316.8 190.6 316.8 190.6 319.2 157.8 319.2 175.9 351.1 177.8 352.8 210.6 352.8 210.6 354.9 177.9 355 175.9 357.2 157.8 388.5 190.6 388.5 190.6 390.8 157.8 390.8 175.9 422.1 177.8 424.5 210.6 424.5 210.6 426.6 177.9 426.7 175.7 429.1 157.8 460.2 190.6 460.2 190.6 462.5 157.8 462.5 175.9 493.8 178 495.9 213.8 496 197.4 467.4 199.7 465.7 215.9 493.8 217.9 496.1 254 496.1 237.5 467.5 239.8 465.8 255.9 493.8 258 496.3 294.1 496.3 277.5 467.6 279.9 465.8 296 493.6 298.1 496.1 334.2 496.1 317.7 467.5 320 465.8 336.2 493.8 338.3 495.9 374.3 496.1 357.8 467.5 359.5 466.2 376.2 493.8 378.2 496.1 414.3 496.1 397.9 467.7 400.3 465.9 416.4 493.8 434.4 462.5 398.5 462.8 396.3 464.9 379.9 492.9 377.9 491.1 394.1 462.5 394.2 459.9 378 431.8 379.9 430.2 396.3 457.8 398.5 459.8 434.4 460.2 416.4 428.9 400.3 456.8 398 454.8 414.2 426.5 414.2 424.2 397.9 396 400.3 394.2 416.4 421.3 434.4 390.8 398.3 390.8 395.8 393.3 380 421.3 377.9 419.4 394.2 390.8 394.2 388.5 378 360.1 380 358.4 396.3 386.1 398.5 388.1 434.4 388.5 416.4 357.2 400.3 385.1 398 383.1 414.2 354.8 414.2 352.8 397.9 324.3 400.3 322.6 416.4 350.5 434.4 319.2 398.3 319.2 396.3 321.5 380 349.6 377.9 347.7 394.2 319.2 394.3 316.8 378 288.5 380.2 286.6 396.3 314.5 398.3 316.8 434.4 316.8 416.4 285.6 400.3 313.4 398 311.5 414.4 283.2 414.2 280.8 397.9 252.3 399.7 250.9 416.4 278.4 434.4 247.1 398.5 247.1 396.3 249.5 380 277.6 377.9 275.7 394.1 247.5 394.3 244.8 378 216.4 380.2 214.6 396.3 242.4 398.3 244.8 433.9 244.8 416.4 213.5 400.3 241.4 398 239.5 414.2 211.2 414.2 209.1 397.9 180.6 400.3 178.8 416.4 205.9 434.4 175.4 398.3 175.4 395.6 178.3 380 205.9 377.9 204 394.1 175.6 394.3 173.1 378 144.7 380.2 142.9 395.6 170.5 398.5 172.7 434.4 173.1 416.4 141.8 400.3 168.9 398 167.7 414.4 139.5 378.4 139.7 375.7 142.9 360.1 169.7 357.8 167.9 374.3 139.5 338.2 139.5 335.7 141.9 319.6 169.7 317.7 168 334.2 139.5 298.5 139.5 296.1 141.8 280 169.8 277.7 167.8 294.1 139.5 258 139.6 255.5 142 239.8 169.8 237.5 168 254 139.5 218.1 139.5 215.9 141.8 199.7 169.9 197.5 168 214 139.5 177.9 139.6"/>
  <polygon class="cls-2" points="179.8 142.8 177.5 144.7 193.8 173.1 193.8 175.4 177.5 203.9 179.8 205.6 195.9 177.8 198.1 175.3 230.6 175.4 230.6 173.1 197.9 173.1 195.9 170.8 179.8 142.8"/>
  <polygon class="cls-2" points="197.4 180.4 199.7 178.6 215.9 206.7 217.9 209 250.6 209 250.6 211.2 217.9 211.2 215.9 213.3 199.7 241.6 197.5 239.7 213.8 211.2 213.8 209.1 197.4 180.4"/>
  <polygon class="cls-2" points="177.5 216.4 179.4 214.9 195.9 242.5 198 244.6 230.6 244.8 230.6 247.1 198.1 247.1 195.9 248.7 179.7 277.5 177.5 275.6 193.8 247.1 193.9 244.8 177.5 216.4"/>
  <polygon class="cls-2" points="177.5 288.4 179.8 286.8 195.5 314.6 197.9 316.8 230.6 316.8 230.6 319.2 197.8 319.2 195.9 320.8 179.7 348.6 177.5 347.6 193.8 319.2 193.9 316.8 177.5 288.4"/>
  <polygon class="cls-2" points="177.5 360.1 193.8 388.5 193.8 390.8 177.5 419.2 179.7 421.2 195.9 391.8 197.8 390.8 230.6 390.8 230.6 388.5 197.9 388.5 195.9 386.2 179.8 358.2 177.5 360.1"/>
  <polygon class="cls-2" points="179.8 429.9 177.5 431.8 193.8 460.2 193.8 462.5 177.5 490.9 179.7 492.9 195.9 463.9 198 462.5 230.6 462.5 230.6 460.2 197.5 460 195.9 457.9 179.8 429.9"/>
  <polygon class="cls-2" points="217.5 431.6 219.8 429.8 235.8 458.4 238 460.2 270.8 460.2 270.8 462.5 238 462.7 235.8 463.9 219.9 492.7 217.7 490.7 233.8 462.8 233.7 459.7 217.5 431.6"/>
  <polygon class="cls-2" points="257.6 431.5 259.8 429.7 275.8 458.8 278.1 460.2 310.8 460.2 310.8 462.5 278.1 462.7 276 463.9 259.9 493 257.6 491 273.8 462.5 274 460.2 257.6 431.5"/>
  <polygon class="cls-2" points="297.7 431.7 300 429.8 316.2 458.8 318.1 460.2 351 460.2 351 462.5 318.1 462.5 316.2 463.8 299.9 493 297.7 491.1 314 462.5 314 460.2 297.7 431.7"/>
  <polygon class="cls-2" points="337.7 431.5 354.2 460.2 354.3 462.5 337.9 491.1 340.1 492.9 356.6 464.4 358.3 462.6 391.2 462.5 391.2 460.2 358.2 460.2 356.2 458.7 340 429.7 337.7 431.5"/>
  <polygon class="cls-2" points="357.8 395.8 360.1 394.1 376.2 422.1 378.2 424.5 411 424.5 411 426.5 378.3 426.5 376.1 427.9 360.1 456.9 357.8 455 374.1 426.9 374.2 424.5 357.8 395.8"/>
  <polygon class="cls-2" points="337.7 144.4 340 142.6 356.2 171.6 358.2 173.1 391.2 173.1 391.2 175.4 358.2 175.4 356 176.7 340.1 205.8 337.9 203.9 354.2 175.4 354 172.7 337.7 144.4"/>
  <polygon class="cls-2" points="297.7 144.6 298.3 144.1 300 142.8 316 170.8 318.2 173 351 173.1 351 175.4 318.1 175.4 316 176.7 300.1 205.6 297.7 204 313.9 175.4 314 173.1 297.7 144.6"/>
  <polygon class="cls-2" points="257.6 203.9 259.9 205.9 276 176.9 278.1 175.6 310.8 175.4 310.8 173.1 278.1 173.1 275.8 171.7 259.8 142.6 257.6 144.5 274 173.1 274 175.4 257.6 203.9"/>
  <polygon class="cls-2" points="217.5 144.6 219.8 142.7 235.8 171.7 238 173.1 270.8 173.1 270.8 175.4 238 175.6 235.8 176.8 219.9 205.6 217.7 203.6 234 175.4 234 173.1 217.5 144.6"/>
  <polygon class="cls-2" points="237.5 180.4 253.8 209 253.8 211.2 236 242.5 219.8 214.4 217.5 216.3 233.8 244.8 233.7 247.1 215.9 278.4 199.7 250.4 197.4 252.1 213.8 280.8 214 283.3 197.5 311.7 199.7 313.6 215.9 285.6 233.8 316.8 233.7 319.2 215.9 350.5 199.7 322.4 197.4 324.1 213.8 352.8 213.8 354.9 197.5 383.4 199.7 385.3 215.9 357.2 233.8 388.5 234 390.8 218.1 419 219.9 420.2 236 393.1 253.8 424.4 253.8 426.6 238 454.3 240.3 456.1 255.7 429.5 258 426.7 294.1 426.6 277.7 454.9 280 456.9 296 429.1 298.1 426.6 334.2 426.6 317.7 455.1 319.9 457 336.2 428.9 338.8 426.6 371 426.5 371 424.5 338.2 424.5 356.1 393.3 357.8 391.4 391 390.8 391 388.5 358.2 388.5 376.3 357.2 378.4 355.1 411 354.8 410.3 352.8 378.2 352.8 376.2 350.3 358.2 319.2 391.1 319.2 391.1 316.8 358.2 316.8 376.3 285.6 378.3 283.5 411 283.2 411 280.8 378.2 280.8 376.2 278.4 358.2 247.1 391 247.1 391 244.8 358.2 244.8 356.2 242.4 338.2 211.2 371 211.2 371 209.1 338.2 209.1 336.2 206.7 320 178.7 317.7 180.5 334.2 209.1 298.1 209.1 280 178.8 277.5 180.5 294.1 209.2 258 209.2 255.9 206.7 239.8 178.7 237.5 180.4"/>
  <polygon class="cls-2" points="360.1 178.7 357.8 180.4 374.2 209.1 374.1 211.5 357.8 239.6 360.1 241.6 376.2 212.5 378.4 211.4 411 211.2 411 209.1 378.2 209.1 376.2 207.4 360.1 178.7"/>
  <polygon class="cls-2" points="197.4 395.7 199.7 394 215.9 422.1 217.9 424.4 250.6 424.4 250.6 426.6 217.9 426.5 215.9 427.8 200 456.5 197.5 455.1 214 426.6 214 424.5 197.4 395.7"/>
  <circle class="cls-1" cx="216" cy="162.7" r="3.9"/>
  <circle class="cls-1" cx="196.7" cy="199" r="3.9"/>
  <circle class="cls-1" cx="376.2" cy="163" r="3.9"/>
  <circle class="cls-1" cx="395.6" cy="199" r="3.9"/>
  <circle class="cls-1" cx="376.1" cy="471.9" r="3.9"/>
  <circle class="cls-1" cx="395.8" cy="437" r="3.9"/>
  <circle class="cls-1" cx="195.5" cy="436.4" r="3.9"/>
  <circle class="cls-1" cx="215.1" cy="471.7" r="3.9"/>
  <line class="cls-2" x1="215.4" y1="164" x2="216.4" y2="164"/>
</svg>