<?xml version="1.0" encoding="UTF-8"?><svg id="Layer_1" xmlns="http://www.w3.org/2000/svg" viewBox="0 0 432 432"><defs><style>.cls-1{fill:#fff;stroke:#000;stroke-miterlimit:10;}</style></defs><path class="cls-1" d="M16.35,429.33c2.17-1.85,16.14-14.16,16.52-34.79.4-21.66-14.5-34.81-16.52-36.53,1.84-1.47,16.73-13.84,16.52-34.79-.2-20.42-14.59-32.37-16.52-33.92,2.53-1.93,14.33-11.32,16.52-27.83,3.06-23.07-15.53-38.3-16.52-39.09,1.84-1.48,16.78-13.91,16.52-34.92-.25-20.36-14.58-32.28-16.52-33.84-2.46-7.08,1.98-14.4,8.26-15.66,5.79-1.15,12.22,3.03,13.48,9.78l16.52,39.71-19.13,33.76,19.13,39.37-19.13,32.18,19.13,37.4-19.13,27.83c-4.49,12.79,2.2,26.05,13.05,29.57,9.25,3.01,19.93-1.58,24.35-9.57,5.69-10.29.79-25.84-13.05-32.18l18.26-26.09-20-26.96,20-47.83-18.26-23.72,18.26-40.64-13.05-32.83,13.05-42.83c4.02-7.2,10.39-9.83,13.05-8.28,2.54,1.48,3.32,7.76,0,14.37l-8.7,33.05c3.35,4.4,12.68,17.83,13.05,37.4.39,21.02-9.81,35.53-13.05,39.77,1.49,1.03,18.33,13.04,18.26,34.15-.05,15.82-9.56,30.43-24.35,37.4,11.06,5.78,18.09,17.16,18.26,29.57.27,19.09-15.84,29.16-16.53,29.57l40.88,77.41H16.35Z"/><path class="cls-1" d="M0,118.25c7.81-7.55,23.06-20.23,45.93-27.42,31.87-10.02,59.06-3.23,69.58,0,7.47,19.29,12.88,42.02,12.18,67.42-.63,22.88-5.77,31.34,0,45.23,8.59,20.7,34.67,37.27,61.75,34.79,24.08-2.21,38.95-18.56,42.62-22.85-26.56-10.7-36.82-26.05-40.88-33.76-2.11-4.02-5.45-11.5-9.57-49.5-1.85-17.1-2.88-31.35-3.48-41.33,8.38-4.09,19.95-10.94,31.31-22.16,15.27-15.08,23.07-31.04,26.96-40.88-13.38-6.58-29.37-13.11-47.84-18.26C147.86-1.82,111.92-1.76,86.8.58H0v117.67Z"/><path class="cls-1" d="M255.53.58l13.05,58.53c-6.62,3.07-35.19,17.21-47.84,50.44-12.58,33.06-.66,62.06,3.48,72.11,4.13,10.03,15.15,36.83,44.36,51.42,34.8,17.39,69.19,4.35,79.15,0,33.85-14.78,47.79-43.79,51.31-51.42,3.42-7.4,13.01-28.96,8.7-57.32-4.64-30.52-22.44-49.54-28.7-55.66l-28.7-17.39L364.25.58h-108.72Z"/><path class="cls-1" d="M290.32,90.83c-5.21,2.29-21.21,10.1-31.31,28.59-11.3,20.69-7.51,40.63-6.09,46.66,1.74,7.4,7.97,33.81,26.96,37.4,12.14,2.29,22.87-6,26.09-8.7l-15.66-103.95Z"/><path class="cls-1" d="M134.64,423.52l24.35-41.75c-1.33.36-21.99,5.63-36.53-7.83-13.01-12.04-15.49-33.88-4.26-51.31l40.79-3.48v-40.01c3.2-13.59,12.94-24.1,24.35-26.09,16.1-2.82,35.27,11.36,37.4,33.92l-11.31,26.96h33.92l-6.96-50.96c13.22-15.86,34.95-19.36,49.57-9.92,10.71,6.91,16.59,20.09,15.66,33.92l-26.09,33.92,8.7,17.39,36.53-19.13c13.65,5.46,22.62,18.63,22.61,33.05-.01,15.38-10.24,29.21-25.22,33.92l-49.57-16.52-.87,53.92h-133.07Z"/><path class="cls-1" d="M432,233.08c-4.88-2.32-21-9.24-39.05-3.51-28.42,9.01-35.52,41.07-36.53,46.1-6.9,34.27,17.54,60.1,20,62.62l-20,50.44,75.58,24.35v-180Z"/><polygon class="cls-1" points="432 262.77 393.6 262.77 386.95 296.36 393.6 335.69 393.6 373.7 432 386.26 432 262.77"/></svg>