<?xml version="1.0" encoding="UTF-8"?><svg id="Layer_1" xmlns="http://www.w3.org/2000/svg" viewBox="0 0 432 432"><defs><style>.cls-1{fill:#fff;stroke:#000;stroke-miterlimit:10;}</style></defs><path class="cls-1" d="M32.41,432l12.77-147.69-12.77-79.79,67.03-22.34c6.06,8.87,26.68,41.33,22.34,86.18-3.78,39.08-24.28,64.72-31.92,73.41,6.37-4.01,29.98-17.83,60.64-12.77,44.21,7.29,63.74,47.31,65.5,51.07l-30.39,51.93H32.41Z"/><path class="cls-1" d="M246.25,432c9.41-42.98,13.44-95.51-15.96-124.91-26.76-26.76-65.62-18.76-73.41-38.73-5.88-15.1,6.78-44.12,89.37-105.33l124.48,19.15,31.92,115.34c-5.28,1.08-49.07,10.83-70.22,53.83-18.93,38.5-5.5,74.74-3.19,80.66h-82.99Z"/><polygon class="cls-1" points="80.28 0 32.41 49.6 32.41 137.37 99.43 182.18 156.89 227.21 246.25 163.03 364.35 137.37 380.31 0 300.51 0 279.77 99.19 137.74 137.37 80.28 72.94 156.89 0 80.28 0"/><polygon class="cls-1" points="188.8 0 140.93 72.94 188.8 86.42 249.45 49.6 236.68 0 188.8 0"/></svg>