<?xml version="1.0" encoding="UTF-8"?><svg id="Layer_1" xmlns="http://www.w3.org/2000/svg" viewBox="0 0 432 432"><defs><style>.cls-1{fill:#fff;}.cls-1,.cls-2{stroke:#000;stroke-miterlimit:10;}.cls-2{fill:none;}</style></defs><path class="cls-1" d="M20.47,0v72.94L0,274.74l137.24-76.6c-10.3-19.78-23.78-51.44-29.09-92.5-5.91-45.67.86-83.11,6.75-105.63H20.47Z"/><path class="cls-2" d="M35.66,432l-19.6-79.29,33.08-88.21,58.81-31.86v58.81l-39.33,9.8v31.07l93.24-21.27-24.62-78.41,54.03-15.56-41.66-144.13c7.34-8.69,37.92-42.86,90.66-50.53,57.73-8.39,99.62,21.14,107.82,27.18l29.4-27.18c6.44,8.52,14.33,21.49,18.38,38.69,10.72,45.52-14.29,83.03-19.6,90.64,20,18.77,24.93,48.61,12.25,72.21-13.4,24.93-43.36,37.14-71.06,28.51l50.23,69.6-69.84,19.6-73.69-74.74-45.15,95.57-53.91,11.03,124.97,6.13,126.2-29.4,31.86,81.75H35.66Z"/><polygon class="cls-1" points="250.07 216 332.16 188.53 332.16 72.94 224.34 72.94 250.07 216"/></svg>