<?xml version="1.0" encoding="UTF-8"?><svg id="Layer_1" xmlns="http://www.w3.org/2000/svg" viewBox="0 0 432 432"><defs><style>.cls-1{fill:#fff;stroke:#000;stroke-miterlimit:10;}</style></defs><polygon class="cls-1" points="31.89 428.75 51.63 335.12 31.89 232.51 60.61 120.65 80.35 146.78 80.35 191.81 127.03 216 112.66 295.78 153.95 351.58 216 347.99 170.11 286.4 168.31 215.42 207.81 180.44 259.86 254.64 241.91 305.36 250.89 344.4 302.95 335.12 317.31 262.19 317.31 389.27 338.85 432 89.33 428.75 89.33 365.94 60.61 428.75 31.89 428.75"/><polygon class="cls-1" points="367.57 34.17 267.04 55.39 150.36 34.17 58.81 41.48 40.86 90.25 118.05 90.25 279.61 181.08 367.57 215.42 367.57 34.17"/><polygon class="cls-1" points="331.67 84.69 268.84 90.25 161.13 66.16 338.85 170.27 331.67 84.69"/><polygon class="cls-1" points="64.2 216 51.63 241.29 71.38 308.5 98.3 232.51 64.2 216"/><polygon class="cls-1" points="432 161.29 408.86 170.27 392.7 262.19 351.41 286.4 338.85 369.53 423.22 422.95 432 161.29"/></svg>