<?xml version="1.0" encoding="UTF-8"?><svg id="Layer_1" xmlns="http://www.w3.org/2000/svg" viewBox="0 0 432 432"><defs><style>.cls-1{fill:#fff;stroke:#000;stroke-miterlimit:10;}</style></defs><path class="cls-1" d="M46.98,432c7.39-30.56,14.8-77.09,8.92-133.18-7.19-68.53-30.96-120.27-47.55-150.09l47.55-56.47,43.1,60.93c-4.99,10.58-10.47,25.78-11.89,44.58-3.4,44.91,18.77,78.26,26.75,89.16l19.32-108.48-17.83-74.3,50.53-31.21c10.43,15.47,38.79,61.9,35.67,126.32-3.9,80.37-54,130.36-65.39,141.18l-19.32,35.67,35.67,55.9H46.98Z"/><path class="cls-1" d="M220.85,432l-29.72-101.97,52.01-161.98-27.15-53.5,10.8-52.01,63.9-40.12c-21.47,21.78-24.64,52.78-10.4,72.82,8.72,12.27,25.81,23.03,40.12,19.32,21.13-5.48,37.22-42.77,26.75-92.14l54.98,71.33-5.94,133.46c-54.92,4.44-96.07,36.9-99.57,68.64-4.24,38.58,45.31,92.96,123.34,90.65l12.01,45.5h-211.15Z"/><path class="cls-1" d="M23.56,0v99.19l32.34-6.93c23.42-7.19,49.98-13.98,79.37-19.32,33.51-6.09,64.33-9.13,91.52-10.4V0H23.56Z"/></svg>