<?xml version="1.0" encoding="UTF-8"?><svg id="Layer_1" xmlns="http://www.w3.org/2000/svg" viewBox="0 0 432 432"><defs><style>.cls-1{fill:#fff;stroke:#000;stroke-miterlimit:10;}</style></defs><path class="cls-1" d="M303.72,432c21.81-8.07,35.43-29.4,33.4-51.3-1.75-18.86-14.84-35.31-33.4-41.98l44.84-48.66-59.16-55.34c27.32-.9,48.33-23.64,47.71-48.66-.67-26.87-26.12-49.45-55.34-45.8,40.93-2.13,65.05-30.4,62.02-50.57-2.11-14.04-17.63-25.97-36.26-31.49,24.66-29.6,68.23-29.35,89.69-5.72,18.57,20.44,18.62,56.22-3.82,80.15l-30.53,20.99,34.35,41.98c-4.13,3.17-27.39,21.65-29.58,52.48-2.16,30.51,17.19,60.65,48.66,74.42l-41.98,30.53,36.26,78.39-106.86.58Z"/><path class="cls-1" d="M0,147.89c9.4-15.3,30.91-45.35,69.95-63.93,21.63-10.29,65.24-31.05,95.41-8.59,31.9,23.75,23.31,76.85,22.9,79.19l15.27-39.6c9.3-19.67,20.23-31.09,26.72-29.1,6.68,2.05,7.5,18.01,7.63,21.95-5.41,1.74-10.81,3.48-16.22,5.21-1.89,10.98-3.78,21.97-5.66,32.95l8.53,36.26,62.02-69.21c7.48-24.87,1.82-51.53-15.27-69.14-21.86-22.54-59.06-26.82-88.74-8.59l-104-18.13L0,.58v147.31Z"/><path class="cls-1" d="M0,431.42c32.34-10.23,55.39-35.34,58.5-64.08,2.07-19.13-5.26-34.55-9.54-41.98-9.16-10.28-23.51-29.04-32.44-56.29-7.89-24.07-8.36-45.05-7.63-58.2,1.04-26.94,16.52-51.01,40.07-62.02,27.55-12.88,61.54-5.7,83.01,18.13l55.34,48.45-17.17,48.87-43.89,1.91c4.67,15.56,17.51,27.37,33.4,30.73,15.86,3.36,32.36-2.22,42.94-14.51v-67l56.29,17.38c3.46,3.53,27.48,28.85,22.9,64.13-2.36,18.16-11.25,30.91-16.22,37.01l20.99,97.48h-56.29l-20.99-75.53-107.82-33.4c-8.05,16.15-6.09,35.14,4.77,47.71,13.56,15.68,38.87,18.93,58.2,5.72,2.4,7.15,5.52,20.56-.95,30.53-10.1,15.55-41.67,19.89-73.47.95l42.94,25.16-132.93-1.16Z"/></svg>