<?xml version="1.0" encoding="UTF-8"?><svg id="Layer_1" xmlns="http://www.w3.org/2000/svg" viewBox="0 0 432 432"><defs><style>.cls-1{fill:#fff;stroke:#000;stroke-miterlimit:10;}</style></defs><path class="cls-1" d="M24.79,432c-12.41-106.56-7.1-190.45,0-246.63,6.1-48.27,14.76-85.74,44.68-112.43,20.06-17.89,41.29-23.46,82.99-34.39,35.46-9.3,39.87-5.84,130.86-16.13,61.33-6.94,74.42-10.21,92.56,0,22.57,12.71,39.09,38.49,41.49,64.01,2.09,22.24-7.8,30.93-22.34,76.6,0,0-8.08,25.37-15.96,64.18-5.64,27.77-9.42,81.29,25.53,165.63l-9.58,39.17h-73.41l-15.96-67.89,25.53-51.07-25.53-134.05-47.88,9.58,19.15,159.59v83.85h-55.86v-160.45l-33.51-127.67-67.03,9.58v62.55l44.68,36.47,15.96,76.53-76.6,12.77,67.03,90.24H24.79Z"/><path class="cls-1" d="M333.47,72.94c-5.84-15.36-52.27-27.42-75.98,0-18.75,21.69-13.98,57.32,0,64.43,22.46,11.42,84.16-42.88,75.98-64.43Z"/></svg>