<?xml version="1.0" encoding="UTF-8"?><svg id="Layer_1" xmlns="http://www.w3.org/2000/svg" viewBox="0 0 432 432"><defs><style>.cls-1{fill:#fff;stroke:#000;stroke-miterlimit:10;}</style></defs><path class="cls-1" d="M38.54,432l35.67-60.36c-10.99-24.17-22.85-48.97-35.67-74.3-9.85-19.47-19.78-38.3-29.72-56.47,2.24-16.02,5.38-41.4,7.43-72.82,3.49-53.51.18-68.68,8.92-87.68,8.75-19.03,30.18-43.15,89.16-57.96h80.25l13.37,26.75c-12.54.32-34.51,2.57-57.96,14.86-12.64,6.63-30.84,16.16-41.61,35.67-21.43,38.8,4.19,85,7.43,90.65,25.13,43.81,72.4,53.51,80.25,54.98,11.11,17.33,26.21,45.55,34.18,83.22,9.45,44.67,4.51,81.99,0,103.46H38.54Z"/><polygon class="cls-1" points="268.88 432 237.67 365.7 237.67 298.82 279.28 249.78 258.48 190.34 216 126.44 239.16 32.82 309.01 0 377.36 49.16 384.79 121.98 347.64 187.37 347.64 234.92 374.39 273.56 404.11 325.57 395.2 393.93 377.36 432 268.88 432"/><polygon class="cls-1" points="293.76 49.6 259.99 105.16 293.76 182.18 338.78 105.16 327.52 49.6 293.76 49.6"/></svg>