<?xml version="1.0" encoding="UTF-8"?>
<svg id="Make2D::Visible::Curves" xmlns="http://www.w3.org/2000/svg" viewBox="0 0 408.98 587.15">
  <defs>
    <style>
      .cls-1 {
        fill: none;
        stroke: #000;
        stroke-linecap: round;
        stroke-linejoin: round;
      }
    </style>
  </defs>
  <line class="cls-1" x1="36.39" y1="492.59" x2="36.39" y2="492.5"/>
  <path class="cls-1" d="M9.91,323.4h8.87"/>
  <path class="cls-1" d="M276.82,411.52v8.28"/>
  <path class="cls-1" d="M351.48,419.28v-7.76"/>
  <path class="cls-1" d="M242.14,263.28v-7.84"/>
  <line class="cls-1" x1="299.05" y1="138.34" x2="299.05" y2="113.03"/>
  <path class="cls-1" d="M18.55,351.11h-8.66"/>
  <path class="cls-1" d="M286.15,9.8h-7.3"/>
  <path class="cls-1" d="M279.08,34.3h7.07"/>
  <line class="cls-1" x1="167.86" y1="263.09" x2="168.4" y2="263.09"/>
  <path class="cls-1" d="M18.82,358.35h.09"/>
  <path class="cls-1" d="M393.09,152.05c0,.05-.01.1-.04.14"/>
  <line class="cls-1" x1="393.05" y1="155.72" x2="393.05" y2="152.19"/>
  <path class="cls-1" d="M362.5,340.42c.1-.05.15-.15.15-.25"/>
  <path class="cls-1" d="M330.06,324.83c.16,0,.28.13.28.28"/>
  <path class="cls-1" d="M362.38,340.45s.09,0,.13-.03"/>
  <path class="cls-1" d="M346.53,367.72c.16,0,.28-.13.28-.28"/>
  <path class="cls-1" d="M355.14,367.44c0,.16.13.28.28.28"/>
  <path class="cls-1" d="M362.66,367.44c0,.16-.13.28-.28.28"/>
  <path class="cls-1" d="M306,367.68s.1.04.15.04"/>
  <line class="cls-1" x1="306" y1="346.06" x2="306" y2="333.6"/>
  <path class="cls-1" d="M306,324.87v.24"/>
  <path class="cls-1" d="M306,367.44v.23h0"/>
  <path class="cls-1" d="M306,333.6v-.15"/>
  <path class="cls-1" d="M306,333.45v-8.34"/>
  <path class="cls-1" d="M306,358.95v.15"/>
  <path class="cls-1" d="M306,359.1v8.34"/>
  <line class="cls-1" x1="306" y1="346.06" x2="306" y2="358.95"/>
  <path class="cls-1" d="M313.7,324.83c.16,0,.28.13.28.28"/>
  <path class="cls-1" d="M330.06,367.72c.16,0,.28-.13.28-.28"/>
  <path class="cls-1" d="M362.66,350.54c0-.16-.13-.28-.28-.28"/>
  <path class="cls-1" d="M306.16,324.83c-.06,0-.1.01-.15.04"/>
  <path class="cls-1" d="M322.31,325.11c0-.16.13-.28.28-.28"/>
  <path class="cls-1" d="M338.67,325.11c0-.16.13-.28.28-.28"/>
  <path class="cls-1" d="M346.53,324.83c.16,0,.28.13.28.28"/>
  <path class="cls-1" d="M355.14,325.11c0-.16.13-.28.28-.28"/>
  <path class="cls-1" d="M362.66,325.11c0-.16-.13-.28-.28-.28"/>
  <path class="cls-1" d="M313.7,367.72c.16,0,.28-.13.28-.28"/>
  <path class="cls-1" d="M322.31,367.44c0,.16.13.28.28.28"/>
  <path class="cls-1" d="M338.67,367.44c0,.16.13.28.28.28"/>
  <line class="cls-1" x1="362.38" y1="350.26" x2="353.53" y2="350.26"/>
  <line class="cls-1" x1="353.53" y1="340.45" x2="353.53" y2="346.06"/>
  <line class="cls-1" x1="353.53" y1="350.26" x2="353.53" y2="346.06"/>
  <line class="cls-1" x1="362.38" y1="340.45" x2="353.53" y2="340.45"/>
  <line class="cls-1" x1="306.16" y1="324.83" x2="313.7" y2="324.83"/>
  <line class="cls-1" x1="322.31" y1="333.32" x2="313.98" y2="333.32"/>
  <line class="cls-1" x1="322.31" y1="325.11" x2="322.31" y2="333.32"/>
  <line class="cls-1" x1="322.59" y1="324.83" x2="330.06" y2="324.83"/>
  <line class="cls-1" x1="313.98" y1="333.32" x2="313.98" y2="325.11"/>
  <line class="cls-1" x1="338.67" y1="333.32" x2="330.35" y2="333.32"/>
  <line class="cls-1" x1="338.67" y1="325.11" x2="338.67" y2="333.32"/>
  <line class="cls-1" x1="338.96" y1="324.83" x2="346.53" y2="324.83"/>
  <line class="cls-1" x1="330.35" y1="333.32" x2="330.35" y2="325.11"/>
  <line class="cls-1" x1="355.14" y1="333.32" x2="346.82" y2="333.32"/>
  <line class="cls-1" x1="355.14" y1="325.11" x2="355.14" y2="333.32"/>
  <line class="cls-1" x1="355.43" y1="324.83" x2="362.38" y2="324.83"/>
  <line class="cls-1" x1="346.82" y1="333.32" x2="346.82" y2="325.11"/>
  <line class="cls-1" x1="362.66" y1="325.11" x2="362.66" y2="340.17"/>
  <line class="cls-1" x1="306.16" y1="367.72" x2="313.7" y2="367.72"/>
  <line class="cls-1" x1="322.31" y1="359.23" x2="313.98" y2="359.23"/>
  <line class="cls-1" x1="322.31" y1="367.44" x2="322.31" y2="359.23"/>
  <line class="cls-1" x1="322.59" y1="367.72" x2="330.06" y2="367.72"/>
  <line class="cls-1" x1="313.98" y1="359.23" x2="313.98" y2="367.44"/>
  <line class="cls-1" x1="338.67" y1="359.23" x2="330.35" y2="359.23"/>
  <line class="cls-1" x1="338.67" y1="367.44" x2="338.67" y2="359.23"/>
  <line class="cls-1" x1="338.96" y1="367.72" x2="346.53" y2="367.72"/>
  <line class="cls-1" x1="330.35" y1="359.23" x2="330.35" y2="367.44"/>
  <path class="cls-1" d="M354.71,359.23h-7.89"/>
  <path class="cls-1" d="M355.14,367.44v-8.14"/>
  <line class="cls-1" x1="355.43" y1="367.72" x2="362.38" y2="367.72"/>
  <line class="cls-1" x1="346.82" y1="359.23" x2="346.82" y2="367.44"/>
  <line class="cls-1" x1="362.66" y1="367.44" x2="362.66" y2="350.54"/>
  <line class="cls-1" x1="276.82" y1="419.72" x2="269.3" y2="419.72"/>
  <line class="cls-1" x1="122.02" y1="576.84" x2="122.02" y2="569.31"/>
  <line class="cls-1" x1="122.02" y1="576.84" x2="122.05" y2="576.84"/>
  <line class="cls-1" x1="122.05" y1="576.84" x2="122.05" y2="578.63"/>
  <line class="cls-1" x1="122.02" y1="420.95" x2="122.02" y2="429.03"/>
  <line class="cls-1" x1="122.05" y1="420.95" x2="122.05" y2="419.72"/>
  <line class="cls-1" x1="122.02" y1="420.95" x2="122.05" y2="420.95"/>
  <line class="cls-1" x1="400.56" y1="412.31" x2="400.56" y2="411.7"/>
  <line class="cls-1" x1="400.52" y1="420.97" x2="400.52" y2="412.31"/>
  <line class="cls-1" x1="400.52" y1="412.31" x2="400.56" y2="412.31"/>
  <polyline class="cls-1" points="113.28 503.65 113.28 499.18 113.28 499.16"/>
  <polyline class="cls-1" points="408.48 503.45 408.48 499.18 408.48 499.16"/>
  <line class="cls-1" x1="113.28" y1="499.16" x2="113.28" y2="494.69"/>
  <line class="cls-1" x1="122.02" y1="429.03" x2="113.28" y2="429.03"/>
  <line class="cls-1" x1="113.28" y1="436.97" x2="113.28" y2="429.03"/>
  <line class="cls-1" x1="122.02" y1="436.97" x2="122.02" y2="445.42"/>
  <line class="cls-1" x1="122.02" y1="445.42" x2="113.28" y2="445.42"/>
  <line class="cls-1" x1="113.28" y1="436.97" x2="122.02" y2="436.97"/>
  <line class="cls-1" x1="113.28" y1="453.41" x2="113.28" y2="445.42"/>
  <line class="cls-1" x1="122.02" y1="453.41" x2="122.02" y2="461.86"/>
  <line class="cls-1" x1="122.02" y1="461.86" x2="113.28" y2="461.86"/>
  <line class="cls-1" x1="113.28" y1="453.41" x2="122.02" y2="453.41"/>
  <line class="cls-1" x1="113.28" y1="469.85" x2="113.28" y2="461.86"/>
  <line class="cls-1" x1="122.02" y1="469.85" x2="122.02" y2="478.3"/>
  <line class="cls-1" x1="122.02" y1="478.3" x2="113.28" y2="478.3"/>
  <line class="cls-1" x1="113.28" y1="469.85" x2="122.02" y2="469.85"/>
  <line class="cls-1" x1="113.28" y1="486.24" x2="113.28" y2="478.3"/>
  <line class="cls-1" x1="122.02" y1="486.24" x2="122.02" y2="494.69"/>
  <line class="cls-1" x1="122.02" y1="494.69" x2="113.28" y2="494.69"/>
  <line class="cls-1" x1="113.28" y1="486.24" x2="122.02" y2="486.24"/>
  <line class="cls-1" x1="408.48" y1="494.89" x2="408.48" y2="499.16"/>
  <line class="cls-1" x1="408.48" y1="494.89" x2="399.91" y2="494.89"/>
  <line class="cls-1" x1="399.91" y1="494.89" x2="399.91" y2="486.44"/>
  <line class="cls-1" x1="399.91" y1="486.44" x2="408.48" y2="486.44"/>
  <line class="cls-1" x1="408.48" y1="478.46" x2="408.48" y2="486.44"/>
  <line class="cls-1" x1="408.48" y1="478.46" x2="399.91" y2="478.46"/>
  <line class="cls-1" x1="399.91" y1="478.46" x2="399.91" y2="470.01"/>
  <line class="cls-1" x1="399.91" y1="470.01" x2="408.48" y2="470.01"/>
  <line class="cls-1" x1="408.48" y1="461.99" x2="408.48" y2="470.01"/>
  <line class="cls-1" x1="408.48" y1="461.99" x2="399.91" y2="461.99"/>
  <line class="cls-1" x1="399.91" y1="461.99" x2="399.91" y2="453.54"/>
  <line class="cls-1" x1="399.91" y1="453.54" x2="408.48" y2="453.54"/>
  <line class="cls-1" x1="408.48" y1="445.61" x2="408.48" y2="453.54"/>
  <line class="cls-1" x1="408.48" y1="445.61" x2="399.91" y2="445.61"/>
  <line class="cls-1" x1="399.91" y1="445.61" x2="399.91" y2="437.16"/>
  <line class="cls-1" x1="399.91" y1="437.16" x2="408.48" y2="437.16"/>
  <line class="cls-1" x1="408.48" y1="429.42" x2="408.48" y2="437.16"/>
  <line class="cls-1" x1="408.48" y1="429.42" x2="399.91" y2="429.42"/>
  <line class="cls-1" x1="399.91" y1="429.42" x2="399.91" y2="420.97"/>
  <line class="cls-1" x1="399.91" y1="420.97" x2="400.52" y2="420.97"/>
  <line class="cls-1" x1="392.1" y1="411.7" x2="400.56" y2="411.7"/>
  <line class="cls-1" x1="384.16" y1="419.72" x2="384.16" y2="411.7"/>
  <line class="cls-1" x1="392.1" y1="411.7" x2="392.1" y2="419.72"/>
  <line class="cls-1" x1="392.1" y1="419.72" x2="384.16" y2="419.72"/>
  <line class="cls-1" x1="359.34" y1="411.7" x2="367.81" y2="411.7"/>
  <line class="cls-1" x1="359.34" y1="411.7" x2="359.34" y2="419.72"/>
  <line class="cls-1" x1="359.34" y1="419.72" x2="351.48" y2="419.72"/>
  <line class="cls-1" x1="375.75" y1="411.7" x2="384.16" y2="411.7"/>
  <line class="cls-1" x1="367.81" y1="419.72" x2="367.81" y2="411.7"/>
  <line class="cls-1" x1="375.75" y1="411.7" x2="375.75" y2="419.72"/>
  <line class="cls-1" x1="375.75" y1="419.72" x2="367.81" y2="419.72"/>
  <line class="cls-1" x1="269.3" y1="419.72" x2="269.3" y2="411.7"/>
  <line class="cls-1" x1="260.83" y1="411.7" x2="269.3" y2="411.7"/>
  <line class="cls-1" x1="252.89" y1="419.72" x2="252.89" y2="411.7"/>
  <line class="cls-1" x1="260.83" y1="411.7" x2="260.83" y2="419.72"/>
  <line class="cls-1" x1="260.83" y1="419.72" x2="252.89" y2="419.72"/>
  <line class="cls-1" x1="244.47" y1="411.7" x2="252.89" y2="411.7"/>
  <line class="cls-1" x1="236.53" y1="419.72" x2="236.53" y2="411.7"/>
  <line class="cls-1" x1="244.47" y1="411.7" x2="244.47" y2="419.72"/>
  <line class="cls-1" x1="244.47" y1="419.72" x2="236.53" y2="419.72"/>
  <line class="cls-1" x1="228.06" y1="411.7" x2="236.53" y2="411.7"/>
  <line class="cls-1" x1="220.13" y1="419.72" x2="220.13" y2="411.7"/>
  <line class="cls-1" x1="228.06" y1="411.7" x2="228.06" y2="419.72"/>
  <line class="cls-1" x1="228.06" y1="419.72" x2="220.13" y2="419.72"/>
  <line class="cls-1" x1="211.7" y1="411.7" x2="220.13" y2="411.7"/>
  <line class="cls-1" x1="203.76" y1="419.72" x2="203.76" y2="411.7"/>
  <line class="cls-1" x1="211.7" y1="411.7" x2="211.7" y2="419.72"/>
  <line class="cls-1" x1="211.7" y1="419.72" x2="203.76" y2="419.72"/>
  <line class="cls-1" x1="195.29" y1="411.7" x2="203.76" y2="411.7"/>
  <line class="cls-1" x1="187.36" y1="419.72" x2="187.36" y2="411.7"/>
  <line class="cls-1" x1="195.29" y1="411.7" x2="195.29" y2="419.72"/>
  <line class="cls-1" x1="195.29" y1="419.72" x2="187.36" y2="419.72"/>
  <line class="cls-1" x1="178.93" y1="411.7" x2="187.36" y2="411.7"/>
  <line class="cls-1" x1="171" y1="419.72" x2="171" y2="411.7"/>
  <line class="cls-1" x1="178.93" y1="411.7" x2="178.93" y2="419.72"/>
  <line class="cls-1" x1="178.93" y1="419.72" x2="171" y2="419.72"/>
  <line class="cls-1" x1="162.53" y1="411.7" x2="171" y2="411.7"/>
  <line class="cls-1" x1="154.59" y1="419.72" x2="154.59" y2="411.7"/>
  <line class="cls-1" x1="162.53" y1="411.7" x2="162.53" y2="419.72"/>
  <line class="cls-1" x1="162.53" y1="419.72" x2="154.59" y2="419.72"/>
  <line class="cls-1" x1="146.16" y1="411.7" x2="154.59" y2="411.7"/>
  <line class="cls-1" x1="138.23" y1="419.72" x2="138.23" y2="411.7"/>
  <line class="cls-1" x1="146.16" y1="411.7" x2="146.16" y2="419.72"/>
  <line class="cls-1" x1="146.16" y1="419.72" x2="138.23" y2="419.72"/>
  <line class="cls-1" x1="129.76" y1="411.7" x2="138.23" y2="411.7"/>
  <line class="cls-1" x1="129.76" y1="411.7" x2="129.76" y2="419.72"/>
  <line class="cls-1" x1="129.76" y1="419.72" x2="122.05" y2="419.72"/>
  <line class="cls-1" x1="122.02" y1="569.31" x2="113.28" y2="569.31"/>
  <line class="cls-1" x1="113.28" y1="561.38" x2="113.28" y2="569.31"/>
  <line class="cls-1" x1="122.02" y1="561.38" x2="122.02" y2="552.93"/>
  <line class="cls-1" x1="122.02" y1="552.93" x2="113.28" y2="552.93"/>
  <line class="cls-1" x1="113.28" y1="561.38" x2="122.02" y2="561.38"/>
  <line class="cls-1" x1="113.28" y1="544.93" x2="113.28" y2="552.93"/>
  <line class="cls-1" x1="122.02" y1="544.93" x2="122.02" y2="536.48"/>
  <line class="cls-1" x1="122.02" y1="536.48" x2="113.28" y2="536.48"/>
  <line class="cls-1" x1="113.28" y1="544.93" x2="122.02" y2="544.93"/>
  <line class="cls-1" x1="113.28" y1="528.49" x2="113.28" y2="536.48"/>
  <line class="cls-1" x1="122.02" y1="528.49" x2="122.02" y2="520.04"/>
  <line class="cls-1" x1="122.02" y1="520.04" x2="113.28" y2="520.04"/>
  <line class="cls-1" x1="113.28" y1="528.49" x2="122.02" y2="528.49"/>
  <line class="cls-1" x1="113.28" y1="512.1" x2="113.28" y2="520.04"/>
  <line class="cls-1" x1="122.02" y1="512.1" x2="122.02" y2="503.65"/>
  <line class="cls-1" x1="122.02" y1="503.65" x2="113.28" y2="503.65"/>
  <line class="cls-1" x1="113.28" y1="512.1" x2="122.02" y2="512.1"/>
  <line class="cls-1" x1="408.48" y1="503.45" x2="399.91" y2="503.45"/>
  <line class="cls-1" x1="399.91" y1="503.45" x2="399.91" y2="511.9"/>
  <line class="cls-1" x1="399.91" y1="511.9" x2="408.48" y2="511.9"/>
  <line class="cls-1" x1="408.48" y1="519.89" x2="408.48" y2="511.9"/>
  <line class="cls-1" x1="408.48" y1="519.89" x2="399.91" y2="519.89"/>
  <line class="cls-1" x1="399.91" y1="519.89" x2="399.91" y2="528.34"/>
  <line class="cls-1" x1="399.91" y1="528.34" x2="408.48" y2="528.34"/>
  <line class="cls-1" x1="408.48" y1="536.35" x2="408.48" y2="528.34"/>
  <line class="cls-1" x1="408.48" y1="536.35" x2="399.91" y2="536.35"/>
  <line class="cls-1" x1="399.91" y1="536.35" x2="399.91" y2="544.8"/>
  <line class="cls-1" x1="399.91" y1="544.8" x2="408.48" y2="544.8"/>
  <line class="cls-1" x1="408.48" y1="552.73" x2="408.48" y2="544.8"/>
  <line class="cls-1" x1="408.48" y1="552.73" x2="399.91" y2="552.73"/>
  <line class="cls-1" x1="399.91" y1="552.73" x2="399.91" y2="561.18"/>
  <line class="cls-1" x1="399.91" y1="561.18" x2="408.48" y2="561.18"/>
  <line class="cls-1" x1="408.48" y1="568.92" x2="408.48" y2="561.18"/>
  <line class="cls-1" x1="408.48" y1="568.92" x2="399.91" y2="568.92"/>
  <line class="cls-1" x1="399.91" y1="568.92" x2="399.91" y2="577.38"/>
  <line class="cls-1" x1="399.91" y1="577.38" x2="408.48" y2="577.38"/>
  <line class="cls-1" x1="392.1" y1="586.65" x2="400.56" y2="586.65"/>
  <line class="cls-1" x1="384.16" y1="578.63" x2="384.16" y2="586.65"/>
  <line class="cls-1" x1="392.1" y1="586.65" x2="392.1" y2="578.63"/>
  <line class="cls-1" x1="392.1" y1="578.63" x2="384.16" y2="578.63"/>
  <line class="cls-1" x1="408.48" y1="578.63" x2="408.48" y2="577.38"/>
  <line class="cls-1" x1="400.56" y1="578.63" x2="400.56" y2="586.65"/>
  <line class="cls-1" x1="408.48" y1="578.63" x2="400.56" y2="578.63"/>
  <line class="cls-1" x1="359.34" y1="586.65" x2="367.81" y2="586.65"/>
  <line class="cls-1" x1="351.41" y1="578.63" x2="351.41" y2="586.65"/>
  <line class="cls-1" x1="359.34" y1="586.65" x2="359.34" y2="578.63"/>
  <line class="cls-1" x1="359.34" y1="578.63" x2="351.41" y2="578.63"/>
  <line class="cls-1" x1="375.75" y1="586.65" x2="384.16" y2="586.65"/>
  <line class="cls-1" x1="367.81" y1="578.63" x2="367.81" y2="586.65"/>
  <line class="cls-1" x1="375.75" y1="586.65" x2="375.75" y2="578.63"/>
  <line class="cls-1" x1="375.75" y1="578.63" x2="367.81" y2="578.63"/>
  <line class="cls-1" x1="326.49" y1="586.65" x2="334.96" y2="586.65"/>
  <line class="cls-1" x1="318.56" y1="578.63" x2="318.56" y2="586.65"/>
  <line class="cls-1" x1="326.49" y1="586.65" x2="326.49" y2="578.63"/>
  <line class="cls-1" x1="326.49" y1="578.63" x2="318.56" y2="578.63"/>
  <line class="cls-1" x1="342.9" y1="586.65" x2="351.41" y2="586.65"/>
  <line class="cls-1" x1="334.96" y1="578.63" x2="334.96" y2="586.65"/>
  <line class="cls-1" x1="342.9" y1="586.65" x2="342.9" y2="578.63"/>
  <line class="cls-1" x1="342.9" y1="578.63" x2="334.96" y2="578.63"/>
  <line class="cls-1" x1="293.64" y1="586.65" x2="302.11" y2="586.65"/>
  <line class="cls-1" x1="285.7" y1="578.63" x2="285.7" y2="586.65"/>
  <line class="cls-1" x1="293.64" y1="586.65" x2="293.64" y2="578.63"/>
  <line class="cls-1" x1="293.64" y1="578.63" x2="285.7" y2="578.63"/>
  <line class="cls-1" x1="310.05" y1="586.65" x2="318.56" y2="586.65"/>
  <line class="cls-1" x1="302.11" y1="578.63" x2="302.11" y2="586.65"/>
  <line class="cls-1" x1="310.05" y1="586.65" x2="310.05" y2="578.63"/>
  <line class="cls-1" x1="310.05" y1="578.63" x2="302.11" y2="578.63"/>
  <line class="cls-1" x1="277.24" y1="586.65" x2="285.7" y2="586.65"/>
  <line class="cls-1" x1="269.3" y1="578.63" x2="269.3" y2="586.65"/>
  <line class="cls-1" x1="277.24" y1="586.65" x2="277.24" y2="578.63"/>
  <line class="cls-1" x1="277.24" y1="578.63" x2="269.3" y2="578.63"/>
  <line class="cls-1" x1="260.83" y1="586.65" x2="269.3" y2="586.65"/>
  <line class="cls-1" x1="252.89" y1="578.63" x2="252.89" y2="586.65"/>
  <line class="cls-1" x1="260.83" y1="586.65" x2="260.83" y2="578.63"/>
  <line class="cls-1" x1="260.83" y1="578.63" x2="252.89" y2="578.63"/>
  <line class="cls-1" x1="244.47" y1="586.65" x2="252.89" y2="586.65"/>
  <line class="cls-1" x1="236.53" y1="578.63" x2="236.53" y2="586.65"/>
  <line class="cls-1" x1="244.47" y1="586.65" x2="244.47" y2="578.63"/>
  <line class="cls-1" x1="244.47" y1="578.63" x2="236.53" y2="578.63"/>
  <line class="cls-1" x1="228.06" y1="586.65" x2="236.53" y2="586.65"/>
  <line class="cls-1" x1="220.13" y1="578.63" x2="220.13" y2="586.65"/>
  <line class="cls-1" x1="228.06" y1="586.65" x2="228.06" y2="578.63"/>
  <line class="cls-1" x1="228.06" y1="578.63" x2="220.13" y2="578.63"/>
  <line class="cls-1" x1="211.7" y1="586.65" x2="220.13" y2="586.65"/>
  <line class="cls-1" x1="203.76" y1="578.63" x2="203.76" y2="586.65"/>
  <line class="cls-1" x1="211.7" y1="586.65" x2="211.7" y2="578.63"/>
  <line class="cls-1" x1="211.7" y1="578.63" x2="203.76" y2="578.63"/>
  <line class="cls-1" x1="195.29" y1="586.65" x2="203.76" y2="586.65"/>
  <line class="cls-1" x1="187.36" y1="578.63" x2="187.36" y2="586.65"/>
  <line class="cls-1" x1="195.29" y1="586.65" x2="195.29" y2="578.63"/>
  <line class="cls-1" x1="195.29" y1="578.63" x2="187.36" y2="578.63"/>
  <line class="cls-1" x1="178.93" y1="586.65" x2="187.36" y2="586.65"/>
  <line class="cls-1" x1="171" y1="578.63" x2="171" y2="586.65"/>
  <line class="cls-1" x1="178.93" y1="586.65" x2="178.93" y2="578.63"/>
  <line class="cls-1" x1="178.93" y1="578.63" x2="171" y2="578.63"/>
  <line class="cls-1" x1="162.53" y1="586.65" x2="171" y2="586.65"/>
  <line class="cls-1" x1="154.59" y1="578.63" x2="154.59" y2="586.65"/>
  <line class="cls-1" x1="162.53" y1="586.65" x2="162.53" y2="578.63"/>
  <line class="cls-1" x1="162.53" y1="578.63" x2="154.59" y2="578.63"/>
  <line class="cls-1" x1="146.16" y1="586.65" x2="154.59" y2="586.65"/>
  <line class="cls-1" x1="138.23" y1="578.63" x2="138.23" y2="586.65"/>
  <line class="cls-1" x1="146.16" y1="586.65" x2="146.16" y2="578.63"/>
  <line class="cls-1" x1="146.16" y1="578.63" x2="138.23" y2="578.63"/>
  <line class="cls-1" x1="129.76" y1="586.65" x2="138.23" y2="586.65"/>
  <line class="cls-1" x1="129.76" y1="586.65" x2="129.76" y2="578.63"/>
  <line class="cls-1" x1="129.76" y1="578.63" x2="122.05" y2="578.63"/>
  <line class="cls-1" x1="351.48" y1="411.52" x2="276.82" y2="411.52"/>
  <path class="cls-1" d="M393.32,36.15c-.05-.09-.15-.15-.25-.15"/>
  <path class="cls-1" d="M393.35,36.27s0-.09-.03-.13"/>
  <path class="cls-1" d="M385.1,28.79c0-.16-.13-.28-.28-.28"/>
  <path class="cls-1" d="M357.51,46.22c-.16,0-.28-.13-.28-.28"/>
  <path class="cls-1" d="M401.51,46.22c.16,0,.28-.13.28-.28"/>
  <path class="cls-1" d="M366.12,54.07h-.25s-.06,0-.04,0"/>
  <path class="cls-1" d="M392.9,54.07h.25s.02,0,.04,0"/>
  <line class="cls-1" x1="366.12" y1="54.07" x2="379.38" y2="54.07"/>
  <line class="cls-1" x1="392.9" y1="54.07" x2="379.38" y2="54.07"/>
  <path class="cls-1" d="M365.95,35.99c-.16,0-.28.13-.28.28"/>
  <path class="cls-1" d="M374.62,28.79c0-.16.13-.28.28-.28"/>
  <path class="cls-1" d="M357.23,38.18c0-.16.13-.28.28-.28"/>
  <path class="cls-1" d="M401.79,38.18c0-.16-.13-.28-.28-.28"/>
  <line class="cls-1" x1="374.62" y1="35.99" x2="365.95" y2="35.99"/>
  <line class="cls-1" x1="374.62" y1="28.79" x2="374.62" y2="35.99"/>
  <line class="cls-1" x1="385.1" y1="35.99" x2="393.07" y2="35.99"/>
  <line class="cls-1" x1="385.1" y1="28.79" x2="385.1" y2="35.99"/>
  <line class="cls-1" x1="365.84" y1="46.22" x2="365.84" y2="54.07"/>
  <line class="cls-1" x1="357.51" y1="46.22" x2="365.84" y2="46.22"/>
  <line class="cls-1" x1="357.23" y1="38.18" x2="357.23" y2="45.93"/>
  <line class="cls-1" x1="365.67" y1="36.27" x2="365.67" y2="37.9"/>
  <line class="cls-1" x1="365.67" y1="37.9" x2="358.01" y2="37.9"/>
  <line class="cls-1" x1="358.01" y1="37.9" x2="357.51" y2="37.9"/>
  <line class="cls-1" x1="379.38" y1="28.51" x2="374.91" y2="28.51"/>
  <line class="cls-1" x1="393.18" y1="46.22" x2="393.18" y2="54.07"/>
  <line class="cls-1" x1="401.51" y1="46.22" x2="393.18" y2="46.22"/>
  <line class="cls-1" x1="401.79" y1="38.18" x2="401.79" y2="45.93"/>
  <line class="cls-1" x1="393.35" y1="36.27" x2="393.35" y2="37.9"/>
  <line class="cls-1" x1="393.35" y1="37.9" x2="401.01" y2="37.9"/>
  <line class="cls-1" x1="401.01" y1="37.9" x2="401.51" y2="37.9"/>
  <line class="cls-1" x1="384.81" y1="28.51" x2="379.38" y2="28.51"/>
  <line class="cls-1" x1="290.73" y1="253.81" x2="290.73" y2="263.09"/>
  <line class="cls-1" x1="3.9" y1="113.03" x2="3.9" y2="105.47"/>
  <line class="cls-1" x1="299.05" y1="113.6" x2="299.1" y2="113.6"/>
  <line class="cls-1" x1="266.8" y1="240.07" x2="266.8" y2="175.6"/>
  <line class="cls-1" x1="71.78" y1="240.07" x2="266.8" y2="240.07"/>
  <line class="cls-1" x1="71.78" y1="175.6" x2="71.78" y2="240.07"/>
  <line class="cls-1" x1="71.78" y1="112.09" x2="266.8" y2="112.09"/>
  <line class="cls-1" x1="266.8" y1="112.09" x2="266.8" y2="175.6"/>
  <line class="cls-1" x1="71.78" y1="175.6" x2="71.78" y2="112.09"/>
  <line class="cls-1" x1="12.64" y1="253.28" x2="12.64" y2="245.75"/>
  <line class="cls-1" x1="12.64" y1="253.28" x2="12.67" y2="253.28"/>
  <line class="cls-1" x1="12.67" y1="253.28" x2="12.67" y2="255.07"/>
  <line class="cls-1" x1="12.64" y1="97.39" x2="12.64" y2="105.47"/>
  <line class="cls-1" x1="12.67" y1="97.39" x2="12.67" y2="96.15"/>
  <line class="cls-1" x1="12.64" y1="97.39" x2="12.67" y2="97.39"/>
  <line class="cls-1" x1="291.19" y1="88.75" x2="291.19" y2="88.14"/>
  <line class="cls-1" x1="291.14" y1="97.41" x2="291.14" y2="88.75"/>
  <line class="cls-1" x1="291.14" y1="88.75" x2="291.19" y2="88.75"/>
  <polyline class="cls-1" points="3.9 180.09 3.9 175.62 3.9 175.6"/>
  <polyline class="cls-1" points="299.1 179.89 299.1 175.62 299.1 175.6"/>
  <line class="cls-1" x1="3.9" y1="175.6" x2="3.9" y2="171.13"/>
  <line class="cls-1" x1="12.64" y1="105.47" x2="3.9" y2="105.47"/>
  <line class="cls-1" x1="3.9" y1="146.29" x2="3.9" y2="138.34"/>
  <line class="cls-1" x1="12.64" y1="146.29" x2="12.64" y2="154.74"/>
  <line class="cls-1" x1="12.64" y1="154.74" x2="3.9" y2="154.74"/>
  <line class="cls-1" x1="3.9" y1="146.29" x2="12.64" y2="146.29"/>
  <line class="cls-1" x1="3.9" y1="162.68" x2="3.9" y2="154.74"/>
  <line class="cls-1" x1="12.64" y1="162.68" x2="12.64" y2="171.13"/>
  <line class="cls-1" x1="12.64" y1="171.13" x2="3.9" y2="171.13"/>
  <line class="cls-1" x1="3.9" y1="162.68" x2="12.64" y2="162.68"/>
  <line class="cls-1" x1="299.1" y1="171.33" x2="299.1" y2="175.6"/>
  <line class="cls-1" x1="299.1" y1="171.33" x2="290.54" y2="171.33"/>
  <line class="cls-1" x1="290.54" y1="171.33" x2="290.54" y2="162.88"/>
  <line class="cls-1" x1="290.54" y1="162.88" x2="299.1" y2="162.88"/>
  <line class="cls-1" x1="299.1" y1="154.9" x2="299.1" y2="162.88"/>
  <line class="cls-1" x1="299.1" y1="154.9" x2="290.54" y2="154.9"/>
  <line class="cls-1" x1="290.54" y1="154.9" x2="290.54" y2="146.45"/>
  <line class="cls-1" x1="290.54" y1="146.45" x2="299.1" y2="146.45"/>
  <line class="cls-1" x1="299.1" y1="138.43" x2="299.1" y2="146.45"/>
  <line class="cls-1" x1="299.1" y1="105.86" x2="299.1" y2="113.6"/>
  <line class="cls-1" x1="299.1" y1="105.86" x2="290.54" y2="105.86"/>
  <line class="cls-1" x1="290.54" y1="105.86" x2="290.54" y2="97.41"/>
  <line class="cls-1" x1="290.54" y1="97.41" x2="291.14" y2="97.41"/>
  <line class="cls-1" x1="282.72" y1="88.14" x2="291.19" y2="88.14"/>
  <line class="cls-1" x1="274.78" y1="96.15" x2="274.78" y2="88.14"/>
  <line class="cls-1" x1="282.72" y1="88.14" x2="282.72" y2="96.15"/>
  <line class="cls-1" x1="282.72" y1="96.15" x2="274.78" y2="96.15"/>
  <line class="cls-1" x1="249.97" y1="88.14" x2="258.43" y2="88.14"/>
  <line class="cls-1" x1="242.03" y1="96.15" x2="242.03" y2="88.14"/>
  <line class="cls-1" x1="249.97" y1="88.14" x2="249.97" y2="96.15"/>
  <line class="cls-1" x1="249.97" y1="96.15" x2="242.03" y2="96.15"/>
  <line class="cls-1" x1="266.37" y1="88.14" x2="274.78" y2="88.14"/>
  <line class="cls-1" x1="258.43" y1="96.15" x2="258.43" y2="88.14"/>
  <line class="cls-1" x1="266.37" y1="88.14" x2="266.37" y2="96.15"/>
  <line class="cls-1" x1="266.37" y1="96.15" x2="258.43" y2="96.15"/>
  <line class="cls-1" x1="217.11" y1="88.14" x2="225.58" y2="88.14"/>
  <line class="cls-1" x1="209.18" y1="96.15" x2="209.18" y2="88.14"/>
  <line class="cls-1" x1="217.11" y1="88.14" x2="217.11" y2="96.15"/>
  <line class="cls-1" x1="217.11" y1="96.15" x2="209.18" y2="96.15"/>
  <line class="cls-1" x1="233.52" y1="88.14" x2="242.03" y2="88.14"/>
  <line class="cls-1" x1="225.58" y1="96.15" x2="225.58" y2="88.14"/>
  <line class="cls-1" x1="233.52" y1="88.14" x2="233.52" y2="96.15"/>
  <line class="cls-1" x1="233.52" y1="96.15" x2="225.58" y2="96.15"/>
  <line class="cls-1" x1="184.26" y1="88.14" x2="192.73" y2="88.14"/>
  <line class="cls-1" x1="176.33" y1="96.15" x2="176.33" y2="88.14"/>
  <line class="cls-1" x1="184.26" y1="88.14" x2="184.26" y2="96.15"/>
  <line class="cls-1" x1="184.26" y1="96.15" x2="176.33" y2="96.15"/>
  <line class="cls-1" x1="200.67" y1="88.14" x2="209.18" y2="88.14"/>
  <line class="cls-1" x1="192.73" y1="96.15" x2="192.73" y2="88.14"/>
  <line class="cls-1" x1="200.67" y1="88.14" x2="200.67" y2="96.15"/>
  <line class="cls-1" x1="200.67" y1="96.15" x2="192.73" y2="96.15"/>
  <line class="cls-1" x1="167.86" y1="88.14" x2="176.33" y2="88.14"/>
  <line class="cls-1" x1="159.92" y1="96.15" x2="159.92" y2="88.14"/>
  <line class="cls-1" x1="167.86" y1="88.14" x2="167.86" y2="96.15"/>
  <line class="cls-1" x1="167.86" y1="96.15" x2="159.92" y2="96.15"/>
  <line class="cls-1" x1="151.45" y1="88.14" x2="159.92" y2="88.14"/>
  <line class="cls-1" x1="143.52" y1="96.15" x2="143.52" y2="88.14"/>
  <line class="cls-1" x1="151.45" y1="88.14" x2="151.45" y2="96.15"/>
  <line class="cls-1" x1="151.45" y1="96.15" x2="143.52" y2="96.15"/>
  <line class="cls-1" x1="135.09" y1="88.14" x2="143.52" y2="88.14"/>
  <line class="cls-1" x1="127.15" y1="96.15" x2="127.15" y2="88.14"/>
  <line class="cls-1" x1="135.09" y1="88.14" x2="135.09" y2="96.15"/>
  <line class="cls-1" x1="135.09" y1="96.15" x2="127.15" y2="96.15"/>
  <line class="cls-1" x1="118.68" y1="88.14" x2="127.15" y2="88.14"/>
  <line class="cls-1" x1="110.75" y1="96.15" x2="110.75" y2="88.14"/>
  <line class="cls-1" x1="118.68" y1="88.14" x2="118.68" y2="96.15"/>
  <line class="cls-1" x1="118.68" y1="96.15" x2="110.75" y2="96.15"/>
  <line class="cls-1" x1="102.32" y1="88.14" x2="110.75" y2="88.14"/>
  <line class="cls-1" x1="94.39" y1="96.15" x2="94.39" y2="88.14"/>
  <line class="cls-1" x1="102.32" y1="88.14" x2="102.32" y2="96.15"/>
  <line class="cls-1" x1="102.32" y1="96.15" x2="94.39" y2="96.15"/>
  <line class="cls-1" x1="85.92" y1="88.14" x2="94.39" y2="88.14"/>
  <line class="cls-1" x1="77.98" y1="96.15" x2="77.98" y2="88.14"/>
  <line class="cls-1" x1="85.92" y1="88.14" x2="85.92" y2="96.15"/>
  <line class="cls-1" x1="85.92" y1="96.15" x2="77.98" y2="96.15"/>
  <line class="cls-1" x1="69.55" y1="88.14" x2="77.98" y2="88.14"/>
  <line class="cls-1" x1="61.62" y1="96.15" x2="61.62" y2="88.14"/>
  <line class="cls-1" x1="69.55" y1="88.14" x2="69.55" y2="96.15"/>
  <line class="cls-1" x1="69.55" y1="96.15" x2="61.62" y2="96.15"/>
  <line class="cls-1" x1="53.15" y1="88.14" x2="61.62" y2="88.14"/>
  <line class="cls-1" x1="45.21" y1="96.15" x2="45.21" y2="88.14"/>
  <line class="cls-1" x1="53.15" y1="88.14" x2="53.15" y2="96.15"/>
  <line class="cls-1" x1="53.15" y1="96.15" x2="45.21" y2="96.15"/>
  <line class="cls-1" x1="36.78" y1="88.14" x2="45.21" y2="88.14"/>
  <line class="cls-1" x1="28.85" y1="96.15" x2="28.85" y2="88.14"/>
  <line class="cls-1" x1="36.78" y1="88.14" x2="36.78" y2="96.15"/>
  <line class="cls-1" x1="36.78" y1="96.15" x2="28.85" y2="96.15"/>
  <line class="cls-1" x1="20.38" y1="88.14" x2="28.85" y2="88.14"/>
  <line class="cls-1" x1="20.38" y1="88.14" x2="20.38" y2="96.15"/>
  <line class="cls-1" x1="20.38" y1="96.15" x2="12.67" y2="96.15"/>
  <line class="cls-1" x1="12.64" y1="245.75" x2="3.9" y2="245.75"/>
  <line class="cls-1" x1="3.9" y1="237.82" x2="3.9" y2="245.75"/>
  <line class="cls-1" x1="12.64" y1="237.82" x2="12.64" y2="229.36"/>
  <line class="cls-1" x1="12.64" y1="229.36" x2="3.9" y2="229.36"/>
  <line class="cls-1" x1="3.9" y1="237.82" x2="12.64" y2="237.82"/>
  <line class="cls-1" x1="3.9" y1="221.37" x2="3.9" y2="229.36"/>
  <line class="cls-1" x1="12.64" y1="221.37" x2="12.64" y2="212.92"/>
  <line class="cls-1" x1="12.64" y1="212.92" x2="3.9" y2="212.92"/>
  <line class="cls-1" x1="3.9" y1="221.37" x2="12.64" y2="221.37"/>
  <line class="cls-1" x1="3.9" y1="204.93" x2="3.9" y2="212.92"/>
  <line class="cls-1" x1="12.64" y1="204.93" x2="12.64" y2="196.48"/>
  <line class="cls-1" x1="12.64" y1="196.48" x2="3.9" y2="196.48"/>
  <line class="cls-1" x1="3.9" y1="204.93" x2="12.64" y2="204.93"/>
  <line class="cls-1" x1="3.9" y1="188.54" x2="3.9" y2="196.48"/>
  <line class="cls-1" x1="12.64" y1="188.54" x2="12.64" y2="180.09"/>
  <line class="cls-1" x1="12.64" y1="180.09" x2="3.9" y2="180.09"/>
  <line class="cls-1" x1="3.9" y1="188.54" x2="12.64" y2="188.54"/>
  <line class="cls-1" x1="299.1" y1="179.89" x2="290.54" y2="179.89"/>
  <line class="cls-1" x1="290.54" y1="179.89" x2="290.54" y2="188.34"/>
  <line class="cls-1" x1="290.54" y1="188.34" x2="299.1" y2="188.34"/>
  <line class="cls-1" x1="299.1" y1="196.32" x2="299.1" y2="188.34"/>
  <line class="cls-1" x1="299.1" y1="196.32" x2="290.54" y2="196.32"/>
  <line class="cls-1" x1="290.54" y1="196.32" x2="290.54" y2="204.78"/>
  <line class="cls-1" x1="290.54" y1="204.78" x2="299.1" y2="204.78"/>
  <line class="cls-1" x1="299.1" y1="212.79" x2="299.1" y2="204.78"/>
  <line class="cls-1" x1="299.1" y1="212.79" x2="290.54" y2="212.79"/>
  <line class="cls-1" x1="290.54" y1="212.79" x2="290.54" y2="221.24"/>
  <line class="cls-1" x1="290.54" y1="221.24" x2="299.1" y2="221.24"/>
  <line class="cls-1" x1="299.1" y1="229.17" x2="299.1" y2="221.24"/>
  <line class="cls-1" x1="299.1" y1="229.17" x2="290.54" y2="229.17"/>
  <line class="cls-1" x1="290.54" y1="229.17" x2="290.54" y2="237.62"/>
  <line class="cls-1" x1="290.54" y1="237.62" x2="299.1" y2="237.62"/>
  <line class="cls-1" x1="299.1" y1="245.36" x2="299.1" y2="237.62"/>
  <line class="cls-1" x1="299.1" y1="245.36" x2="290.54" y2="245.36"/>
  <line class="cls-1" x1="290.54" y1="245.36" x2="290.54" y2="253.81"/>
  <line class="cls-1" x1="290.54" y1="253.81" x2="290.73" y2="253.81"/>
  <line class="cls-1" x1="282.72" y1="263.09" x2="290.73" y2="263.09"/>
  <line class="cls-1" x1="274.78" y1="255.07" x2="274.78" y2="263.09"/>
  <line class="cls-1" x1="282.72" y1="263.09" x2="282.72" y2="255.07"/>
  <line class="cls-1" x1="282.72" y1="255.07" x2="274.78" y2="255.07"/>
  <line class="cls-1" x1="249.97" y1="263.09" x2="258.43" y2="263.09"/>
  <line class="cls-1" x1="249.97" y1="263.09" x2="249.97" y2="255.07"/>
  <line class="cls-1" x1="249.97" y1="255.07" x2="242.14" y2="255.07"/>
  <line class="cls-1" x1="266.37" y1="263.09" x2="274.78" y2="263.09"/>
  <line class="cls-1" x1="258.43" y1="255.07" x2="258.43" y2="263.09"/>
  <line class="cls-1" x1="266.37" y1="263.09" x2="266.37" y2="255.07"/>
  <line class="cls-1" x1="266.37" y1="255.07" x2="258.43" y2="255.07"/>
  <line class="cls-1" x1="159.92" y1="255.07" x2="159.92" y2="263.09"/>
  <line class="cls-1" x1="167.86" y1="263.09" x2="167.86" y2="255.07"/>
  <line class="cls-1" x1="167.86" y1="255.07" x2="159.92" y2="255.07"/>
  <line class="cls-1" x1="151.45" y1="263.09" x2="159.92" y2="263.09"/>
  <line class="cls-1" x1="143.52" y1="255.07" x2="143.52" y2="263.09"/>
  <line class="cls-1" x1="151.45" y1="263.09" x2="151.45" y2="255.07"/>
  <line class="cls-1" x1="151.45" y1="255.07" x2="143.52" y2="255.07"/>
  <line class="cls-1" x1="135.09" y1="263.09" x2="143.52" y2="263.09"/>
  <line class="cls-1" x1="127.15" y1="255.07" x2="127.15" y2="263.09"/>
  <line class="cls-1" x1="135.09" y1="263.09" x2="135.09" y2="255.07"/>
  <line class="cls-1" x1="135.09" y1="255.07" x2="127.15" y2="255.07"/>
  <line class="cls-1" x1="118.68" y1="263.09" x2="127.15" y2="263.09"/>
  <line class="cls-1" x1="110.75" y1="255.07" x2="110.75" y2="263.09"/>
  <line class="cls-1" x1="118.68" y1="263.09" x2="118.68" y2="255.07"/>
  <line class="cls-1" x1="118.68" y1="255.07" x2="110.75" y2="255.07"/>
  <line class="cls-1" x1="102.32" y1="263.09" x2="110.75" y2="263.09"/>
  <line class="cls-1" x1="94.39" y1="255.07" x2="94.39" y2="263.09"/>
  <line class="cls-1" x1="102.32" y1="263.09" x2="102.32" y2="255.07"/>
  <line class="cls-1" x1="102.32" y1="255.07" x2="94.39" y2="255.07"/>
  <line class="cls-1" x1="85.92" y1="263.09" x2="94.39" y2="263.09"/>
  <line class="cls-1" x1="77.98" y1="255.07" x2="77.98" y2="263.09"/>
  <line class="cls-1" x1="85.92" y1="263.09" x2="85.92" y2="255.07"/>
  <line class="cls-1" x1="85.92" y1="255.07" x2="77.98" y2="255.07"/>
  <line class="cls-1" x1="69.55" y1="263.09" x2="77.98" y2="263.09"/>
  <line class="cls-1" x1="61.62" y1="255.07" x2="61.62" y2="263.09"/>
  <line class="cls-1" x1="69.55" y1="263.09" x2="69.55" y2="255.07"/>
  <line class="cls-1" x1="69.55" y1="255.07" x2="61.62" y2="255.07"/>
  <line class="cls-1" x1="53.15" y1="263.09" x2="61.62" y2="263.09"/>
  <line class="cls-1" x1="45.21" y1="255.07" x2="45.21" y2="263.09"/>
  <line class="cls-1" x1="53.15" y1="263.09" x2="53.15" y2="255.07"/>
  <line class="cls-1" x1="53.15" y1="255.07" x2="45.21" y2="255.07"/>
  <line class="cls-1" x1="36.78" y1="263.09" x2="45.21" y2="263.09"/>
  <line class="cls-1" x1="28.85" y1="255.07" x2="28.85" y2="263.09"/>
  <line class="cls-1" x1="36.78" y1="263.09" x2="36.78" y2="255.07"/>
  <line class="cls-1" x1="36.78" y1="255.07" x2="28.85" y2="255.07"/>
  <line class="cls-1" x1="20.38" y1="263.09" x2="28.85" y2="263.09"/>
  <line class="cls-1" x1="20.38" y1="263.09" x2="20.38" y2="255.07"/>
  <line class="cls-1" x1="20.38" y1="255.07" x2="12.67" y2="255.07"/>
  <line class="cls-1" x1="168.4" y1="263.28" x2="242.14" y2="263.28"/>
  <line class="cls-1" x1="3.88" y1="113.03" x2="3.88" y2="138.34"/>
  <path class="cls-1" d="M401.47,155.72c.16,0,.28.13.28.28"/>
  <path class="cls-1" d="M365.93,151.74s-.04.09-.04.14"/>
  <path class="cls-1" d="M357.51,147.81c-.16,0-.28-.13-.28-.28"/>
  <path class="cls-1" d="M401.79,139.46c0-.16-.13-.28-.28-.28"/>
  <path class="cls-1" d="M401.51,131.29c.16,0,.28-.13.28-.28"/>
  <path class="cls-1" d="M401.79,122.94c0-.16-.13-.28-.28-.28"/>
  <line class="cls-1" x1="365.9" y1="155.72" x2="365.9" y2="151.88"/>
  <path class="cls-1" d="M357.51,131.29h8"/>
  <line class="cls-1" x1="393.09" y1="147.81" x2="393.09" y2="151.96"/>
  <line class="cls-1" x1="393.09" y1="131.29" x2="393.09" y2="139.17"/>
  <line class="cls-1" x1="401.51" y1="131.29" x2="393.09" y2="131.29"/>
  <line class="cls-1" x1="393.09" y1="115.1" x2="393.09" y2="122.65"/>
  <path class="cls-1" d="M365.93,115.1v7.37"/>
  <path class="cls-1" d="M365.93,115.1s.05,0,.07,0h.21"/>
  <path class="cls-1" d="M393.09,115.1s-.02,0-.04,0h-.25"/>
  <line class="cls-1" x1="379.38" y1="115.1" x2="366.22" y2="115.1"/>
  <line class="cls-1" x1="379.38" y1="115.1" x2="392.8" y2="115.1"/>
  <line class="cls-1" x1="392.77" y1="164.14" x2="392.77" y2="164.07"/>
  <line class="cls-1" x1="366.18" y1="164.14" x2="366.18" y2="164.07"/>
  <path class="cls-1" d="M401.47,164.14h.27"/>
  <line class="cls-1" x1="379.34" y1="164.14" x2="392.77" y2="164.14"/>
  <line class="cls-1" x1="379.34" y1="164.14" x2="366.18" y2="164.14"/>
  <path class="cls-1" d="M401.47,164.07v.07"/>
  <path class="cls-1" d="M357.23,139.46c0-.16.13-.28.28-.28"/>
  <path class="cls-1" d="M357.47,155.72c-.16,0-.28.13-.28.28"/>
  <path class="cls-1" d="M357.47,164.07h-.27s-.01,0,0,0"/>
  <path class="cls-1" d="M401.75,164.07s0,.05,0,.07"/>
  <path class="cls-1" d="M357.51,131.29c-.16,0-.28-.13-.28-.28"/>
  <path class="cls-1" d="M357.23,122.94c0-.16.13-.28.28-.28"/>
  <path class="cls-1" d="M401.51,147.81c.16,0,.28-.13.28-.28"/>
  <line class="cls-1" x1="392.77" y1="164.07" x2="401.47" y2="164.07"/>
  <line class="cls-1" x1="365.93" y1="147.81" x2="365.93" y2="151.74"/>
  <line class="cls-1" x1="357.47" y1="155.72" x2="365.9" y2="155.72"/>
  <line class="cls-1" x1="357.19" y1="164.07" x2="357.19" y2="156"/>
  <line class="cls-1" x1="366.18" y1="164.07" x2="357.47" y2="164.07"/>
  <line class="cls-1" x1="401.47" y1="155.72" x2="393.05" y2="155.72"/>
  <line class="cls-1" x1="401.75" y1="164.07" x2="401.75" y2="156"/>
  <line class="cls-1" x1="357.51" y1="147.81" x2="365.93" y2="147.81"/>
  <line class="cls-1" x1="357.23" y1="139.46" x2="357.23" y2="147.53"/>
  <path class="cls-1" d="M365.93,131.59v6.89"/>
  <path class="cls-1" d="M365.51,139.17h-8"/>
  <line class="cls-1" x1="357.23" y1="122.94" x2="357.23" y2="131.01"/>
  <path class="cls-1" d="M365.78,122.65h-8.26"/>
  <line class="cls-1" x1="401.51" y1="147.81" x2="393.09" y2="147.81"/>
  <line class="cls-1" x1="401.79" y1="139.46" x2="401.79" y2="147.53"/>
  <line class="cls-1" x1="393.09" y1="139.17" x2="401.51" y2="139.17"/>
  <line class="cls-1" x1="401.79" y1="122.94" x2="401.79" y2="131.01"/>
  <line class="cls-1" x1="393.09" y1="122.65" x2="401.51" y2="122.65"/>
  <line class="cls-1" x1="393.09" y1="152.05" x2="393.09" y2="151.96"/>
  <path class="cls-1" d="M384.53,267.22s-.03-.08-.03-.13"/>
  <path class="cls-1" d="M357.47,233.1c-.16,0-.28.13-.28.28"/>
  <path class="cls-1" d="M357.19,241.5c0,.16.13.28.28.28"/>
  <path class="cls-1" d="M357.47,249.66c-.16,0-.28.13-.28.28"/>
  <path class="cls-1" d="M357.19,257.7c0,.16.13.28.28.28"/>
  <path class="cls-1" d="M401.75,241.5c0,.16-.13.28-.28.28"/>
  <path class="cls-1" d="M401.75,257.7c0,.16-.13.28-.28.28"/>
  <line class="cls-1" x1="375.79" y1="267.09" x2="375.79" y2="258.43"/>
  <line class="cls-1" x1="357.47" y1="233.1" x2="365.9" y2="233.1"/>
  <line class="cls-1" x1="357.47" y1="249.66" x2="365.8" y2="249.66"/>
  <path class="cls-1" d="M384.78,267.37c-.11,0-.2-.06-.25-.15"/>
  <line class="cls-1" x1="401.47" y1="233.1" x2="393.05" y2="233.1"/>
  <line class="cls-1" x1="401.47" y1="249.66" x2="393.15" y2="249.66"/>
  <line class="cls-1" x1="393.32" y1="267.09" x2="393.32" y2="257.98"/>
  <path class="cls-1" d="M366.18,232.77h-.21s-.05,0-.07,0"/>
  <path class="cls-1" d="M392.77,232.77h.25s.03,0,.04,0"/>
  <line class="cls-1" x1="392.77" y1="232.77" x2="379.34" y2="232.77"/>
  <line class="cls-1" x1="366.18" y1="232.77" x2="379.34" y2="232.77"/>
  <path class="cls-1" d="M366.3,267.09c0,.16.13.28.28.28"/>
  <path class="cls-1" d="M375.5,267.37c.16,0,.28-.13.28-.28"/>
  <path class="cls-1" d="M401.47,233.1c.16,0,.28.13.28.28"/>
  <path class="cls-1" d="M401.47,249.66c.16,0,.28.13.28.28"/>
  <path class="cls-1" d="M393.32,267.09c0,.16-.13.28-.28.28"/>
  <line class="cls-1" x1="366.3" y1="267.09" x2="366.3" y2="258.28"/>
  <line class="cls-1" x1="366.3" y1="258.28" x2="366.3" y2="257.98"/>
  <line class="cls-1" x1="366.3" y1="257.98" x2="365.91" y2="257.98"/>
  <line class="cls-1" x1="379.34" y1="258.43" x2="384.5" y2="258.43"/>
  <line class="cls-1" x1="379.34" y1="258.43" x2="375.79" y2="258.43"/>
  <line class="cls-1" x1="384.5" y1="258.43" x2="384.5" y2="267.09"/>
  <line class="cls-1" x1="365.9" y1="233.1" x2="365.9" y2="232.77"/>
  <line class="cls-1" x1="357.19" y1="241.5" x2="357.19" y2="233.38"/>
  <line class="cls-1" x1="365.8" y1="249.66" x2="365.8" y2="241.78"/>
  <line class="cls-1" x1="365.8" y1="241.78" x2="357.47" y2="241.78"/>
  <line class="cls-1" x1="357.19" y1="257.7" x2="357.19" y2="249.95"/>
  <line class="cls-1" x1="365.91" y1="257.98" x2="357.98" y2="257.98"/>
  <line class="cls-1" x1="357.98" y1="257.98" x2="357.47" y2="257.98"/>
  <line class="cls-1" x1="375.5" y1="267.37" x2="366.58" y2="267.37"/>
  <line class="cls-1" x1="393.05" y1="233.1" x2="393.05" y2="232.77"/>
  <line class="cls-1" x1="401.75" y1="241.5" x2="401.75" y2="233.38"/>
  <line class="cls-1" x1="393.15" y1="249.66" x2="393.15" y2="241.78"/>
  <line class="cls-1" x1="393.15" y1="241.78" x2="401.47" y2="241.78"/>
  <line class="cls-1" x1="401.75" y1="257.7" x2="401.75" y2="249.95"/>
  <line class="cls-1" x1="393.32" y1="257.98" x2="400.97" y2="257.98"/>
  <line class="cls-1" x1="400.97" y1="257.98" x2="401.47" y2="257.98"/>
  <line class="cls-1" x1="393.03" y1="267.37" x2="384.78" y2="267.37"/>
  <path class="cls-1" d="M51.87,315.77s.08-.03.13-.03"/>
  <path class="cls-1" d="M68.04,316.02c0-.16.13-.28.28-.28"/>
  <path class="cls-1" d="M100.8,316.02c0-.16.13-.28.28-.28"/>
  <path class="cls-1" d="M133.57,316.02c0-.16.13-.28.28-.28"/>
  <path class="cls-1" d="M141.35,315.74c.16,0,.28.13.28.28"/>
  <path class="cls-1" d="M174.12,315.74c.16,0,.28.13.28.28"/>
  <path class="cls-1" d="M51.72,358.35c0,.16.13.28.28.28"/>
  <path class="cls-1" d="M84.4,358.35c0,.16.13.28.28.28"/>
  <path class="cls-1" d="M117.13,358.35c0,.16.13.28.28.28"/>
  <path class="cls-1" d="M133.57,358.35c0,.16.13.28.28.28"/>
  <path class="cls-1" d="M141.35,358.63c.16,0,.28-.13.28-.28"/>
  <path class="cls-1" d="M157.64,358.63c.16,0,.28-.13.28-.28"/>
  <path class="cls-1" d="M51.72,316.02c0-.11.06-.2.15-.25"/>
  <line class="cls-1" x1="141.63" y1="324.23" x2="141.63" y2="316.02"/>
  <line class="cls-1" x1="141.63" y1="350.14" x2="141.63" y2="358.35"/>
  <line class="cls-1" x1="174.77" y1="324.23" x2="174.41" y2="324.23"/>
  <line class="cls-1" x1="174.77" y1="350.14" x2="174.41" y2="350.14"/>
  <line class="cls-1" x1="174.77" y1="324.51" x2="174.77" y2="336.97"/>
  <path class="cls-1" d="M174.77,324.23s0,0,0,0v.28"/>
  <path class="cls-1" d="M174.77,350.14s0,0,0,0v-.28"/>
  <line class="cls-1" x1="174.77" y1="349.86" x2="174.77" y2="336.97"/>
  <path class="cls-1" d="M18.63,315.96c.03-.13.14-.22.28-.22"/>
  <line class="cls-1" x1="18.63" y1="323.4" x2="18.63" y2="324.4"/>
  <line class="cls-1" x1="18.63" y1="351.11" x2="18.63" y2="349.97"/>
  <path class="cls-1" d="M26.74,315.74c.16,0,.28.13.28.28"/>
  <path class="cls-1" d="M75.79,315.74c.16,0,.28.13.28.28"/>
  <path class="cls-1" d="M92.19,315.74c.16,0,.28.13.28.28"/>
  <path class="cls-1" d="M26.74,358.63c.16,0,.28-.13.28-.28"/>
  <path class="cls-1" d="M43.11,358.63c.16,0,.28-.13.28-.28"/>
  <path class="cls-1" d="M59.43,358.63c.16,0,.28-.13.28-.28"/>
  <path class="cls-1" d="M68.04,358.35c0,.16.13.28.28.28"/>
  <path class="cls-1" d="M124.95,358.63c.16,0,.28-.13.28-.28"/>
  <path class="cls-1" d="M149.96,358.35c0,.16.13.28.28.28"/>
  <path class="cls-1" d="M10.18,341.12c-.16,0-.28-.13-.28-.28"/>
  <path class="cls-1" d="M18.6,349.86s0,.07.02.11"/>
  <path class="cls-1" d="M10.18,332.64c-.16,0-.28.13-.28.28"/>
  <path class="cls-1" d="M18.6,324.51s0-.07.02-.11"/>
  <path class="cls-1" d="M35.63,315.74c-.16,0-.28.13-.28.28"/>
  <path class="cls-1" d="M43.11,315.74c.16,0,.28.13.28.28"/>
  <path class="cls-1" d="M59.43,315.74c.16,0,.28.13.28.28"/>
  <path class="cls-1" d="M84.4,316.02c0-.16.13-.28.28-.28"/>
  <path class="cls-1" d="M108.52,315.74c.16,0,.28.13.28.28"/>
  <path class="cls-1" d="M117.13,316.02c0-.16.13-.28.28-.28"/>
  <path class="cls-1" d="M124.95,315.74c.16,0,.28.13.28.28"/>
  <path class="cls-1" d="M149.96,316.02c0-.16.13-.28.28-.28"/>
  <path class="cls-1" d="M157.64,315.74c.16,0,.28.13.28.28"/>
  <path class="cls-1" d="M166.25,316.02c0-.16.13-.28.28-.28"/>
  <path class="cls-1" d="M35.35,358.35c0,.16.13.28.28.28"/>
  <path class="cls-1" d="M75.79,358.63c.16,0,.28-.13.28-.28"/>
  <path class="cls-1" d="M92.19,358.63c.16,0,.28-.13.28-.28"/>
  <path class="cls-1" d="M100.8,358.35c0,.16.13.28.28.28"/>
  <path class="cls-1" d="M108.52,358.63c.16,0,.28-.13.28-.28"/>
  <path class="cls-1" d="M166.25,358.35c0,.16.13.28.28.28"/>
  <path class="cls-1" d="M174.12,358.63c.16,0,.28-.13.28-.28"/>
  <path class="cls-1" d="M18.91,358.35v.27s0,.01,0,0"/>
  <line class="cls-1" x1="10.18" y1="341.12" x2="18.6" y2="341.12"/>
  <line class="cls-1" x1="18.6" y1="341.12" x2="18.6" y2="349.86"/>
  <line class="cls-1" x1="18.6" y1="332.64" x2="18.6" y2="324.51"/>
  <line class="cls-1" x1="10.18" y1="332.64" x2="18.6" y2="332.64"/>
  <line class="cls-1" x1="9.9" y1="336.97" x2="9.9" y2="332.93"/>
  <path class="cls-1" d="M34.73,324.23h-7.71"/>
  <path class="cls-1" d="M35.35,316.02v7.78"/>
  <line class="cls-1" x1="35.63" y1="315.74" x2="43.11" y2="315.74"/>
  <line class="cls-1" x1="18.91" y1="315.74" x2="26.74" y2="315.74"/>
  <line class="cls-1" x1="27.02" y1="324.23" x2="27.02" y2="316.02"/>
  <path class="cls-1" d="M51.72,324.23h-7.89"/>
  <line class="cls-1" x1="51.72" y1="316.02" x2="51.72" y2="324.23"/>
  <line class="cls-1" x1="52" y1="315.74" x2="59.43" y2="315.74"/>
  <path class="cls-1" d="M43.39,323.8v-7.78"/>
  <path class="cls-1" d="M68.04,324.23h-7.71"/>
  <line class="cls-1" x1="68.04" y1="316.02" x2="68.04" y2="324.23"/>
  <line class="cls-1" x1="68.33" y1="315.74" x2="75.79" y2="315.74"/>
  <path class="cls-1" d="M59.72,323.62v-7.6"/>
  <line class="cls-1" x1="84.4" y1="324.23" x2="76.08" y2="324.23"/>
  <line class="cls-1" x1="84.4" y1="316.02" x2="84.4" y2="324.23"/>
  <line class="cls-1" x1="84.69" y1="315.74" x2="92.19" y2="315.74"/>
  <line class="cls-1" x1="76.08" y1="324.23" x2="76.08" y2="316.02"/>
  <line class="cls-1" x1="92.47" y1="324.23" x2="100.8" y2="324.23"/>
  <line class="cls-1" x1="100.8" y1="316.02" x2="100.8" y2="324.23"/>
  <line class="cls-1" x1="101.08" y1="315.74" x2="108.52" y2="315.74"/>
  <line class="cls-1" x1="92.47" y1="324.23" x2="92.47" y2="316.02"/>
  <line class="cls-1" x1="117.13" y1="324.23" x2="108.8" y2="324.23"/>
  <line class="cls-1" x1="117.13" y1="316.02" x2="117.13" y2="324.23"/>
  <line class="cls-1" x1="117.41" y1="315.74" x2="124.95" y2="315.74"/>
  <line class="cls-1" x1="108.8" y1="324.23" x2="108.8" y2="316.02"/>
  <line class="cls-1" x1="133.57" y1="324.23" x2="125.24" y2="324.23"/>
  <line class="cls-1" x1="133.57" y1="316.02" x2="133.57" y2="324.23"/>
  <line class="cls-1" x1="133.85" y1="315.74" x2="141.35" y2="315.74"/>
  <line class="cls-1" x1="125.24" y1="324.23" x2="125.24" y2="316.02"/>
  <line class="cls-1" x1="149.96" y1="324.23" x2="141.63" y2="324.23"/>
  <line class="cls-1" x1="149.96" y1="316.02" x2="149.96" y2="324.23"/>
  <line class="cls-1" x1="150.24" y1="315.74" x2="157.64" y2="315.74"/>
  <path class="cls-1" d="M166.25,324.23h-8.25"/>
  <line class="cls-1" x1="166.25" y1="316.02" x2="166.25" y2="324.23"/>
  <line class="cls-1" x1="166.53" y1="315.74" x2="174.12" y2="315.74"/>
  <path class="cls-1" d="M157.92,324.16v-8.14"/>
  <line class="cls-1" x1="174.41" y1="324.23" x2="174.41" y2="316.02"/>
  <line class="cls-1" x1="9.9" y1="340.84" x2="9.9" y2="336.97"/>
  <path class="cls-1" d="M35.35,350.14h-8.16"/>
  <line class="cls-1" x1="35.35" y1="358.35" x2="35.35" y2="350.14"/>
  <line class="cls-1" x1="35.63" y1="358.63" x2="43.11" y2="358.63"/>
  <line class="cls-1" x1="18.91" y1="358.63" x2="26.74" y2="358.63"/>
  <path class="cls-1" d="M27.02,350.3v8.05"/>
  <path class="cls-1" d="M51.28,350.14h-7.89"/>
  <path class="cls-1" d="M51.72,358.35v-8.05"/>
  <line class="cls-1" x1="52" y1="358.63" x2="59.43" y2="358.63"/>
  <line class="cls-1" x1="43.39" y1="350.14" x2="43.39" y2="358.35"/>
  <path class="cls-1" d="M67.61,350.14h-7.89"/>
  <path class="cls-1" d="M68.04,358.35v-7.93"/>
  <line class="cls-1" x1="68.33" y1="358.63" x2="75.79" y2="358.63"/>
  <line class="cls-1" x1="59.72" y1="350.14" x2="59.72" y2="358.35"/>
  <path class="cls-1" d="M84.4,350.14h-7.89"/>
  <line class="cls-1" x1="84.4" y1="358.35" x2="84.4" y2="350.14"/>
  <line class="cls-1" x1="84.69" y1="358.63" x2="92.19" y2="358.63"/>
  <path class="cls-1" d="M76.08,350.3v8.05"/>
  <line class="cls-1" x1="100.8" y1="350.14" x2="92.47" y2="350.14"/>
  <line class="cls-1" x1="100.8" y1="358.35" x2="100.8" y2="350.14"/>
  <line class="cls-1" x1="101.08" y1="358.63" x2="108.52" y2="358.63"/>
  <line class="cls-1" x1="92.47" y1="350.14" x2="92.47" y2="358.35"/>
  <line class="cls-1" x1="117.13" y1="350.14" x2="108.8" y2="350.14"/>
  <line class="cls-1" x1="117.13" y1="358.35" x2="117.13" y2="350.14"/>
  <line class="cls-1" x1="117.41" y1="358.63" x2="124.95" y2="358.63"/>
  <line class="cls-1" x1="108.8" y1="350.14" x2="108.8" y2="358.35"/>
  <line class="cls-1" x1="133.57" y1="350.14" x2="125.24" y2="350.14"/>
  <line class="cls-1" x1="133.57" y1="358.35" x2="133.57" y2="350.14"/>
  <line class="cls-1" x1="133.85" y1="358.63" x2="141.35" y2="358.63"/>
  <line class="cls-1" x1="125.24" y1="350.14" x2="125.24" y2="358.35"/>
  <line class="cls-1" x1="149.96" y1="350.14" x2="141.63" y2="350.14"/>
  <line class="cls-1" x1="149.96" y1="358.35" x2="149.96" y2="350.14"/>
  <line class="cls-1" x1="150.24" y1="358.63" x2="157.64" y2="358.63"/>
  <path class="cls-1" d="M157.92,350.14h8.16"/>
  <path class="cls-1" d="M166.25,358.35v-7.93"/>
  <line class="cls-1" x1="166.53" y1="358.63" x2="174.12" y2="358.63"/>
  <line class="cls-1" x1="157.92" y1="350.14" x2="157.92" y2="358.35"/>
  <line class="cls-1" x1="174.41" y1="350.14" x2="174.41" y2="358.35"/>
  <line class="cls-1" x1="9.89" y1="358.56" x2="18.81" y2="358.56"/>
  <line class="cls-1" x1="9.89" y1="351.11" x2="9.89" y2="358.56"/>
  <line class="cls-1" x1="9.91" y1="315.96" x2="9.91" y2="323.4"/>
  <line class="cls-1" x1="8.41" y1="7.46" x2="8.41" y2=".72"/>
  <path class="cls-1" d="M40.81.78c0-.16.13-.28.28-.28"/>
  <path class="cls-1" d="M57.13.78c0-.16.13-.28.28-.28"/>
  <path class="cls-1" d="M171.82.78c0-.16.13-.28.28-.28"/>
  <path class="cls-1" d="M179.61.5c.16,0,.28.13.28.28"/>
  <path class="cls-1" d="M204.66.78c0-.16.13-.28.28-.28"/>
  <path class="cls-1" d="M221.11.78c0-.16.13-.28.28-.28"/>
  <path class="cls-1" d="M261.65.5c.16,0,.28.13.28.28"/>
  <path class="cls-1" d="M64.88,43.4c.16,0,.28-.13.28-.28"/>
  <path class="cls-1" d="M73.49,43.11c0,.16.13.28.28.28"/>
  <path class="cls-1" d="M15.83.5c.16,0,.28.13.28.28"/>
  <path class="cls-1" d="M130.44,43.4c.16,0,.28-.13.28-.28"/>
  <path class="cls-1" d="M228.85,43.4c.16,0,.28-.13.28-.28"/>
  <path class="cls-1" d="M237.46,43.11c0,.16.13.28.28.28"/>
  <line class="cls-1" x1="48.81" y1="8.99" x2="48.81" y2=".78"/>
  <line class="cls-1" x1="48.81" y1="34.91" x2="48.81" y2="43.11"/>
  <path class="cls-1" d="M278.89,27.25s-.08,0-.11-.03c-.07-.04-.12-.12-.12-.2"/>
  <path class="cls-1" d="M278.66,17.12s0,0,0,0c0-.06.03-.11.07-.16.04-.04.1-.07.16-.07,0,0,0,0,0,0"/>
  <path class="cls-1" d="M286.15,27.25v7.05"/>
  <path class="cls-1" d="M278.89,27.25h7.25"/>
  <line class="cls-1" x1="278.66" y1="22.55" x2="278.66" y2="17.12"/>
  <path class="cls-1" d="M286.15,16.89v-7.09"/>
  <path class="cls-1" d="M278.89,16.89c2.42,0,4.84,0,7.25,0"/>
  <line class="cls-1" x1="278.66" y1="27.02" x2="278.66" y2="22.55"/>
  <line class="cls-1" x1="8.36" y1="35.14" x2="8.36" y2="43.11"/>
  <path class="cls-1" d="M9.46,7.74c0-.16-.13-.28-.28-.28"/>
  <path class="cls-1" d="M16.94,16.7c0-.16-.13-.28-.28-.28"/>
  <line class="cls-1" x1="9.46" y1="7.74" x2="9.46" y2="16.41"/>
  <line class="cls-1" x1="9.46" y1="16.41" x2="16.66" y2="16.41"/>
  <line class="cls-1" x1="8.41" y1="7.46" x2="9.18" y2="7.46"/>
  <line class="cls-1" x1="16.94" y1="16.7" x2="16.94" y2="21.17"/>
  <line class="cls-1" x1="16.94" y1="21.73" x2="16.94" y2="21.17"/>
  <path class="cls-1" d="M9.18,35.14c.16,0,.28-.13.28-.28"/>
  <path class="cls-1" d="M16.66,26.88c.16,0,.28-.13.28-.28"/>
  <line class="cls-1" x1="9.46" y1="34.86" x2="9.46" y2="26.88"/>
  <line class="cls-1" x1="9.46" y1="26.88" x2="16.66" y2="26.88"/>
  <line class="cls-1" x1="9.18" y1="35.14" x2="8.36" y2="35.14"/>
  <line class="cls-1" x1="16.94" y1="21.73" x2="16.94" y2="26.6"/>
  <line class="cls-1" x1="8.41" y1="7.46" x2="8.36" y2="7.46"/>
  <path class="cls-1" d="M278.12.5c.16,0,.28.13.28.28"/>
  <path class="cls-1" d="M278.12,43.4c.16,0,.28-.13.28-.28"/>
  <path class="cls-1" d="M278.41,8.99s0,0,0,0c0,0,0,.02,0,.03,0,.01,0,.02,0,.04,0,.02,0,.05,0,.07,0,.05,0,.09,0,.14"/>
  <path class="cls-1" d="M278.41,34.91s0,0,0,0c0,0,0-.02,0-.03,0-.01,0-.02,0-.04,0-.02,0-.05,0-.07,0-.05,0-.09,0-.14"/>
  <line class="cls-1" x1="8.36" y1=".5" x2="15.83" y2=".5"/>
  <line class="cls-1" x1="8.36" y1="43.4" x2="15.83" y2="43.4"/>
  <path class="cls-1" d="M8.36.72v-.21s0,0,0,0"/>
  <path class="cls-1" d="M8.36,43.11v.28s0,0,0,0"/>
  <line class="cls-1" x1="8.36" y1=".72" x2="8.36" y2="7.46"/>
  <path class="cls-1" d="M64.88.5c.16,0,.28.13.28.28"/>
  <path class="cls-1" d="M81.28.5c.16,0,.28.13.28.28"/>
  <path class="cls-1" d="M245.28.5c.16,0,.28.13.28.28"/>
  <path class="cls-1" d="M15.83,43.4c.16,0,.28-.13.28-.28"/>
  <path class="cls-1" d="M32.2,43.4c.16,0,.28-.13.28-.28"/>
  <path class="cls-1" d="M40.81,43.11c0,.16.13.28.28.28"/>
  <path class="cls-1" d="M48.52,43.4c.16,0,.28-.13.28-.28"/>
  <path class="cls-1" d="M57.13,43.11c0,.16.13.28.28.28"/>
  <path class="cls-1" d="M114.05,43.4c.16,0,.28-.13.28-.28"/>
  <path class="cls-1" d="M139.05,43.11c0,.16.13.28.28.28"/>
  <path class="cls-1" d="M146.73,43.4c.16,0,.28-.13.28-.28"/>
  <path class="cls-1" d="M179.61,43.4c.16,0,.28-.13.28-.28"/>
  <path class="cls-1" d="M196.05,43.4c.16,0,.28-.13.28-.28"/>
  <path class="cls-1" d="M212.5,43.4c.16,0,.28-.13.28-.28"/>
  <path class="cls-1" d="M221.11,43.11c0,.16.13.28.28.28"/>
  <path class="cls-1" d="M261.65,43.4c.16,0,.28-.13.28-.28"/>
  <path class="cls-1" d="M24.73.5c-.16,0-.28.13-.28.28"/>
  <path class="cls-1" d="M32.2.5c.16,0,.28.13.28.28"/>
  <path class="cls-1" d="M48.52.5c.16,0,.28.13.28.28"/>
  <path class="cls-1" d="M73.49.78c0-.16.13-.28.28-.28"/>
  <path class="cls-1" d="M89.89.78c0-.16.13-.28.28-.28"/>
  <path class="cls-1" d="M97.61.5c.16,0,.28.13.28.28"/>
  <path class="cls-1" d="M106.22.78c0-.16.13-.28.28-.28"/>
  <path class="cls-1" d="M114.05.5c.16,0,.28.13.28.28"/>
  <path class="cls-1" d="M122.66.78c0-.16.13-.28.28-.28"/>
  <path class="cls-1" d="M130.44.5c.16,0,.28.13.28.28"/>
  <path class="cls-1" d="M139.05.78c0-.16.13-.28.28-.28"/>
  <path class="cls-1" d="M146.73.5c.16,0,.28.13.28.28"/>
  <path class="cls-1" d="M155.34.78c0-.16.13-.28.28-.28"/>
  <path class="cls-1" d="M163.21.5c.16,0,.28.13.28.28"/>
  <path class="cls-1" d="M188.22.78c0-.16.13-.28.28-.28"/>
  <path class="cls-1" d="M196.05.5c.16,0,.28.13.28.28"/>
  <path class="cls-1" d="M212.5.5c.16,0,.28.13.28.28"/>
  <path class="cls-1" d="M228.85.5c.16,0,.28.13.28.28"/>
  <path class="cls-1" d="M237.75.5c-.16,0-.28.13-.28.28"/>
  <path class="cls-1" d="M253.89.78c0-.16.13-.28.28-.28"/>
  <path class="cls-1" d="M270.26.78c0-.16.13-.28.28-.28"/>
  <path class="cls-1" d="M24.44,43.11c0,.16.13.28.28.28"/>
  <path class="cls-1" d="M81.28,43.4c.16,0,.28-.13.28-.28"/>
  <path class="cls-1" d="M89.89,43.11c0,.16.13.28.28.28"/>
  <path class="cls-1" d="M97.61,43.4c.16,0,.28-.13.28-.28"/>
  <path class="cls-1" d="M106.22,43.11c0,.16.13.28.28.28"/>
  <path class="cls-1" d="M122.66,43.11c0,.16.13.28.28.28"/>
  <path class="cls-1" d="M155.34,43.11c0,.16.13.28.28.28"/>
  <path class="cls-1" d="M163.21,43.4c.16,0,.28-.13.28-.28"/>
  <path class="cls-1" d="M171.82,43.11c0,.16.13.28.28.28"/>
  <path class="cls-1" d="M188.22,43.11c0,.16.13.28.28.28"/>
  <path class="cls-1" d="M204.66,43.11c0,.16.13.28.28.28"/>
  <path class="cls-1" d="M245.28,43.4c.16,0,.28-.13.28-.28"/>
  <path class="cls-1" d="M253.89,43.11c0,.16.13.28.28.28"/>
  <path class="cls-1" d="M270.26,43.11c0,.16.13.28.28.28"/>
  <line class="cls-1" x1="24.44" y1="8.99" x2="16.12" y2="8.99"/>
  <line class="cls-1" x1="24.44" y1=".78" x2="24.44" y2="8.99"/>
  <line class="cls-1" x1="24.73" y1=".5" x2="32.2" y2=".5"/>
  <line class="cls-1" x1="16.12" y1="8.99" x2="16.12" y2=".78"/>
  <line class="cls-1" x1="40.81" y1="8.99" x2="32.48" y2="8.99"/>
  <line class="cls-1" x1="40.81" y1=".78" x2="40.81" y2="8.99"/>
  <line class="cls-1" x1="41.09" y1=".5" x2="48.52" y2=".5"/>
  <line class="cls-1" x1="32.48" y1="8.99" x2="32.48" y2=".78"/>
  <line class="cls-1" x1="57.13" y1="8.99" x2="48.81" y2="8.99"/>
  <line class="cls-1" x1="57.13" y1=".78" x2="57.13" y2="8.99"/>
  <line class="cls-1" x1="57.42" y1=".5" x2="64.88" y2=".5"/>
  <line class="cls-1" x1="73.49" y1="8.99" x2="65.17" y2="8.99"/>
  <line class="cls-1" x1="73.49" y1=".78" x2="73.49" y2="8.99"/>
  <line class="cls-1" x1="73.78" y1=".5" x2="81.28" y2=".5"/>
  <line class="cls-1" x1="65.17" y1="8.99" x2="65.17" y2=".78"/>
  <line class="cls-1" x1="81.56" y1="8.99" x2="89.89" y2="8.99"/>
  <line class="cls-1" x1="89.89" y1=".78" x2="89.89" y2="8.99"/>
  <line class="cls-1" x1="90.17" y1=".5" x2="97.61" y2=".5"/>
  <line class="cls-1" x1="81.56" y1="8.99" x2="81.56" y2=".78"/>
  <line class="cls-1" x1="106.22" y1="8.99" x2="97.89" y2="8.99"/>
  <line class="cls-1" x1="106.22" y1=".78" x2="106.22" y2="8.99"/>
  <line class="cls-1" x1="106.5" y1=".5" x2="114.05" y2=".5"/>
  <line class="cls-1" x1="97.89" y1="8.99" x2="97.89" y2=".78"/>
  <line class="cls-1" x1="122.66" y1="8.99" x2="114.33" y2="8.99"/>
  <line class="cls-1" x1="122.66" y1=".78" x2="122.66" y2="8.99"/>
  <line class="cls-1" x1="122.94" y1=".5" x2="130.44" y2=".5"/>
  <line class="cls-1" x1="114.33" y1="8.99" x2="114.33" y2=".78"/>
  <line class="cls-1" x1="139.05" y1="8.99" x2="130.72" y2="8.99"/>
  <line class="cls-1" x1="139.05" y1=".78" x2="139.05" y2="8.99"/>
  <line class="cls-1" x1="139.33" y1=".5" x2="146.73" y2=".5"/>
  <line class="cls-1" x1="130.72" y1="8.99" x2="130.72" y2=".78"/>
  <line class="cls-1" x1="155.34" y1="8.99" x2="147.01" y2="8.99"/>
  <line class="cls-1" x1="155.34" y1=".78" x2="155.34" y2="8.99"/>
  <line class="cls-1" x1="155.62" y1=".5" x2="163.21" y2=".5"/>
  <line class="cls-1" x1="147.01" y1="8.99" x2="147.01" y2=".78"/>
  <line class="cls-1" x1="171.82" y1="8.99" x2="163.5" y2="8.99"/>
  <line class="cls-1" x1="171.82" y1=".78" x2="171.82" y2="8.99"/>
  <line class="cls-1" x1="172.11" y1=".5" x2="179.61" y2=".5"/>
  <line class="cls-1" x1="163.5" y1="8.99" x2="163.5" y2=".78"/>
  <line class="cls-1" x1="188.22" y1="8.99" x2="179.9" y2="8.99"/>
  <line class="cls-1" x1="188.22" y1=".78" x2="188.22" y2="8.99"/>
  <line class="cls-1" x1="188.51" y1=".5" x2="196.05" y2=".5"/>
  <line class="cls-1" x1="179.9" y1="8.99" x2="179.9" y2=".78"/>
  <line class="cls-1" x1="204.66" y1="8.99" x2="196.34" y2="8.99"/>
  <line class="cls-1" x1="204.66" y1=".78" x2="204.66" y2="8.99"/>
  <line class="cls-1" x1="204.95" y1=".5" x2="212.5" y2=".5"/>
  <line class="cls-1" x1="196.34" y1="8.99" x2="196.34" y2=".78"/>
  <line class="cls-1" x1="221.11" y1="8.99" x2="212.78" y2="8.99"/>
  <line class="cls-1" x1="221.11" y1=".78" x2="221.11" y2="8.99"/>
  <line class="cls-1" x1="221.39" y1=".5" x2="228.85" y2=".5"/>
  <line class="cls-1" x1="212.78" y1="8.99" x2="212.78" y2=".78"/>
  <line class="cls-1" x1="237.46" y1="8.99" x2="229.14" y2="8.99"/>
  <line class="cls-1" x1="237.46" y1=".78" x2="237.46" y2="8.99"/>
  <line class="cls-1" x1="237.75" y1=".5" x2="245.28" y2=".5"/>
  <line class="cls-1" x1="229.14" y1="8.99" x2="229.14" y2=".78"/>
  <line class="cls-1" x1="253.89" y1="8.99" x2="245.57" y2="8.99"/>
  <line class="cls-1" x1="253.89" y1=".78" x2="253.89" y2="8.99"/>
  <line class="cls-1" x1="254.18" y1=".5" x2="261.65" y2=".5"/>
  <line class="cls-1" x1="245.57" y1="8.99" x2="245.57" y2=".78"/>
  <path class="cls-1" d="M270.26,8.99h-8.04"/>
  <line class="cls-1" x1="270.26" y1=".78" x2="270.26" y2="8.99"/>
  <line class="cls-1" x1="270.55" y1=".5" x2="278.12" y2=".5"/>
  <path class="cls-1" d="M261.94,8.97V.78"/>
  <line class="cls-1" x1="278.41" y1="8.99" x2="278.41" y2=".78"/>
  <line class="cls-1" x1="24.44" y1="34.91" x2="16.12" y2="34.91"/>
  <line class="cls-1" x1="24.44" y1="43.11" x2="24.44" y2="34.91"/>
  <line class="cls-1" x1="24.73" y1="43.4" x2="32.2" y2="43.4"/>
  <line class="cls-1" x1="16.12" y1="34.91" x2="16.12" y2="43.11"/>
  <line class="cls-1" x1="40.81" y1="34.91" x2="32.48" y2="34.91"/>
  <line class="cls-1" x1="40.81" y1="43.11" x2="40.81" y2="34.91"/>
  <line class="cls-1" x1="41.09" y1="43.4" x2="48.52" y2="43.4"/>
  <line class="cls-1" x1="32.48" y1="34.91" x2="32.48" y2="43.11"/>
  <line class="cls-1" x1="57.13" y1="34.91" x2="48.81" y2="34.91"/>
  <line class="cls-1" x1="57.13" y1="43.11" x2="57.13" y2="34.91"/>
  <line class="cls-1" x1="57.42" y1="43.4" x2="64.88" y2="43.4"/>
  <line class="cls-1" x1="73.49" y1="34.91" x2="65.17" y2="34.91"/>
  <line class="cls-1" x1="73.49" y1="43.11" x2="73.49" y2="34.91"/>
  <line class="cls-1" x1="73.78" y1="43.4" x2="81.28" y2="43.4"/>
  <line class="cls-1" x1="65.17" y1="34.91" x2="65.17" y2="43.11"/>
  <path class="cls-1" d="M89.89,34.91h-8.25"/>
  <line class="cls-1" x1="89.89" y1="43.11" x2="89.89" y2="34.91"/>
  <line class="cls-1" x1="90.17" y1="43.4" x2="97.61" y2="43.4"/>
  <path class="cls-1" d="M81.56,34.98v8.14"/>
  <line class="cls-1" x1="106.22" y1="34.91" x2="97.89" y2="34.91"/>
  <line class="cls-1" x1="106.22" y1="43.11" x2="106.22" y2="34.91"/>
  <line class="cls-1" x1="106.5" y1="43.4" x2="114.05" y2="43.4"/>
  <line class="cls-1" x1="97.89" y1="34.91" x2="97.89" y2="43.11"/>
  <line class="cls-1" x1="122.66" y1="34.91" x2="114.33" y2="34.91"/>
  <line class="cls-1" x1="122.66" y1="43.11" x2="122.66" y2="34.91"/>
  <line class="cls-1" x1="122.94" y1="43.4" x2="130.44" y2="43.4"/>
  <line class="cls-1" x1="114.33" y1="34.91" x2="114.33" y2="43.11"/>
  <line class="cls-1" x1="139.05" y1="34.91" x2="130.72" y2="34.91"/>
  <line class="cls-1" x1="139.05" y1="43.11" x2="139.05" y2="34.91"/>
  <line class="cls-1" x1="139.33" y1="43.4" x2="146.73" y2="43.4"/>
  <line class="cls-1" x1="130.72" y1="34.91" x2="130.72" y2="43.11"/>
  <line class="cls-1" x1="147.01" y1="34.91" x2="155.34" y2="34.91"/>
  <line class="cls-1" x1="155.34" y1="43.11" x2="155.34" y2="34.91"/>
  <line class="cls-1" x1="155.62" y1="43.4" x2="163.21" y2="43.4"/>
  <line class="cls-1" x1="147.01" y1="34.91" x2="147.01" y2="43.11"/>
  <path class="cls-1" d="M171.75,34.91h-8.25"/>
  <path class="cls-1" d="M171.82,43.11v-8.19"/>
  <line class="cls-1" x1="172.11" y1="43.4" x2="179.61" y2="43.4"/>
  <line class="cls-1" x1="163.5" y1="34.91" x2="163.5" y2="43.11"/>
  <line class="cls-1" x1="188.22" y1="34.91" x2="179.9" y2="34.91"/>
  <line class="cls-1" x1="188.22" y1="43.11" x2="188.22" y2="34.91"/>
  <line class="cls-1" x1="188.51" y1="43.4" x2="196.05" y2="43.4"/>
  <line class="cls-1" x1="179.9" y1="34.91" x2="179.9" y2="43.11"/>
  <line class="cls-1" x1="204.66" y1="34.91" x2="196.34" y2="34.91"/>
  <line class="cls-1" x1="204.66" y1="43.11" x2="204.66" y2="34.91"/>
  <line class="cls-1" x1="204.95" y1="43.4" x2="212.5" y2="43.4"/>
  <line class="cls-1" x1="196.34" y1="34.91" x2="196.34" y2="43.11"/>
  <line class="cls-1" x1="221.11" y1="34.91" x2="212.78" y2="34.91"/>
  <line class="cls-1" x1="221.11" y1="43.11" x2="221.11" y2="34.91"/>
  <line class="cls-1" x1="221.39" y1="43.4" x2="228.85" y2="43.4"/>
  <line class="cls-1" x1="212.78" y1="34.91" x2="212.78" y2="43.11"/>
  <line class="cls-1" x1="237.46" y1="34.91" x2="229.14" y2="34.91"/>
  <line class="cls-1" x1="237.46" y1="43.11" x2="237.46" y2="34.91"/>
  <line class="cls-1" x1="237.75" y1="43.4" x2="245.28" y2="43.4"/>
  <line class="cls-1" x1="229.14" y1="34.91" x2="229.14" y2="43.11"/>
  <path class="cls-1" d="M253.28,34.91h-7.07"/>
  <path class="cls-1" d="M253.89,43.11v-8.05"/>
  <line class="cls-1" x1="254.18" y1="43.4" x2="261.65" y2="43.4"/>
  <path class="cls-1" d="M245.57,34.98v8.14"/>
  <path class="cls-1" d="M270.26,34.91h-8.04"/>
  <line class="cls-1" x1="270.26" y1="43.11" x2="270.26" y2="34.91"/>
  <line class="cls-1" x1="270.55" y1="43.4" x2="278.12" y2="43.4"/>
  <path class="cls-1" d="M261.94,35.07v8.05"/>
  <line class="cls-1" x1="278.41" y1="34.91" x2="278.41" y2="43.11"/>
  <line class="cls-1" x1="8.41" y1=".72" x2="8.36" y2=".72"/>
  <line class="cls-1" x1="36.36" y1="496.25" x2="36.36" y2="492.73"/>
  <path class="cls-1" d="M18.81,579.83c.16,0,.28-.13.28-.28"/>
  <path class="cls-1" d="M.78,496.25c-.16,0-.28.13-.28.28"/>
  <path class="cls-1" d="M.5,504.6c0,.16.13.28.28.28"/>
  <path class="cls-1" d="M.5,521.12c0,.16.13.28.28.28"/>
  <path class="cls-1" d="M.78,529.29c-.16,0-.28.13-.28.28"/>
  <path class="cls-1" d="M.78,545.56c-.16,0-.28.13-.28.28"/>
  <path class="cls-1" d="M.78,562.12c-.16,0-.28.13-.28.28"/>
  <path class="cls-1" d="M44.78,496.25c.16,0,.28.13.28.28"/>
  <path class="cls-1" d="M45.06,504.6c0,.16-.13.28-.28.28"/>
  <path class="cls-1" d="M44.78,545.56c.16,0,.28.13.28.28"/>
  <path class="cls-1" d="M44.78,562.12c.16,0,.28.13.28.28"/>
  <path class="cls-1" d="M36.39,492.59c0,.05-.01.09-.04.14"/>
  <path class="cls-1" d="M8.98,412.53c0-.16.13-.28.28-.28"/>
  <path class="cls-1" d="M17.93,405.05c0-.16.13-.28.28-.28"/>
  <path class="cls-1" d="M.54,479.99c0-.16.13-.28.28-.28"/>
  <path class="cls-1" d="M.82,471.82c-.16,0-.28-.13-.28-.28"/>
  <path class="cls-1" d="M.82,455.3c-.16,0-.28-.13-.28-.28"/>
  <path class="cls-1" d="M.54,447.2c0-.16.13-.28.28-.28"/>
  <path class="cls-1" d="M.54,430.64c0-.16.13-.28.28-.28"/>
  <path class="cls-1" d="M.82,422.47c-.16,0-.28-.13-.28-.28"/>
  <path class="cls-1" d="M.54,414.44c0-.16.13-.28.28-.28"/>
  <path class="cls-1" d="M44.82,488.34c.16,0,.28-.13.28-.28"/>
  <path class="cls-1" d="M45.1,479.99c0-.16-.13-.28-.28-.28"/>
  <path class="cls-1" d="M44.82,471.82c.16,0,.28-.13.28-.28"/>
  <path class="cls-1" d="M44.82,455.3c.16,0,.28-.13.28-.28"/>
  <path class="cls-1" d="M45.1,447.2c0-.16-.13-.28-.28-.28"/>
  <path class="cls-1" d="M44.82,439.04c.16,0,.28-.13.28-.28"/>
  <path class="cls-1" d="M45.1,430.64c0-.16-.13-.28-.28-.28"/>
  <path class="cls-1" d="M44.82,422.47c.16,0,.28-.13.28-.28"/>
  <path class="cls-1" d="M45.1,414.44c0-.16-.13-.28-.28-.28"/>
  <line class="cls-1" x1="19.1" y1="579.55" x2="19.1" y2="570.89"/>
  <line class="cls-1" x1="22.65" y1="570.89" x2="27.81" y2="570.89"/>
  <line class="cls-1" x1="19.1" y1="570.89" x2="22.65" y2="570.89"/>
  <line class="cls-1" x1="27.81" y1="570.89" x2="27.81" y2="579.55"/>
  <line class="cls-1" x1="9.21" y1="496.25" x2="9.21" y2="492.41"/>
  <line class="cls-1" x1=".78" y1="496.25" x2="9.21" y2="496.25"/>
  <line class="cls-1" x1="9.21" y1="512.77" x2="9.21" y2="504.89"/>
  <line class="cls-1" x1="9.21" y1="504.89" x2=".78" y2="504.89"/>
  <line class="cls-1" x1="9.21" y1="529.29" x2="9.21" y2="521.41"/>
  <line class="cls-1" x1="9.21" y1="521.41" x2=".78" y2="521.41"/>
  <line class="cls-1" x1=".78" y1="529.29" x2="9.21" y2="529.29"/>
  <line class="cls-1" x1="9.21" y1="545.56" x2="9.21" y2="537.67"/>
  <line class="cls-1" x1=".78" y1="545.56" x2="9.21" y2="545.56"/>
  <line class="cls-1" x1=".78" y1="562.12" x2="9.11" y2="562.12"/>
  <line class="cls-1" x1="44.78" y1="496.25" x2="36.36" y2="496.25"/>
  <line class="cls-1" x1="36.36" y1="504.89" x2="44.78" y2="504.89"/>
  <line class="cls-1" x1="36.36" y1="521.41" x2="44.78" y2="521.41"/>
  <line class="cls-1" x1="44.78" y1="529.29" x2="36.36" y2="529.29"/>
  <line class="cls-1" x1="44.78" y1="545.56" x2="36.36" y2="545.56"/>
  <path class="cls-1" d="M9.24,492.27s-.04.09-.04.14"/>
  <line class="cls-1" x1="36.45" y1="562.12" x2="36.45" y2="554.24"/>
  <line class="cls-1" x1="44.78" y1="562.12" x2="36.45" y2="562.12"/>
  <line class="cls-1" x1="36.62" y1="579.55" x2="36.62" y2="570.44"/>
  <line class="cls-1" x1="17.93" y1="412.25" x2="9.26" y2="412.25"/>
  <line class="cls-1" x1="17.93" y1="405.05" x2="17.93" y2="412.25"/>
  <line class="cls-1" x1="36.38" y1="412.25" x2="28.4" y2="412.25"/>
  <line class="cls-1" x1="28.4" y1="412.25" x2="28.4" y2="405.05"/>
  <line class="cls-1" x1="9.24" y1="479.71" x2=".82" y2="479.71"/>
  <line class="cls-1" x1=".82" y1="471.82" x2="9.24" y2="471.82"/>
  <line class="cls-1" x1=".82" y1="455.3" x2="9.24" y2="455.3"/>
  <path class="cls-1" d="M9.17,446.92H.82"/>
  <line class="cls-1" x1="9.14" y1="422.47" x2="9.14" y2="430.36"/>
  <line class="cls-1" x1="9.14" y1="430.36" x2=".82" y2="430.36"/>
  <line class="cls-1" x1="8.98" y1="414.16" x2="1.32" y2="414.16"/>
  <line class="cls-1" x1="1.32" y1="414.16" x2=".82" y2="414.16"/>
  <line class="cls-1" x1="36.39" y1="488.34" x2="36.39" y2="492.5"/>
  <line class="cls-1" x1="36.39" y1="471.82" x2="36.39" y2="479.71"/>
  <line class="cls-1" x1="36.39" y1="479.71" x2="44.82" y2="479.71"/>
  <line class="cls-1" x1="44.82" y1="471.82" x2="36.39" y2="471.82"/>
  <line class="cls-1" x1="36.39" y1="455.3" x2="36.39" y2="463.19"/>
  <line class="cls-1" x1="44.82" y1="455.3" x2="36.39" y2="455.3"/>
  <line class="cls-1" x1="36.39" y1="439.04" x2="36.39" y2="446.92"/>
  <line class="cls-1" x1="36.39" y1="446.92" x2="44.82" y2="446.92"/>
  <line class="cls-1" x1="36.49" y1="430.36" x2="44.82" y2="430.36"/>
  <line class="cls-1" x1="36.66" y1="412.53" x2="36.66" y2="414.16"/>
  <line class="cls-1" x1="36.66" y1="414.16" x2="44.31" y2="414.16"/>
  <line class="cls-1" x1="44.31" y1="414.16" x2="44.82" y2="414.16"/>
  <path class="cls-1" d="M27.81,579.55c0,.16.13.28.28.28"/>
  <path class="cls-1" d="M.5,570.16c0,.16.13.28.28.28"/>
  <path class="cls-1" d="M45.06,570.16c0,.16-.13.28-.28.28"/>
  <path class="cls-1" d="M28.4,405.05c0-.16-.13-.28-.28-.28"/>
  <path class="cls-1" d="M9.21,492.41c0-.05.01-.1.04-.14"/>
  <path class="cls-1" d="M9.61,579.55c0,.16.13.28.28.28"/>
  <path class="cls-1" d="M.78,512.77c-.16,0-.28.13-.28.28"/>
  <path class="cls-1" d="M.5,537.39c0,.16.13.28.28.28"/>
  <path class="cls-1" d="M.5,553.95c0,.16.13.28.28.28"/>
  <path class="cls-1" d="M44.78,512.77c.16,0,.28.13.28.28"/>
  <path class="cls-1" d="M45.06,521.12c0,.16-.13.28-.28.28"/>
  <path class="cls-1" d="M44.78,529.29c.16,0,.28.13.28.28"/>
  <path class="cls-1" d="M45.06,537.39c0,.16-.13.28-.28.28"/>
  <path class="cls-1" d="M45.06,553.95c0,.16-.13.28-.28.28"/>
  <path class="cls-1" d="M36.62,579.55c0,.16-.13.28-.28.28"/>
  <path class="cls-1" d="M36.66,412.53c0-.16-.13-.28-.28-.28"/>
  <path class="cls-1" d="M.82,488.34c-.16,0-.28-.13-.28-.28"/>
  <path class="cls-1" d="M.54,463.47c0-.16.13-.28.28-.28"/>
  <path class="cls-1" d="M.82,439.04c-.16,0-.28-.13-.28-.28"/>
  <path class="cls-1" d="M45.1,463.47c0-.16-.13-.28-.28-.28"/>
  <line class="cls-1" x1="9.24" y1="488.34" x2="9.24" y2="492.27"/>
  <line class="cls-1" x1="9.61" y1="579.55" x2="9.61" y2="570.74"/>
  <line class="cls-1" x1="9.61" y1="570.74" x2="9.61" y2="570.44"/>
  <line class="cls-1" x1="9.61" y1="570.44" x2="9.22" y2="570.44"/>
  <line class="cls-1" x1=".5" y1="504.6" x2=".5" y2="496.53"/>
  <line class="cls-1" x1=".78" y1="512.77" x2="9.21" y2="512.77"/>
  <line class="cls-1" x1=".5" y1="521.12" x2=".5" y2="513.05"/>
  <line class="cls-1" x1=".5" y1="537.39" x2=".5" y2="529.57"/>
  <line class="cls-1" x1="9.21" y1="537.67" x2=".78" y2="537.67"/>
  <line class="cls-1" x1=".5" y1="553.95" x2=".5" y2="545.84"/>
  <line class="cls-1" x1="9.11" y1="554.24" x2="9.11" y2="562.12"/>
  <line class="cls-1" x1="9.11" y1="554.24" x2=".78" y2="554.24"/>
  <line class="cls-1" x1=".5" y1="570.16" x2=".5" y2="562.4"/>
  <line class="cls-1" x1="9.22" y1="570.44" x2="1.29" y2="570.44"/>
  <line class="cls-1" x1="1.29" y1="570.44" x2=".78" y2="570.44"/>
  <line class="cls-1" x1="18.81" y1="579.83" x2="9.89" y2="579.83"/>
  <line class="cls-1" x1="45.06" y1="504.6" x2="45.06" y2="496.53"/>
  <line class="cls-1" x1="36.36" y1="512.77" x2="36.36" y2="504.89"/>
  <line class="cls-1" x1="44.78" y1="512.77" x2="36.36" y2="512.77"/>
  <line class="cls-1" x1="45.06" y1="521.12" x2="45.06" y2="513.05"/>
  <line class="cls-1" x1="36.36" y1="529.29" x2="36.36" y2="521.41"/>
  <line class="cls-1" x1="45.06" y1="537.39" x2="45.06" y2="529.57"/>
  <line class="cls-1" x1="36.36" y1="545.56" x2="36.36" y2="537.67"/>
  <line class="cls-1" x1="36.36" y1="537.67" x2="44.78" y2="537.67"/>
  <line class="cls-1" x1="45.06" y1="553.95" x2="45.06" y2="545.84"/>
  <line class="cls-1" x1="36.45" y1="554.24" x2="44.78" y2="554.24"/>
  <line class="cls-1" x1="45.06" y1="570.16" x2="45.06" y2="562.4"/>
  <line class="cls-1" x1="36.62" y1="570.44" x2="44.28" y2="570.44"/>
  <line class="cls-1" x1="44.28" y1="570.44" x2="44.78" y2="570.44"/>
  <line class="cls-1" x1="36.34" y1="579.83" x2="28.09" y2="579.83"/>
  <line class="cls-1" x1=".82" y1="488.34" x2="9.24" y2="488.34"/>
  <line class="cls-1" x1=".54" y1="479.99" x2=".54" y2="488.06"/>
  <line class="cls-1" x1="9.24" y1="471.82" x2="9.24" y2="479.71"/>
  <line class="cls-1" x1=".54" y1="463.47" x2=".54" y2="471.54"/>
  <path class="cls-1" d="M9.24,455.3v7.58"/>
  <path class="cls-1" d="M9.09,463.19H.82"/>
  <line class="cls-1" x1=".54" y1="447.2" x2=".54" y2="455.02"/>
  <path class="cls-1" d="M9.24,439.04v7.81"/>
  <line class="cls-1" x1=".82" y1="439.04" x2="9.24" y2="439.04"/>
  <line class="cls-1" x1=".54" y1="430.64" x2=".54" y2="438.75"/>
  <line class="cls-1" x1=".82" y1="422.47" x2="9.14" y2="422.47"/>
  <line class="cls-1" x1=".54" y1="414.44" x2=".54" y2="422.19"/>
  <line class="cls-1" x1="8.98" y1="412.53" x2="8.98" y2="414.16"/>
  <line class="cls-1" x1="22.69" y1="404.76" x2="18.22" y2="404.76"/>
  <line class="cls-1" x1="44.82" y1="488.34" x2="36.39" y2="488.34"/>
  <line class="cls-1" x1="45.1" y1="479.99" x2="45.1" y2="488.06"/>
  <line class="cls-1" x1="45.1" y1="463.47" x2="45.1" y2="471.54"/>
  <line class="cls-1" x1="36.39" y1="463.19" x2="44.82" y2="463.19"/>
  <line class="cls-1" x1="45.1" y1="447.2" x2="45.1" y2="455.02"/>
  <line class="cls-1" x1="44.82" y1="439.04" x2="36.39" y2="439.04"/>
  <line class="cls-1" x1="45.1" y1="430.64" x2="45.1" y2="438.75"/>
  <line class="cls-1" x1="36.49" y1="422.47" x2="36.49" y2="430.36"/>
  <line class="cls-1" x1="44.82" y1="422.47" x2="36.49" y2="422.47"/>
  <line class="cls-1" x1="45.1" y1="414.44" x2="45.1" y2="422.19"/>
  <line class="cls-1" x1="28.12" y1="404.76" x2="22.69" y2="404.76"/>
  <line class="cls-1" x1="19.32" y1="315.96" x2="9.91" y2="315.96"/>
</svg>