<?xml version="1.0" encoding="utf-8" standalone="no"?>
<!DOCTYPE svg PUBLIC "-//W3C//DTD SVG 1.1//EN" "http://www.w3.org/Graphics/SVG/1.1/DTD/svg11.dtd">
<svg version="1.1" width="2384pt" height="3370pt" viewBox="0 0 2383.92 3370.32" xmlns="http://www.w3.org/2000/svg">
  <defs />
  <g id="Layer_01">
    <path d="M1674.56,1513.5869 L1683.7296,1513.5194 L1683.7632,1523.2622 L1674.5262,1523.397 L1674.695,1546.0848 L1683.9993,1545.9836 L1683.9655,1556.1309 L1674.8634,1556.0972 L1674.9646,1579.83 L1684.1342,1579.9312 L1684.2689,1589.6738 L1675.0657,1589.7075 L1675.1346,1613.6455 L1684.3331,1613.5901 L1684.3645,1623.8695 L1675.0981,1623.9253 L1667.8829,1633.4796 L1645.421,1633.6187 L1645.4393,1621.2329 L1635.7695,1621.2028 L1635.7615,1642.4312 L1663.0028,1642.4121 L1689.022,1627.4744 L1689.0033,1476.9713 L1667.9506,1465.9386 L1635.8076,1465.952 L1635.7728,1485.0197 L1645.0894,1485.0411 L1645.0415,1473.447 L1666.9987,1473.3965 L1674.3578,1483.2129 L1683.5947,1483.3477 L1683.7296,1493.1915 L1674.4589,1493.3263 z" stroke="#C80000" stroke-width="0.24" stroke-linecap="round" stroke-linejoin="round" fill="none" />
    <path d="M1571.946,1513.5017 L1581.1586,1513.6067 L1581.1443,1523.3552 L1571.9934,1523.1372 L1571.9966,1523.2958 L1572.1395,1546.11 L1581.496,1546.2468 L1581.5032,1556.168 L1572.2266,1556.0236 L1572.356,1579.8699 L1581.723,1579.9026 L1581.6774,1589.7316 L1572.4226,1589.7388 L1572.6105,1613.6554 L1581.6466,1613.6814 L1581.6757,1623.7496 L1572.1744,1624.0549 L1565.3586,1633.7386 L1542.8967,1633.8776 L1542.915,1621.4918 L1533.2452,1621.4617 L1533.2372,1642.6902 L1560.4785,1642.6711 L1586.4977,1627.7332 L1586.4791,1477.2303 L1579.56,1473.66 L1564.4744,1473.6554 L1572.162,1483.2244 L1581.0576,1483.6901 L1581.0844,1493.1417 L1571.803,1493.3745 z" stroke="#C80000" stroke-width="0.24" stroke-linecap="round" stroke-linejoin="round" fill="none" />
    <path d="M1722.1216,1466.0999 L1722.1216,1485.1538 L1731.4181,1485.1042 L1731.4181,1473.5701 L1753.5981,1473.4713 L1753.6213,1483.0526 L1762.8,1483.2516 L1762.9991,1493.147 L1753.6649,1493.4456 L1753.9988,1546.3688 L1763.1206,1546.3615 L1763.3269,1555.9524 L1754.0422,1555.9244 L1754.1947,1579.6263 L1763.4805,1579.659 L1763.4246,1589.5338 L1754.2382,1589.3422 L1754.4088,1613.8116 L1763.5676,1613.7085 L1763.4866,1624.0316 L1754.445,1623.9321 L1754.5104,1633.4951 L1731.7937,1633.6342 L1731.7533,1621.339 L1722.0905,1621.3228 L1722.0824,1642.5276 L1749.2888,1642.5112 L1775.329,1627.5596 L1775.3452,1477.0775 L1754.2944,1466.0377 z" stroke="#C80000" stroke-width="0.24" stroke-linecap="round" stroke-linejoin="round" fill="none" />
    <path d="M1478.1837,1313.1223 L1418.9537,1313.1266 L1419.0332,1280.85 L1397.9899,1269.9705 L1365.5916,1269.9838 L1365.5568,1287.2828 L1375.1288,1287.3042 L1375.2509,1277.4424 L1397.038,1277.3684 L1404.3008,1287.1152 L1413.51,1287.1564 L1413.4277,1297.0233 L1404.3008,1297.0233 L1404.4652,1317.374 L1471.7137,1317.5802 L1471.684,1327.0745 L1404.7008,1327.1868 L1404.8328,1349.8538 L1471.7811,1349.791 L1471.7645,1359.7103 L1404.9567,1359.7211 L1405.086,1383.6676 L1471.8793,1383.6176 L1471.9111,1393.5306 L1404.9862,1393.5378 L1405.3579,1417.4578 L1414.186,1417.6674 L1414.4653,1427.5532 L1404.8029,1427.7765 L1398.0477,1437.5063 L1375.6084,1437.5719 L1375.6267,1427.031 L1365.624,1426.9678 L1365.505,1446.4764 L1393.0422,1446.4388 L1418.9894,1431.1835 L1418.9894,1397.1138 L1478.4785,1397.3295 z" stroke="#C80000" stroke-width="0.24" stroke-linecap="round" stroke-linejoin="round" fill="none" />
    <path d="M1403.8595,1513.5017 L1413.0718,1513.6067 L1413.0575,1523.3552 L1403.9069,1523.1372 L1403.9099,1523.2958 L1404.0529,1546.11 L1413.4093,1546.2468 L1413.4166,1556.168 L1404.1399,1556.0236 L1404.2693,1579.8699 L1413.6364,1579.9026 L1413.5907,1589.7316 L1404.3358,1589.7388 L1404.5237,1613.6554 L1413.56,1613.6814 L1413.589,1623.7496 L1404.0878,1624.0549 L1397.272,1633.7386 L1374.81,1633.8776 L1374.8284,1621.4918 L1365.1586,1621.4617 L1365.1505,1642.6902 L1392.3918,1642.6711 L1418.411,1627.7332 L1418.3923,1477.2303 L1411.4734,1473.66 L1396.3876,1473.6554 L1404.0753,1483.2244 L1412.971,1483.6901 L1412.9977,1493.1417 L1403.7164,1493.3745 z" stroke="#C80000" stroke-width="0.24" stroke-linecap="round" stroke-linejoin="round" fill="none" />
    <path d="M1264.7595,1316.1398 L1273.9292,1316.0723 L1273.9629,1325.8148 L1264.726,1325.9497 L1264.8944,1348.6376 L1274.1987,1348.5365 L1274.1652,1358.6836 L1265.063,1358.6499 L1265.1641,1382.3828 L1274.3336,1382.4839 L1274.4685,1392.2266 L1265.2654,1392.2603 L1265.3342,1416.1982 L1274.5327,1416.1428 L1274.5642,1426.4224 L1265.2977,1426.478 L1258.0825,1436.0323 L1235.6206,1436.1715 L1235.6389,1423.7856 L1225.9691,1423.7555 L1225.961,1444.984 L1253.2023,1444.9648 L1279.2216,1430.0271 L1279.2029,1279.5242 L1258.15,1268.4915 L1226.0073,1268.5048 L1225.9724,1287.5725 L1235.289,1287.5938 L1235.2411,1275.9999 L1257.1981,1275.9492 L1264.5573,1285.7656 L1273.7943,1285.9004 L1273.9292,1295.7441 L1264.6584,1295.879 z" stroke="#C80000" stroke-width="0.24" stroke-linecap="round" stroke-linejoin="round" fill="none" />
    <path d="M1166.6102,1316.6052 L1175.885,1316.5793 L1175.9089,1326.3636 L1166.6431,1326.4222 L1166.7219,1349.2134 L1176.069,1349.1414 L1176.1265,1359.1611 L1166.8665,1359.2251 L1166.9972,1382.9701 L1176.2417,1382.9498 L1176.3442,1392.7509 L1167.0864,1392.8112 L1167.2307,1416.6823 L1176.4126,1416.6254 L1176.5009,1426.957 L1167.1796,1427.0105 L1167.1511,1436.8389 L1146.3799,1437.097 L1146.3982,1424.4943 L1134.9254,1424.5824 L1134.8782,1445.7173 L1162.1638,1445.8002 L1188.1311,1430.7133 L1188.2599,1280.3071 L1167.2338,1269.2721 L1135.0239,1269.2433 L1135.0138,1288.335 L1146.1488,1288.3032 L1146.1326,1276.7352 L1166.4062,1276.7573 L1166.4338,1286.3391 L1175.817,1286.2853 L1175.8237,1296.331 L1166.4777,1296.3846 z" stroke="#C80000" stroke-width="0.24" stroke-linecap="round" stroke-linejoin="round" fill="none" />
    <path d="M1732.0602,1313.1223 L1672.8302,1313.1266 L1672.9097,1280.85 L1651.8666,1269.9705 L1619.4683,1269.9838 L1619.4332,1287.2828 L1629.0054,1287.3042 L1629.1274,1277.4424 L1650.9147,1277.3684 L1658.1774,1287.1152 L1667.3865,1287.1564 L1667.3043,1297.0233 L1658.1774,1297.0233 L1658.3418,1317.374 L1725.5903,1317.5802 L1725.5607,1327.0745 L1658.5773,1327.1868 L1658.7092,1349.8538 L1725.6577,1349.791 L1725.641,1359.7103 L1658.8333,1359.7211 L1658.9628,1383.6676 L1725.7557,1383.6176 L1725.7877,1393.5306 L1658.8628,1393.5378 L1659.2344,1417.4578 L1668.0627,1417.6674 L1668.3419,1427.5532 L1658.6794,1427.7765 L1651.9242,1437.5063 L1629.4849,1437.5719 L1629.5033,1427.031 L1619.5006,1426.9678 L1619.3816,1446.4764 L1646.9188,1446.4388 L1672.866,1431.1835 L1672.866,1397.1138 L1732.355,1397.3295 z" stroke="#C80000" stroke-width="0.24" stroke-linecap="round" stroke-linejoin="round" fill="none" />
    <path d="M1295.4934,1705.7797 L1295.4172,1721.5297 L1241.1757,1721.5121 L1241.1123,1743.4506 L1252.7108,1748.646 L1498.4922,1748.7065 L1513.9053,1743.4275 L1513.7657,1721.269 L1459.1201,1721.2651 L1458.8435,1705.8229 L1527.9653,1705.6006 L1527.6904,1742.9081 L1494.6774,1757.4216 L1257.691,1757.873 L1231.9656,1746.4716 L1231.8453,1705.8003 z" stroke="#C80000" stroke-width="0.24" stroke-linecap="round" stroke-linejoin="round" fill="none" />
    <path d="M1328.0659,1316.1273 L1337.3347,1316.1547 L1337.3203,1325.881 L1328.1134,1325.9216 L1328.4084,1348.6265 L1337.5776,1348.6033 L1337.5868,1358.6272 L1328.5182,1358.641 L1328.6597,1382.4077 L1337.76,1382.5135 L1337.8463,1392.3212 L1328.5424,1392.3285 L1328.7367,1416.328 L1338.0571,1416.1852 L1338.1042,1426.4685 L1328.7046,1426.4685 L1321.4784,1436.0323 L1299.0165,1436.1715 L1299.0348,1425.6288 L1289.3651,1425.5986 L1289.3569,1444.984 L1316.5983,1444.9648 L1342.6176,1430.0271 L1342.5989,1279.5242 L1321.546,1268.4915 L1289.4032,1268.5048 L1289.3684,1286.189 L1298.6849,1286.2103 L1298.6371,1275.9999 L1320.5941,1275.9492 L1327.9896,1285.7965 L1337.2478,1285.7936 L1337.1968,1295.788 L1327.9229,1295.9291 z" stroke="#C80000" stroke-width="0.24" stroke-linecap="round" stroke-linejoin="round" fill="none" />
    <path d="M1598.5884,1313.1223 L1539.3584,1313.1266 L1539.4379,1280.85 L1518.3945,1269.9705 L1485.9962,1269.9838 L1485.9614,1287.2828 L1495.5336,1287.3042 L1495.6555,1277.4424 L1517.4427,1277.3684 L1524.7054,1287.1152 L1533.9147,1287.1564 L1533.8325,1297.0233 L1524.7054,1297.0233 L1524.8699,1317.374 L1592.1185,1317.5802 L1592.0887,1327.0745 L1525.1055,1327.1868 L1525.2374,1349.8538 L1592.1858,1349.791 L1592.1692,1359.7103 L1525.3613,1359.7211 L1525.4908,1383.6676 L1592.2838,1383.6176 L1592.3159,1393.5306 L1525.3909,1393.5378 L1525.7625,1417.4578 L1534.5907,1417.6674 L1534.87,1427.5532 L1525.2076,1427.7765 L1518.4524,1437.5063 L1496.0131,1437.5719 L1496.0315,1427.031 L1486.0288,1426.9678 L1485.9097,1446.4764 L1513.4469,1446.4388 L1539.394,1431.1835 L1539.394,1397.1138 L1598.8832,1397.3295 z" stroke="#C80000" stroke-width="0.24" stroke-linecap="round" stroke-linejoin="round" fill="none" />
    <path d="M1249.1357,1504.5863 L1189.9058,1504.5906 L1189.9852,1472.314 L1168.9421,1461.4344 L1136.5438,1461.4478 L1136.5089,1478.7468 L1146.0809,1478.7683 L1146.203,1468.9064 L1167.9902,1468.8324 L1175.2529,1478.5792 L1184.4622,1478.6204 L1184.38,1488.4873 L1175.2529,1488.4873 L1175.4174,1508.838 L1242.666,1509.0442 L1242.6362,1518.5385 L1175.6528,1518.6508 L1175.7848,1541.3177 L1242.7333,1541.255 L1242.7166,1551.1743 L1175.9089,1551.185 L1176.0383,1575.1316 L1242.8313,1575.0815 L1242.8633,1584.9946 L1175.9384,1585.0018 L1176.3099,1608.9218 L1185.1383,1609.1313 L1185.4175,1619.0171 L1175.7551,1619.2405 L1168.9999,1628.9703 L1146.5605,1629.0359 L1146.5789,1618.495 L1136.5763,1618.4318 L1136.4572,1637.9404 L1163.9944,1637.9028 L1189.9415,1622.6475 L1189.9415,1588.5776 L1249.4307,1588.7935 z" stroke="#C80000" stroke-width="0.24" stroke-linecap="round" stroke-linejoin="round" fill="none" />
    <path d="M1474.1501,1513.5017 L1483.3627,1513.6067 L1483.3484,1523.3552 L1474.1976,1523.1372 L1474.2007,1523.2958 L1474.3436,1546.11 L1483.7001,1546.2468 L1483.7073,1556.168 L1474.4308,1556.0236 L1474.56,1579.8699 L1483.9271,1579.9026 L1483.8815,1589.7316 L1474.6267,1589.7388 L1474.8146,1613.6554 L1483.8507,1613.6814 L1483.8798,1623.7496 L1474.3785,1624.0549 L1467.5627,1633.7386 L1445.1008,1633.8776 L1445.1191,1621.4918 L1435.4493,1621.4617 L1435.4413,1642.6902 L1462.6826,1642.6711 L1488.7018,1627.7332 L1488.6832,1477.2303 L1481.7642,1473.66 L1466.6785,1473.6554 L1474.3661,1483.2244 L1483.2617,1483.6901 L1483.2885,1493.1417 L1474.0071,1493.3745 z" stroke="#C80000" stroke-width="0.24" stroke-linecap="round" stroke-linejoin="round" fill="none" />
    <path d="M1327.7343,1513.5017 L1336.9468,1513.6067 L1336.9323,1523.3552 L1327.7816,1523.1372 L1327.7847,1523.2958 L1327.9276,1546.11 L1337.284,1546.2468 L1337.2914,1556.168 L1328.0146,1556.0236 L1328.144,1579.8699 L1337.5112,1579.9026 L1337.4655,1589.7316 L1328.2106,1589.7388 L1328.3984,1613.6554 L1337.4348,1613.6814 L1337.4639,1623.7496 L1327.9626,1624.0549 L1321.1469,1633.7386 L1298.6848,1633.8776 L1298.7031,1621.4918 L1289.0334,1621.4617 L1289.0254,1642.6902 L1316.2666,1642.6711 L1342.2859,1627.7332 L1342.2671,1477.2303 L1335.3481,1473.66 L1320.2625,1473.6554 L1327.9501,1483.2244 L1336.8458,1483.6901 L1336.8726,1493.1417 L1327.5912,1493.3745 z" stroke="#C80000" stroke-width="0.24" stroke-linecap="round" stroke-linejoin="round" fill="none" />
  </g>
</svg>