<?xml version="1.0" encoding="UTF-8"?><svg id="Layer_2" xmlns="http://www.w3.org/2000/svg" viewBox="0 0 713.26 1039.39"><defs><style>.cls-1{stroke:#000;}.cls-1,.cls-2{fill:none;stroke-linecap:round;stroke-linejoin:round;stroke-width:.24px;}.cls-2{stroke:#c80000;}</style></defs><g id="Layer_1-2"><g id="Default"><path class="cls-1" d="M11.55,455.55v-23.56"/><path class="cls-1" d="M148.23,293.95v101.85"/><path class="cls-1" d="M11.55,262.68v-21.03"/><path class="cls-1" d="M77.15,293.97h71.08"/><path class="cls-1" d="M77.15,293.94h71.08v101.87"/><path class="cls-1" d="M148.23,293.94v101.85"/><path class="cls-1" d="M148.23,395.82v-.02l-71.08.02v41.33"/><path class="cls-1" d="M148.23,395.79h-71.08v41.33"/><path class="cls-1" d="M11.55,455.54v.02-23.56"/><path class="cls-1" d="M11.55,455.54v-23.56"/><path class="cls-1" d="M11.55,241.66v-.02l39.59.02"/><path class="cls-1" d="M11.55,241.64h39.59"/><path class="cls-1" d="M77.15,437.15l-32.08,18.41"/><path class="cls-1" d="M77.15,437.13l-32.08,18.41"/><path class="cls-1" d="M45.07,455.56v-.02l-33.52.02"/><path class="cls-1" d="M45.07,455.54H11.55"/><path class="cls-1" d="M51.14,241.66l26.01,13.64"/><path class="cls-1" d="M51.14,241.64l26.01,13.64h0"/><path class="cls-1" d="M77.15,255.3v38.67"/><path class="cls-1" d="M77.15,255.28v38.67"/><path class="cls-1" d="M11.55,432v-.02h12.28"/><path class="cls-1" d="M11.55,431.98l12.28-.02"/><path class="cls-1" d="M11.55,262.7v-21.03"/><path class="cls-1" d="M11.55,262.67v-21.03"/><path class="cls-1" d="M47.67,250.68l-24.33.07.03,11.93"/><path class="cls-1" d="M23.84,431.98l.03,12.54h2.25"/><path class="cls-1" d="M47.67,250.66l-24.33.07.03,11.93"/><path class="cls-1" d="M23.84,431.96l.03,12.54h2.25"/><path class="cls-1" d="M23.38,262.68l-11.83.02"/><path class="cls-1" d="M23.38,262.66l-11.83.02"/><path class="cls-1" d="M49.92,250.68h-2.24"/><path class="cls-1" d="M26.12,444.52h.63"/><path class="cls-1" d="M49.92,250.66h-2.24"/><path class="cls-1" d="M26.12,444.5h.63"/><path class="cls-1" d="M47.68,250.68v-.02.02Z"/><path class="cls-1" d="M49.93,250.66v.02-.02Z"/><path class="cls-1" d="M51.08,444.64c1.45-3.27,2.89-6.55,4.34-9.82l2.18-4.93"/><path class="cls-1" d="M51.08,444.64v-1.57"/><path class="cls-1" d="M26.75,444.52v.26s24.33-.15,24.33-.15v-1.55"/><path class="cls-1" d="M51.08,444.61c1.45-3.27,2.89-6.55,4.34-9.82l2.18-4.93"/><path class="cls-1" d="M51.08,444.61v-1.57"/><path class="cls-1" d="M26.75,444.5v.26s24.33-.15,24.33-.15v-1.55s0-.02,0-.02v.02"/><path class="cls-1" d="M49.93,250.88v-.2h0"/><path class="cls-1" d="M49.93,250.86v-.2h0"/><path class="cls-1" d="M67.1,271.59v-6.82"/><path class="cls-1" d="M67.1,271.59h-8.26"/><path class="cls-1" d="M67.1,264.78h-10.8"/><path class="cls-1" d="M67.09,271.57v-6.82"/><path class="cls-1" d="M67.09,271.57h-8.25"/><path class="cls-1" d="M67.09,264.75h-10.78"/><path class="cls-1" d="M56.3,264.78l-6.38-14.1"/><path class="cls-1" d="M56.3,264.75l-6.38-14.1"/><path class="cls-1" d="M58.84,271.59l.18,29.96"/><path class="cls-1" d="M58.84,271.57l.18,29.96"/><path class="cls-1" d="M139.54,308.35v-6.82"/><path class="cls-1" d="M115.66,301.75h-40.35"/><path class="cls-1" d="M139.3,308.63v-.28"/><path class="cls-1" d="M115.66,301.53v.22"/><path class="cls-1" d="M75.31,301.75v-.22"/><path class="cls-1" d="M139.54,308.35h-.24"/><path class="cls-1" d="M59.06,308.63h80.24"/><path class="cls-1" d="M139.54,301.53h-23.88"/><path class="cls-1" d="M75.31,301.53h-16.3"/><path class="cls-1" d="M139.54,308.37v-6.82"/><path class="cls-1" d="M112.41,301.77h-30.76"/><path class="cls-1" d="M139.3,308.66v-.28"/><path class="cls-1" d="M112.41,301.56v.22"/><path class="cls-1" d="M81.65,301.77v-.22"/><path class="cls-1" d="M139.54,308.37h-.24"/><path class="cls-1" d="M59.06,308.66h80.24"/><path class="cls-1" d="M139.54,301.56h-27.13"/><path class="cls-1" d="M81.65,301.56h-22.64"/><path class="cls-1" d="M59.06,308.66l.19,32.31"/><path class="cls-1" d="M59.06,308.63l.19,32.31"/><path class="cls-1" d="M115.66,301.53l-3.25.02"/><path class="cls-1" d="M81.65,301.56l-6.34-.02"/><path class="cls-1" d="M112.41,301.77l3.25-.02"/><path class="cls-1" d="M75.31,301.75l6.34.02"/><path class="cls-1" d="M139.3,308.37v-.02.28"/><path class="cls-1" d="M139.54,347.76v-6.82"/><path class="cls-1" d="M115.66,341.16h-40.35"/><path class="cls-1" d="M139.3,348.04v-.28"/><path class="cls-1" d="M115.66,340.94v.22"/><path class="cls-1" d="M75.31,341.16v-.22"/><path class="cls-1" d="M139.54,347.76h-.24"/><path class="cls-1" d="M59.3,348.04h80"/><path class="cls-1" d="M139.54,340.94h-23.88"/><path class="cls-1" d="M75.31,340.94h-16.06"/><path class="cls-1" d="M139.54,347.78v-6.82"/><path class="cls-1" d="M112.41,341.18h-30.76"/><path class="cls-1" d="M139.3,348.06v-.28"/><path class="cls-1" d="M112.41,340.96v.22"/><path class="cls-1" d="M81.65,341.18v-.22"/><path class="cls-1" d="M139.54,347.78h-.24"/><path class="cls-1" d="M59.3,348.06h80"/><path class="cls-1" d="M139.54,340.96h-27.13"/><path class="cls-1" d="M81.65,340.96h-22.4"/><path class="cls-1" d="M59.3,348.06l.19,31.79"/><path class="cls-1" d="M59.3,348.04l.19,31.79"/><path class="cls-1" d="M115.66,340.94l-3.25.02"/><path class="cls-1" d="M81.65,340.96l-6.34-.02"/><path class="cls-1" d="M112.41,341.18l3.25-.02"/><path class="cls-1" d="M75.31,341.16l6.34.02"/><path class="cls-1" d="M139.3,347.78v-.02.28"/><path class="cls-1" d="M139.54,386.65v-6.82"/><path class="cls-1" d="M115.66,380.05h-40.35"/><path class="cls-1" d="M139.3,386.93v-.28"/><path class="cls-1" d="M115.66,379.83v.22"/><path class="cls-1" d="M75.31,380.05v-.22"/><path class="cls-1" d="M139.54,386.65h-.24"/><path class="cls-1" d="M139.54,379.83h-23.88"/><path class="cls-1" d="M75.31,379.83h-15.83"/><path class="cls-1" d="M59.53,386.93h79.77l.24-7.08"/><path class="cls-1" d="M112.41,380.07h-30.76"/><path class="cls-1" d="M139.3,386.95v-.28"/><path class="cls-1" d="M112.41,379.85v.22"/><path class="cls-1" d="M81.65,380.07v-.22"/><path class="cls-1" d="M139.54,386.67h-.24"/><path class="cls-1" d="M139.54,379.85h-27.13"/><path class="cls-1" d="M81.65,379.85h-22.17"/><path class="cls-1" d="M59.53,386.95h79.77"/><path class="cls-1" d="M59.53,386.93v.02l.22,36.12"/><path class="cls-1" d="M59.53,386.93l.22,36.12"/><path class="cls-1" d="M115.66,379.83l-3.25.02"/><path class="cls-1" d="M81.65,379.85l-6.34-.02"/><path class="cls-1" d="M112.41,380.07l3.25-.02"/><path class="cls-1" d="M75.31,380.05l6.34.02"/><path class="cls-1" d="M139.3,386.67v-.02.28"/><path class="cls-1" d="M67.09,429.86v-6.82h-7.34"/><path class="cls-1" d="M67.09,429.86h-9.49"/><path class="cls-1" d="M67.1,429.89v-6.82h-7.35"/><path class="cls-1" d="M67.1,429.89h-9.5"/><path class="cls-1" d="M64.68,13.72v182.41"/><path class="cls-1" d="M.12,23.4V.35"/><path class="cls-1" d="M.12,214.25v-25.67h14"/><path class="cls-1" d="M13.67,23.89h-2.25"/><path class="cls-1" d="M.12,214.24v.02-25.68"/><path class="cls-1" d="M.12,214.24v-25.66"/><path class="cls-1" d="M.12.36v-.02l39.06.02"/><path class="cls-1" d="M.12.33h39.06"/><path class="cls-1" d="M64.68,196.14v-.02l-31.57,18.14"/><path class="cls-1" d="M64.68,196.12l-31.57,18.12h0l-32.99.02"/><path class="cls-1" d="M33.11,214.24H.12"/><path class="cls-1" d="M39.18.36l25.5,13.37"/><path class="cls-1" d="M39.18.33l25.5,13.37"/><path class="cls-1" d="M64.68,13.73v182.41"/><path class="cls-1" d="M64.68,13.71v182.41"/><path class="cls-1" d="M38.18,9.86l-.22-.48-24.33.07v.26"/><path class="cls-1" d="M14.16,203.22h.63"/><path class="cls-1" d="M37.34,9.35c-8.17-.01-16.17-.01-23.71.33"/><path class="cls-1" d="M14.16,203.2h.63"/><path class="cls-1" d="M39.12,203.33l.19-.42-.09-14.32"/><path class="cls-1" d="M39.12,203.33l-.09-14.75"/><path class="cls-1" d="M13.63,9.7h0s.02,2.86.02,2.86"/><path class="cls-1" d="M14.78,203.22v.26s24.33-.15,24.33-.15l-.09-14.75"/><path class="cls-1" d="M39.12,203.31v-1.57"/><path class="cls-1" d="M13.63,9.68h0s.02,2.86.02,2.86"/><path class="cls-1" d="M14.78,203.2v.26s24.33-.15,24.33-.15v-1.55s0-.02,0-.02v.02"/><path class="cls-1" d="M38.21,20.82l-.03-10.96-.22-.48"/><path class="cls-1" d="M13.64,12.56l.03,11.32"/><path class="cls-1" d="M37.96,9.56v-.19"/><path class="cls-1" d="M37.96,9.55v-.2"/><path class="cls-1" d="M13.64,12.54l.03,11.35"/><path class="cls-1" d="M37.96,9.54v-.19"/><path class="cls-1" d="M46.83,23.47v6.82"/><path class="cls-1" d="M11.42,23.47v.41"/><path class="cls-1" d="M1.04,23.41H.12"/><path class="cls-1" d="M46.83,30.29h-8.56"/><path class="cls-1" d="M46.83,23.47h-8.6"/><path class="cls-1" d="M11.42,23.47H1.04"/><path class="cls-1" d="M11.42,23.45v.44"/><path class="cls-1" d="M1.04,23.39H.12"/><path class="cls-1" d="M46.48,30.27h-5.1"/><path class="cls-1" d="M46.12,23.45h-4.78"/><path class="cls-1" d="M11.42,23.45H1.04"/><path class="cls-1" d="M41.38,30.27l-3.11.02"/><path class="cls-1" d="M.12,23.41V.36"/><path class="cls-1" d="M.12,23.39V.33"/><path class="cls-1" d="M38.23,23.47l-.02-2.66"/><path class="cls-1" d="M1.04,23.41v-.02.02Z"/><path class="cls-1" d="M41.33,23.45l-3.11.02"/><path class="cls-1" d="M41.6,67.33h4.14"/><path class="cls-1" d="M45.72,60.23h-4.16"/><path class="cls-1" d="M38.49,67.35l3.11-.02"/><path class="cls-1" d="M41.56,60.23l-3.11.02"/><path class="cls-1" d="M46.84,60.25v7.1"/><path class="cls-1" d="M38.49,67.35h8.35"/><path class="cls-1" d="M46.84,60.25h-8.39l-.18-29.96"/><path class="cls-1" d="M41.83,106.74h3.85"/><path class="cls-1" d="M45.66,99.64h-3.87"/><path class="cls-1" d="M38.73,106.76l3.11-.02"/><path class="cls-1" d="M41.79,99.64l-3.11.02"/><path class="cls-1" d="M46.84,99.66v7.1"/><path class="cls-1" d="M38.73,106.76h8.12"/><path class="cls-1" d="M46.84,99.66h-8.16l-.19-32.31"/><path class="cls-1" d="M45.96,138.53h-3.93"/><path class="cls-1" d="M42.07,145.63h3.57"/><path class="cls-1" d="M46.85,138.55v7.1"/><path class="cls-1" d="M46.85,138.55h-7.93"/><path class="cls-1" d="M38.96,145.65h7.89"/><path class="cls-1" d="M42.03,138.53l-3.11.02"/><path class="cls-1" d="M38.96,145.65l3.11-.02"/><path class="cls-1" d="M38.92,138.55l-.19-31.79"/><path class="cls-1" d="M45.92,181.75h-3.63"/><path class="cls-1" d="M46.29,188.56h-3.96"/><path class="cls-1" d="M46.86,181.77v6.82"/><path class="cls-1" d="M46.86,181.77h-7.68"/><path class="cls-1" d="M46.86,188.58h-7.64"/><path class="cls-1" d="M11.87,188.58H.28"/><path class="cls-1" d="M42.29,181.75l-3.11.02-.22-36.12"/><path class="cls-1" d="M39.03,188.58l.08,13.18"/><path class="cls-1" d="M39.02,188.58l.08,13.19"/><path class="cls-1" d="M42.33,188.56l-3.11.02"/><path class="cls-1" d="M.12,188.58h.16"/><path class="cls-1" d="M11.87,188.58h2.25"/><path class="cls-1" d="M13.67,23.89h-2.25"/><path class="cls-1" d="M.12,188.58h14"/><path class="cls-1" d="M13.67,23.89h-2.25"/><path class="cls-1" d="M11.87,188.58H.28"/><path class="cls-1" d="M14.12,188.58l.04,14.64"/><path class="cls-1" d="M14.12,188.58l.04,14.62"/><path class="cls-1" d="M143.62,443.85v-23.56"/><path class="cls-1" d="M208.17,243.32v182.41"/><path class="cls-1" d="M143.62,443.84v.02-23.56"/><path class="cls-1" d="M143.62,443.84v-23.56"/><path class="cls-1" d="M208.17,425.74v-.02l-31.57,18.14"/><path class="cls-1" d="M208.17,425.72l-31.57,18.12h0l-32.99.02"/><path class="cls-1" d="M176.61,443.84h-32.99"/><path class="cls-1" d="M208.17,243.31v182.43"/><path class="cls-1" d="M208.17,243.31v182.41"/><path class="cls-1" d="M143.62,420.3v-.02h11.75"/><path class="cls-1" d="M143.62,420.28l11.75-.02"/><path class="cls-1" d="M199.76,238.91v-.02l8.42,4.44"/><path class="cls-1" d="M199.76,238.89l8.42,4.41"/><path class="cls-1" d="M155.37,420.28l.03,12.54h2.25"/><path class="cls-1" d="M155.37,420.26l.03,12.54h2.25"/><path class="cls-1" d="M157.65,432.82h.63"/><path class="cls-1" d="M157.65,432.8h.63"/><path class="cls-1" d="M181.46,238.98l18.3-.06"/><path class="cls-1" d="M181.46,238.95l18.3-.06"/><path class="cls-1" d="M181.46,238.95v.02-.02Z"/><path class="cls-1" d="M182.61,432.93c1.45-3.27,2.89-6.55,4.34-9.82.73-1.64,1.45-3.29,2.18-4.93"/><path class="cls-1" d="M182.61,432.93v-1.57"/><path class="cls-1" d="M158.28,432.82v.26s24.33-.15,24.33-.15v-1.55"/><path class="cls-1" d="M181.46,239.18v-.02s0,0,0-.02v.04Z"/><path class="cls-1" d="M182.61,432.91c1.45-3.27,2.89-6.55,4.34-9.82.73-1.64,1.45-3.29,2.18-4.93"/><path class="cls-1" d="M182.61,432.91v-1.57"/><path class="cls-1" d="M158.28,432.8v.26s24.33-.15,24.33-.15v-1.55s0-.02,0-.02v.02"/><path class="cls-1" d="M181.46,239.18c0-.07,0-.13,0-.2h0"/><path class="cls-1" d="M181.46,239.16c0-.07,0-.13,0-.2h0"/><path class="cls-1" d="M198.57,259.87v-6.82"/><path class="cls-1" d="M198.57,259.87h-8.2"/><path class="cls-1" d="M198.57,253.05h-10.73"/><path class="cls-1" d="M198.58,259.89v-6.82"/><path class="cls-1" d="M198.58,259.89h-8.21"/><path class="cls-1" d="M198.58,253.08h-10.74"/><path class="cls-1" d="M187.84,253.08c-2.13-4.7-4.25-9.4-6.38-14.1"/><path class="cls-1" d="M187.84,253.05c-2.13-4.7-4.25-9.4-6.38-14.1"/><path class="cls-1" d="M190.37,259.89l.18,29.96"/><path class="cls-1" d="M190.37,259.87l.18,29.96"/><path class="cls-1" d="M200.14,289.85v7.1"/><path class="cls-1" d="M190.59,296.95h9.55"/><path class="cls-1" d="M200.14,289.85h-9.59"/><path class="cls-1" d="M200.14,289.83v7.1"/><path class="cls-1" d="M190.59,296.93h9.55"/><path class="cls-1" d="M200.14,289.83h-9.59"/><path class="cls-1" d="M190.59,296.95l.19,32.31"/><path class="cls-1" d="M190.59,296.93l.19,32.31"/><path class="cls-1" d="M200.14,329.24v7.1"/><path class="cls-1" d="M190.83,336.34h9.31"/><path class="cls-1" d="M200.14,329.24h-9.35"/><path class="cls-1" d="M200.14,329.26v7.1"/><path class="cls-1" d="M190.83,336.36h9.31"/><path class="cls-1" d="M200.14,329.26h-9.35"/><path class="cls-1" d="M190.83,336.36l.19,31.79"/><path class="cls-1" d="M190.83,336.34l.19,31.79"/><path class="cls-1" d="M200.14,368.13v7.1"/><path class="cls-1" d="M200.14,368.13h-9.12"/><path class="cls-1" d="M191.06,375.23h9.08"/><path class="cls-1" d="M200.14,368.15v7.1"/><path class="cls-1" d="M200.14,368.15h-9.12"/><path class="cls-1" d="M191.06,375.25h9.08"/><path class="cls-1" d="M191.06,375.23v.02l.22,36.12"/><path class="cls-1" d="M191.06,375.23l.22,36.12"/><path class="cls-1" d="M198.57,418.16v-6.82h-7.29"/><path class="cls-1" d="M198.57,418.16h-9.43"/><path class="cls-1" d="M198.58,418.19v-6.82h-7.3"/><path class="cls-1" d="M198.58,418.19h-9.45"/><path class="cls-1" d="M241.46,431.79v-23.56"/><path class="cls-1" d="M241.46,431.78v.02-23.56"/><path class="cls-1" d="M241.46,431.78v-23.56"/><path class="cls-1" d="M306.02,413.69v-.02l-31.57,18.14"/><path class="cls-1" d="M306.02,413.66l-31.57,18.12h0l-32.99.02"/><path class="cls-1" d="M274.45,431.78h-32.99"/><path class="cls-1" d="M306.02,231.25v182.43"/><path class="cls-1" d="M306.02,231.25v182.41"/><path class="cls-1" d="M241.46,408.24v-.02h11.75"/><path class="cls-1" d="M241.46,408.22l11.75-.02"/><path class="cls-1" d="M297.6,226.86v-.02l8.42,4.44"/><path class="cls-1" d="M297.6,226.84l8.42,4.41"/><path class="cls-1" d="M253.21,408.23l.03,12.54h2.25"/><path class="cls-1" d="M253.21,408.2l.03,12.54h2.25"/><path class="cls-1" d="M255.5,420.77h.63"/><path class="cls-1" d="M255.5,420.74h.63"/><path class="cls-1" d="M279.3,226.92l18.3-.06"/><path class="cls-1" d="M279.3,226.9l18.3-.06"/><path class="cls-1" d="M279.3,226.9v.02-.02Z"/><path class="cls-1" d="M280.46,420.88c1.45-3.27,2.89-6.55,4.34-9.82.73-1.64,1.45-3.29,2.18-4.93"/><path class="cls-1" d="M280.46,420.88v-1.57"/><path class="cls-1" d="M256.12,420.77v.26s24.33-.15,24.33-.15v-1.55"/><path class="cls-1" d="M279.3,227.12v-.02s0,0,0-.02v.04Z"/><path class="cls-1" d="M280.46,420.86c1.45-3.27,2.89-6.55,4.34-9.82.73-1.64,1.45-3.29,2.18-4.93"/><path class="cls-1" d="M280.46,420.86v-1.57"/><path class="cls-1" d="M256.12,420.74v.26s24.33-.15,24.33-.15v-1.55s0-.02,0-.02v.02"/><path class="cls-1" d="M279.3,227.12v-.2s0,0,0,0"/><path class="cls-1" d="M279.3,227.1v-.2s0,0,0,0"/><path class="cls-1" d="M296.36,247.81v-6.82"/><path class="cls-1" d="M296.36,247.81h-8.15"/><path class="cls-1" d="M296.36,241h-10.68"/><path class="cls-1" d="M296.38,247.84v-6.82"/><path class="cls-1" d="M296.38,247.84h-8.16"/><path class="cls-1" d="M296.38,241.02h-10.7"/><path class="cls-1" d="M285.68,241.02c-.65-1.44-1.3-2.88-1.95-4.32-1.47-3.26-2.95-6.52-4.42-9.78"/><path class="cls-1" d="M285.68,241c-.65-1.44-1.3-2.88-1.95-4.32-1.47-3.26-2.95-6.52-4.42-9.78"/><path class="cls-1" d="M288.21,247.84l.18,29.96"/><path class="cls-1" d="M288.21,247.81l.18,29.96"/><path class="cls-1" d="M297.98,277.8v7.1"/><path class="cls-1" d="M288.44,284.9h9.55"/><path class="cls-1" d="M297.98,277.8h-9.59"/><path class="cls-1" d="M297.98,277.78v7.1"/><path class="cls-1" d="M288.44,284.88h9.55"/><path class="cls-1" d="M297.98,277.78h-9.59"/><path class="cls-1" d="M288.44,284.9l.19,32.31"/><path class="cls-1" d="M288.44,284.88l.19,32.31"/><path class="cls-1" d="M297.98,317.18v7.1"/><path class="cls-1" d="M288.67,324.28h9.31"/><path class="cls-1" d="M297.98,317.18h-9.35"/><path class="cls-1" d="M297.98,317.21v7.1"/><path class="cls-1" d="M288.67,324.31h9.31"/><path class="cls-1" d="M297.98,317.21h-9.35"/><path class="cls-1" d="M288.67,324.31l.19,31.79"/><path class="cls-1" d="M288.67,324.28l.19,31.79"/><path class="cls-1" d="M297.98,356.07v7.1"/><path class="cls-1" d="M297.98,356.07h-9.12"/><path class="cls-1" d="M288.91,363.17h9.08"/><path class="cls-1" d="M297.98,356.1v7.1"/><path class="cls-1" d="M297.98,356.1h-9.12"/><path class="cls-1" d="M288.91,363.2h9.08"/><path class="cls-1" d="M288.91,363.17v.02l.22,36.12"/><path class="cls-1" d="M288.91,363.17l.22,36.12"/><path class="cls-1" d="M296.36,406.11v-6.82h-7.24"/><path class="cls-1" d="M296.36,406.11h-9.39"/><path class="cls-1" d="M296.38,406.13v-6.82h-7.25"/><path class="cls-1" d="M296.38,406.13h-9.4"/><path class="cls-1" d="M342.23,437.62v-23.56"/><path class="cls-1" d="M406.78,237.08v182.41"/><path class="cls-1" d="M342.23,437.6v.02-23.56"/><path class="cls-1" d="M342.23,437.6v-23.56"/><path class="cls-1" d="M406.78,419.51v-.02l-31.57,18.14"/><path class="cls-1" d="M406.78,419.48l-31.57,18.12h0l-32.99.02"/><path class="cls-1" d="M375.22,437.6h-32.99"/><path class="cls-1" d="M406.78,237.07v182.43"/><path class="cls-1" d="M406.78,237.07v182.41"/><path class="cls-1" d="M342.23,414.07v-.02h11.75"/><path class="cls-1" d="M342.23,414.04l11.75-.02"/><path class="cls-1" d="M398.37,232.68v-.02l8.42,4.44"/><path class="cls-1" d="M398.37,232.66l8.42,4.41"/><path class="cls-1" d="M353.98,414.05l.03,12.54h2.25"/><path class="cls-1" d="M353.98,414.03l.03,12.54h2.25"/><path class="cls-1" d="M356.26,426.59h.63"/><path class="cls-1" d="M356.26,426.57h.63"/><path class="cls-1" d="M380.07,232.74l18.3-.06"/><path class="cls-1" d="M380.07,232.72l18.3-.06"/><path class="cls-1" d="M380.07,232.72v.02-.02Z"/><path class="cls-1" d="M381.22,426.7c1.45-3.27,2.89-6.55,4.34-9.82l2.18-4.93"/><path class="cls-1" d="M381.22,426.7v-1.57"/><path class="cls-1" d="M356.89,426.59v.26s24.33-.15,24.33-.15v-1.55"/><path class="cls-1" d="M380.07,232.95v-.02s0,0,0-.02v.04Z"/><path class="cls-1" d="M381.22,426.68c1.45-3.27,2.89-6.55,4.34-9.82l2.18-4.93"/><path class="cls-1" d="M381.22,426.68v-1.57"/><path class="cls-1" d="M356.89,426.56v.26s24.33-.15,24.33-.15v-1.55s0-.02,0-.02v.02"/><path class="cls-1" d="M380.07,232.95v-.2s0,0,0,0"/><path class="cls-1" d="M380.07,232.92v-.2s0,0,0,0"/><path class="cls-1" d="M397.08,253.63v-6.82"/><path class="cls-1" d="M397.08,253.63h-8.1"/><path class="cls-1" d="M397.08,246.82h-10.63"/><path class="cls-1" d="M397.09,253.66v-6.82"/><path class="cls-1" d="M397.09,253.66h-8.11"/><path class="cls-1" d="M397.09,246.84h-10.64"/><path class="cls-1" d="M386.45,246.84c-.65-1.44-1.3-2.88-1.95-4.32-1.47-3.26-2.95-6.52-4.42-9.78"/><path class="cls-1" d="M386.45,246.82c-.65-1.44-1.3-2.88-1.95-4.32-1.47-3.26-2.95-6.52-4.42-9.78"/><path class="cls-1" d="M388.98,253.66l.18,29.96"/><path class="cls-1" d="M388.98,253.63l.18,29.96"/><path class="cls-1" d="M398.75,283.62v7.1"/><path class="cls-1" d="M389.2,290.72h9.55"/><path class="cls-1" d="M398.75,283.62h-9.59"/><path class="cls-1" d="M398.75,283.6v7.1"/><path class="cls-1" d="M389.2,290.7h9.55"/><path class="cls-1" d="M398.75,283.6h-9.59"/><path class="cls-1" d="M389.2,290.72l.19,32.31"/><path class="cls-1" d="M389.2,290.7l.19,32.31"/><path class="cls-1" d="M398.75,323v7.1"/><path class="cls-1" d="M389.44,330.1h9.31"/><path class="cls-1" d="M398.75,323h-9.35"/><path class="cls-1" d="M398.75,323.03v7.1"/><path class="cls-1" d="M389.44,330.13h9.31"/><path class="cls-1" d="M398.75,323.03h-9.35"/><path class="cls-1" d="M389.44,330.13l.19,31.79"/><path class="cls-1" d="M389.44,330.1l.19,31.79"/><path class="cls-1" d="M398.75,361.89v7.1"/><path class="cls-1" d="M398.75,361.89h-9.12"/><path class="cls-1" d="M389.67,368.99h9.08"/><path class="cls-1" d="M398.75,361.92v7.1"/><path class="cls-1" d="M398.75,361.92h-9.12"/><path class="cls-1" d="M389.67,369.02h9.08"/><path class="cls-1" d="M389.67,368.99v.02l.22,36.12"/><path class="cls-1" d="M389.67,368.99l.22,36.12"/><path class="cls-1" d="M397.08,411.93v-6.82h-7.19"/><path class="cls-1" d="M397.08,411.93h-9.34"/><path class="cls-1" d="M397.09,411.95v-6.82h-7.2"/><path class="cls-1" d="M397.09,411.95h-9.35"/><path class="cls-1" d="M447.56,447.76v-25.7"/><path class="cls-1" d="M447.56,447.75v.02-25.7"/><path class="cls-1" d="M447.56,447.75v-25.7"/><path class="cls-1" d="M512.12,429.66v-.02l-31.57,18.14"/><path class="cls-1" d="M512.12,429.63l-31.57,18.12h0l-32.99.02"/><path class="cls-1" d="M480.55,447.75h-32.99"/><path class="cls-1" d="M512.12,247.22v182.43"/><path class="cls-1" d="M512.12,247.22v182.41"/><path class="cls-1" d="M503.7,242.83v-.02l8.42,4.44"/><path class="cls-1" d="M503.7,242.81l8.42,4.41"/><path class="cls-1" d="M459.35,436.74h2.25"/><path class="cls-1" d="M459.35,436.71h2.25"/><path class="cls-1" d="M461.6,436.74h.63"/><path class="cls-1" d="M461.6,436.71h.63"/><path class="cls-1" d="M485.4,242.89l18.3-.06"/><path class="cls-1" d="M485.4,242.87l18.3-.06"/><path class="cls-1" d="M485.4,242.87v.02-.02Z"/><path class="cls-1" d="M486.56,436.85l6.52-14.75"/><path class="cls-1" d="M486.56,436.85v-1.57"/><path class="cls-1" d="M462.23,436.74v.26s24.33-.15,24.33-.15v-1.55"/><path class="cls-1" d="M485.41,243.09v-.02s0,0,0-.02v.04Z"/><path class="cls-1" d="M486.56,436.83l6.52-14.75"/><path class="cls-1" d="M486.56,436.83v-1.57"/><path class="cls-1" d="M462.23,436.71v.26s24.33-.15,24.33-.15v-1.55s0-.02,0-.02v.02"/><path class="cls-1" d="M485.41,243.09v-.2s0,0,0,0"/><path class="cls-1" d="M485.41,243.07v-.2s0,0,0,0"/><path class="cls-1" d="M502.36,263.78v-6.82"/><path class="cls-1" d="M502.36,263.78h-8.05"/><path class="cls-1" d="M502.36,256.97h-10.58"/><path class="cls-1" d="M502.37,263.81v-6.82"/><path class="cls-1" d="M502.37,263.81h-8.06"/><path class="cls-1" d="M502.37,256.99h-10.59"/><path class="cls-1" d="M491.78,256.99c-2.13-4.7-4.25-9.4-6.38-14.1"/><path class="cls-1" d="M491.78,256.97c-2.13-4.7-4.25-9.4-6.38-14.1"/><path class="cls-1" d="M494.32,263.81l.18,29.96"/><path class="cls-1" d="M494.32,263.78l.18,29.96"/><path class="cls-1" d="M504.08,293.75v.22l-.04-.22.04,7.12"/><path class="cls-1" d="M494.54,300.87h9.55"/><path class="cls-1" d="M504.08,293.77h-9.59"/><path class="cls-1" d="M504.08,293.96v6.88"/><path class="cls-1" d="M504.04,293.96v-.22.22Z"/><path class="cls-1" d="M494.54,300.85h9.55"/><path class="cls-1" d="M504.04,293.75h-9.55"/><path class="cls-1" d="M494.54,300.87l.19,32.31"/><path class="cls-1" d="M494.54,300.85l.19,32.31"/><path class="cls-1" d="M504.08,293.77v-.02.22"/><path class="cls-1" d="M504.08,333.16v.22l-.04-.22.04,7.12"/><path class="cls-1" d="M494.78,340.28h9.31"/><path class="cls-1" d="M504.08,333.18h-9.35"/><path class="cls-1" d="M504.08,333.37v6.88"/><path class="cls-1" d="M504.04,333.37v-.22.22Z"/><path class="cls-1" d="M494.78,340.25h9.31"/><path class="cls-1" d="M504.04,333.15h-9.31"/><path class="cls-1" d="M494.78,340.28l.19,31.79"/><path class="cls-1" d="M494.78,340.25l.19,31.79"/><path class="cls-1" d="M504.08,333.18v-.02.22"/><path class="cls-1" d="M504.08,372.05v.22l-.04-.22.04,7.1"/><path class="cls-1" d="M504.04,372.26v-.22.22l-9.08-.22"/><path class="cls-1" d="M495.01,379.14h9.08"/><path class="cls-1" d="M504.08,372.07v7.1"/><path class="cls-1" d="M504.08,372.07h-9.12"/><path class="cls-1" d="M495.01,379.17h9.08"/><path class="cls-1" d="M495.01,379.14v.02l.22,36.12"/><path class="cls-1" d="M495.01,379.14l.22,36.12"/><path class="cls-1" d="M504.08,372.07v-.02.22"/><path class="cls-1" d="M447.56,422.05h.16"/><path class="cls-1" d="M502.36,422.08v-6.82"/><path class="cls-1" d="M502.36,415.26h-7.14"/><path class="cls-1" d="M502.36,422.08h-9.28"/><path class="cls-1" d="M459.31,422.08h-11.59"/><path class="cls-1" d="M502.37,422.1v-6.82"/><path class="cls-1" d="M502.37,415.29h-7.15"/><path class="cls-1" d="M502.37,422.1h-9.3"/><path class="cls-1" d="M459.31,422.1h-11.59"/><path class="cls-1" d="M459.31,422.1l.04,14.64"/><path class="cls-1" d="M459.31,422.08l.04,14.64"/><path class="cls-1" d="M551.91,271.38v-23.23"/><path class="cls-1" d="M616.47,261.52v182.41"/><path class="cls-1" d="M551.91,462.05v-25.7"/><path class="cls-1" d="M551.91,462.03v.02-25.7"/><path class="cls-1" d="M551.91,462.03v-25.7"/><path class="cls-1" d="M551.91,248.16v-.02l39.06.02"/><path class="cls-1" d="M551.91,248.13h39.06"/><path class="cls-1" d="M616.47,443.94v-.02l-31.57,18.14"/><path class="cls-1" d="M616.47,443.91l-31.57,18.12h0l-32.99.02"/><path class="cls-1" d="M584.9,462.03h-32.99"/><path class="cls-1" d="M590.97,248.16l25.5,13.37"/><path class="cls-1" d="M590.97,248.13l25.5,13.37"/><path class="cls-1" d="M616.47,261.53v182.41"/><path class="cls-1" d="M616.47,261.5v23.02"/><path class="cls-1" d="M616.47,333.83v-49.29"/><path class="cls-1" d="M616.47,333.82v110.1"/><path class="cls-1" d="M587.5,257.17l-24.33.07.04,14.03"/><path class="cls-1" d="M563.7,451.02h2.25"/><path class="cls-1" d="M587.5,257.15l-24.33.07.04,14.03"/><path class="cls-1" d="M563.7,451h2.25"/><path class="cls-1" d="M589.75,257.17h-2.24"/><path class="cls-1" d="M565.95,451.02h.63"/><path class="cls-1" d="M565.95,451h.63"/><path class="cls-1" d="M589.75,257.15h-2.24"/><path class="cls-1" d="M589.75,257.15v.02-.02Z"/><path class="cls-1" d="M590.91,451.11l6.52-14.75"/><path class="cls-1" d="M590.91,451.11v-1.57"/><path class="cls-1" d="M599,333.88l.08,13.56"/><path class="cls-1" d="M566.57,450.99v.26s24.33-.15,24.33-.15v-1.55"/><path class="cls-1" d="M589.75,257.35v-.02s0,.02,0,.02Z"/><path class="cls-1" d="M590.91,451.13l6.52-14.75"/><path class="cls-1" d="M590.91,451.13v-1.57"/><path class="cls-1" d="M566.57,451.02v.26s24.33-.15,24.33-.15v-1.55"/><path class="cls-1" d="M599,333.88h0s-.11-18.74-.11-18.74"/><path class="cls-1" d="M590.9,449.56v-.02.02Z"/><path class="cls-1" d="M589.75,257.38v-.2h0"/><path class="cls-1" d="M589.75,257.35v-.2h0"/><path class="cls-1" d="M606.67,278.09v-6.82"/><path class="cls-1" d="M552.07,271.27v.11h-.16"/><path class="cls-1" d="M606.67,278.09h-8"/><path class="cls-1" d="M606.67,271.27h-10.54"/><path class="cls-1" d="M563.21,271.27h-11.14"/><path class="cls-1" d="M606.66,278.07v-6.82"/><path class="cls-1" d="M552.07,271.25v.11h-.16"/><path class="cls-1" d="M606.66,278.07h-7.99"/><path class="cls-1" d="M606.66,271.25h-10.52"/><path class="cls-1" d="M563.21,271.25h-11.14"/><path class="cls-1" d="M551.91,271.39v-23.23"/><path class="cls-1" d="M551.91,271.36v-23.23"/><path class="cls-1" d="M596.13,271.27l-6.38-14.1"/><path class="cls-1" d="M596.13,271.25l-6.38-14.1"/><path class="cls-1" d="M598.66,278.07l.04,6.52"/><path class="cls-1" d="M598.66,278.09l.18,29.96"/><path class="cls-1" d="M607.69,308.04h-8.85"/><path class="cls-1" d="M608.43,308.26v6.88"/><path class="cls-1" d="M607.69,308.26v-.22"/><path class="cls-1" d="M608.43,308.26h-.74.1"/><path class="cls-1" d="M598.89,315.14h9.55"/><path class="cls-1" d="M608.43,308.27v6.88"/><path class="cls-1" d="M607.79,308.27v-.22"/><path class="cls-1" d="M608.43,308.27h-.64"/><path class="cls-1" d="M598.89,315.15h9.55"/><path class="cls-1" d="M607.79,308.05h-8.95l-.14-23.46"/><path class="cls-1" d="M598.89,315.15l.19,32.31"/><path class="cls-1" d="M607.79,308.05h-.1"/><path class="cls-1" d="M608.43,347.65v6.88"/><path class="cls-1" d="M607.6,347.65v-.22"/><path class="cls-1" d="M608.43,347.65h-.83"/><path class="cls-1" d="M599.12,354.53h9.31"/><path class="cls-1" d="M607.6,347.44h-8.52"/><path class="cls-1" d="M608.43,347.67v6.88"/><path class="cls-1" d="M607.79,347.67v-.22"/><path class="cls-1" d="M608.43,347.67h-.64"/><path class="cls-1" d="M599.12,354.56h9.31"/><path class="cls-1" d="M607.79,347.46h-8.71"/><path class="cls-1" d="M599.12,354.53l.19,31.79"/><path class="cls-1" d="M599.12,354.56l.19,31.79"/><path class="cls-1" d="M607.79,347.46l-.19-.02.19.24"/><path class="cls-1" d="M608.43,386.54v6.88"/><path class="cls-1" d="M607.6,386.54v-.22"/><path class="cls-1" d="M608.43,386.54h-.83l-8.29-.22"/><path class="cls-1" d="M599.36,393.42h9.08"/><path class="cls-1" d="M608.43,386.56v6.88"/><path class="cls-1" d="M607.79,386.56v-.22"/><path class="cls-1" d="M608.43,386.56h-.64l-8.48-.22"/><path class="cls-1" d="M599.36,393.45h9.08"/><path class="cls-1" d="M599.36,393.42l.22,36.12"/><path class="cls-1" d="M599.36,393.45l.22,36.12"/><path class="cls-1" d="M607.79,386.35l-.19-.02.19.24"/><path class="cls-1" d="M551.91,436.36h.16"/><path class="cls-1" d="M606.67,436.38v-6.82"/><path class="cls-1" d="M606.67,429.57h-7.09"/><path class="cls-1" d="M606.67,436.38h-9.24"/><path class="cls-1" d="M563.66,436.38h-11.59l-.16-.05"/><path class="cls-1" d="M551.91,436.33h.16"/><path class="cls-1" d="M606.66,436.36v-6.82"/><path class="cls-1" d="M606.66,429.55h-7.08"/><path class="cls-1" d="M606.66,436.36h-9.23"/><path class="cls-1" d="M563.66,436.36h-11.59"/><path class="cls-1" d="M563.66,436.38l.04,14.64"/><path class="cls-1" d="M563.66,436.36l.04,14.64"/><path class="cls-1" d="M648.48,268.29v-23.23"/><path class="cls-1" d="M713.03,258.43v182.41"/><path class="cls-1" d="M648.48,458.96v-25.7"/><path class="cls-1" d="M648.48,458.95v.02-25.7"/><path class="cls-1" d="M648.48,458.95v-25.7"/><path class="cls-1" d="M648.48,245.07v-.02l39.06.02"/><path class="cls-1" d="M648.48,245.05h39.06"/><path class="cls-1" d="M713.03,440.85v-.02l-31.57,18.14"/><path class="cls-1" d="M713.03,440.83l-31.57,18.12h0l-32.99.02"/><path class="cls-1" d="M681.47,458.95h-32.99"/><path class="cls-1" d="M687.54,245.07l25.5,13.37"/><path class="cls-1" d="M687.54,245.05l25.5,13.37"/><path class="cls-1" d="M713.03,258.44v182.41"/><path class="cls-1" d="M713.03,258.42v23.02"/><path class="cls-1" d="M713.03,330.73c.14-16.43.15-32.86,0-49.29"/><path class="cls-1" d="M713.03,330.73v110.1"/><path class="cls-1" d="M684.06,254.09l-24.33.07.04,14.03"/><path class="cls-1" d="M660.26,447.93h2.25"/><path class="cls-1" d="M660.26,447.91h2.25"/><path class="cls-1" d="M684.06,254.06l-24.33.07.04,14.03"/><path class="cls-1" d="M662.51,447.93h.63"/><path class="cls-1" d="M662.51,447.91h.63"/><path class="cls-1" d="M686.63,254.74l-.31-.68h-2.25s0,0,0,0"/><path class="cls-1" d="M686.32,254.06v.02-.02Z"/><path class="cls-1" d="M687.47,448.05v-1.57"/><path class="cls-1" d="M663.14,447.93v.26s24.33-.15,24.33-.15v-1.55"/><path class="cls-1" d="M687.79,447.3l-.08-14.02"/><path class="cls-1" d="M687.47,448.02l.32-.72"/><path class="cls-1" d="M687.47,448.02l-.09-14.75"/><path class="cls-1" d="M663.14,447.91v.26s24.33-.15,24.33-.15l-.09-14.75"/><path class="cls-1" d="M686.83,281.53l.3,49.29h-.03"/><path class="cls-1" d="M686.8,281.53l-.04-6.55"/><path class="cls-1" d="M687.46,446.46l-.08-13.18"/><path class="cls-1" d="M687.46,446.47l-.08-13.2"/><path class="cls-1" d="M687.46,446.48v-.02.02Z"/><path class="cls-1" d="M686.32,254.29v-.2h0"/><path class="cls-1" d="M686.63,254.94v-.2"/><path class="cls-1" d="M686.32,254.27v-.2h0"/><path class="cls-1" d="M648.48,268.28v.02h.16"/><path class="cls-1" d="M648.64,268.3h-.16"/><path class="cls-1" d="M693.49,275h-4.39"/><path class="cls-1" d="M693.47,268.19h-4.42"/><path class="cls-1" d="M659.78,268.19h-11.14v.09"/><path class="cls-1" d="M693.68,268.16v6.82"/><path class="cls-1" d="M648.64,268.28h-.16"/><path class="cls-1" d="M693.68,274.98h-6.92"/><path class="cls-1" d="M693.68,268.16h-6.96"/><path class="cls-1" d="M659.78,268.16h-11.14"/><path class="cls-1" d="M686.76,274.98l2.34.02"/><path class="cls-1" d="M686.72,268.16l2.34.02"/><path class="cls-1" d="M648.48,268.3v-23.23"/><path class="cls-1" d="M648.48,268.28v-23.23"/><path class="cls-1" d="M686.72,268.16l-.08-13.2"/><path class="cls-1" d="M693.7,344.35v7.1"/><path class="cls-1" d="M687.22,351.45h6.48"/><path class="cls-1" d="M693.7,344.35h-6.52"/><path class="cls-1" d="M689.56,351.47l-2.34-.02"/><path class="cls-1" d="M687.18,344.35l2.34.02"/><path class="cls-1" d="M689.56,351.47h3.81"/><path class="cls-1" d="M687.18,344.35l-.08-13.53"/><path class="cls-1" d="M693.71,383.24v7.1"/><path class="cls-1" d="M693.71,383.24h-6.3"/><path class="cls-1" d="M687.45,390.34h6.25"/><path class="cls-1" d="M687.41,383.24l2.34.02"/><path class="cls-1" d="M689.79,390.36l-2.34-.02"/><path class="cls-1" d="M693.6,383.26h-3.85"/><path class="cls-1" d="M689.79,390.36h3.82"/><path class="cls-1" d="M687.41,383.24l-.19-31.79"/><path class="cls-1" d="M648.48,433.27v-.02h.16"/><path class="cls-1" d="M693.71,426.46v6.82"/><path class="cls-1" d="M693.71,426.46h-6.04"/><path class="cls-1" d="M693.71,433.27h-6"/><path class="cls-1" d="M660.22,433.27h-11.59"/><path class="cls-1" d="M687.67,426.46l2.34.02"/><path class="cls-1" d="M687.71,433.27l2.34.02"/><path class="cls-1" d="M648.48,433.27h.16"/><path class="cls-1" d="M693.44,426.48h-3.43"/><path class="cls-1" d="M693.36,433.3h-3.31"/><path class="cls-1" d="M660.22,433.3h-11.59"/><path class="cls-1" d="M687.67,426.46l-.22-36.12"/><path class="cls-1" d="M660.22,433.27l.04,14.64"/><path class="cls-1" d="M660.22,433.3l.04,14.64"/><path class="cls-1" d="M377.01,214.13v-23.56"/><path class="cls-1" d="M377.01,21.26V.22"/><path class="cls-1" d="M442.61,52.54h71.08"/><path class="cls-1" d="M442.61,52.52h71.08v101.87"/><path class="cls-1" d="M513.69,52.52v101.85"/><path class="cls-1" d="M513.69,154.39v-.02l-71.08.02v41.33"/><path class="cls-1" d="M513.69,154.37h-71.08v41.33"/><path class="cls-1" d="M377.01,214.11v.02-23.56"/><path class="cls-1" d="M377.01,214.11v-23.56"/><path class="cls-1" d="M377.01.24v-.02l39.59.02"/><path class="cls-1" d="M377.01.21h39.59"/><path class="cls-1" d="M442.61,195.72l-32.08,18.41"/><path class="cls-1" d="M442.61,195.7l-32.08,18.41"/><path class="cls-1" d="M410.53,214.14v-.02l-33.52.02"/><path class="cls-1" d="M410.53,214.11h-33.52"/><path class="cls-1" d="M416.6.24l26.01,13.64"/><path class="cls-1" d="M416.6.21l26.01,13.64h0"/><path class="cls-1" d="M442.61,13.87v38.67"/><path class="cls-1" d="M442.61,13.85v38.67"/><path class="cls-1" d="M377.01,190.58v-.02h12.28"/><path class="cls-1" d="M377.01,190.55l12.28-.02"/><path class="cls-1" d="M377.01,21.27V.24"/><path class="cls-1" d="M377.01,21.25V.21"/><path class="cls-1" d="M413.13,9.25l-24.33.07.03,11.93"/><path class="cls-1" d="M389.29,190.56l.03,12.54h2.25"/><path class="cls-1" d="M413.13,9.23l-24.33.07.03,11.93"/><path class="cls-1" d="M389.29,190.54l.03,12.54h2.25"/><path class="cls-1" d="M388.84,21.25l-11.83.02"/><path class="cls-1" d="M388.84,21.23l-11.83.02"/><path class="cls-1" d="M415.38,9.25h-2.24"/><path class="cls-1" d="M391.58,203.1h.63"/><path class="cls-1" d="M415.38,9.23h-2.24"/><path class="cls-1" d="M391.58,203.08h.63"/><path class="cls-1" d="M413.14,9.26v-.02.02Z"/><path class="cls-1" d="M415.38,9.23v.02-.02Z"/><path class="cls-1" d="M416.54,203.21c1.45-3.27,2.89-6.55,4.34-9.82.73-1.64,1.45-3.29,2.18-4.93"/><path class="cls-1" d="M416.54,203.21v-1.57"/><path class="cls-1" d="M392.2,203.1v.26s24.33-.15,24.33-.15v-1.55"/><path class="cls-1" d="M416.54,203.19c1.45-3.27,2.89-6.55,4.34-9.82.73-1.64,1.45-3.29,2.18-4.93"/><path class="cls-1" d="M416.54,203.19v-1.57"/><path class="cls-1" d="M392.2,203.07v.26s24.33-.15,24.33-.15v-1.55s0-.02,0-.02v.02"/><path class="cls-1" d="M415.38,9.46v-.2h0"/><path class="cls-1" d="M415.38,9.43v-.2h0"/><path class="cls-1" d="M432.65,30.17v-6.82"/><path class="cls-1" d="M432.65,30.17h-8.36"/><path class="cls-1" d="M432.65,23.35h-10.89"/><path class="cls-1" d="M432.64,30.15v-6.82"/><path class="cls-1" d="M432.64,30.15h-8.34"/><path class="cls-1" d="M432.64,23.33h-10.88"/><path class="cls-1" d="M421.76,23.35l-6.38-14.1"/><path class="cls-1" d="M421.76,23.33l-6.38-14.1"/><path class="cls-1" d="M424.3,30.17l.18,29.96"/><path class="cls-1" d="M424.3,30.15l.18,29.96"/><path class="cls-1" d="M505,66.92v-6.82"/><path class="cls-1" d="M504.76,67.21v-.28h0"/><path class="cls-1" d="M424.52,67.21h80.24"/><path class="cls-1" d="M505,60.11h-80.53"/><path class="cls-1" d="M505,66.95v-6.82"/><path class="cls-1" d="M504.76,67.23v-.28h0"/><path class="cls-1" d="M424.52,67.23h80.24"/><path class="cls-1" d="M505,60.13h-80.53"/><path class="cls-1" d="M424.52,67.23l.19,32.31"/><path class="cls-1" d="M424.52,67.21l.19,32.31"/><path class="cls-1" d="M504.76,66.95v-.02.28"/><path class="cls-1" d="M505,106.33v-6.82"/><path class="cls-1" d="M504.76,106.61v-.28h0"/><path class="cls-1" d="M424.75,106.61h80"/><path class="cls-1" d="M505,99.51h-80.29"/><path class="cls-1" d="M505,106.35v-6.82"/><path class="cls-1" d="M504.76,106.64v-.28h0"/><path class="cls-1" d="M424.75,106.64h80"/><path class="cls-1" d="M505,99.54h-80.29"/><path class="cls-1" d="M424.75,106.64l.19,31.79"/><path class="cls-1" d="M424.75,106.61l.19,31.79"/><path class="cls-1" d="M504.76,106.35v-.02.28"/><path class="cls-1" d="M505,145.22v-6.82"/><path class="cls-1" d="M504.76,145.5v-.28h0"/><path class="cls-1" d="M505,138.4h-80.06"/><path class="cls-1" d="M424.99,145.5h79.77l.24-7.08"/><path class="cls-1" d="M504.76,145.53v-.28h0"/><path class="cls-1" d="M505,138.43h-80.06"/><path class="cls-1" d="M424.99,145.53h79.77"/><path class="cls-1" d="M424.99,145.5v.02l.22,36.12"/><path class="cls-1" d="M424.99,145.5l.22,36.12"/><path class="cls-1" d="M504.76,145.24v-.02.28"/><path class="cls-1" d="M432.64,188.44v-6.82h-7.43"/><path class="cls-1" d="M432.64,188.44h-9.58"/><path class="cls-1" d="M432.65,188.46v-6.82h-7.45"/><path class="cls-1" d="M432.65,188.46h-9.59"/><path class="cls-1" d="M247.53,214.25v-23.56"/><path class="cls-1" d="M247.53,21.38V.35"/><path class="cls-1" d="M313.13,52.66h71.08"/><path class="cls-1" d="M313.13,52.64h71.08v101.87"/><path class="cls-1" d="M384.21,52.64v101.85"/><path class="cls-1" d="M384.21,154.51v-.02l-71.08.02v41.33"/><path class="cls-1" d="M384.21,154.49h-71.08v41.33"/><path class="cls-1" d="M247.53,214.23v.02-23.56"/><path class="cls-1" d="M247.53,214.23v-23.56"/><path class="cls-1" d="M247.53.36v-.02l39.59.02"/><path class="cls-1" d="M247.53.33h39.59"/><path class="cls-1" d="M313.13,195.84l-32.08,18.41"/><path class="cls-1" d="M313.13,195.82l-32.08,18.41"/><path class="cls-1" d="M281.05,214.26v-.02l-33.52.02"/><path class="cls-1" d="M281.05,214.23h-33.52"/><path class="cls-1" d="M287.12.36l26.01,13.64"/><path class="cls-1" d="M287.12.33l26.01,13.64h0"/><path class="cls-1" d="M313.13,13.99v38.67"/><path class="cls-1" d="M313.13,13.97v38.67"/><path class="cls-1" d="M247.53,190.7v-.02h12.28"/><path class="cls-1" d="M247.53,190.67l12.28-.02"/><path class="cls-1" d="M247.53,21.39V.36"/><path class="cls-1" d="M247.53,21.37V.33"/><path class="cls-1" d="M283.65,9.37l-24.33.07.03,11.93"/><path class="cls-1" d="M259.81,190.68l.03,12.54h2.25"/><path class="cls-1" d="M283.65,9.35l-24.33.07.03,11.93"/><path class="cls-1" d="M259.81,190.66l.03,12.54h2.25"/><path class="cls-1" d="M259.36,21.37l-11.83.02"/><path class="cls-1" d="M259.36,21.35l-11.83.02"/><path class="cls-1" d="M285.9,9.37h-2.24"/><path class="cls-1" d="M262.1,203.22h.63"/><path class="cls-1" d="M285.9,9.35h-2.24"/><path class="cls-1" d="M262.1,203.2h.63"/><path class="cls-1" d="M283.66,9.38v-.02.02Z"/><path class="cls-1" d="M285.9,9.35v.02-.02Z"/><path class="cls-1" d="M287.06,203.33c1.45-3.27,2.89-6.55,4.34-9.82l2.18-4.93"/><path class="cls-1" d="M287.06,203.33v-1.57"/><path class="cls-1" d="M262.73,203.22v.26s24.33-.15,24.33-.15v-1.55"/><path class="cls-1" d="M287.06,203.31l6.52-14.75"/><path class="cls-1" d="M287.06,203.31v-1.57"/><path class="cls-1" d="M262.73,203.2v.26s24.33-.15,24.33-.15v-1.55s0-.02,0-.02v.02"/><path class="cls-1" d="M285.9,9.58v-.2h0"/><path class="cls-1" d="M285.9,9.55v-.2h0"/><path class="cls-1" d="M303.22,30.29v-6.82"/><path class="cls-1" d="M303.22,30.29h-8.41"/><path class="cls-1" d="M303.22,23.47h-10.94"/><path class="cls-1" d="M303.21,30.27v-6.82"/><path class="cls-1" d="M303.21,30.27h-8.39"/><path class="cls-1" d="M303.21,23.45h-10.93"/><path class="cls-1" d="M292.28,23.47c-.65-1.44-1.3-2.88-1.95-4.32-1.47-3.26-2.95-6.52-4.42-9.78"/><path class="cls-1" d="M292.28,23.45l-6.38-14.1"/><path class="cls-1" d="M294.82,30.29l.18,29.96"/><path class="cls-1" d="M294.82,30.27l.18,29.96"/><path class="cls-1" d="M375.52,67.05v-6.82"/><path class="cls-1" d="M375.28,67.33v-.28"/><path class="cls-1" d="M347.31,60.23v.22"/><path class="cls-1" d="M375.52,67.05h-.24"/><path class="cls-1" d="M307.01,60.45v-.22"/><path class="cls-1" d="M347.31,60.45h-40.31"/><path class="cls-1" d="M295.04,67.33h80.24"/><path class="cls-1" d="M375.52,60.23h-28.21"/><path class="cls-1" d="M307.01,60.23h-12.01"/><path class="cls-1" d="M375.52,67.07v-6.82"/><path class="cls-1" d="M375.28,67.35v-.28"/><path class="cls-1" d="M350.56,60.25v.22"/><path class="cls-1" d="M375.52,67.07h-.24"/><path class="cls-1" d="M306.61,60.47v-.22"/><path class="cls-1" d="M350.56,60.47h-43.95"/><path class="cls-1" d="M295.04,67.35h80.24"/><path class="cls-1" d="M375.52,60.25h-24.96"/><path class="cls-1" d="M306.61,60.25h-11.62"/><path class="cls-1" d="M295.04,67.35l.19,32.31"/><path class="cls-1" d="M295.04,67.33l.19,32.31"/><path class="cls-1" d="M347.31,60.23l3.25.02"/><path class="cls-1" d="M307.01,60.45l-.4.02"/><path class="cls-1" d="M375.28,67.07v-.02.28"/><path class="cls-1" d="M350.56,60.47l-3.25-.02"/><path class="cls-1" d="M306.61,60.25l.4-.02"/><path class="cls-1" d="M375.52,106.45v-6.82"/><path class="cls-1" d="M375.28,106.73v-.28"/><path class="cls-1" d="M347.31,99.64v.22"/><path class="cls-1" d="M375.52,106.45h-.24"/><path class="cls-1" d="M307.01,99.85v-.22"/><path class="cls-1" d="M347.31,99.85h-40.31"/><path class="cls-1" d="M295.27,106.73h80"/><path class="cls-1" d="M375.52,99.64h-28.21"/><path class="cls-1" d="M307.01,99.64h-11.78"/><path class="cls-1" d="M375.52,106.47v-6.82"/><path class="cls-1" d="M375.28,106.76v-.28"/><path class="cls-1" d="M350.56,99.66v.22"/><path class="cls-1" d="M375.52,106.47h-.24"/><path class="cls-1" d="M306.61,99.87v-.22"/><path class="cls-1" d="M350.56,99.87h-43.95"/><path class="cls-1" d="M295.27,106.76h80"/><path class="cls-1" d="M375.52,99.66h-24.96"/><path class="cls-1" d="M306.61,99.66h-11.38"/><path class="cls-1" d="M295.27,106.76l.19,31.79"/><path class="cls-1" d="M295.27,106.73l.19,31.79"/><path class="cls-1" d="M347.31,99.64l3.25.02"/><path class="cls-1" d="M307.01,99.85l-.4.02"/><path class="cls-1" d="M375.28,106.47v-.02.28"/><path class="cls-1" d="M350.56,99.87l-3.25-.02"/><path class="cls-1" d="M306.61,99.66l.4-.02"/><path class="cls-1" d="M375.52,145.34v-6.82"/><path class="cls-1" d="M375.28,145.62v-.28"/><path class="cls-1" d="M347.31,138.53v.22"/><path class="cls-1" d="M375.52,145.34h-.24"/><path class="cls-1" d="M307.01,138.74v-.22"/><path class="cls-1" d="M347.31,138.74h-40.31"/><path class="cls-1" d="M375.52,138.53h-28.21"/><path class="cls-1" d="M307.01,138.53h-11.54"/><path class="cls-1" d="M295.51,145.62h79.77l.24-7.08"/><path class="cls-1" d="M375.28,145.65v-.28"/><path class="cls-1" d="M350.56,138.55v.22"/><path class="cls-1" d="M375.52,145.36h-.24"/><path class="cls-1" d="M306.61,138.76v-.22"/><path class="cls-1" d="M350.56,138.76h-43.95"/><path class="cls-1" d="M375.52,138.55h-24.96"/><path class="cls-1" d="M306.61,138.55h-11.14"/><path class="cls-1" d="M295.51,145.65h79.77"/><path class="cls-1" d="M295.51,145.62v.02l.22,36.12"/><path class="cls-1" d="M295.51,145.62l.22,36.12"/><path class="cls-1" d="M347.31,138.53l3.25.02"/><path class="cls-1" d="M307.01,138.74l-.4.02"/><path class="cls-1" d="M375.28,145.36v-.02.28"/><path class="cls-1" d="M350.56,138.76l-3.25-.02"/><path class="cls-1" d="M306.61,138.55l.4-.02"/><path class="cls-1" d="M303.21,188.56v-6.82h-7.48"/><path class="cls-1" d="M303.21,188.56h-9.63"/><path class="cls-1" d="M303.22,188.58v-6.82h-7.5"/><path class="cls-1" d="M303.22,188.58h-9.64"/><path class="cls-1" d="M164.62,23.39V.33"/><path class="cls-1" d="M228.85,17.12v179.2"/><path class="cls-1" d="M164.62,214.24v-25.76"/><path class="cls-1" d="M228.85,17.13v-.02,179.23"/><path class="cls-1" d="M228.85,17.11v179.2"/><path class="cls-1" d="M164.62,214.22v.02-25.76"/><path class="cls-1" d="M164.62,214.22v-25.76"/><path class="cls-1" d="M164.62.35v-.02l39.1.02"/><path class="cls-1" d="M164.62.32h39.1"/><path class="cls-1" d="M228.85,196.34v-.02l-31.2,17.93"/><path class="cls-1" d="M228.85,196.31l-31.2,17.91h0l-33.03.02"/><path class="cls-1" d="M197.65,214.22h-33.03"/><path class="cls-1" d="M203.72.35l25.25,13.24"/><path class="cls-1" d="M203.72.32l25.25,13.24"/><path class="cls-1" d="M228.97,13.59l-.12,3.55"/><path class="cls-1" d="M228.97,13.56l-.12,3.55"/><path class="cls-1" d="M200.25,9.36l-24.33.07.04,14.03"/><path class="cls-1" d="M176.45,203.21h2.25"/><path class="cls-1" d="M200.25,9.34l-24.33.07.04,14.03"/><path class="cls-1" d="M176.45,203.19h2.25"/><path class="cls-1" d="M202.5,9.36h-2.24"/><path class="cls-1" d="M178.69,203.21h.63"/><path class="cls-1" d="M202.5,9.34h-2.24"/><path class="cls-1" d="M178.69,203.19h.63"/><path class="cls-1" d="M200.26,9.37v-.02.02Z"/><path class="cls-1" d="M202.5,9.34v.02-.02Z"/><path class="cls-1" d="M203.66,203.32c1.45-3.27,2.89-6.55,4.34-9.82.73-1.64,1.45-3.29,2.18-4.93"/><path class="cls-1" d="M203.66,203.32v-1.57"/><path class="cls-1" d="M179.32,203.21v.26s24.33-.15,24.33-.15v-1.55"/><path class="cls-1" d="M203.66,203.3c1.45-3.27,2.89-6.55,4.34-9.82.73-1.64,1.45-3.29,2.18-4.93"/><path class="cls-1" d="M203.66,203.3v-1.57"/><path class="cls-1" d="M179.32,203.18v.26s24.33-.15,24.33-.15v-1.55s0-.02,0-.02v.02"/><path class="cls-1" d="M202.5,9.57v-.2h0"/><path class="cls-1" d="M202.5,9.54v-.2h0"/><path class="cls-1" d="M219.87,30.28v-6.82"/><path class="cls-1" d="M165.58,23.4h-.96"/><path class="cls-1" d="M219.87,30.28h-8.46"/><path class="cls-1" d="M219.87,23.46h-10.99"/><path class="cls-1" d="M175.96,23.46h-10.38"/><path class="cls-1" d="M219.86,30.25v-6.82"/><path class="cls-1" d="M165.58,23.37h-.96"/><path class="cls-1" d="M219.86,30.25h-8.45"/><path class="cls-1" d="M219.86,23.44h-10.98"/><path class="cls-1" d="M175.96,23.44h-10.38"/><path class="cls-1" d="M164.62,23.4V.35"/><path class="cls-1" d="M164.62,23.38V.32"/><path class="cls-1" d="M208.88,23.46c-.65-1.44-1.3-2.88-1.95-4.32-1.47-3.26-2.95-6.52-4.42-9.78"/><path class="cls-1" d="M208.88,23.44c-.65-1.44-1.3-2.88-1.95-4.32-1.47-3.26-2.95-6.52-4.42-9.78"/><path class="cls-1" d="M211.41,30.28l.18,29.96"/><path class="cls-1" d="M211.41,30.25l.18,29.96"/><path class="cls-1" d="M165.58,23.4v-.02.02Z"/><path class="cls-1" d="M220.72,60.24v7.1"/><path class="cls-1" d="M211.64,67.34h9.08"/><path class="cls-1" d="M220.72,60.24h-9.12"/><path class="cls-1" d="M220.72,60.22v7.1"/><path class="cls-1" d="M211.64,67.32h9.08"/><path class="cls-1" d="M220.72,60.22h-9.12"/><path class="cls-1" d="M211.64,67.34l.19,32.31"/><path class="cls-1" d="M211.64,67.32l.19,32.31"/><path class="cls-1" d="M220.72,99.65v7.1"/><path class="cls-1" d="M211.87,106.75h8.84"/><path class="cls-1" d="M220.72,99.65h-8.89"/><path class="cls-1" d="M220.72,99.62v7.1"/><path class="cls-1" d="M211.87,106.72h8.84"/><path class="cls-1" d="M220.72,99.62h-8.89"/><path class="cls-1" d="M211.87,106.75l.19,31.79"/><path class="cls-1" d="M211.87,106.72l.19,31.79"/><path class="cls-1" d="M220.72,138.54v7.1"/><path class="cls-1" d="M220.72,138.54h-8.65"/><path class="cls-1" d="M212.11,145.64h8.61"/><path class="cls-1" d="M220.72,138.51v7.1"/><path class="cls-1" d="M220.72,138.51h-8.65"/><path class="cls-1" d="M212.11,145.61h8.61"/><path class="cls-1" d="M212.11,145.64l.22,36.12"/><path class="cls-1" d="M212.11,145.61l.22,36.12"/><path class="cls-1" d="M164.62,188.46h.2"/><path class="cls-1" d="M219.86,188.55v-6.82h-7.54"/><path class="cls-1" d="M219.86,188.55h-9.69"/><path class="cls-1" d="M176.41,188.55h-11.59l-.2-.09.2.02"/><path class="cls-1" d="M219.87,188.57v-6.82h-7.55"/><path class="cls-1" d="M219.87,188.57h-9.7"/><path class="cls-1" d="M176.41,188.57h-11.59"/><path class="cls-1" d="M176.41,188.57l.04,14.64"/><path class="cls-1" d="M176.41,188.55l.04,14.64"/><path class="cls-1" d="M164.82,188.55v.02-.02Z"/><path class="cls-1" d="M75.03,23.41V.36"/><path class="cls-1" d="M139.59,13.73v182.41"/><path class="cls-1" d="M75.03,214.26v-25.76"/><path class="cls-1" d="M75.03,214.25v.02-25.76"/><path class="cls-1" d="M75.03,214.25v-25.76"/><path class="cls-1" d="M75.03.37v-.02l39.06.02"/><path class="cls-1" d="M75.03.35h39.06"/><path class="cls-1" d="M139.59,196.15v-.02l-31.57,18.14"/><path class="cls-1" d="M139.59,196.13l-31.57,18.12h0l-32.99.02"/><path class="cls-1" d="M108.03,214.25h-32.99"/><path class="cls-1" d="M114.1.37l25.5,13.37"/><path class="cls-1" d="M114.1.35l25.5,13.37"/><path class="cls-1" d="M139.59,13.74v182.41"/><path class="cls-1" d="M139.59,13.72v182.41"/><path class="cls-1" d="M110.62,9.39l-24.33.07.04,14.03"/><path class="cls-1" d="M86.82,203.23h2.25"/><path class="cls-1" d="M110.62,9.36l-24.33.07.04,14.03"/><path class="cls-1" d="M86.82,203.21h2.25"/><path class="cls-1" d="M112.87,9.39h-2.24"/><path class="cls-1" d="M89.07,203.23h.63"/><path class="cls-1" d="M112.87,9.36h-2.24"/><path class="cls-1" d="M89.07,203.21h.63"/><path class="cls-1" d="M110.63,9.39v-.02.02Z"/><path class="cls-1" d="M112.88,9.36v.02-.02Z"/><path class="cls-1" d="M114.03,203.34c1.45-3.27,2.89-6.55,4.34-9.82l2.18-4.93"/><path class="cls-1" d="M114.03,203.34v-1.57"/><path class="cls-1" d="M89.7,203.23v.26s24.33-.15,24.33-.15v-1.55"/><path class="cls-1" d="M114.03,203.32c1.45-3.27,2.89-6.55,4.34-9.82l2.18-4.93"/><path class="cls-1" d="M114.03,203.32v-1.57"/><path class="cls-1" d="M89.7,203.21v.26s24.33-.15,24.33-.15v-1.55s0-.02,0-.02v.02"/><path class="cls-1" d="M112.88,9.59v-.2h0"/><path class="cls-1" d="M112.88,9.57v-.2h0"/><path class="cls-1" d="M130.3,30.3v-6.82"/><path class="cls-1" d="M75.95,23.42h-.92"/><path class="cls-1" d="M130.3,30.3h-8.51"/><path class="cls-1" d="M130.3,23.48h-11.05"/><path class="cls-1" d="M86.34,23.48h-10.38"/><path class="cls-1" d="M130.29,30.28v-6.82"/><path class="cls-1" d="M75.95,23.4h-.92"/><path class="cls-1" d="M130.29,30.28h-8.5"/><path class="cls-1" d="M130.29,23.46h-11.03"/><path class="cls-1" d="M86.34,23.46h-10.38"/><path class="cls-1" d="M75.03,23.42V.37"/><path class="cls-1" d="M75.03,23.4V.35"/><path class="cls-1" d="M119.26,23.48c-.65-1.44-1.3-2.88-1.95-4.32-1.47-3.26-2.95-6.52-4.42-9.78"/><path class="cls-1" d="M119.26,23.46c-.65-1.44-1.3-2.88-1.95-4.32-1.47-3.26-2.95-6.52-4.42-9.78"/><path class="cls-1" d="M121.79,30.3l.18,29.96"/><path class="cls-1" d="M121.79,30.28l.18,29.96"/><path class="cls-1" d="M75.95,23.42v-.02.02Z"/><path class="cls-1" d="M130.27,60.48v-.22"/><path class="cls-1" d="M131.09,60.48h-.82"/><path class="cls-1" d="M131.09,60.48v6.88"/><path class="cls-1" d="M122.01,67.36h9.08"/><path class="cls-1" d="M130.27,60.26h-8.3"/><path class="cls-1" d="M130.67,60.46v-.22.22l.43,6.88"/><path class="cls-1" d="M122.01,67.34h9.08"/><path class="cls-1" d="M130.67,60.24h-8.7"/><path class="cls-1" d="M122.01,67.36l.19,32.31"/><path class="cls-1" d="M122.01,67.34l.19,32.31"/><path class="cls-1" d="M130.27,60.26l.4-.02"/><path class="cls-1" d="M131.09,60.48v-.02l-.82.02"/><path class="cls-1" d="M130.67,99.86v-.22.22l.43,6.88"/><path class="cls-1" d="M122.25,106.75h8.84"/><path class="cls-1" d="M130.67,99.65h-8.46"/><path class="cls-1" d="M130.27,99.89v-.22"/><path class="cls-1" d="M131.09,99.89h-.82"/><path class="cls-1" d="M131.09,99.89v6.88"/><path class="cls-1" d="M122.25,106.77h8.84"/><path class="cls-1" d="M130.27,99.67h-8.06"/><path class="cls-1" d="M122.25,106.77l.19,31.79"/><path class="cls-1" d="M122.25,106.75l.19,31.79"/><path class="cls-1" d="M130.27,99.67l.4-.02"/><path class="cls-1" d="M131.09,99.89v-.02l-.82.02"/><path class="cls-1" d="M130.67,138.75v-.22.22l.43,6.88"/><path class="cls-1" d="M130.67,138.54h-8.23"/><path class="cls-1" d="M122.48,145.64h8.61"/><path class="cls-1" d="M130.27,138.78v-.22"/><path class="cls-1" d="M131.09,138.78h-.82"/><path class="cls-1" d="M131.09,138.78v6.88"/><path class="cls-1" d="M130.27,138.56h-7.83"/><path class="cls-1" d="M122.48,145.66h8.61"/><path class="cls-1" d="M122.48,145.64v.02l.22,36.12"/><path class="cls-1" d="M122.48,145.64l.22,36.12"/><path class="cls-1" d="M130.27,138.56l.4-.02"/><path class="cls-1" d="M131.09,138.78v-.02l-.82.02"/><path class="cls-1" d="M75.03,188.5h.16"/><path class="cls-1" d="M130.3,188.6v-6.82h-7.6"/><path class="cls-1" d="M130.3,188.6h-9.75"/><path class="cls-1" d="M86.78,188.6h-11.59l-.16-.11h.16"/><path class="cls-1" d="M130.29,188.57v-6.82h-7.59"/><path class="cls-1" d="M130.29,188.57h-9.74"/><path class="cls-1" d="M86.78,188.57h-11.59"/><path class="cls-1" d="M86.78,188.6l.04,14.64"/><path class="cls-1" d="M86.78,188.57l.04,14.64"/><path class="cls-1" d="M75.2,188.57v.02-.02Z"/><path class="cls-1" d="M481.93,214.03v-23.56"/><path class="cls-1" d="M481.93,21.17V.13"/><path class="cls-1" d="M547.52,52.45h71.08"/><path class="cls-1" d="M547.52,52.43h71.08v101.87"/><path class="cls-1" d="M618.61,52.43v101.85"/><path class="cls-1" d="M618.61,154.3v-.02l-71.08.02v41.33"/><path class="cls-1" d="M618.61,154.28h-71.08v41.33"/><path class="cls-1" d="M481.93,214.02v.02-23.56"/><path class="cls-1" d="M481.93,214.02v-23.56"/><path class="cls-1" d="M481.93.14v-.02l39.59.02"/><path class="cls-1" d="M481.93.12h39.59"/><path class="cls-1" d="M547.52,195.63l-32.08,18.41"/><path class="cls-1" d="M547.52,195.61l-32.08,18.41"/><path class="cls-1" d="M515.45,214.04v-.02l-33.52.02"/><path class="cls-1" d="M515.45,214.02h-33.52"/><path class="cls-1" d="M521.52.14l26.01,13.64"/><path class="cls-1" d="M521.52.12l26.01,13.64h0"/><path class="cls-1" d="M547.52,13.78v38.67"/><path class="cls-1" d="M547.52,13.76v38.67"/><path class="cls-1" d="M481.93,190.48v-.02h12.28"/><path class="cls-1" d="M481.93,190.46l12.28-.02"/><path class="cls-1" d="M481.93,21.18V.14"/><path class="cls-1" d="M481.93,21.15V.12"/><path class="cls-1" d="M518.04,9.16l-24.33.07.03,11.93"/><path class="cls-1" d="M494.21,190.46l.03,12.54h2.25"/><path class="cls-1" d="M518.04,9.14l-24.33.07.03,11.93"/><path class="cls-1" d="M494.21,190.44l.03,12.54h2.25"/><path class="cls-1" d="M493.75,21.16l-11.83.02"/><path class="cls-1" d="M493.75,21.14l-11.83.02"/><path class="cls-1" d="M520.29,9.16h-2.24"/><path class="cls-1" d="M496.49,203.01h.63"/><path class="cls-1" d="M520.29,9.14h-2.24"/><path class="cls-1" d="M496.49,202.98h.63"/><path class="cls-1" d="M518.05,9.17v-.02.02Z"/><path class="cls-1" d="M520.3,9.14v.02-.02Z"/><path class="cls-1" d="M521.45,203.12l6.52-14.75"/><path class="cls-1" d="M521.45,203.12v-1.57"/><path class="cls-1" d="M497.12,203v.26s24.33-.15,24.33-.15v-1.55"/><path class="cls-1" d="M521.45,203.1l6.52-14.75"/><path class="cls-1" d="M521.45,203.1v-1.57"/><path class="cls-1" d="M497.12,202.98v.26s24.33-.15,24.33-.15v-1.55s0-.02,0-.02v.02"/><path class="cls-1" d="M520.3,9.36v-.2h0"/><path class="cls-1" d="M520.3,9.34v-.2h0"/><path class="cls-1" d="M537.51,30.07v-6.82"/><path class="cls-1" d="M537.51,30.07h-8.3"/><path class="cls-1" d="M537.51,23.26h-10.84"/><path class="cls-1" d="M537.5,30.05v-6.82"/><path class="cls-1" d="M537.5,30.05h-8.29"/><path class="cls-1" d="M537.5,23.24h-10.82"/><path class="cls-1" d="M526.68,23.26l-6.38-14.1"/><path class="cls-1" d="M526.68,23.24l-6.38-14.1"/><path class="cls-1" d="M529.21,30.07l.18,29.96"/><path class="cls-1" d="M529.21,30.05l.18,29.96"/><path class="cls-1" d="M575.14,60.02h-4.21"/><path class="cls-1" d="M575.14,60.24h.93"/><path class="cls-1" d="M575.14,60.24v-.22"/><path class="cls-1" d="M609.92,66.83v-6.82"/><path class="cls-1" d="M576.08,60.23h-5.14"/><path class="cls-1" d="M609.67,67.11v-.28"/><path class="cls-1" d="M576.08,60.02v.22"/><path class="cls-1" d="M570.94,60.23v-.22"/><path class="cls-1" d="M609.92,66.83h-.24"/><path class="cls-1" d="M529.43,67.11h80.24"/><path class="cls-1" d="M609.92,60.02h-33.84"/><path class="cls-1" d="M570.94,60.02h-41.55"/><path class="cls-1" d="M609.92,66.85v-6.82"/><path class="cls-1" d="M609.67,67.14v-.28h0"/><path class="cls-1" d="M529.43,67.14h80.24"/><path class="cls-1" d="M609.92,60.04h-80.53"/><path class="cls-1" d="M529.43,67.14l.19,32.31"/><path class="cls-1" d="M529.43,67.11l.19,32.31"/><path class="cls-1" d="M576.08,60.02h-.93"/><path class="cls-1" d="M570.94,60.23h4.21"/><path class="cls-1" d="M609.67,66.85v-.02.28"/><path class="cls-1" d="M575.14,99.43h-4.21"/><path class="cls-1" d="M575.14,99.64h.93"/><path class="cls-1" d="M575.14,99.64v-.22"/><path class="cls-1" d="M609.92,106.24v-6.82"/><path class="cls-1" d="M576.08,99.64h-5.14"/><path class="cls-1" d="M609.67,106.52v-.28"/><path class="cls-1" d="M576.08,99.42v.22"/><path class="cls-1" d="M570.94,99.64v-.22"/><path class="cls-1" d="M609.92,106.24h-.24"/><path class="cls-1" d="M529.67,106.52h80"/><path class="cls-1" d="M609.92,99.42h-33.84"/><path class="cls-1" d="M570.94,99.42h-41.31"/><path class="cls-1" d="M609.92,106.26v-6.82"/><path class="cls-1" d="M609.67,106.54v-.28h0"/><path class="cls-1" d="M529.67,106.54h80"/><path class="cls-1" d="M609.92,99.44h-80.29"/><path class="cls-1" d="M529.67,106.54l.19,31.79"/><path class="cls-1" d="M529.67,106.52l.19,31.79"/><path class="cls-1" d="M576.08,99.42h-.93"/><path class="cls-1" d="M570.94,99.64h4.21"/><path class="cls-1" d="M609.67,106.26v-.02.28"/><path class="cls-1" d="M575.14,138.32h-4.21"/><path class="cls-1" d="M575.14,138.53h.93"/><path class="cls-1" d="M575.14,138.53v-.22"/><path class="cls-1" d="M609.92,145.13v-6.82"/><path class="cls-1" d="M576.08,138.53h-5.14"/><path class="cls-1" d="M609.67,145.41v-.28"/><path class="cls-1" d="M576.08,138.31v.22"/><path class="cls-1" d="M570.94,138.53v-.22"/><path class="cls-1" d="M609.92,145.13h-.24"/><path class="cls-1" d="M609.92,138.31h-33.84"/><path class="cls-1" d="M570.94,138.31h-41.08"/><path class="cls-1" d="M529.9,145.41h79.77l.24-7.08"/><path class="cls-1" d="M609.67,145.43v-.28h0"/><path class="cls-1" d="M609.92,138.33h-80.06"/><path class="cls-1" d="M529.9,145.43h79.77"/><path class="cls-1" d="M529.9,145.41v.02l.22,36.12"/><path class="cls-1" d="M529.9,145.41l.22,36.12"/><path class="cls-1" d="M576.08,138.31h-.93"/><path class="cls-1" d="M570.94,138.53h4.21"/><path class="cls-1" d="M609.67,145.15v-.02.28"/><path class="cls-1" d="M537.5,188.35v-6.82h-7.38"/><path class="cls-1" d="M537.5,188.35h-9.53"/><path class="cls-1" d="M537.51,188.37v-6.82h-7.39"/><path class="cls-1" d="M537.51,188.37h-9.54"/><path class="cls-1" d="M185.17,771.49v-8.62"/><path class="cls-1" d="M134.48,763.17c16.89-.31,33.79,0,50.69-.29"/><path class="cls-1" d="M466.6,770.27v-7.64"/><path class="cls-1" d="M462.48,762.5c1.37.05,2.74.1,4.12.13"/><path class="cls-1" d="M465.68,807.23v.94"/><path class="cls-1" d="M194.5,834.43v63.09"/><path class="cls-1" d="M194.47,834.44v-8.07"/><path class="cls-1" d="M108.14,771.49h.11"/><path class="cls-1" d="M108.25,771.49v40.49"/><path class="cls-1" d="M185.11,781.83v-10.33"/><path class="cls-1" d="M449.87,808.71v-24.33"/><path class="cls-1" d="M119.34,808.71v-.28"/><path class="cls-1" d="M108.14,771.49h.11"/><path class="cls-1" d="M185.17,771.49v-8.62"/><path class="cls-1" d="M108.14,762.88h77.03"/><path class="cls-1" d="M108.14,771.49v-8.62"/><path class="cls-1" d="M185.17,771.49v-8.62"/><path class="cls-1" d="M185.17,762.88h-77.03"/><path class="cls-1" d="M432.6,762.63h34"/><path class="cls-1" d="M466.6,771.03v-8.4"/><path class="cls-1" d="M466.6,762.63h-34"/><path class="cls-1" d="M108.25,770.28v41.72"/><path class="cls-1" d="M266,897.54c3.49.03,6.97.06,10.46.1"/><path class="cls-1" d="M247.18,897.46c5.81,0,11.62.03,17.43.07"/><path class="cls-1" d="M220.7,897.57c2.56-.02,5.11-.04,7.67-.06"/><path class="cls-1" d="M215.67,897.39c5.47-.14,10.94-.12,16.41-.05"/><path class="cls-1" d="M466.45,806.64v.02l.26-36.4v.02"/><path class="cls-1" d="M466.45,806.66c-.24-10.97.55-21.96-.04-32.93"/><path class="cls-1" d="M465.68,807.24l-2.98,2.25"/><path class="cls-1" d="M220.2,897.52c21.97-.18,44.97-.18,66.79,0"/><path class="cls-1" d="M200.93,897.52c4.81,0,9.63,0,14.44,0"/><path class="cls-1" d="M286.99,897.54h12.73"/><path class="cls-1" d="M465.68,807.24v.94"/><path class="cls-1" d="M465.68,807.22l.77-.58"/><path class="cls-1" d="M299.72,826.82v70.69"/><path class="cls-1" d="M299.72,826.85h93.21"/><path class="cls-1" d="M299.72,829.42v-2.57"/><path class="cls-1" d="M392.93,826.84h30.2"/><path class="cls-1" d="M299.72,897.54v-68.12"/><path class="cls-1" d="M392.93,826.85l5.57-.15"/><path class="cls-1" d="M194.5,834.45v42.89"/><path class="cls-1" d="M194.5,878.53v19"/><path class="cls-1" d="M194.5,897.52v-63.09"/><path class="cls-1" d="M194.5,877.34v1.2"/><path class="cls-1" d="M194.5,897.54v-.02l6.44.02"/><path class="cls-1" d="M194.5,897.52h105.23"/><path class="cls-1" d="M108.25,811.97v.02l.74.3"/><path class="cls-1" d="M108.25,812l22.04,9.66,10.76,4.72"/><path class="cls-1" d="M465.68,808.17l-42.55,18.65"/><path class="cls-1" d="M425.16,825.96l37.55-16.46"/><path class="cls-1" d="M423.13,826.84v-.02s2.03-.87,2.03-.87"/><path class="cls-1" d="M462.71,809.49l2.98-1.3"/><path class="cls-1" d="M462.71,809.49l3.74-2.83"/><path class="cls-1" d="M398.5,826.69l-5.57.15"/><path class="cls-1" d="M423.13,826.82h-123.41"/><path class="cls-1" d="M194.47,834.42v-8.07h-53.42"/><path class="cls-1" d="M194.47,826.38v1.94"/><path class="cls-1" d="M160.74,826.38h33.73"/><path class="cls-1" d="M194.47,828.32v6.13"/><path class="cls-1" d="M141.05,826.38h19.68"/><path class="cls-1" d="M141.05,826.36l-32.06-14.06"/><path class="cls-1" d="M432.57,770.28v11.55"/><path class="cls-1" d="M432.57,769.51v.77"/><path class="cls-1" d="M432.57,769.51h.02-.02Z"/><path class="cls-1" d="M119.28,781.83h65.83"/><path class="cls-1" d="M432.57,781.83h17.23-17.23Z"/><path class="cls-1" d="M185.11,781.83h-65.83"/><path class="cls-1" d="M449.81,781.83v2.25"/><path class="cls-1" d="M119.28,781.83v2.25"/><path class="cls-1" d="M185.11,781.83v-11.55"/><path class="cls-1" d="M432.57,781.83v-12.34"/><path class="cls-1" d="M119.28,808.41l.06.03v-.03h-.06Z"/><path class="cls-1" d="M449.81,784.08v-2.25"/><path class="cls-1" d="M119.28,784.08v-2.25"/><path class="cls-1" d="M119.28,808.4v-2.24h0v-22.09"/><path class="cls-1" d="M449.81,784.07v.31"/><path class="cls-1" d="M119.28,784.07v22.08h0v2.25"/><path class="cls-1" d="M466.6,771.03v-.77"/><path class="cls-1" d="M432.6,769.49v.79"/><path class="cls-1" d="M432.6,771.03v-1.54"/><path class="cls-1" d="M466.6,770.28v-7.65"/><path class="cls-1" d="M432.6,770.28v-7.65"/><path class="cls-1" d="M108.25,771.49v-1.21"/><path class="cls-1" d="M185.11,771.49v-1.21"/><path class="cls-1" d="M108.25,771.49v40.48"/><path class="cls-1" d="M185.11,771.49v10.33"/><path class="cls-1" d="M448.89,808.72l.07-.02-.07.02Z"/><path class="cls-1" d="M423.8,817.51l26.07-8.8"/><path class="cls-1" d="M119.34,808.72l19.63,8.8"/><path class="cls-1" d="M448.89,808.72h.98"/><path class="cls-1" d="M423.8,817.51H138.97"/><path class="cls-1" d="M448.91,808.71h.96"/><path class="cls-1" d="M449.87,784.38v24.33"/><path class="cls-1" d="M119.34,808.43v.28"/><path class="cls-1" d="M449.87,808.7l-26.07,8.8"/><path class="cls-1" d="M138.97,817.49c-6.25-2.8-12.49-5.6-18.74-8.39"/><path class="cls-1" d="M449.87,808.7h-.91"/><path class="cls-1" d="M138.97,817.49h284.83"/><path class="cls-1" d="M449.87,808.69h-.89"/><path class="cls-1" d="M449.87,808.69v-24.33"/><path class="cls-1" d="M119.34,808.69v-.25"/><path class="cls-1" d="M119.34,808.41h-.06.06Z"/><path class="cls-1" d="M449.81,784.36v-.29"/><path class="cls-1" d="M108.25,770.28v41.72"/><path class="cls-1" d="M254.41,897.43c1.12,0,2.25.06,3.37.15"/><path class="cls-1" d="M466.45,806.66c-.25-11.22-.28-22.44.15-33.65"/><path class="cls-1" d="M299.72,826.85h93.21"/><path class="cls-1" d="M299.72,829.42v-2.57"/><path class="cls-1" d="M392.93,826.85l5.57-.15"/><path class="cls-1" d="M108.25,812c8.01,3.22,15.62,7.4,23.76,10.29"/><path class="cls-1" d="M425.16,825.96l37.55-16.46,3.74-2.83"/><path class="cls-1" d="M194.47,826.38v1.94"/><path class="cls-1" d="M160.74,826.38h33.73"/><path class="cls-1" d="M432.57,770.28v11.55"/><path class="cls-1" d="M119.28,781.83h65.83"/><path class="cls-1" d="M432.57,781.83h17.23"/><path class="cls-1" d="M185.11,781.83v-11.55"/><path class="cls-1" d="M449.81,784.08v-2.25"/><path class="cls-1" d="M119.28,784.08v-2.25"/><path class="cls-1" d="M119.28,808.4v-2.24h0v-22.09"/><path class="cls-1" d="M449.87,808.7l-26.07,8.8"/><path class="cls-1" d="M138.97,817.49c-6.25-2.8-12.49-5.6-18.74-8.39"/><path class="cls-1" d="M449.87,808.7h-.91"/><path class="cls-1" d="M138.97,817.49h284.83"/><path class="cls-1" d="M449.87,808.69h-.89"/><path class="cls-1" d="M449.87,808.69v-24.33"/><path class="cls-1" d="M119.34,808.69v-.25"/><path class="cls-1" d="M119.34,808.41h-.06.06Z"/><path class="cls-1" d="M449.81,784.36v-.29"/><path class="cls-1" d="M299.89,848.71c-.19-5.97-.3-11.94-.14-17.91"/><path class="cls-1" d="M108.14,771.49h.11"/><path class="cls-1" d="M185.17,771.49v-8.62"/><path class="cls-1" d="M108.14,762.88h77.03"/><path class="cls-1" d="M108.14,771.49v-8.62"/><path class="cls-1" d="M108.25,771.49v-1.21"/><path class="cls-1" d="M185.11,771.49v-1.21"/><path class="cls-1" d="M194.5,834.45c-.31,13.6-.32,27.21-.04,40.81"/><path class="cls-1" d="M194.47,828.32v6.13h.03"/><path class="cls-1" d="M200.91,897.47c-.51.07-1.03.04-1.55-.06-.09-.02-.17-.04-.26-.06-.29.04-.56.05-.71.05,0,0,0,0-.01,0-.25.04-.49.08-.75.09-.47.03-.93.02-1.4-.07-.03,0-.06-.02-.09-.02-.01,0-.03,0-.04,0-.31.09-.7.07-1.01,0-.16-.04-.49-.12-.5-.34-.03-1.18-.02-2.37,0-3.55-.16-2.39-.08-4.78-.08-7.17,0-.02.02-.03.02-.05,0-.03-.03-.06-.03-.09,0-.94.06-1.88.13-2.82-.1-.93-.06-1.87,0-2.81,0-.2.02-.4.03-.6-.02-.26-.03-.52-.01-.78,0-.01,0-.02.01-.03-.01-.07-.02-.14-.03-.21l-.14-.43v19h6.44l-.02-.07Z"/><path class="cls-1" d="M432.6,762.63h34"/><path class="cls-1" d="M466.6,768.6v-5.97"/><path class="cls-1" d="M432.6,770.28v-7.65"/><path class="cls-1" d="M77.15,293.97h71.08v101.85h-71.08v41.33"/><path class="cls-1" d="M11.55,455.56v-23.56"/><path class="cls-1" d="M11.55,241.66h39.59"/><path class="cls-1" d="M77.15,437.15l-32.08,18.41H11.55"/><path class="cls-1" d="M51.14,241.66l26.01,13.64v38.67"/><path class="cls-1" d="M11.55,432l12.28-.02"/><path class="cls-1" d="M11.55,262.7v-21.03"/><path class="cls-1" d="M47.67,250.68l-24.33.07.03,11.93"/><path class="cls-1" d="M23.84,431.98l.03,12.54h2.25"/><path class="cls-1" d="M23.38,262.68l-11.83.02"/><path class="cls-1" d="M49.92,250.68h-2.24"/><path class="cls-1" d="M26.12,444.52h.63"/><path class="cls-1" d="M51.08,444.64c1.45-3.27,2.89-6.55,4.34-9.82l2.18-4.93"/><path class="cls-1" d="M51.08,444.64v-1.57"/><path class="cls-1" d="M26.75,444.52v.26s24.33-.15,24.33-.15v-1.55s0-.02,0-.02"/><path class="cls-1" d="M49.93,250.88v-.2h0"/><path class="cls-1" d="M67.1,271.59v-6.82"/><path class="cls-1" d="M67.1,271.59h-8.26"/><path class="cls-1" d="M67.1,264.78h-10.8l-6.38-14.1"/><path class="cls-1" d="M58.84,271.59l.18,29.96"/><path class="cls-1" d="M139.54,308.37v-6.82"/><path class="cls-1" d="M112.41,301.77h-30.76"/><path class="cls-1" d="M139.3,308.66v-.28"/><path class="cls-1" d="M112.41,301.56v.22"/><path class="cls-1" d="M81.65,301.77v-.22"/><path class="cls-1" d="M139.54,308.37h-.24"/><path class="cls-1" d="M59.06,308.66h80.24"/><path class="cls-1" d="M139.54,301.56h-27.13"/><path class="cls-1" d="M81.65,301.56h-22.64"/><path class="cls-1" d="M59.06,308.66l.19,32.31"/><path class="cls-1" d="M139.54,347.78v-6.82"/><path class="cls-1" d="M112.41,341.18h-30.76"/><path class="cls-1" d="M139.3,348.06v-.28"/><path class="cls-1" d="M112.41,340.96v.22"/><path class="cls-1" d="M81.65,341.18v-.22"/><path class="cls-1" d="M139.54,347.78h-.24"/><path class="cls-1" d="M59.3,348.06h80"/><path class="cls-1" d="M139.54,340.96h-27.13"/><path class="cls-1" d="M81.65,340.96h-22.4"/><path class="cls-1" d="M59.3,348.06l.19,31.79"/><path class="cls-1" d="M139.54,386.67v-6.82"/><path class="cls-1" d="M112.41,380.07h-30.76"/><path class="cls-1" d="M139.3,386.95v-.28"/><path class="cls-1" d="M112.41,379.85v.22"/><path class="cls-1" d="M81.65,380.07v-.22"/><path class="cls-1" d="M139.54,386.67h-.24"/><path class="cls-1" d="M139.54,379.85h-27.13"/><path class="cls-1" d="M81.65,379.85h-22.17"/><path class="cls-1" d="M59.53,386.95h79.77"/><path class="cls-1" d="M59.53,386.95l.22,36.12"/><path class="cls-1" d="M67.1,429.89v-6.82h-7.35"/><path class="cls-1" d="M67.1,429.89h-9.5"/></g><g id="Layer_01"><path class="cls-2" d="M192.52,650.86v-8.62"/><path class="cls-2" d="M115.5,650.86v-8.62"/><path class="cls-2" d="M115.6,650.86v40.61"/><path class="cls-2" d="M427.18,696.75v9.58"/><path class="cls-2" d="M208.29,777.01h86.06l12.73.02"/><path class="cls-2" d="M307.08,706.31v70.69"/><path class="cls-2" d="M307.08,706.34h93.21"/><path class="cls-2" d="M307.08,708.91v-2.57"/><path class="cls-2" d="M400.28,706.34h26.9"/><path class="cls-2" d="M307.08,777.03v-68.12"/><path class="cls-2" d="M400.28,706.34c2.07-.06,4.14-.11,6.2-.17"/><path class="cls-2" d="M201.85,713.94v42.89"/><path class="cls-2" d="M201.85,758.02v19"/><path class="cls-2" d="M201.85,777.01v-63.09"/><path class="cls-2" d="M201.85,756.83v1.2"/><path class="cls-2" d="M201.85,777.03v-.02l6.44.02"/><path class="cls-2" d="M201.85,777.01h105.23"/><path class="cls-2" d="M115.6,691.46v.02l.74.3"/><path class="cls-2" d="M115.6,691.48l22.1,9.69,10.73,4.7"/><path class="cls-2" d="M201.82,713.91v-8.07h-53.4"/><path class="cls-2" d="M201.82,705.87v1.94"/><path class="cls-2" d="M168.09,705.87h33.73"/><path class="cls-2" d="M201.82,707.81v6.13"/><path class="cls-2" d="M148.42,705.87h19.67"/><path class="cls-2" d="M148.42,705.85l-32.08-14.06"/><path class="cls-2" d="M427.18,705.59v-8.85"/><path class="cls-2" d="M406.52,706.16c-2.08.06-4.16.11-6.24.17"/><path class="cls-2" d="M408.09,706.31h-101.01"/><path class="cls-2" d="M427.18,706.31h-19.1"/><path class="cls-2" d="M126.63,661.21h65.83-65.83s0,2.24,0,2.24"/><path class="cls-2" d="M192.46,661.21v-10.36"/><path class="cls-2" d="M126.63,687.79l.06.03v-.03h-.06Z"/><path class="cls-2" d="M126.63,663.46v-2.25"/><path class="cls-2" d="M126.63,687.79v-2.24h0v-22.08,22.07h0v2.25Z"/><path class="cls-2" d="M115.5,642.24h77.03"/><path class="cls-2" d="M115.5,650.86v-8.62"/><path class="cls-2" d="M192.52,650.86v-8.62"/><path class="cls-2" d="M115.19,646.14c.1-1.3.25-2.6.3-3.91"/><path class="cls-2" d="M192.52,642.24h-77.03"/><path class="cls-2" d="M115.6,650.86v40.6"/><path class="cls-2" d="M115.6,650.86v40.62"/><path class="cls-2" d="M192.46,650.86v10.35"/><path class="cls-2" d="M126.99,687.95l.05.02-.05-.02Z"/><path class="cls-2" d="M146.33,696.75l-19.63-8.8h0"/><path class="cls-2" d="M146.33,696.75h280.86"/><path class="cls-2" d="M126.97,687.94h-.27v-.12l19.63,8.94"/><path class="cls-2" d="M126.7,687.97h.34"/><path class="cls-2" d="M427.18,696.77H146.33"/><path class="cls-2" d="M126.7,687.96h.33-.33l-.06-.17.34.15-.34-.15h0s.4.18.4.18"/><path class="cls-2" d="M427.18,705.59v.72"/><path class="cls-2" d="M427.18,696.77v8.83"/><path class="cls-2" d="M476.24,555.66v-8.62"/><path class="cls-2" d="M428.69,547.04c16.48.3,31.48.3,47.55,0"/><path class="cls-2" d="M392.87,547.34c9,0,18.01,0,27-.3"/><path class="cls-2" d="M392.64,555.66h16.93"/><path class="cls-2" d="M476.1,555.66h.14"/><path class="cls-2" d="M194.43,555.66v-8.62"/><path class="cls-2" d="M117.4,555.66v-8.62"/><path class="cls-2" d="M117.4,555.66h.11"/><path class="cls-2" d="M117.4,547.04h77.03"/><path class="cls-2" d="M117.5,555.66v40.73"/><path class="cls-2" d="M117.5,596.37l31.07,13.62"/><path class="cls-2" d="M117.5,596.39l31.07,13.62,287.85-.57"/><path class="cls-2" d="M148.58,610.02l287.85-.54h0"/><path class="cls-2" d="M436.43,609.45l39.49-17.31"/><path class="cls-2" d="M475.85,587.66c.71-8.14-.45-16.31.22-24.44"/><path class="cls-2" d="M436.42,609.47c11.94-4.81,23.85-9.74,35.29-15.65"/><path class="cls-2" d="M475.91,592.16l.19-37.26"/><path class="cls-2" d="M409.58,555.54v10.5"/><path class="cls-2" d="M128.54,566.03h65.83"/><path class="cls-2" d="M409.58,566.03h49.49"/><path class="cls-2" d="M128.54,566.03h65.83"/><path class="cls-2" d="M409.58,566.03h49.49"/><path class="cls-2" d="M194.37,566.03v-10.38"/><path class="cls-2" d="M194.37,566.03v-10.38"/><path class="cls-2" d="M440.28,598.96c-38.87,0-.19.06,0,0-99.1.38-199.1.38-297.67-.04"/><path class="cls-2" d="M459.06,568.28v-2.25"/><path class="cls-2" d="M128.54,568.28v-2.25"/><path class="cls-2" d="M459.06,568.28v-2.25"/><path class="cls-2" d="M128.54,568.28v-2.25"/><path class="cls-2" d="M128.54,592.6v-2.24h0v-22.08"/><path class="cls-2" d="M128.54,592.61v-2.24h0v-22.08"/><path class="cls-2" d="M392.64,555.66h16.93"/><path class="cls-2" d="M476.24,555.66v-8.62"/><path class="cls-2" d="M392.64,547.04h83.6"/><path class="cls-2" d="M392.64,555.66v-8.62"/><path class="cls-2" d="M476.24,555.66v-8.62"/><path class="cls-2" d="M476.24,547.04h-83.6"/><path class="cls-2" d="M409.58,555.66v10.38"/><path class="cls-2" d="M476.1,555.66h.14"/><path class="cls-2" d="M117.4,547.04h77.03"/><path class="cls-2" d="M117.4,555.66v-8.62"/><path class="cls-2" d="M194.43,555.66v-8.62"/><path class="cls-2" d="M194.43,547.04h-77.03"/><path class="cls-2" d="M117.5,555.66v40.72"/><path class="cls-2" d="M117.5,555.66v40.74"/><path class="cls-2" d="M458.89,592.67l.07-.02-.07.02Z"/><path class="cls-2" d="M440.55,598.92h-.17"/><path class="cls-2" d="M458.86,592.74c-6.1,2.06-12.21,4.12-18.31,6.18"/><path class="cls-2" d="M142.59,598.92l-13.99-6.27"/><path class="cls-2" d="M458.98,592.34c.05-8.01.1-16.01.15-24.02"/><path class="cls-2" d="M458.48,592.89c-5.82,1.97-11.65,3.93-17.47,5.9"/><path class="cls-2" d="M142.98,599.11c-4.79-2.15-9.59-4.29-14.38-6.44"/><path class="cls-2" d="M458.91,592.66c.07-8.11.14-16.22.21-24.33"/><path class="cls-2" d="M128.6,592.61h-.06.06Z"/><path class="cls-2" d="M440.38,598.92l-.11.04"/><path class="cls-2" d="M128.6,592.62h-.06.06Z"/><path class="cls-2" d="M459.06,568.34v-.06.06Z"/><path class="cls-2" d="M128.67,592.67h-.02s-.05-.03-.05-.03l-.06-.03.06.03h0s-.06-.03-.06-.03"/><path class="cls-2" d="M471.16,948.5v.95"/><path class="cls-2" d="M388.93,911.57v-7.43"/><path class="cls-2" d="M472.33,911.57v-7.43"/><path class="cls-2" d="M388.93,904.14h83.4"/><path class="cls-2" d="M472.2,911.57h.13"/><path class="cls-2" d="M190.65,912.89v-8.62"/><path class="cls-2" d="M113.62,912.89v-8.62"/><path class="cls-2" d="M113.62,912.89h.11"/><path class="cls-2" d="M113.62,904.27h77.03"/><path class="cls-2" d="M113.73,912.89v40.37"/><path class="cls-2" d="M206.5,1039.03v.02l85.9-.02v.02"/><path class="cls-2" d="M206.5,1039.05c23.68.29,46.68.29,70.94,0"/><path class="cls-2" d="M471.93,947.91v.02l.26-36.36"/><path class="cls-2" d="M471.93,947.93l.26-36.36"/><path class="cls-2" d="M206.41,1038.79h86.06"/><path class="cls-2" d="M292.47,1038.81h12.73"/><path class="cls-2" d="M471.16,948.51v.95"/><path class="cls-2" d="M206.41,1038.79l.08.24"/><path class="cls-2" d="M471.16,948.49l.77-.58"/><path class="cls-2" d="M305.2,968.09v70.69"/><path class="cls-2" d="M305.2,968.11h93.21"/><path class="cls-2" d="M305.2,970.68v-2.57"/><path class="cls-2" d="M398.41,968.11h30.22"/><path class="cls-2" d="M305.2,1038.81v-68.12"/><path class="cls-2" d="M398.41,968.11l7.66-.21"/><path class="cls-2" d="M199.97,975.71v42.89"/><path class="cls-2" d="M199.97,1019.8v19"/><path class="cls-2" d="M199.97,1038.78v-63.09"/><path class="cls-2" d="M199.97,1018.6v1.2"/><path class="cls-2" d="M199.97,1038.81v-.02l6.44.02"/><path class="cls-2" d="M199.97,1038.78h105.23"/><path class="cls-2" d="M113.73,953.25v.02l.74.3"/><path class="cls-2" d="M113.73,953.27l21.99,9.64,10.8,4.73"/><path class="cls-2" d="M471.16,949.44l-42.53,18.65"/><path class="cls-2" d="M430.66,967.22l37.51-16.44"/><path class="cls-2" d="M428.63,968.11v-.02s2.03-.87,2.03-.87"/><path class="cls-2" d="M468.16,950.78l3-1.31"/><path class="cls-2" d="M406.07,967.9l-7.66.21"/><path class="cls-2" d="M428.63,968.09h-123.43"/><path class="cls-2" d="M199.95,975.69v-8.07h-53.43"/><path class="cls-2" d="M199.95,967.65v1.94"/><path class="cls-2" d="M166.22,967.65h33.73"/><path class="cls-2" d="M199.95,969.58v6.13"/><path class="cls-2" d="M146.52,967.65h19.7"/><path class="cls-2" d="M146.51,967.62l-32.04-14.05"/><path class="cls-2" d="M190.59,910.76v12.44"/><path class="cls-2" d="M124.76,923.2h65.83"/><path class="cls-2" d="M388.96,923.2h66.33-66.33Z"/><path class="cls-2" d="M190.59,923.2h-65.83"/><path class="cls-2" d="M455.29,923.2v2.25"/><path class="cls-2" d="M124.76,923.2v2.25"/><path class="cls-2" d="M388.96,923.2v-12.44"/><path class="cls-2" d="M190.59,923.2v-10.31"/><path class="cls-2" d="M124.76,949.78l.06.03v-.03h-.06Z"/><path class="cls-2" d="M455.29,925.45v-2.25"/><path class="cls-2" d="M124.76,925.45v-2.25"/><path class="cls-2" d="M124.76,949.78v-2.24h0v-22.08"/><path class="cls-2" d="M455.29,925.45v.44"/><path class="cls-2" d="M124.76,925.45v22.08h0v2.25"/><path class="cls-2" d="M388.93,911.57v-7.43"/><path class="cls-2" d="M388.93,911.57v-7.43"/><path class="cls-2" d="M388.93,904.14h83.4"/><path class="cls-2" d="M472.33,911.57v-7.43"/><path class="cls-2" d="M472.33,904.14h-83.4"/><path class="cls-2" d="M388.96,911.57v11.63"/><path class="cls-2" d="M190.65,908.06v-3.79"/><path class="cls-2" d="M113.62,904.27h77.03"/><path class="cls-2" d="M113.62,912.89v-8.62"/><path class="cls-2" d="M190.65,912.89v-8.62"/><path class="cls-2" d="M113.62,912.89v-8.62"/><path class="cls-2" d="M190.65,904.27h-77.03"/><path class="cls-2" d="M190.59,912.89v-2.13"/><path class="cls-2" d="M113.73,912.89v40.36"/><path class="cls-2" d="M113.73,912.89v40.38"/><path class="cls-2" d="M453.99,950.22l.07-.02-.07.02Z"/><path class="cls-2" d="M125.69,950.2l.05.02-.05-.02Z"/><path class="cls-2" d="M429.28,959.01l26.07-8.8"/><path class="cls-2" d="M124.82,950.22l19.63,8.8"/><path class="cls-2" d="M124.82,950.22h.92"/><path class="cls-2" d="M453.99,950.22h1.36"/><path class="cls-2" d="M429.28,959.01H144.45"/><path class="cls-2" d="M124.82,950.21h.9"/><path class="cls-2" d="M454.01,950.21h1.34"/><path class="cls-2" d="M455.35,925.89v24.33"/><path class="cls-2" d="M124.82,949.81v.4"/><path class="cls-2" d="M455.35,950.2l-26.07,8.8"/><path class="cls-2" d="M144.45,959l-19.63-8.8"/><path class="cls-2" d="M455.35,950.2h-1.29"/><path class="cls-2" d="M125.69,950.2h-.87"/><path class="cls-2" d="M144.45,959h284.83"/><path class="cls-2" d="M455.35,950.19h-1.27"/><path class="cls-2" d="M125.67,950.19h-.85"/><path class="cls-2" d="M455.35,950.19v-24.33"/><path class="cls-2" d="M124.82,950.19v-.38"/><path class="cls-2" d="M124.82,949.78h-.06.06Z"/><path class="cls-2" d="M455.29,925.87v-.42"/></g></g></svg>