<?xml version="1.0" encoding="UTF-8"?>
<svg id="Layer_2" data-name="Layer 2" xmlns="http://www.w3.org/2000/svg" version="1.1" viewBox="0 0 612 792">
  <defs>
    <style>
      .cls-1 {
        stroke-width: 0px;
      }

      .cls-1, .cls-2 {
        fill: none;
      }

      .cls-1, .cls-2, .cls-3 {
        stroke: #000;
        stroke-linecap: round;
        stroke-linejoin: round;
      }

      .cls-2, .cls-3 {
        stroke-width: 2px;
      }

      .cls-3 {
        fill: #000;
      }
    </style>
  </defs>
  <polygon class="cls-2" points="195.2 160.1 193.1 162.3 175.1 193.6 207.9 193.6 207.9 195.9 175.1 195.9 193.2 227.1 195.2 229.3 227.9 229.5 227.9 231.7 195.1 231.7 193 234.2 175.1 265.3 207.9 265.3 207.9 267.6 175.1 267.6 193.2 298.8 195.2 301 227.9 301.2 227.9 303.7 195.2 303.9 193 306.2 175.1 337.3 207.9 337.3 207.9 339.6 175.1 339.6 193.1 371.5 195.1 373.3 227.9 373.3 227.9 375.4 195.2 375.5 193.1 377.7 175.1 408.9 207.9 408.9 207.9 411.3 175.1 411.3 193.1 442.5 195.1 444.9 227.9 444.9 227.9 447.1 195.2 447.2 193 449.5 175.1 480.6 207.9 480.6 207.9 482.9 175.1 482.9 193.1 514.2 195.2 516.4 231 516.5 214.6 487.9 217 486.2 233.2 514.2 235.2 516.6 271.3 516.6 254.8 487.9 257.1 486.2 273.2 514.2 275.2 516.7 311.4 516.7 294.8 488.1 297.2 486.3 313.3 514 315.4 516.5 351.5 516.6 335 488 337.3 486.3 353.5 514.2 355.6 516.4 391.6 516.6 375 488 376.8 486.7 393.4 514.3 395.5 516.6 431.6 516.6 415.2 488.1 417.5 486.4 433.7 514.2 451.7 483 415.7 483.2 413.5 485.3 397.2 513.3 395.1 511.5 411.4 483 411.5 480.4 395.2 452.3 397.2 450.7 413.6 478.3 415.8 480.3 451.7 480.6 433.7 449.3 417.6 477.2 415.3 475.3 431.5 447 431.5 444.7 415.2 416.4 417.5 414.7 433.7 441.7 451.7 411.3 415.6 411.3 413 413.8 397.3 441.7 395.1 439.8 411.5 411.3 411.4 408.9 395.2 380.6 397.3 378.9 413.6 406.6 415.8 408.6 451.7 408.9 433.7 377.6 417.6 405.5 415.3 403.6 431.5 375.3 431.5 373.3 415.2 344.8 417.5 343 433.7 370.9 451.7 339.6 415.6 339.6 413.5 342 397.3 370.1 395.1 368.2 411.5 339.6 411.6 337.3 395.2 308.9 397.5 307.1 413.6 334.9 415.6 337.3 451.7 337.3 433.7 306.1 417.6 333.9 415.3 332 431.6 303.7 431.5 301.2 415.2 272.8 417 271.4 433.7 298.9 451.7 267.6 415.8 267.6 413.5 270 397.3 298.1 395.1 296.2 411.4 268 411.5 265.3 395.2 236.9 397.5 235 413.6 262.9 415.6 265.3 451.1 265.3 433.7 234 417.6 261.9 415.3 259.9 431.5 231.6 431.5 229.5 415.2 201.1 417.5 199.3 433.7 226.3 451.7 195.9 415.6 195.9 412.9 198.7 397.3 226.3 395.1 224.5 411.4 196 411.6 193.5 395.2 165.2 397.5 163.3 412.9 190.9 415.8 193.2 451.7 193.5 433.7 162.3 417.5 189.4 415.3 188.2 431.6 159.9 395.7 160.1 392.9 163.3 377.4 190.2 375.1 188.4 391.5 159.9 355.4 159.9 353 162.3 336.9 190.2 335 188.5 351.5 160 315.7 160 313.4 162.3 297.3 190.2 295 188.3 311.4 160 275.3 160.1 272.8 162.4 257.1 190.2 254.8 188.5 271.3 160 235.4 160 233.2 162.3 217 190.3 214.8 188.4 231.2 160 195.2 160.1"/>
  <polygon class="cls-2" points="197 163.3 194.8 165.1 211.1 193.6 211.1 195.9 194.8 224.3 197.1 226 213.2 198.3 215.3 195.8 247.9 195.9 247.9 193.6 215.1 193.6 213.2 191.3 197 163.3"/>
  <polygon class="cls-2" points="214.6 200.8 217 199.1 233.2 227.2 235.2 229.5 267.8 229.5 267.8 231.7 235.2 231.6 233.2 233.8 217 262 214.8 260.2 231 231.7 231.1 229.5 214.6 200.8"/>
  <polygon class="cls-2" points="194.8 236.9 196.6 235.3 213.2 263 215.2 265.1 247.9 265.3 247.9 267.6 215.3 267.5 213.2 269.2 197 298 194.8 296 211.1 267.6 211.2 265.3 194.8 236.9"/>
  <polygon class="cls-2" points="194.8 308.9 197 307.3 212.7 335 215.1 337.3 247.9 337.3 247.9 339.6 215.1 339.6 213.2 341.2 197 369 194.8 368.1 211.1 339.6 211.2 337.3 194.8 308.9"/>
  <polygon class="cls-2" points="194.8 380.5 211.1 408.9 211.1 411.3 194.8 439.7 197 441.6 213.2 412.3 215.1 411.3 247.9 411.3 247.9 408.9 215.1 408.9 213.2 406.7 197 378.7 194.8 380.5"/>
  <polygon class="cls-2" points="197 450.4 194.8 452.2 211.1 480.6 211.1 482.9 194.8 511.4 197 513.3 213.2 484.3 215.3 483 247.9 483 247.9 480.6 214.8 480.4 213.2 478.3 197 450.4"/>
  <polygon class="cls-2" points="234.8 452.1 237 450.2 253.1 478.8 255.3 480.6 288.1 480.6 288.1 483 255.3 483.1 253.1 484.3 237.2 513.1 234.9 511.2 251.1 483.2 251 480.1 234.8 452.1"/>
  <polygon class="cls-2" points="274.8 452 277.1 450.2 293.1 479.3 295.3 480.7 328.1 480.7 328.1 483 295.4 483.1 293.3 484.3 277.1 513.4 274.8 511.4 291.1 483 291.3 480.6 274.8 452"/>
  <polygon class="cls-2" points="315 452.2 317.2 450.3 333.4 479.3 335.4 480.6 368.3 480.6 368.3 483 335.4 483 333.4 484.2 317.2 513.5 314.9 511.6 331.3 482.9 331.3 480.7 315 452.2"/>
  <polygon class="cls-2" points="355 452 371.4 480.6 371.5 483 355.1 511.6 357.3 513.3 373.9 484.9 375.6 483.1 408.4 483 408.4 480.6 375.5 480.6 373.5 479.1 357.2 450.1 355 452"/>
  <polygon class="cls-2" points="375 416.3 377.4 414.5 393.4 442.6 395.5 444.9 428.3 444.9 428.3 447 395.5 447 393.4 448.4 377.4 477.3 375.1 475.5 391.3 447.4 391.4 444.9 375 416.3"/>
  <polygon class="cls-2" points="355 164.9 357.2 163 373.5 192.1 375.5 193.5 408.4 193.5 408.4 195.9 375.5 195.9 373.2 197.2 357.3 226.2 355.1 224.3 371.5 195.9 371.3 193.2 355 164.9"/>
  <polygon class="cls-2" points="315 165.1 315.6 164.6 317.2 163.2 333.3 191.2 335.5 193.5 368.3 193.6 368.3 195.9 335.4 195.9 333.3 197.2 317.4 226 314.9 224.5 331.2 195.9 331.3 193.6 315 165.1"/>
  <polygon class="cls-2" points="274.8 224.4 277.1 226.4 293.3 197.4 295.4 196 328.1 195.9 328.1 193.6 295.3 193.6 293.1 192.2 277.1 163.1 274.8 164.9 291.3 193.6 291.3 195.9 274.8 224.4"/>
  <polygon class="cls-2" points="234.8 165 237 163.2 253.1 192.2 255.3 193.6 288.1 193.6 288.1 195.9 255.3 196.1 253.1 197.3 237.2 226 234.9 224.1 251.2 195.9 251.2 193.6 234.8 165"/>
  <polygon class="cls-2" points="254.8 200.9 271.1 229.5 271 231.7 253.2 262.9 237 234.9 234.8 236.7 251.1 265.3 251 267.6 233.2 298.9 217 270.8 214.6 272.5 231.1 301.2 231.2 303.7 214.8 332.2 217 334.1 233.2 306 251.1 337.3 251 339.6 233.2 370.9 217 342.9 214.6 344.6 231.1 373.3 231 375.4 214.8 403.8 217 405.7 233.2 377.7 251.1 408.9 251.2 411.3 235.4 439.5 237.2 440.7 253.2 413.6 271.1 444.9 271 447 255.3 474.8 257.6 476.5 273 449.9 275.3 447.2 311.4 447 295 475.4 297.3 477.3 313.3 449.5 315.4 447.1 351.5 447 335 475.6 337.2 477.5 353.5 449.3 356.1 447.1 388.3 447 388.3 444.9 355.5 444.9 373.4 413.8 375.1 411.9 408.3 411.3 408.3 408.9 375.5 408.9 393.6 377.6 395.7 375.5 428.3 375.3 427.6 373.3 395.5 373.3 393.5 370.8 375.5 339.6 408.4 339.6 408.4 337.3 375.5 337.3 393.6 306.1 395.6 304 428.3 303.7 428.3 301.2 395.5 301.2 393.4 298.9 375.5 267.6 408.3 267.6 408.3 265.3 375.5 265.3 373.5 262.9 355.4 231.6 388.3 231.6 388.3 229.5 355.5 229.5 353.5 227.2 337.3 199.2 335 200.9 351.5 229.5 315.4 229.5 297.3 199.3 294.8 201 311.4 229.7 275.2 229.7 273.2 227.2 257.1 199.2 254.8 200.9"/>
  <polygon class="cls-2" points="377.4 199.2 375 200.9 391.4 229.5 391.3 232 375.1 260.1 377.4 262 393.4 232.9 395.7 231.9 428.3 231.6 428.3 229.5 395.5 229.5 393.4 227.9 377.4 199.2"/>
  <polygon class="cls-2" points="214.6 416.2 217 414.5 233.2 442.5 235.2 444.9 267.8 444.9 267.8 447 235.2 447 233.2 448.3 217.3 476.9 214.8 475.5 231.2 447.1 231.2 444.9 214.6 416.2"/>
  <circle class="cls-3" cx="233.3" cy="183.2" r="3.9"/>
  <circle class="cls-3" cx="213.9" cy="219.5" r="3.9"/>
  <circle class="cls-3" cx="393.4" cy="183.4" r="3.9"/>
  <circle class="cls-3" cx="412.9" cy="219.5" r="3.9"/>
  <circle class="cls-3" cx="393.4" cy="492.4" r="3.9"/>
  <circle class="cls-3" cx="413" cy="457.4" r="3.9"/>
  <circle class="cls-3" cx="212.7" cy="456.9" r="3.9"/>
  <circle class="cls-3" cx="232.4" cy="492.2" r="3.9"/>
  <line class="cls-1" x1="246.5" y1="238.6" x2="251.7" y2="238.6"/>
  <line class="cls-1" x1="249.1" y1="243.1" x2="246.5" y2="238.6"/>
  <line class="cls-1" x1="244" y1="238.1" x2="247.9" y2="245"/>
  <line class="cls-1" x1="252.7" y1="236.5" x2="260.5" y2="236.5"/>
  <line class="cls-1" x1="244.9" y1="236.5" x2="252.7" y2="236.5"/>
  <line class="cls-1" x1="237.1" y1="234.1" x2="244.4" y2="247.1"/>
  <line class="cls-1" x1="252.7" y1="240.6" x2="253.7" y2="240.6"/>
  <line class="cls-1" x1="251.7" y1="240.6" x2="252.7" y2="240.6"/>
  <line class="cls-1" x1="252.7" y1="232.4" x2="267.2" y2="232.4"/>
  <line class="cls-1" x1="238.1" y1="232.4" x2="252.7" y2="232.4"/>
  <line class="cls-1" x1="239.6" y1="234.4" x2="251.7" y2="234.4"/>
  <line class="cls-1" x1="245.6" y1="245.2" x2="239.6" y2="234.4"/>
  <line class="cls-1" x1="238.8" y1="203" x2="233.7" y2="203"/>
  <line class="cls-1" x1="236.3" y1="207.6" x2="238.8" y2="203"/>
  <line class="cls-1" x1="245.8" y1="198.9" x2="233.7" y2="198.9"/>
  <line class="cls-1" x1="239.7" y1="209.6" x2="245.8" y2="198.9"/>
  <line class="cls-1" x1="232.7" y1="222.1" x2="238.7" y2="211.4"/>
  <line class="cls-1" x1="232.7" y1="196.8" x2="247.3" y2="196.8"/>
  <line class="cls-1" x1="237.5" y1="209.5" x2="233.6" y2="216.4"/>
  <line class="cls-1" x1="241.4" y1="202.5" x2="237.5" y2="209.5"/>
  <line class="cls-1" x1="241" y1="211.5" x2="233.7" y2="224.5"/>
  <line class="cls-1" x1="248.2" y1="198.6" x2="241" y2="211.5"/>
  <line class="cls-1" x1="234" y1="207.4" x2="233.5" y2="208.3"/>
  <line class="cls-1" x1="234.5" y1="206.5" x2="234" y2="207.4"/>
  <line class="cls-1" x1="232.7" y1="213.9" x2="235.3" y2="209.3"/>
  <line class="cls-1" x1="232.7" y1="205" x2="233.7" y2="205"/>
  <line class="cls-1" x1="232.7" y1="200.9" x2="240.5" y2="200.9"/>
  <line class="cls-1" x1="252.7" y1="220.1" x2="253.7" y2="220.1"/>
  <line class="cls-1" x1="251.7" y1="220.1" x2="252.7" y2="220.1"/>
  <line class="cls-1" x1="246.5" y1="222.1" x2="249.1" y2="217.6"/>
  <line class="cls-1" x1="251.7" y1="222.1" x2="246.5" y2="222.1"/>
  <line class="cls-1" x1="252.7" y1="224.2" x2="260.5" y2="224.2"/>
  <line class="cls-1" x1="244.9" y1="224.2" x2="252.7" y2="224.2"/>
  <line class="cls-1" x1="247.9" y1="215.6" x2="251.8" y2="208.7"/>
  <line class="cls-1" x1="244" y1="222.6" x2="247.9" y2="215.6"/>
  <line class="cls-1" x1="252.7" y1="228.3" x2="267.2" y2="228.3"/>
  <line class="cls-1" x1="238.1" y1="228.3" x2="252.7" y2="228.3"/>
  <line class="cls-1" x1="251.3" y1="217.7" x2="251.8" y2="216.8"/>
  <line class="cls-1" x1="250.8" y1="218.6" x2="251.3" y2="217.7"/>
  <line class="cls-1" x1="244.4" y1="213.6" x2="251.7" y2="200.6"/>
  <line class="cls-1" x1="237.1" y1="226.6" x2="244.4" y2="213.6"/>
  <line class="cls-1" x1="239.6" y1="226.2" x2="245.6" y2="215.5"/>
  <line class="cls-1" x1="251.7" y1="226.2" x2="239.6" y2="226.2"/>
  <line class="cls-1" x1="252.7" y1="203" x2="246.6" y2="213.7"/>
  <line class="cls-1" x1="258.7" y1="213.7" x2="252.7" y2="203"/>
  <line class="cls-1" x1="252.7" y1="211.2" x2="250.1" y2="215.8"/>
  <line class="cls-1" x1="255.2" y1="215.8" x2="252.7" y2="211.2"/>
  <line class="cls-1" x1="252.7" y1="194.8" x2="262.2" y2="211.7"/>
  <line class="cls-1" x1="243.2" y1="211.7" x2="252.7" y2="194.8"/>
  <line class="cls-1" x1="232.7" y1="230.3" x2="251.7" y2="230.3"/>
  <line class="cls-1" x1="242.2" y1="213.4" x2="232.7" y2="230.3"/>
  <line class="cls-1" x1="238.7" y1="249.3" x2="232.7" y2="238.6"/>
  <line class="cls-1" x1="233.7" y1="236.2" x2="241" y2="249.2"/>
  <line class="cls-1" x1="232.7" y1="230.3" x2="242.2" y2="247.2"/>
  <line class="cls-1" x1="231.4" y1="207.4" x2="231.9" y2="208.3"/>
  <line class="cls-1" x1="230.9" y1="206.5" x2="231.4" y2="207.4"/>
  <line class="cls-1" x1="226.6" y1="203" x2="231.7" y2="203"/>
  <line class="cls-1" x1="229.1" y1="207.6" x2="226.6" y2="203"/>
  <line class="cls-1" x1="227.9" y1="209.5" x2="231.8" y2="216.4"/>
  <line class="cls-1" x1="224" y1="202.5" x2="227.9" y2="209.5"/>
  <line class="cls-1" x1="224.9" y1="200.9" x2="232.7" y2="200.9"/>
  <line class="cls-1" x1="224.4" y1="211.5" x2="231.7" y2="224.5"/>
  <line class="cls-1" x1="217.2" y1="198.6" x2="224.4" y2="211.5"/>
  <line class="cls-1" x1="231.7" y1="205" x2="232.7" y2="205"/>
  <line class="cls-1" x1="230.1" y1="209.3" x2="232.7" y2="213.9"/>
  <line class="cls-1" x1="218.1" y1="196.8" x2="232.7" y2="196.8"/>
  <line class="cls-1" x1="226.7" y1="211.4" x2="232.7" y2="222.1"/>
  <line class="cls-1" x1="219.6" y1="198.9" x2="231.7" y2="198.9"/>
  <line class="cls-1" x1="225.7" y1="209.6" x2="219.6" y2="198.9"/>
  <line class="cls-1" x1="206.6" y1="238.6" x2="211.7" y2="238.6"/>
  <line class="cls-1" x1="209.2" y1="243.1" x2="206.6" y2="238.6"/>
  <line class="cls-1" x1="204" y1="238.1" x2="207.9" y2="245"/>
  <line class="cls-1" x1="212.7" y1="236.5" x2="220.5" y2="236.5"/>
  <line class="cls-1" x1="204.9" y1="236.5" x2="212.7" y2="236.5"/>
  <line class="cls-1" x1="197.2" y1="234.1" x2="204.5" y2="247.1"/>
  <line class="cls-1" x1="212.7" y1="240.6" x2="213.7" y2="240.6"/>
  <line class="cls-1" x1="211.7" y1="240.6" x2="212.7" y2="240.6"/>
  <line class="cls-1" x1="228.3" y1="234.1" x2="221" y2="247.1"/>
  <line class="cls-1" x1="221.4" y1="238.1" x2="217.5" y2="245"/>
  <line class="cls-1" x1="212.7" y1="232.4" x2="227.3" y2="232.4"/>
  <line class="cls-1" x1="198.2" y1="232.4" x2="212.7" y2="232.4"/>
  <line class="cls-1" x1="199.7" y1="234.4" x2="211.7" y2="234.4"/>
  <line class="cls-1" x1="205.7" y1="245.2" x2="199.7" y2="234.4"/>
  <line class="cls-1" x1="225.8" y1="234.4" x2="213.7" y2="234.4"/>
  <line class="cls-1" x1="219.8" y1="245.2" x2="225.8" y2="234.4"/>
  <line class="cls-1" x1="218.9" y1="238.6" x2="213.7" y2="238.6"/>
  <line class="cls-1" x1="216.3" y1="243.1" x2="218.9" y2="238.6"/>
  <line class="cls-1" x1="198.9" y1="203" x2="193.8" y2="203"/>
  <line class="cls-1" x1="196.3" y1="207.6" x2="198.9" y2="203"/>
  <line class="cls-1" x1="205.8" y1="198.9" x2="193.8" y2="198.9"/>
  <line class="cls-1" x1="199.8" y1="209.6" x2="205.8" y2="198.9"/>
  <line class="cls-1" x1="192.8" y1="222.1" x2="198.8" y2="211.4"/>
  <line class="cls-1" x1="192.8" y1="196.8" x2="207.3" y2="196.8"/>
  <line class="cls-1" x1="197.6" y1="209.5" x2="193.7" y2="216.4"/>
  <line class="cls-1" x1="201.5" y1="202.5" x2="197.6" y2="209.5"/>
  <line class="cls-1" x1="201" y1="211.5" x2="193.7" y2="224.5"/>
  <line class="cls-1" x1="208.3" y1="198.6" x2="201" y2="211.5"/>
  <line class="cls-1" x1="194.1" y1="207.4" x2="193.6" y2="208.3"/>
  <line class="cls-1" x1="194.6" y1="206.5" x2="194.1" y2="207.4"/>
  <line class="cls-1" x1="192.8" y1="213.9" x2="195.3" y2="209.3"/>
  <line class="cls-1" x1="192.8" y1="205" x2="193.8" y2="205"/>
  <line class="cls-1" x1="192.8" y1="200.9" x2="200.6" y2="200.9"/>
  <line class="cls-1" x1="224.4" y1="249.2" x2="231.7" y2="236.2"/>
  <line class="cls-1" x1="232.7" y1="238.6" x2="226.7" y2="249.3"/>
  <line class="cls-1" x1="212.7" y1="220.1" x2="213.7" y2="220.1"/>
  <line class="cls-1" x1="211.7" y1="220.1" x2="212.7" y2="220.1"/>
  <line class="cls-1" x1="206.6" y1="222.1" x2="209.2" y2="217.6"/>
  <line class="cls-1" x1="211.7" y1="222.1" x2="206.6" y2="222.1"/>
  <line class="cls-1" x1="212.7" y1="224.2" x2="220.5" y2="224.2"/>
  <line class="cls-1" x1="204.9" y1="224.2" x2="212.7" y2="224.2"/>
  <line class="cls-1" x1="207.9" y1="215.6" x2="211.8" y2="208.7"/>
  <line class="cls-1" x1="204" y1="222.6" x2="207.9" y2="215.6"/>
  <line class="cls-1" x1="212.7" y1="228.3" x2="227.3" y2="228.3"/>
  <line class="cls-1" x1="198.2" y1="228.3" x2="212.7" y2="228.3"/>
  <line class="cls-1" x1="211.4" y1="217.7" x2="211.9" y2="216.8"/>
  <line class="cls-1" x1="210.9" y1="218.6" x2="211.4" y2="217.7"/>
  <line class="cls-1" x1="218.9" y1="222.1" x2="216.3" y2="217.6"/>
  <line class="cls-1" x1="213.7" y1="222.1" x2="218.9" y2="222.1"/>
  <line class="cls-1" x1="214.1" y1="217.7" x2="214.6" y2="218.6"/>
  <line class="cls-1" x1="213.6" y1="216.8" x2="214.1" y2="217.7"/>
  <line class="cls-1" x1="221" y1="213.6" x2="228.3" y2="226.6"/>
  <line class="cls-1" x1="213.7" y1="200.6" x2="221" y2="213.6"/>
  <line class="cls-1" x1="217.5" y1="215.6" x2="221.4" y2="222.6"/>
  <line class="cls-1" x1="213.6" y1="208.7" x2="217.5" y2="215.6"/>
  <line class="cls-1" x1="204.5" y1="213.6" x2="211.8" y2="200.6"/>
  <line class="cls-1" x1="197.2" y1="226.6" x2="204.5" y2="213.6"/>
  <line class="cls-1" x1="225.8" y1="226.2" x2="219.8" y2="215.5"/>
  <line class="cls-1" x1="213.7" y1="226.2" x2="225.8" y2="226.2"/>
  <line class="cls-1" x1="199.7" y1="226.2" x2="205.7" y2="215.5"/>
  <line class="cls-1" x1="211.7" y1="226.2" x2="199.7" y2="226.2"/>
  <line class="cls-1" x1="212.7" y1="203" x2="206.7" y2="213.7"/>
  <line class="cls-1" x1="218.8" y1="213.7" x2="212.7" y2="203"/>
  <line class="cls-1" x1="212.7" y1="211.2" x2="210.2" y2="215.8"/>
  <line class="cls-1" x1="215.3" y1="215.8" x2="212.7" y2="211.2"/>
  <line class="cls-1" x1="232.7" y1="230.3" x2="213.7" y2="230.3"/>
  <line class="cls-1" x1="223.2" y1="213.4" x2="232.7" y2="230.3"/>
  <line class="cls-1" x1="212.7" y1="194.8" x2="222.2" y2="211.7"/>
  <line class="cls-1" x1="203.2" y1="211.7" x2="212.7" y2="194.8"/>
  <line class="cls-1" x1="192.8" y1="230.3" x2="211.7" y2="230.3"/>
  <line class="cls-1" x1="202.2" y1="213.4" x2="192.8" y2="230.3"/>
  <line class="cls-1" x1="223.2" y1="247.2" x2="232.7" y2="230.3"/>
  <line class="cls-1" x1="198.8" y1="249.3" x2="192.8" y2="238.6"/>
  <line class="cls-1" x1="193.7" y1="236.2" x2="201" y2="249.2"/>
  <line class="cls-1" x1="192.8" y1="230.3" x2="202.2" y2="247.2"/>
  <line class="cls-1" x1="191.4" y1="207.4" x2="191.9" y2="208.3"/>
  <line class="cls-1" x1="190.9" y1="206.5" x2="191.4" y2="207.4"/>
  <line class="cls-1" x1="186.6" y1="203" x2="191.8" y2="203"/>
  <line class="cls-1" x1="189.2" y1="207.6" x2="186.6" y2="203"/>
  <line class="cls-1" x1="188" y1="209.5" x2="191.9" y2="216.4"/>
  <line class="cls-1" x1="184.1" y1="202.5" x2="188" y2="209.5"/>
  <line class="cls-1" x1="185" y1="200.9" x2="192.8" y2="200.9"/>
  <line class="cls-1" x1="184.5" y1="211.5" x2="191.8" y2="224.5"/>
  <line class="cls-1" x1="177.2" y1="198.6" x2="184.5" y2="211.5"/>
  <line class="cls-1" x1="191.8" y1="205" x2="192.8" y2="205"/>
  <line class="cls-1" x1="190.2" y1="209.3" x2="192.8" y2="213.9"/>
  <line class="cls-1" x1="178.2" y1="196.8" x2="192.8" y2="196.8"/>
  <line class="cls-1" x1="186.7" y1="211.4" x2="192.8" y2="222.1"/>
  <line class="cls-1" x1="179.7" y1="198.9" x2="191.8" y2="198.9"/>
  <line class="cls-1" x1="185.7" y1="209.6" x2="179.7" y2="198.9"/>
  <line class="cls-1" x1="166.7" y1="238.6" x2="171.8" y2="238.6"/>
  <line class="cls-1" x1="169.2" y1="243.1" x2="166.7" y2="238.6"/>
  <line class="cls-1" x1="172.8" y1="236.5" x2="180.6" y2="236.5"/>
  <line class="cls-1" x1="165" y1="236.5" x2="172.8" y2="236.5"/>
  <line class="cls-1" x1="172.8" y1="240.6" x2="173.8" y2="240.6"/>
  <line class="cls-1" x1="171.8" y1="240.6" x2="172.8" y2="240.6"/>
  <line class="cls-1" x1="188.3" y1="234.1" x2="181.1" y2="247.1"/>
  <line class="cls-1" x1="181.5" y1="238.1" x2="177.6" y2="245"/>
  <line class="cls-1" x1="172.8" y1="232.4" x2="187.4" y2="232.4"/>
  <line class="cls-1" x1="158.2" y1="232.4" x2="172.8" y2="232.4"/>
  <line class="cls-1" x1="159.7" y1="234.4" x2="171.8" y2="234.4"/>
  <line class="cls-1" x1="185.8" y1="234.4" x2="173.8" y2="234.4"/>
  <line class="cls-1" x1="179.8" y1="245.2" x2="185.8" y2="234.4"/>
  <line class="cls-1" x1="178.9" y1="238.6" x2="173.8" y2="238.6"/>
  <line class="cls-1" x1="176.4" y1="243.1" x2="178.9" y2="238.6"/>
  <line class="cls-1" x1="168.4" y1="198.6" x2="161.1" y2="211.5"/>
  <line class="cls-1" x1="184.5" y1="249.2" x2="191.8" y2="236.2"/>
  <line class="cls-1" x1="192.8" y1="238.6" x2="186.7" y2="249.3"/>
  <line class="cls-1" x1="172.8" y1="220.1" x2="173.8" y2="220.1"/>
  <line class="cls-1" x1="171.8" y1="220.1" x2="172.8" y2="220.1"/>
  <line class="cls-1" x1="166.7" y1="222.1" x2="169.2" y2="217.6"/>
  <line class="cls-1" x1="171.8" y1="222.1" x2="166.7" y2="222.1"/>
  <line class="cls-1" x1="172.8" y1="224.2" x2="180.6" y2="224.2"/>
  <line class="cls-1" x1="165" y1="224.2" x2="172.8" y2="224.2"/>
  <line class="cls-1" x1="168" y1="215.6" x2="171.9" y2="208.7"/>
  <line class="cls-1" x1="172.8" y1="228.3" x2="187.4" y2="228.3"/>
  <line class="cls-1" x1="158.2" y1="228.3" x2="172.8" y2="228.3"/>
  <line class="cls-1" x1="171.5" y1="217.7" x2="172" y2="216.8"/>
  <line class="cls-1" x1="171" y1="218.6" x2="171.5" y2="217.7"/>
  <line class="cls-1" x1="178.9" y1="222.1" x2="176.4" y2="217.6"/>
  <line class="cls-1" x1="173.8" y1="222.1" x2="178.9" y2="222.1"/>
  <line class="cls-1" x1="174.1" y1="217.7" x2="174.6" y2="218.6"/>
  <line class="cls-1" x1="173.6" y1="216.8" x2="174.1" y2="217.7"/>
  <line class="cls-1" x1="181.1" y1="213.6" x2="188.3" y2="226.6"/>
  <line class="cls-1" x1="173.8" y1="200.6" x2="181.1" y2="213.6"/>
  <line class="cls-1" x1="177.6" y1="215.6" x2="181.5" y2="222.6"/>
  <line class="cls-1" x1="173.7" y1="208.7" x2="177.6" y2="215.6"/>
  <line class="cls-1" x1="164.5" y1="213.6" x2="171.8" y2="200.6"/>
  <line class="cls-1" x1="185.8" y1="226.2" x2="179.8" y2="215.5"/>
  <line class="cls-1" x1="173.8" y1="226.2" x2="185.8" y2="226.2"/>
  <line class="cls-1" x1="171.8" y1="226.2" x2="159.7" y2="226.2"/>
  <line class="cls-1" x1="172.8" y1="203" x2="166.8" y2="213.7"/>
  <line class="cls-1" x1="178.8" y1="213.7" x2="172.8" y2="203"/>
  <line class="cls-1" x1="172.8" y1="211.2" x2="170.2" y2="215.8"/>
  <line class="cls-1" x1="175.4" y1="215.8" x2="172.8" y2="211.2"/>
  <line class="cls-1" x1="192.8" y1="230.3" x2="173.8" y2="230.3"/>
  <line class="cls-1" x1="183.3" y1="213.4" x2="192.8" y2="230.3"/>
  <line class="cls-1" x1="172.8" y1="194.8" x2="182.3" y2="211.7"/>
  <line class="cls-1" x1="163.3" y1="211.7" x2="172.8" y2="194.8"/>
  <line class="cls-1" x1="152.8" y1="230.3" x2="171.8" y2="230.3"/>
  <line class="cls-1" x1="183.3" y1="247.2" x2="192.8" y2="230.3"/>
  <line class="cls-1" x1="251.3" y1="171.9" x2="251.8" y2="172.7"/>
  <line class="cls-1" x1="250.8" y1="171" x2="251.3" y2="171.9"/>
  <line class="cls-1" x1="246.5" y1="167.4" x2="251.7" y2="167.4"/>
  <line class="cls-1" x1="249.1" y1="172" x2="246.5" y2="167.4"/>
  <line class="cls-1" x1="247.9" y1="173.9" x2="251.8" y2="180.8"/>
  <line class="cls-1" x1="244" y1="167" x2="247.9" y2="173.9"/>
  <line class="cls-1" x1="252.7" y1="165.4" x2="260.5" y2="165.4"/>
  <line class="cls-1" x1="244.9" y1="165.4" x2="252.7" y2="165.4"/>
  <line class="cls-1" x1="244.4" y1="176" x2="251.7" y2="188.9"/>
  <line class="cls-1" x1="237.1" y1="163" x2="244.4" y2="176"/>
  <line class="cls-1" x1="252.7" y1="169.5" x2="253.7" y2="169.5"/>
  <line class="cls-1" x1="251.7" y1="169.5" x2="252.7" y2="169.5"/>
  <line class="cls-1" x1="252.7" y1="178.3" x2="255.2" y2="173.8"/>
  <line class="cls-1" x1="250.1" y1="173.8" x2="252.7" y2="178.3"/>
  <line class="cls-1" x1="252.7" y1="161.3" x2="267.2" y2="161.3"/>
  <line class="cls-1" x1="238.1" y1="161.3" x2="252.7" y2="161.3"/>
  <line class="cls-1" x1="252.7" y1="186.6" x2="258.7" y2="175.8"/>
  <line class="cls-1" x1="246.6" y1="175.8" x2="252.7" y2="186.6"/>
  <line class="cls-1" x1="239.6" y1="163.3" x2="251.7" y2="163.3"/>
  <line class="cls-1" x1="245.6" y1="174" x2="239.6" y2="163.3"/>
  <line class="cls-1" x1="252.7" y1="157.2" x2="267.2" y2="157.2"/>
  <line class="cls-1" x1="238.1" y1="157.2" x2="252.7" y2="157.2"/>
  <line class="cls-1" x1="232.7" y1="159.2" x2="251.7" y2="159.2"/>
  <line class="cls-1" x1="242.2" y1="142.3" x2="232.7" y2="159.2"/>
  <line class="cls-1" x1="252.7" y1="194.8" x2="271.6" y2="194.8"/>
  <line class="cls-1" x1="262.2" y1="177.9" x2="252.7" y2="194.8"/>
  <line class="cls-1" x1="235.3" y1="180.2" x2="232.7" y2="175.6"/>
  <line class="cls-1" x1="238.7" y1="178.2" x2="232.7" y2="167.4"/>
  <line class="cls-1" x1="245.8" y1="190.7" x2="239.7" y2="179.9"/>
  <line class="cls-1" x1="233.7" y1="190.7" x2="245.8" y2="190.7"/>
  <line class="cls-1" x1="237.5" y1="180.1" x2="241.4" y2="187"/>
  <line class="cls-1" x1="233.6" y1="173.1" x2="237.5" y2="180.1"/>
  <line class="cls-1" x1="241" y1="178" x2="248.2" y2="191"/>
  <line class="cls-1" x1="233.7" y1="165" x2="241" y2="178"/>
  <line class="cls-1" x1="234" y1="182.1" x2="234.5" y2="183"/>
  <line class="cls-1" x1="233.5" y1="181.2" x2="234" y2="182.1"/>
  <line class="cls-1" x1="238.8" y1="186.6" x2="236.3" y2="182"/>
  <line class="cls-1" x1="233.7" y1="186.6" x2="238.8" y2="186.6"/>
  <line class="cls-1" x1="232.7" y1="159.2" x2="242.2" y2="176.1"/>
  <line class="cls-1" x1="252.7" y1="194.8" x2="233.7" y2="194.8"/>
  <line class="cls-1" x1="243.2" y1="177.9" x2="252.7" y2="194.8"/>
  <line class="cls-1" x1="232.7" y1="192.7" x2="247.3" y2="192.7"/>
  <line class="cls-1" x1="232.7" y1="188.6" x2="240.5" y2="188.6"/>
  <line class="cls-1" x1="232.7" y1="184.5" x2="233.7" y2="184.5"/>
  <line class="cls-1" x1="211.4" y1="171.9" x2="211.9" y2="172.7"/>
  <line class="cls-1" x1="210.9" y1="171" x2="211.4" y2="171.9"/>
  <line class="cls-1" x1="206.6" y1="167.4" x2="211.7" y2="167.4"/>
  <line class="cls-1" x1="209.2" y1="172" x2="206.6" y2="167.4"/>
  <line class="cls-1" x1="207.9" y1="173.9" x2="211.8" y2="180.8"/>
  <line class="cls-1" x1="204" y1="167" x2="207.9" y2="173.9"/>
  <line class="cls-1" x1="212.7" y1="165.4" x2="220.5" y2="165.4"/>
  <line class="cls-1" x1="204.9" y1="165.4" x2="212.7" y2="165.4"/>
  <line class="cls-1" x1="204.5" y1="176" x2="211.8" y2="188.9"/>
  <line class="cls-1" x1="197.2" y1="163" x2="204.5" y2="176"/>
  <line class="cls-1" x1="212.7" y1="169.5" x2="213.7" y2="169.5"/>
  <line class="cls-1" x1="211.7" y1="169.5" x2="212.7" y2="169.5"/>
  <line class="cls-1" x1="212.7" y1="178.3" x2="215.3" y2="173.8"/>
  <line class="cls-1" x1="210.2" y1="173.8" x2="212.7" y2="178.3"/>
  <line class="cls-1" x1="214.1" y1="171.9" x2="213.6" y2="172.7"/>
  <line class="cls-1" x1="214.6" y1="171" x2="214.1" y2="171.9"/>
  <line class="cls-1" x1="221" y1="176" x2="213.7" y2="188.9"/>
  <line class="cls-1" x1="228.3" y1="163" x2="221" y2="176"/>
  <line class="cls-1" x1="217.5" y1="173.9" x2="213.6" y2="180.8"/>
  <line class="cls-1" x1="221.4" y1="167" x2="217.5" y2="173.9"/>
  <line class="cls-1" x1="212.7" y1="161.3" x2="227.3" y2="161.3"/>
  <line class="cls-1" x1="198.2" y1="161.3" x2="212.7" y2="161.3"/>
  <line class="cls-1" x1="212.7" y1="186.6" x2="218.8" y2="175.8"/>
  <line class="cls-1" x1="206.7" y1="175.8" x2="212.7" y2="186.6"/>
  <line class="cls-1" x1="199.7" y1="163.3" x2="211.7" y2="163.3"/>
  <line class="cls-1" x1="205.7" y1="174" x2="199.7" y2="163.3"/>
  <line class="cls-1" x1="225.8" y1="163.3" x2="213.7" y2="163.3"/>
  <line class="cls-1" x1="219.8" y1="174" x2="225.8" y2="163.3"/>
  <line class="cls-1" x1="218.9" y1="167.4" x2="213.7" y2="167.4"/>
  <line class="cls-1" x1="216.3" y1="172" x2="218.9" y2="167.4"/>
  <line class="cls-1" x1="231.7" y1="184.5" x2="232.7" y2="184.5"/>
  <line class="cls-1" x1="226.6" y1="186.6" x2="229.1" y2="182"/>
  <line class="cls-1" x1="231.7" y1="186.6" x2="226.6" y2="186.6"/>
  <line class="cls-1" x1="224.9" y1="188.6" x2="232.7" y2="188.6"/>
  <line class="cls-1" x1="227.9" y1="180.1" x2="231.8" y2="173.1"/>
  <line class="cls-1" x1="224" y1="187" x2="227.9" y2="180.1"/>
  <line class="cls-1" x1="218.1" y1="192.7" x2="232.7" y2="192.7"/>
  <line class="cls-1" x1="231.4" y1="182.1" x2="231.9" y2="181.2"/>
  <line class="cls-1" x1="230.9" y1="183" x2="231.4" y2="182.1"/>
  <line class="cls-1" x1="224.4" y1="178" x2="231.7" y2="165"/>
  <line class="cls-1" x1="217.2" y1="191" x2="224.4" y2="178"/>
  <line class="cls-1" x1="219.6" y1="190.7" x2="225.7" y2="179.9"/>
  <line class="cls-1" x1="231.7" y1="190.7" x2="219.6" y2="190.7"/>
  <line class="cls-1" x1="232.7" y1="167.4" x2="226.7" y2="178.2"/>
  <line class="cls-1" x1="232.7" y1="175.6" x2="230.1" y2="180.2"/>
  <line class="cls-1" x1="212.7" y1="157.2" x2="227.3" y2="157.2"/>
  <line class="cls-1" x1="198.2" y1="157.2" x2="212.7" y2="157.2"/>
  <line class="cls-1" x1="232.7" y1="159.2" x2="213.7" y2="159.2"/>
  <line class="cls-1" x1="223.2" y1="142.3" x2="232.7" y2="159.2"/>
  <line class="cls-1" x1="192.8" y1="159.2" x2="211.7" y2="159.2"/>
  <line class="cls-1" x1="202.2" y1="142.3" x2="192.8" y2="159.2"/>
  <line class="cls-1" x1="223.2" y1="176.1" x2="232.7" y2="159.2"/>
  <line class="cls-1" x1="212.7" y1="194.8" x2="231.7" y2="194.8"/>
  <line class="cls-1" x1="222.2" y1="177.9" x2="212.7" y2="194.8"/>
  <line class="cls-1" x1="195.3" y1="180.2" x2="192.8" y2="175.6"/>
  <line class="cls-1" x1="198.8" y1="178.2" x2="192.8" y2="167.4"/>
  <line class="cls-1" x1="205.8" y1="190.7" x2="199.8" y2="179.9"/>
  <line class="cls-1" x1="193.8" y1="190.7" x2="205.8" y2="190.7"/>
  <line class="cls-1" x1="197.6" y1="180.1" x2="201.5" y2="187"/>
  <line class="cls-1" x1="193.7" y1="173.1" x2="197.6" y2="180.1"/>
  <line class="cls-1" x1="201" y1="178" x2="208.3" y2="191"/>
  <line class="cls-1" x1="193.7" y1="165" x2="201" y2="178"/>
  <line class="cls-1" x1="194.1" y1="182.1" x2="194.6" y2="183"/>
  <line class="cls-1" x1="193.6" y1="181.2" x2="194.1" y2="182.1"/>
  <line class="cls-1" x1="198.9" y1="186.6" x2="196.3" y2="182"/>
  <line class="cls-1" x1="193.8" y1="186.6" x2="198.9" y2="186.6"/>
  <line class="cls-1" x1="192.8" y1="159.2" x2="202.2" y2="176.1"/>
  <line class="cls-1" x1="212.7" y1="194.8" x2="193.8" y2="194.8"/>
  <line class="cls-1" x1="203.2" y1="177.9" x2="212.7" y2="194.8"/>
  <line class="cls-1" x1="192.8" y1="192.7" x2="207.3" y2="192.7"/>
  <line class="cls-1" x1="192.8" y1="188.6" x2="200.6" y2="188.6"/>
  <line class="cls-1" x1="192.8" y1="184.5" x2="193.8" y2="184.5"/>
  <line class="cls-1" x1="171.5" y1="171.9" x2="172" y2="172.7"/>
  <line class="cls-1" x1="171" y1="171" x2="171.5" y2="171.9"/>
  <line class="cls-1" x1="166.7" y1="167.4" x2="171.8" y2="167.4"/>
  <line class="cls-1" x1="169.2" y1="172" x2="166.7" y2="167.4"/>
  <line class="cls-1" x1="168" y1="173.9" x2="171.9" y2="180.8"/>
  <line class="cls-1" x1="172.8" y1="165.4" x2="180.6" y2="165.4"/>
  <line class="cls-1" x1="165" y1="165.4" x2="172.8" y2="165.4"/>
  <line class="cls-1" x1="164.5" y1="176" x2="171.8" y2="188.9"/>
  <line class="cls-1" x1="172.8" y1="169.5" x2="173.8" y2="169.5"/>
  <line class="cls-1" x1="171.8" y1="169.5" x2="172.8" y2="169.5"/>
  <line class="cls-1" x1="172.8" y1="178.3" x2="175.4" y2="173.8"/>
  <line class="cls-1" x1="170.2" y1="173.8" x2="172.8" y2="178.3"/>
  <line class="cls-1" x1="174.1" y1="171.9" x2="173.6" y2="172.7"/>
  <line class="cls-1" x1="174.6" y1="171" x2="174.1" y2="171.9"/>
  <line class="cls-1" x1="181.1" y1="176" x2="173.8" y2="188.9"/>
  <line class="cls-1" x1="188.3" y1="163" x2="181.1" y2="176"/>
  <line class="cls-1" x1="177.6" y1="173.9" x2="173.7" y2="180.8"/>
  <line class="cls-1" x1="181.5" y1="167" x2="177.6" y2="173.9"/>
  <line class="cls-1" x1="172.8" y1="161.3" x2="187.4" y2="161.3"/>
  <line class="cls-1" x1="158.2" y1="161.3" x2="172.8" y2="161.3"/>
  <line class="cls-1" x1="172.8" y1="186.6" x2="178.8" y2="175.8"/>
  <line class="cls-1" x1="166.8" y1="175.8" x2="172.8" y2="186.6"/>
  <line class="cls-1" x1="159.7" y1="163.3" x2="171.8" y2="163.3"/>
  <line class="cls-1" x1="185.8" y1="163.3" x2="173.8" y2="163.3"/>
  <line class="cls-1" x1="179.8" y1="174" x2="185.8" y2="163.3"/>
  <line class="cls-1" x1="178.9" y1="167.4" x2="173.8" y2="167.4"/>
  <line class="cls-1" x1="176.4" y1="172" x2="178.9" y2="167.4"/>
  <line class="cls-1" x1="191.8" y1="184.5" x2="192.8" y2="184.5"/>
  <line class="cls-1" x1="186.6" y1="186.6" x2="189.2" y2="182"/>
  <line class="cls-1" x1="191.8" y1="186.6" x2="186.6" y2="186.6"/>
  <line class="cls-1" x1="185" y1="188.6" x2="192.8" y2="188.6"/>
  <line class="cls-1" x1="188" y1="180.1" x2="191.9" y2="173.1"/>
  <line class="cls-1" x1="184.1" y1="187" x2="188" y2="180.1"/>
  <line class="cls-1" x1="178.2" y1="192.7" x2="192.8" y2="192.7"/>
  <line class="cls-1" x1="191.4" y1="182.1" x2="191.9" y2="181.2"/>
  <line class="cls-1" x1="190.9" y1="183" x2="191.4" y2="182.1"/>
  <line class="cls-1" x1="184.5" y1="178" x2="191.8" y2="165"/>
  <line class="cls-1" x1="177.2" y1="191" x2="184.5" y2="178"/>
  <line class="cls-1" x1="179.7" y1="190.7" x2="185.7" y2="179.9"/>
  <line class="cls-1" x1="191.8" y1="190.7" x2="179.7" y2="190.7"/>
  <line class="cls-1" x1="192.8" y1="167.4" x2="186.7" y2="178.2"/>
  <line class="cls-1" x1="192.8" y1="175.6" x2="190.2" y2="180.2"/>
  <line class="cls-1" x1="172.8" y1="157.2" x2="187.4" y2="157.2"/>
  <line class="cls-1" x1="158.2" y1="157.2" x2="172.8" y2="157.2"/>
  <line class="cls-1" x1="192.8" y1="159.2" x2="173.8" y2="159.2"/>
  <line class="cls-1" x1="183.3" y1="142.3" x2="192.8" y2="159.2"/>
  <line class="cls-1" x1="152.8" y1="159.2" x2="171.8" y2="159.2"/>
  <line class="cls-1" x1="183.3" y1="176.1" x2="192.8" y2="159.2"/>
  <line class="cls-1" x1="172.8" y1="194.8" x2="191.8" y2="194.8"/>
  <line class="cls-1" x1="182.3" y1="177.9" x2="172.8" y2="194.8"/>
  <line class="cls-1" x1="161.1" y1="178" x2="168.4" y2="191"/>
  <line class="cls-1" x1="172.8" y1="194.8" x2="153.8" y2="194.8"/>
  <line class="cls-1" x1="163.3" y1="177.9" x2="172.8" y2="194.8"/>
</svg>