<?xml version="1.0" encoding="UTF-8"?>
<svg id="Layer_2" data-name="Layer 2" xmlns="http://www.w3.org/2000/svg" viewBox="0 0 277.39 357.56">
  <defs>
    <style>
      .cls-1 {
        fill: #000;
      }

      .cls-1, .cls-2 {
        stroke: #000;
        stroke-linecap: round;
        stroke-linejoin: round;
        stroke-width: .75px;
      }

      .cls-2 {
        fill: none;
      }
    </style>
  </defs>
  <polygon class="cls-2" points="20.48 .57 18.44 2.73 .38 34.02 33.19 34.02 33.19 36.33 .38 36.33 18.45 67.58 20.54 69.75 53.15 69.99 53.15 72.16 20.41 72.16 18.29 74.61 .38 105.73 33.19 105.73 33.19 108.04 .38 108.04 18.45 139.29 20.54 141.46 53.15 141.7 53.15 144.2 20.48 144.32 18.31 146.7 .38 177.77 33.19 177.77 33.19 180.08 .38 180.08 18.44 211.98 20.4 213.74 53.15 213.74 53.15 215.83 20.48 215.95 18.44 218.12 .38 249.4 33.19 249.4 33.19 251.71 .38 251.71 18.44 283 20.4 285.38 53.15 285.38 53.15 287.52 20.48 287.64 18.29 289.97 .38 321.09 33.19 321.09 33.19 323.4 .38 323.4 18.44 354.69 20.54 356.82 56.33 356.93 39.94 328.36 42.26 326.63 58.46 354.69 60.46 357.03 96.59 357.03 80.06 328.41 82.35 326.7 98.51 354.7 100.52 357.18 136.65 357.18 120.09 328.52 122.51 326.71 138.55 354.49 140.69 357 176.78 357.06 160.26 328.46 162.61 326.71 178.77 354.71 180.89 356.82 216.87 357.06 200.34 328.44 202.11 327.12 218.74 354.73 220.78 357.06 256.9 357.06 240.46 328.59 242.84 326.81 258.95 354.7 277.01 323.42 241.03 323.68 238.84 325.78 222.5 353.78 220.43 351.98 236.68 323.42 236.76 320.82 220.54 292.73 222.46 291.13 238.88 318.73 241.09 320.73 277.01 321.08 258.95 289.8 242.85 317.69 240.6 315.74 256.76 287.45 256.78 285.16 240.46 256.9 242.84 255.12 258.95 282.19 277.01 251.73 240.89 251.73 238.32 254.24 222.61 282.19 220.43 280.29 236.75 251.73 236.74 249.39 220.54 221.04 222.61 219.32 238.88 247.04 241.09 249.04 277.01 249.39 258.95 218.11 242.85 246 240.6 244.05 256.76 215.76 256.79 213.73 240.46 185.26 242.84 183.49 258.95 211.38 277.01 180.1 240.89 180.1 238.84 182.45 222.61 210.55 220.43 208.66 236.77 180.1 236.86 177.75 220.54 149.4 222.79 147.54 238.88 175.41 240.89 177.75 277.01 177.75 258.99 146.54 242.85 174.37 240.6 172.41 256.94 144.12 256.79 141.7 240.46 113.23 242.29 111.86 258.95 139.34 277.01 108.06 241.09 108.06 238.84 110.41 222.61 138.52 220.43 136.62 236.7 108.44 236.81 105.71 220.54 77.36 222.79 75.5 238.88 103.37 240.89 105.71 276.42 105.71 258.95 74.43 242.85 102.33 240.6 100.38 256.76 72.09 256.79 69.98 240.46 41.51 242.84 39.74 258.95 66.8 277.01 36.35 240.89 36.35 238.18 39.19 222.61 66.8 220.43 64.91 236.7 36.48 236.88 34 220.54 5.65 222.79 3.79 238.18 31.4 241.09 33.65 277.01 34 258.95 2.72 242.84 29.81 240.6 28.66 256.94 .38 220.95 .6 218.23 3.79 202.69 30.62 200.41 28.84 216.84 .38 180.72 .38 178.31 2.79 162.2 30.62 160.3 28.96 176.77 .42 141.02 .42 138.68 2.76 122.55 30.7 120.31 28.75 136.66 .42 100.61 .54 98.06 2.9 82.35 30.7 80.11 28.95 96.59 .41 60.71 .42 58.48 2.73 42.28 30.79 40.1 28.9 56.53 .45 20.48 .57"/>
  <polygon class="cls-2" points="22.32 3.76 20.1 5.6 36.4 34.02 36.37 36.33 20.07 64.78 22.41 66.5 38.46 38.71 40.62 36.26 73.15 36.34 73.15 34.01 40.42 34.01 38.47 31.73 22.32 3.76"/>
  <polygon class="cls-2" points="39.94 41.28 42.26 39.56 58.46 67.62 60.46 69.96 93.14 69.96 93.14 72.12 60.5 72.09 58.46 74.26 42.28 102.5 40.1 100.61 56.33 72.16 56.36 69.99 39.94 41.28"/>
  <polygon class="cls-2" points="20.1 77.31 21.93 75.79 38.47 103.44 40.52 105.54 73.15 105.72 73.15 108.05 40.62 107.97 38.46 109.65 22.29 138.42 20.07 136.49 36.37 108.04 36.5 105.73 20.1 77.31"/>
  <polygon class="cls-2" points="20.1 149.35 22.32 147.76 38.03 175.48 40.42 177.76 73.15 177.76 73.15 180.09 40.4 180.09 38.46 181.69 22.29 209.49 20.07 208.53 36.37 180.08 36.5 177.77 20.1 149.35"/>
  <polygon class="cls-2" points="20.1 220.99 36.4 249.4 36.37 251.71 20.07 280.16 22.29 282.09 38.46 252.73 40.4 251.72 73.15 251.72 73.15 249.39 40.42 249.39 38.47 247.11 22.32 219.14 20.1 220.99"/>
  <polygon class="cls-2" points="22.32 290.83 20.1 292.68 36.4 321.09 36.37 323.4 20.07 351.85 22.29 353.78 38.48 324.79 40.55 323.41 73.15 323.41 73.15 321.08 40.1 320.91 38.47 318.8 22.32 290.83"/>
  <polygon class="cls-2" points="60.07 292.55 62.31 290.69 78.39 319.28 80.55 321.08 113.36 321.08 113.36 323.42 80.55 323.59 78.39 324.79 62.46 353.57 60.23 351.63 76.36 323.69 76.26 320.6 60.07 292.55"/>
  <polygon class="cls-2" points="100.14 292.45 102.35 290.62 118.4 319.73 120.62 321.12 153.37 321.12 153.37 323.43 120.7 323.58 118.58 324.79 102.43 353.89 100.13 351.89 116.37 323.42 116.57 321.08 100.14 292.45"/>
  <polygon class="cls-2" points="140.28 292.61 142.53 290.75 158.73 319.73 160.7 321.08 193.58 321.08 193.58 323.42 160.71 323.42 158.73 324.69 142.45 353.95 140.23 352.02 156.55 323.38 156.58 321.12 140.28 292.61"/>
  <polygon class="cls-2" points="180.28 292.44 196.73 321.08 196.83 323.42 180.42 352.02 182.64 353.78 199.19 325.36 200.87 323.55 233.74 323.42 233.74 321.08 200.79 321.08 198.81 319.6 182.53 290.57 180.28 292.44"/>
  <polygon class="cls-2" points="200.34 256.75 202.69 255 218.74 283.04 220.78 285.37 253.58 285.37 253.58 287.45 220.82 287.45 218.65 288.85 202.69 317.79 200.41 315.91 216.62 287.85 216.74 285.37 200.34 256.75"/>
  <polygon class="cls-2" points="180.28 5.36 182.53 3.5 198.78 32.53 200.79 34 233.74 34 233.74 36.35 200.8 36.35 198.52 37.61 182.64 66.71 180.42 64.77 196.76 36.35 196.61 33.65 180.28 5.36"/>
  <polygon class="cls-2" points="140.28 5.54 140.85 5.07 142.53 3.67 158.61 31.7 160.75 33.92 193.58 34.01 193.58 36.35 160.71 36.35 158.61 37.61 142.67 66.5 140.23 64.95 156.45 36.35 156.58 34.04 140.28 5.54"/>
  <polygon class="cls-2" points="100.13 64.81 102.43 66.81 118.58 37.83 120.7 36.51 153.37 36.35 153.37 34.04 120.62 34.04 118.4 32.65 102.35 3.55 100.14 5.37 116.57 34.01 116.57 36.34 100.13 64.81"/>
  <polygon class="cls-2" points="60.07 5.47 62.31 3.61 78.39 32.65 80.55 34.01 113.36 34.01 113.36 36.34 80.55 36.51 78.39 37.71 62.46 66.5 60.23 64.56 76.52 36.34 76.54 34.01 60.07 5.47"/>
  <polygon class="cls-2" points="80.06 41.33 96.35 69.96 96.32 72.12 78.53 103.4 62.31 75.32 60.07 77.18 76.36 105.72 76.26 108.05 58.46 139.33 42.26 111.27 39.94 112.99 56.36 141.7 56.53 144.2 40.1 172.65 42.28 174.54 58.48 146.48 76.36 177.76 76.26 180.09 58.46 211.37 42.26 183.31 39.94 185.03 56.36 213.74 56.33 215.83 40.1 244.29 42.28 246.18 58.48 218.11 76.36 249.39 76.52 251.72 60.71 279.94 62.46 281.13 78.53 254.06 96.35 285.35 96.32 287.49 80.55 315.26 82.91 317 98.26 290.4 100.61 287.61 136.66 287.49 120.31 315.83 122.55 317.77 138.59 290 140.69 287.56 176.77 287.49 160.3 316.03 162.5 317.95 178.76 289.8 181.4 287.56 213.59 287.45 213.59 285.37 180.75 285.37 198.67 254.22 200.41 252.36 233.57 251.73 233.57 249.39 200.79 249.39 218.85 218.11 220.95 215.98 253.58 215.76 252.87 213.73 220.78 213.73 218.78 211.24 200.8 180.1 233.65 180.1 233.65 177.75 200.79 177.75 218.89 146.54 220.86 144.44 253.58 144.12 253.58 141.7 220.78 141.7 218.74 139.36 200.8 108.06 233.6 108.06 233.6 105.71 200.79 105.71 198.78 103.37 180.72 72.09 213.59 72.09 213.59 69.98 180.75 69.98 178.77 67.63 162.61 39.64 160.26 41.38 176.78 69.98 140.65 69.98 122.57 39.74 120.09 41.44 136.65 70.11 100.52 70.11 98.51 67.62 82.35 39.63 80.06 41.33"/>
  <polygon class="cls-2" points="202.69 39.62 200.34 41.36 216.74 69.98 216.63 72.45 200.41 100.55 202.65 102.5 218.74 73.4 220.95 72.31 253.58 72.09 253.58 69.98 220.78 69.98 218.74 68.32 202.69 39.62"/>
  <polygon class="cls-2" points="39.94 256.67 42.26 254.94 58.46 283 60.46 285.35 93.14 285.35 93.14 287.49 60.5 287.45 58.46 288.76 42.56 317.38 40.1 315.98 56.53 287.52 56.52 285.38 39.94 256.67"/>
  <circle class="cls-1" cx="58.61" cy="23.61" r="3.9"/>
  <circle class="cls-1" cx="39.24" cy="59.96" r="3.9"/>
  <circle class="cls-1" cx="218.74" cy="23.89" r="3.9"/>
  <circle class="cls-1" cx="238.18" cy="59.96" r="3.9"/>
  <circle class="cls-1" cx="218.65" cy="332.81" r="3.9"/>
  <circle class="cls-1" cx="238.32" cy="297.9" r="3.9"/>
  <circle class="cls-1" cx="38.03" cy="297.31" r="3.9"/>
  <circle class="cls-1" cx="57.7" cy="332.66" r="3.9"/>
  <line class="cls-2" x1="58" y1="24.97" x2="58.99" y2="24.97"/>
</svg>