<?xml version="1.0" encoding="utf-8" standalone="no"?>
<!DOCTYPE svg PUBLIC "-//W3C//DTD SVG 1.1//EN" "http://www.w3.org/Graphics/SVG/1.1/DTD/svg11.dtd">
<svg version="1.1" width="2384pt" height="3370pt" viewBox="0 0 2383.92 3370.32" xmlns="http://www.w3.org/2000/svg">
  <defs />
  <g id="Layer_01">
    <path d="M187.68507,1591.0775 L187.69133,1606.745 L133.37541,1606.7396 L133.38951,1628.8848 L149.76581,1636.1462 L381.80014,1635.7078 L381.7738,1643.5562 L282.29428,1643.7682 L282.27368,1702.1366 L195.43182,1702.3427 L195.34941,1643.3973 L151.42369,1643.4386 L124.26886,1631.5299 L124.20706,1591.0449 z" stroke="#C80000" stroke-width="0.24" stroke-linecap="round" stroke-linejoin="round" fill="none" />
    <path d="M186.54648,1814.7677 L186.55273,1830.4352 L132.23682,1830.4298 L132.25092,1852.575 L148.62723,1859.8364 L383.45847,1859.8748 L404.93094,1852.522 L404.86865,1830.3936 L350.18323,1830.3895 L350.07318,1814.6116 L418.94894,1814.6733 L418.5987,1851.8 L382.95538,1867.4995 L281.1557,1867.4584 L281.1351,1925.8268 L194.29323,1926.0328 L194.21082,1867.0875 L150.2851,1867.1288 L123.13027,1855.2202 L123.06847,1814.7351 z" stroke="#C80000" stroke-width="0.24" stroke-linecap="round" stroke-linejoin="round" fill="none" />
    <path d="M538.1334,1127.1469 L538.0395,1095.1406 L516.3872,1083.928 L483.9888,1083.9414 L483.95395,1101.2405 L493.526,1101.2618 L493.64807,1091.3999 L515.4353,1091.3258 L520.5638,1102.4692 L530.3198,1102.4692 L530.2689,1109.1117 L522.9456,1109.1117 L523.0403,1132.8387 L590.0955,1133.1467 L590.08124,1139.6357 L523.09796,1139.6763 L523.2299,1165.5426 L590.17834,1165.48 L590.1617,1172.2156 L523.35394,1172.2264 L523.48334,1196.7874 L590.2764,1196.7373 L590.30835,1204.3046 L523.3835,1204.3118 L523.66376,1233.199 L530.06537,1233.2139 L530.14984,1239.5383 L521.7682,1239.5015 L516.4449,1251.4639 L494.0056,1251.5293 L494.02396,1240.9884 L484.0213,1240.9254 L483.90222,1260.434 L511.43942,1260.3965 L537.9891,1245.2183 L537.9752,1211.0791 L596.87573,1211.2869 L596.5809,1127.0797" stroke="#C80000" stroke-width="0.24" stroke-linecap="round" stroke-linejoin="round" fill="none" />
    <path d="M219.04485,1127.825 L227.32599,1127.8522 L227.31166,1134.3413 L219.09222,1134.3818 L219.09529,1134.5145 L219.23827,1160.4331 L227.5082,1160.4148 L227.51544,1166.921 L219.3253,1166.9319 L219.45471,1192.4856 L227.34721,1192.5182 L227.37912,1199.01 L219.52126,1199.0172 L219.7091,1228.1633 L225.7963,1228.1597 L225.82532,1234.5028 L217.72105,1234.5028 L212.45735,1246.3542 L189.99542,1246.4933 L190.01376,1234.1075 L180.34401,1234.0774 L180.3359,1255.3059 L207.57722,1255.2869 L233.59645,1240.349 L233.57779,1089.8461 L212.52495,1078.8134 L180.38213,1078.8267 L180.34726,1097.8944 L189.66377,1097.9158 L189.61598,1086.3217 L211.57306,1086.271 L216.70158,1097.7028 L225.82814,1097.7028 L225.77724,1103.8171 L219.33711,1103.8171 L218.90178,1103.8171 z" stroke="#C80000" stroke-width="0.24" stroke-linecap="round" stroke-linejoin="round" fill="none" />
    <path d="M303.31265,1312.1785 L311.5938,1312.2057 L311.57947,1318.6948 L303.36002,1318.7355 L303.3631,1318.868 L303.5061,1344.7866 L311.776,1344.7683 L311.78326,1351.2747 L303.5931,1351.2855 L303.72253,1376.8391 L311.61502,1376.8718 L311.64694,1383.3636 L303.7891,1383.3708 L303.97693,1412.517 L310.0641,1412.5133 L310.09314,1418.8563 L301.9889,1418.8563 L296.72516,1430.7079 L274.26324,1430.8469 L274.2816,1418.4612 L264.61182,1418.4309 L264.60373,1439.6594 L291.84503,1439.6404 L317.86426,1424.7026 L317.8456,1274.1996 L310.9266,1270.6293 L295.84088,1270.6246 L300.9694,1282.0563 L310.09595,1282.0563 L310.04504,1288.1707 L303.60492,1288.1707 L303.1696,1288.1707 z" stroke="#C80000" stroke-width="0.24" stroke-linecap="round" stroke-linejoin="round" fill="none" />
    <path d="M465.40546,1325.531 L473.6866,1325.5583 L473.67227,1332.0474 L465.45285,1332.088 L465.45593,1332.2208 L465.5989,1358.1393 L473.8688,1358.1208 L473.87607,1364.6272 L465.6859,1364.6382 L465.81534,1390.1918 L473.70782,1390.2244 L473.73975,1396.7162 L465.88187,1396.7235 L466.0697,1425.8695 L472.1569,1425.8658 L472.18594,1432.209 L464.0817,1432.209 L458.818,1444.0604 L436.35605,1444.1996 L436.3744,1431.8137 L426.70462,1431.7837 L426.69653,1453.0121 L453.93787,1452.993 L479.9571,1438.0552 L479.93842,1287.5522 L473.01938,1283.9819 L457.9337,1283.9773 L463.06223,1295.4089 L472.18875,1295.4089 L472.13785,1301.5234 L465.69772,1301.5234 L465.26242,1301.5234 z" stroke="#C80000" stroke-width="0.24" stroke-linecap="round" stroke-linejoin="round" fill="none" />
    <path d="M314.8552,1127.1469 L314.7613,1095.1406 L293.10892,1083.928 L260.71054,1083.9414 L260.67572,1101.2405 L270.24774,1101.2618 L270.36984,1091.3999 L292.157,1091.3258 L297.28555,1102.4692 L307.04163,1102.4692 L306.9907,1109.1117 L299.66742,1109.1117 L299.76205,1132.8387 L366.81732,1133.1467 L366.803,1139.6357 L299.81973,1139.6763 L299.9517,1165.5426 L366.9001,1165.48 L366.88345,1172.2156 L300.0757,1172.2264 L300.20514,1196.7874 L366.9982,1196.7373 L367.03012,1204.3046 L300.10522,1204.3118 L300.38556,1233.199 L306.78708,1233.2139 L306.8716,1239.5383 L298.48996,1239.5015 L293.1667,1251.4639 L270.72733,1251.5293 L270.7457,1240.9884 L260.74304,1240.9254 L260.62396,1260.434 L288.1612,1260.3965 L314.71085,1245.2183 L314.69702,1211.0791 L373.59744,1211.2869 L373.30264,1127.0797" stroke="#C80000" stroke-width="0.24" stroke-linecap="round" stroke-linejoin="round" fill="none" />
    <path d="M64.279564,1132.9213 L71.55513,1132.9487 L71.52301,1139.4377 L64.25615,1139.4431 L64.20439,1165.5295 L71.47966,1165.5111 L71.47966,1172.0175 L64.29141,1172.0284 L64.28614,1197.582 L71.17172,1197.6146 L71.2181,1204.1064 L64.319,1204.1138 L64.20378,1233.2598 L70.762405,1233.2562 L70.79143,1239.5992 L64.215996,1239.5992 L64.13132,1251.4507 L43.358932,1251.5898 L43.449524,1238.9873 L31.97644,1239.0098 L31.808052,1260.144 L59.09272,1260.3833 L85.14612,1245.4454 L86.13699,1095.0425 L65.174385,1083.8872 L32.965294,1083.6737 L32.8457,1102.7651 L43.98076,1102.7971 L44.030743,1091.2291 L64.30396,1091.3676 L64.27671,1102.7992 L71.68735,1102.7992 L71.636444,1108.9137 L64.26295,1108.9137 z" stroke="#C80000" stroke-width="0.24" stroke-linecap="round" stroke-linejoin="round" fill="none" />
    <path d="M383.57196,1317.2036 L391.85312,1317.231 L391.83875,1323.72 L383.61935,1323.7605 L383.6224,1323.8933 L383.76538,1349.8118 L392.0353,1349.7935 L392.04254,1356.2998 L383.85242,1356.3107 L383.98184,1381.8644 L391.87433,1381.897 L391.90625,1388.3888 L384.04837,1388.396 L384.2362,1417.5421 L390.3234,1417.5385 L390.35245,1423.8816 L382.24817,1423.8816 L376.98447,1435.7329 L354.52255,1435.8721 L354.5409,1423.4863 L344.87112,1423.4562 L344.863,1444.6847 L372.10434,1444.6655 L398.12357,1429.7277 L398.1049,1279.2249 L391.18588,1275.6545 L376.10016,1275.6498 L381.2287,1287.0814 L390.35526,1287.0814 L390.30432,1293.1959 L383.86423,1293.1959 L383.4289,1293.1959 z" stroke="#C80000" stroke-width="0.24" stroke-linecap="round" stroke-linejoin="round" fill="none" />
    <path d="M227.07352,1312.1785 L235.35466,1312.2057 L235.34032,1318.6948 L227.1209,1318.7355 L227.12396,1318.868 L227.26695,1344.7866 L235.53685,1344.7683 L235.54413,1351.2747 L227.35396,1351.2855 L227.4834,1376.8391 L235.37587,1376.8718 L235.4078,1383.3636 L227.54991,1383.3708 L227.73778,1412.517 L233.82495,1412.5133 L233.85399,1418.8563 L225.74973,1418.8563 L220.48601,1430.7079 L198.02408,1430.8469 L198.04243,1418.4612 L188.37267,1418.4309 L188.36456,1439.6594 L215.6059,1439.6404 L241.6251,1424.7026 L241.60645,1274.1996 L234.68744,1270.6293 L219.60173,1270.6246 L224.73027,1282.0563 L233.8568,1282.0563 L233.8059,1288.1707 L227.36578,1288.1707 L226.93045,1288.1707 z" stroke="#C80000" stroke-width="0.24" stroke-linecap="round" stroke-linejoin="round" fill="none" />
    <path d="M154.7727,1127.825 L163.05385,1127.8522 L163.0395,1134.3413 L154.82008,1134.3818 L154.82317,1134.5145 L154.96614,1160.4331 L163.23605,1160.4148 L163.2433,1166.921 L155.05316,1166.9319 L155.18259,1192.4856 L163.07506,1192.5182 L163.107,1199.01 L155.2491,1199.0172 L155.43695,1228.1633 L161.52414,1228.1597 L161.55318,1234.5028 L153.44891,1234.5028 L148.18521,1246.3542 L125.723274,1246.4933 L125.74163,1234.1075 L116.07186,1234.0774 L116.06376,1255.3059 L143.3051,1255.2869 L169.32431,1240.349 L169.30565,1089.8461 L148.2528,1078.8134 L116.10998,1078.8267 L116.07512,1097.8944 L125.39163,1097.9158 L125.34385,1086.3217 L147.3009,1086.271 L152.42946,1097.7028 L161.55598,1097.7028 L161.50508,1103.8171 L155.06497,1103.8171 L154.62964,1103.8171 z" stroke="#C80000" stroke-width="0.24" stroke-linecap="round" stroke-linejoin="round" fill="none" />
    <path d="M115.52912,1326.1978 L115.43522,1294.1913 L93.78285,1282.9788 L61.384483,1282.9921 L61.349625,1300.2911 L70.92168,1300.3125 L71.043755,1290.4507 L92.830956,1290.3765 L97.959496,1301.52 L107.715546,1301.52 L107.664635,1308.1625 L100.34134,1308.1625 L100.43597,1331.8895 L167.49126,1332.1975 L167.47691,1338.6865 L100.49366,1338.7272 L100.625626,1364.5935 L167.57402,1364.5308 L167.55739,1371.2664 L100.74964,1371.2772 L100.87906,1395.8381 L167.67212,1395.7881 L167.70404,1403.3553 L100.77915,1403.3627 L101.05947,1432.2498 L107.46103,1432.2645 L107.54554,1438.5892 L99.16389,1438.5521 L93.84061,1450.5146 L71.40127,1450.5802 L71.41961,1440.0393 L61.416973,1439.9761 L61.297916,1459.4847 L88.83513,1459.4471 L115.38476,1444.2689 L115.37095,1410.1299 L174.27138,1410.3378 L173.97658,1326.1305" stroke="#C80000" stroke-width="0.24" stroke-linecap="round" stroke-linejoin="round" fill="none" />
    <path d="M424.42947,1127.1469 L424.33557,1095.1406 L402.6832,1083.928 L370.28485,1083.9414 L370.24997,1101.2405 L379.82202,1101.2618 L379.94412,1091.3999 L401.73132,1091.3258 L406.85986,1102.4692 L416.61588,1102.4692 L416.56497,1109.1117 L409.2417,1109.1117 L409.3363,1132.8387 L476.39163,1133.1467 L476.37726,1139.6357 L409.394,1139.6763 L409.526,1165.5426 L476.47437,1165.48 L476.45773,1172.2156 L409.65,1172.2264 L409.77942,1196.7874 L476.57248,1196.7373 L476.6044,1204.3046 L409.6795,1204.3118 L409.9598,1233.199 L416.3614,1233.2139 L416.4459,1239.5383 L408.06424,1239.5015 L402.74094,1251.4639 L380.30164,1251.5293 L380.31995,1240.9884 L370.31732,1240.9254 L370.19827,1260.434 L397.73547,1260.3965 L424.2851,1245.2183 L424.2713,1211.0791 L483.17175,1211.2869 L482.87692,1127.0797" stroke="#C80000" stroke-width="0.24" stroke-linecap="round" stroke-linejoin="round" fill="none" />
    <path d="M181.44589,1700.6173 L181.45215,1716.2847 L127.13624,1716.2794 L127.150314,1738.4246 L143.52664,1745.6858 L378.35788,1745.7242 L399.83035,1738.3716 L399.76807,1716.2429 L385.83142,1716.2389 L385.72137,1700.461 L413.84836,1700.5228 L413.49808,1737.6495 L377.8548,1753.3491 L276.0551,1753.3079 L276.03452,1811.6763 L189.19263,1811.8823 L189.11021,1752.937 L145.18451,1752.9781 L118.029686,1741.0697 L117.96787,1700.5847 z" stroke="#C80000" stroke-width="0.24" stroke-linecap="round" stroke-linejoin="round" fill="none" />
    <path d="M189.72878,1516.1014 L189.65262,1531.8514 L135.41112,1531.834 L135.34773,1553.7726 L146.94632,1558.9678 L392.72763,1559.0286 L408.14066,1553.7494 L408.0012,1531.591 L353.3555,1531.587 L353.07898,1516.1448 L422.20065,1515.9225 L421.92593,1553.23 L388.91275,1567.7437 L151.9265,1568.195 L126.20099,1556.7935 L126.08084,1516.1223 z" stroke="#C80000" stroke-width="0.24" stroke-linecap="round" stroke-linejoin="round" fill="none" />
    <path d="M623.03766,1285.8679 L623.03766,1304.9219 L632.3342,1304.8726 L632.3342,1293.3383 L654.5142,1293.2394 L654.53735,1304.6117 L660.53204,1304.6117 L660.53204,1310.7261 L654.8567,1310.7261 L654.5809,1310.7261 L654.9148,1367.3308 L663.1411,1367.3236 L663.1484,1373.83 L654.9583,1373.8408 L655.1107,1399.3944 L660.61554,1399.4271 L660.65906,1405.919 L655.15424,1405.9263 L655.3248,1435.0723 L660.7026,1435.0686 L660.7316,1441.4117 L655.3611,1441.4117 L655.4264,1453.2632 L632.7098,1453.4022 L632.6693,1441.107 L623.0065,1441.091 L622.9984,1462.2957 L650.2049,1462.2794 L676.245,1447.3276 L676.26117,1296.8456 L655.2104,1285.8059 z" stroke="#C80000" stroke-width="0.24" stroke-linecap="round" stroke-linejoin="round" fill="none" />
    <path d="M554.56244,1337.3463 L562.8435,1337.3738 L562.8292,1343.8628 L554.60974,1343.9033 L554.61285,1344.0361 L554.75586,1369.9546 L563.02576,1369.9363 L563.033,1376.4425 L554.84283,1376.4535 L554.9723,1402.0071 L562.86475,1402.0397 L562.89667,1408.5315 L555.0388,1408.5388 L555.2266,1437.6848 L561.31384,1437.6812 L561.3429,1444.0243 L553.2386,1444.0243 L547.9749,1455.8757 L525.513,1456.0149 L525.5313,1443.629 L515.8616,1443.599 L515.85345,1464.8275 L543.0948,1464.8083 L569.114,1449.8705 L569.0954,1299.3677 L548.04254,1288.3347 L515.89966,1288.3481 L515.8648,1307.4159 L525.18134,1307.4373 L525.13354,1295.8433 L547.0906,1295.7926 L552.2191,1307.2242 L561.3457,1307.2242 L561.2948,1313.3387 L554.8547,1313.3387 L554.4193,1313.3387 z" stroke="#C80000" stroke-width="0.24" stroke-linecap="round" stroke-linejoin="round" fill="none" />
  </g>
</svg>