<?xml version="1.0" encoding="UTF-8"?>
<svg xmlns="http://www.w3.org/2000/svg" version="1.1" viewBox="0 0 612 792">
  <defs>
    <style>
      .cls-1 {
        fill: none;
        stroke: #000;
        stroke-linecap: round;
        stroke-linejoin: round;
      }
    </style>
  </defs>
  <g id="Default">
    <path class="cls-1" d="M76.7,390.8c0,.2.1.3.3.3"/>
    <line class="cls-1" x1="76.7" y1="381.7" x2="76.7" y2="390.8"/>
  </g>
  <g id="Make2D::Visible::Curves">
    <path class="cls-1" d="M231.8,415.5h0"/>
    <path class="cls-1" d="M191.1,441.4h0"/>
    <path class="cls-1" d="M207.4,441.4s0,0,0,0"/>
    <path class="cls-1" d="M240.1,441.4h0"/>
    <path class="cls-1" d="M406.1,149s0,0,0,0"/>
    <path class="cls-1" d="M307.6,174.9s0,0,0,0"/>
    <path class="cls-1" d="M332.1,174.9h0"/>
    <path class="cls-1" d="M176.7,149s0,0,0,0"/>
    <path class="cls-1" d="M193,149s0,0,0,0"/>
    <path class="cls-1" d="M225.7,149h0"/>
    <path class="cls-1" d="M299.2,149h0"/>
    <path class="cls-1" d="M315.7,149h0"/>
    <path class="cls-1" d="M332.1,149s0,0,0,0"/>
    <path class="cls-1" d="M356.9,149s0,0,0,0"/>
    <path class="cls-1" d="M381.4,149h0"/>
    <path class="cls-1" d="M414.2,149h0"/>
    <path class="cls-1" d="M176.7,174.9s0,0,0,0"/>
    <path class="cls-1" d="M184.7,174.9s0,0,0,0"/>
    <path class="cls-1" d="M258.5,174.9s0,0,0,0"/>
    <path class="cls-1" d="M274.9,174.9h0"/>
    <path class="cls-1" d="M340.5,174.9s0,0,0,0"/>
    <path class="cls-1" d="M389.7,174.9s0,0,0,0"/>
    <path class="cls-1" d="M406.1,174.9h0"/>
    <path class="cls-1" d="M422.5,174.9h0"/>
    <path class="cls-1" d="M157.9,415.8s0,0,0-.1c0,0,0,0,0,.1Z"/>
    <path class="cls-1" d="M332.1,140.6s0,0,0,.1c0,0,0,0,0-.1Z"/>
    <path class="cls-1" d="M217.4,140.7s0,0,0,0c0,0,0,0,0,0Z"/>
    <path class="cls-1" d="M166.3,407.1s0,0,0,.1c0,0,0,0,0-.1Z"/>
    <path class="cls-1" d="M215.4,407.1s0,0,0,.1c0,0,0,0,0-.1Z"/>
    <path class="cls-1" d="M231.8,407.1s0,0,0,.1c0,0,0,0,0-.1Z"/>
    <path class="cls-1" d="M198.9,449.8h0s0,0,0,0Z"/>
    <path class="cls-1" d="M182.7,407.1s0,0,0,.1c0,0,0,0,0-.1Z"/>
    <path class="cls-1" d="M248.1,407.1s0,0,0,.1c0,0,0,0,0-.1Z"/>
    <path class="cls-1" d="M264.6,407.1s0,0,0,.1c0,0,0,0,0-.1Z"/>
    <path class="cls-1" d="M297.2,407.1s0,0,0,.1c0,0,0,0,0-.1Z"/>
    <path class="cls-1" d="M313.7,407.1s0,0,0,.1c0,0,0,0,0-.1Z"/>
    <path class="cls-1" d="M198.8,407c.1,0,.2,0,.3.2,0,0-.1-.2-.3-.2Z"/>
    <path class="cls-1" d="M158.1,449.8s0,0,0,0c0,0,0,0,.1,0,0,0,0,0-.1,0,0,0,0,0,0,0Z"/>
    <path class="cls-1" d="M264.3,407h0,0Z"/>
    <path class="cls-1" d="M470.4,302.4c0,0,0,0,0-.1,0,0,0,0,0,.1Z"/>
    <path class="cls-1" d="M461.7,306.6c0-.2.1-.3.3-.3-.2,0-.3.1-.3.3Z"/>
    <path class="cls-1" d="M461.7,314.7s0,0,0,0c0,0,0,0,0,0Z"/>
    <path class="cls-1" d="M506.3,306.6c0-.2-.1-.3-.3-.3.2,0,.3.1.3.3Z"/>
    <path class="cls-1" d="M506.3,314.7s0,0,0,0c0,0,0,0,0,0Z"/>
    <path class="cls-1" d="M497.6,302.8s0,0,0-.1c0,0,0,0,0,.1Z"/>
    <path class="cls-1" d="M461.8,298.1c0,.2.1.3.3.3-.2,0-.3-.1-.3-.3Z"/>
    <path class="cls-1" d="M462,289.7c-.2,0-.3.1-.3.3,0-.2.1-.3.3-.3Z"/>
    <path class="cls-1" d="M461.8,281.6c0,.2.1.3.3.3-.2,0-.3-.1-.3-.3Z"/>
    <path class="cls-1" d="M462,273.2c-.2,0-.3.1-.3.3,0-.2.1-.3.3-.3Z"/>
    <path class="cls-1" d="M506.3,298.1c0,.2-.1.3-.3.3.2,0,.3-.1.3-.3Z"/>
    <path class="cls-1" d="M506,289.7c.2,0,.3.1.3.3,0-.2-.1-.3-.3-.3Z"/>
    <path class="cls-1" d="M506.3,281.6c0,.2-.1.3-.3.3.2,0,.3-.1.3-.3Z"/>
    <path class="cls-1" d="M506,273.2c.2,0,.3.1.3.3,0-.2-.1-.3-.3-.3Z"/>
    <path class="cls-1" d="M412.1,406.9s0,0,0,0c0,0,0,0,0,0Z"/>
    <path class="cls-1" d="M412.1,407s0,0,0,0c0,0,0,0,0,0Z"/>
    <path class="cls-1" d="M444.1,406.7h0,0Z"/>
    <path class="cls-1" d="M395.5,406.7h0,0Z"/>
    <path class="cls-1" d="M428.3,406.7h0,0Z"/>
    <path class="cls-1" d="M331.8,140.5h0,0Z"/>
    <path class="cls-1" d="M184.7,140.6s0,0,0,.1c0,0,0,0,0-.1Z"/>
    <path class="cls-1" d="M397.7,140.6c0,0,0,.1,0,.2,0,0,0-.1,0-.2Z"/>
    <path class="cls-1" d="M430.6,140.6s0,0,0,.1c0,0,0,0,0-.1Z"/>
    <path class="cls-1" d="M217.4,140.6s0,0,0,0c0,0,0,0,0,0Z"/>
    <path class="cls-1" d="M233.7,140.6s0,0,0,.2c0,0,0-.1,0-.2Z"/>
    <path class="cls-1" d="M414,183.3h0s0,0,0,0Z"/>
    <path class="cls-1" d="M201,140.7h0s0,0,0,0Z"/>
    <path class="cls-1" d="M250.1,140.6s0,0,0,.1c0,0,0,0,0-.1Z"/>
    <path class="cls-1" d="M266.5,140.6s0,0,0,.1c0,0,0,0,0-.1Z"/>
    <path class="cls-1" d="M299.2,140.6s0,0,0,.1c0,0,0,0,0-.1Z"/>
    <path class="cls-1" d="M315.7,140.6s0,0,0,.1c0,0,0,0,0-.1Z"/>
    <path class="cls-1" d="M348.5,140.6s0,0,0,.1c0,0,0,0,0-.1Z"/>
    <path class="cls-1" d="M365,140.6s0,0,0,.1c0,0,0,0,0-.1Z"/>
    <path class="cls-1" d="M373.3,140.7h0s0,0,0,0Z"/>
    <path class="cls-1" d="M381.3,140.6s0,0,0,.1c0,0,0,0,0-.1Z"/>
    <path class="cls-1" d="M430.6,174.9v8.2-8.2Z"/>
    <path class="cls-1" d="M430.4,140.5h0,0Z"/>
    <path class="cls-1" d="M217.1,140.5h0,0Z"/>
    <path class="cls-1" d="M413.9,140.5s0,0,0,0c0,0,0,0,0,0Z"/>
    <path class="cls-1" d="M291.3,183.1s0,0,0,0c0,0,0,0,0,0Z"/>
    <path class="cls-1" d="M200.8,140.5c.1,0,.2,0,.3.2,0,0-.1-.2-.3-.2Z"/>
    <path class="cls-1" d="M249.8,140.5h0,0Z"/>
    <path class="cls-1" d="M282.7,140.5c.1,0,.2,0,.3.2,0,0-.1-.2-.3-.2Z"/>
    <path class="cls-1" d="M299,140.5h0,0Z"/>
    <path class="cls-1" d="M381.1,140.5h0,0Z"/>
    <path class="cls-1" d="M437.7,224.4h7.8"/>
    <path class="cls-1" d="M445.6,224.4h-7.8"/>
    <path class="cls-1" d="M289.3,441.4h0"/>
    <polyline class="cls-1" points="372.2 223.2 372.2 215.2 372.2 223.2"/>
    <polyline class="cls-1" points="380.1 215.2 388.6 215.2 380.1 215.2"/>
    <polyline class="cls-1" points="363.7 223.2 355.8 223.2 363.7 223.2"/>
    <polyline class="cls-1" points="363.7 215.2 363.7 223.2 363.7 215.2"/>
    <polyline class="cls-1" points="355.8 223.2 355.8 215.2 355.8 223.2"/>
    <polyline class="cls-1" points="363.7 215.2 372.2 215.2 363.7 215.2"/>
    <polyline class="cls-1" points="413 223.2 405 223.2 413 223.2"/>
    <polyline class="cls-1" points="413 215.2 413 223.2 413 215.2"/>
    <polyline class="cls-1" points="405 223.2 405 215.2 405 223.2"/>
    <polyline class="cls-1" points="413 215.2 421.4 215.2 413 215.2"/>
    <polyline class="cls-1" points="396.6 223.2 388.6 223.2 396.6 223.2"/>
    <polyline class="cls-1" points="396.6 215.2 396.6 223.2 396.6 215.2"/>
    <polyline class="cls-1" points="388.6 223.2 388.6 215.2 388.6 223.2"/>
    <polyline class="cls-1" points="396.6 215.2 405 215.2 396.6 215.2"/>
    <polyline class="cls-1" points="429.3 223.2 421.4 223.2 429.3 223.2"/>
    <polyline class="cls-1" points="429.3 215.2 429.3 223.2 429.3 215.2"/>
    <polyline class="cls-1" points="421.4 223.2 421.4 215.2 421.4 223.2"/>
    <polyline class="cls-1" points="429.3 215.2 437.8 215.2 429.3 215.2"/>
    <polyline class="cls-1" points="445.7 232.9 445.7 240.6 445.7 232.9"/>
    <polyline class="cls-1" points="445.7 249.1 445.7 257 445.7 249.1"/>
    <polyline class="cls-1" points="445.7 265.5 445.7 273.5 445.7 265.5"/>
    <polyline class="cls-1" points="437.1 273.5 445.7 273.5 437.1 273.5"/>
    <polyline class="cls-1" points="437.1 281.9 437.1 273.5 437.1 281.9"/>
    <polyline class="cls-1" points="445.7 281.9 437.1 281.9 445.7 281.9"/>
    <polyline class="cls-1" points="445.7 281.9 445.7 289.9 445.7 281.9"/>
    <polyline class="cls-1" points="437.1 289.9 445.7 289.9 437.1 289.9"/>
    <polyline class="cls-1" points="437.1 298.4 437.1 289.9 437.1 298.4"/>
    <polyline class="cls-1" points="445.7 298.4 437.1 298.4 445.7 298.4"/>
    <polyline class="cls-1" points="150.5 289.7 159.2 289.7 150.5 289.7"/>
    <polyline class="cls-1" points="159.2 298.2 150.5 298.2 159.2 298.2"/>
    <polyline class="cls-1" points="159.2 289.7 159.2 298.2 159.2 289.7"/>
    <polyline class="cls-1" points="150.5 289.7 150.5 281.8 150.5 289.7"/>
    <polyline class="cls-1" points="150.5 273.3 159.2 273.3 150.5 273.3"/>
    <polyline class="cls-1" points="159.2 281.8 150.5 281.8 159.2 281.8"/>
    <polyline class="cls-1" points="159.2 273.3 159.2 281.8 159.2 273.3"/>
    <polyline class="cls-1" points="150.5 273.3 150.5 266 150.5 273.3"/>
    <polyline class="cls-1" points="159.2 232.5 150.5 232.5 159.2 232.5"/>
    <polyline class="cls-1" points="437.7 215.8 437.8 215.8 437.7 215.8"/>
    <polyline class="cls-1" points="437.8 215.8 437.8 215.2 437.8 215.8"/>
    <polyline class="cls-1" points="159.2 224.4 159.3 224.4 159.2 224.4"/>
    <polyline class="cls-1" points="159.3 224.4 159.3 223.2 159.3 224.4"/>
    <polyline class="cls-1" points="159.2 224.4 159.2 232.5 159.2 224.4"/>
    <polyline class="cls-1" points="159.3 380.3 159.3 382.1 159.3 380.3"/>
    <polyline class="cls-1" points="159.2 380.3 159.3 380.3 159.2 380.3"/>
    <polyline class="cls-1" points="159.2 380.3 159.2 372.8 159.2 380.3"/>
    <polyline class="cls-1" points="218.4 239.1 413.4 239.1 218.4 239.1"/>
    <polyline class="cls-1" points="218.4 367.1 413.4 367.1 218.4 367.1"/>
    <polyline class="cls-1" points="445.6 257 445.7 257 445.6 257"/>
    <polyline class="cls-1" points="437.7 224.4 437.7 215.8 437.7 224.4"/>
    <path class="cls-1" d="M437.3,381.2v8.9-8.1"/>
    <polyline class="cls-1" points="162.3 258.2 162.3 266 162.3 258.2"/>
    <polyline class="cls-1" points="161.8 258.2 162.3 258.2 161.8 258.2"/>
    <polyline class="cls-1" points="162.2 249.4 161.8 249.4 162.2 249.4"/>
    <polyline class="cls-1" points="162.2 241.6 162.2 249.4 162.2 241.6"/>
    <polyline class="cls-1" points="161.8 241.6 162.2 241.6 161.8 241.6"/>
    <polyline class="cls-1" points="150.5 307.1 150.5 298.2 150.5 307.1"/>
    <polyline class="cls-1" points="445.7 298.4 445.7 306.9 445.7 298.4"/>
    <polyline class="cls-1" points="218.4 239.1 218.4 367.1 218.4 239.1"/>
    <polyline class="cls-1" points="413.4 367.1 413.4 239.1 413.4 367.1"/>
    <polyline class="cls-1" points="162.3 266 150.5 266 162.3 266"/>
    <polyline class="cls-1" points="150.1 249.4 150.1 258.2 150.1 249.4"/>
    <polyline class="cls-1" points="315 390.3 388.7 390.3 315 390.3"/>
    <polyline class="cls-1" points="445.6 240.1 445.6 240.1 445.6 240.1"/>
    <polyline class="cls-1" points="150.1 239.9 150.1 241.6 150.1 239.9"/>
    <polyline class="cls-1" points="161.8 258.2 150.1 258.2 161.8 258.2"/>
    <polyline class="cls-1" points="161.8 241.6 150.1 241.6 161.8 241.6"/>
    <polyline class="cls-1" points="150.1 249.4 161.8 249.4 150.1 249.4"/>
    <path class="cls-1" d="M445.6,381.2"/>
    <path class="cls-1" d="M445.6,314.5"/>
    <path class="cls-1" d="M445.6,381.2"/>
    <polyline class="cls-1" points="445.6 240.1 445.6 224.4 445.6 240.1"/>
    <polyline class="cls-1" points="436.9 449.3 436.9 449.3 436.9 449.3"/>
    <polyline class="cls-1" points="395.7 441.1 395.7 449.3 395.7 441.1"/>
    <polyline class="cls-1" points="387.8 449.6 387.8 406.8 387.8 449.6"/>
    <polyline class="cls-1" points="444.5 420 444.5 435.2 444.5 420"/>
    <polyline class="cls-1" points="387.8 406.8 387.8 406.7 387.8 406.8"/>
    <polyline class="cls-1" points="444.4 420 444.5 420 444.4 420"/>
    <polyline class="cls-1" points="444.5 435.2 444.4 435.2 444.5 435.2"/>
    <polyline class="cls-1" points="506 273.2 497.6 273.2 506 273.2"/>
    <polyline class="cls-1" points="497.6 273.2 497.6 265.7 497.6 273.2"/>
    <polyline class="cls-1" points="506.3 281.6 506.3 273.5 506.3 281.6"/>
    <polyline class="cls-1" points="497.6 281.9 506 281.9 497.6 281.9"/>
    <polyline class="cls-1" points="506 289.7 497.6 289.7 506 289.7"/>
    <polyline class="cls-1" points="497.6 289.7 497.6 281.9 497.6 289.7"/>
    <polyline class="cls-1" points="506.3 298.1 506.3 290 506.3 298.1"/>
    <polyline class="cls-1" points="497.6 298.4 506 298.4 497.6 298.4"/>
    <polyline class="cls-1" points="462 273.2 470.5 273.2 462 273.2"/>
    <polyline class="cls-1" points="470.5 273.2 470.5 265.7 470.5 273.2"/>
    <polyline class="cls-1" points="461.8 281.6 461.8 273.5 461.8 281.6"/>
    <polyline class="cls-1" points="470.5 281.9 462 281.9 470.5 281.9"/>
    <polyline class="cls-1" points="462 289.7 470.5 289.7 462 289.7"/>
    <polyline class="cls-1" points="470.5 289.7 470.5 281.9 470.5 289.7"/>
    <polyline class="cls-1" points="461.8 298.1 461.8 290 461.8 298.1"/>
    <polyline class="cls-1" points="470.5 298.4 462 298.4 470.5 298.4"/>
    <polyline class="cls-1" points="506.3 306.6 506.3 314.6 506.3 306.6"/>
    <polyline class="cls-1" points="497.6 306.3 506 306.3 497.6 306.3"/>
    <polyline class="cls-1" points="497.6 302.8 497.6 306.3 497.6 302.8"/>
    <polyline class="cls-1" points="461.7 306.6 461.7 314.6 461.7 306.6"/>
    <polyline class="cls-1" points="470.4 306.3 462 306.3 470.4 306.3"/>
    <polyline class="cls-1" points="470.4 302.4 470.4 306.3 470.4 302.4"/>
    <polyline class="cls-1" points="470.5 302.3 470.5 298.4 470.5 302.3"/>
    <polyline class="cls-1" points="506.3 314.7 461.7 314.7 506.3 314.7"/>
    <polyline class="cls-1" points="470.5 265.7 497.6 265.7 470.5 265.7"/>
    <polyline class="cls-1" points="497.6 298.4 497.6 302.6 497.6 298.4"/>
    <polyline class="cls-1" points="428.6 415.2 428.6 407 428.6 415.2"/>
    <polyline class="cls-1" points="428.6 449.3 428.6 449.3 428.6 449.3"/>
    <polyline class="cls-1" points="412.1 449.3 412.1 449.3 412.1 449.3"/>
    <path class="cls-1" d="M387.8,449.6s0,0,.2,0h7.5s0,0,0,0c0,0,0,0,0,0,0,0,0,0,0,0,0,0,0,0,0,0,0,0,0,0,0,0,0,0,0,0,0,0v-8.2c2.8,0,5.6,0,8.3,0,0,2.7,0,5.5,0,8.2s0,0,0,0c0,0,0,0,0,0,0,0,0,0,0,0,0,0,0,0,0,0,0,0,0,0,0,0,0,0,0,0,0,0h7.5s0,0,.1,0c0,0,0,0,0,0s0,0,0,0c0,0,0,0,0-.1,0-2.7,0-5.5,0-8.2,2.8,0,5.6,0,8.3,0,0,2.7,0,5.5,0,8.2s0,0,0,0c0,0,0,0,0,0,0,0,0,0,0,0,0,0,0,0,0,0,0,0,0,0,0,0,0,0,0,0,0,0h7.6s0,0,0,0c0,0,0,0,0,0,0,0,0,0,0,0,0,0,0,0,0,0,0,0,0,0,0,0,0,0,0,0,0,0,0-2.7,0-5.5,0-8.2h8.3v8.2s0,0,0,0c0,0,0,0,0,0,0,0,0,0,0,0,0,0,0,0,0,0,0,0,0,0,0,0,0,0,0,0,0,0h6.9s0,0,.1,0c0,0,0,0,0,0s0,0,0,0c0,0,0,0,0-.1v-14.1"/>
    <polyline class="cls-1" points="231.8 441.4 231.8 449.6 231.8 441.4"/>
    <polyline class="cls-1" points="199.1 441.4 199.1 449.6 199.1 441.4"/>
    <polyline class="cls-1" points="207.4 449.6 207.4 449.6 207.4 449.6"/>
    <polyline class="cls-1" points="297.3 415.5 297.3 407.3 297.3 415.5"/>
    <polyline class="cls-1" points="305.9 407 313.5 407 305.9 407"/>
    <polyline class="cls-1" points="199.1 415.5 199.1 407.3 199.1 415.5"/>
    <polyline class="cls-1" points="207.4 415.5 199.1 415.5 207.4 415.5"/>
    <polyline class="cls-1" points="149.5 423.9 157.9 423.9 149.5 423.9"/>
    <path class="cls-1" d="M149.3,407.2"/>
    <polyline class="cls-1" points="149.3 407.2 149.3 414.6 149.3 407.2 166.3 407.1"/>
    <polyline class="cls-1" points="149.2 442.4 149.2 449.8 149.2 442.4"/>
    <polyline class="cls-1" points="158 442.4 149.2 442.4 158 442.4"/>
    <polyline class="cls-1" points="281 441.4 281 449.6 281 441.4"/>
    <polyline class="cls-1" points="191.3 449.9 191.3 449.9 191.3 449.9"/>
    <polyline class="cls-1" points="166.4 449.6 166.4 449.6 166.4 449.6"/>
    <polyline class="cls-1" points="149.2 449.8 158.1 449.8 149.2 449.8"/>
    <polyline class="cls-1" points="149.3 414.6 158 414.6 149.3 414.6"/>
    <polyline class="cls-1" points="281 415.5 281 407.3 281 415.5"/>
    <polyline class="cls-1" points="299.2 149 299.2 140.7 299.2 149"/>
    <path class="cls-1" d="M169.2,174.9h7.5v8.2s0,0,0,0c0,0,0,0,0,0,0,0,0,0,0,0,0,0,0,0,0,0,0,0,0,0,0,0,0,0,0,0,0,0h7.5s0,0,.1,0c0,0,0,0,0,0s0,0,0,0c0,0,0,0,0-.1v-8.2c2.8,0,5.6,0,8.3,0,0,2.7,0,5.5,0,8.2s0,0,0,.1c0,0,0,0,0,0s0,0,0,0c0,0,0,0,.1,0h7.4s0,0,.1,0c0,0,0,0,0,0s0,0,0,0c0,0,0,0,0-.1v-8.2c2.8,0,5.6,0,8.3,0,0,2.7,0,5.5,0,8.2s0,0,0,.1c0,0,0,0,0,0,0,0,0,0,0,0,0,0,0,0,.1,0h7.5s0,0,0,0c0,0,0,0,0,0,0,0,0,0,0,0,0,0,0,0,0,0,0,0,0,0,0,0,0,0,0,0,0,0,0-2.7,0-5.5,0-8.2,2.8,0,5.6,0,8.3,0,0,2.7,0,5.5,0,8.2s0,0,0,0c0,0,0,0,0,0,0,0,0,0,0,0,0,0,0,0,0,0,0,0,0,0,0,0,0,0,0,0,0,0h7.5s0,0,0,0c0,0,0,0,0,0,0,0,0,0,0,0,0,0,0,0,0,0,0,0,0,0,0,0,0,0,0,0,0,0v-8.2h8.3v8.2s0,0,0,0c0,0,0,0,0,0,0,0,0,0,0,0,0,0,0,0,0,0,0,0,0,0,0,0,0,0,0,0,0,0h7.4s0,0,0,0c0,0,0,0,0,0,0,0,0,0,0,0,0,0,0,0,0,0,0,0,0,0,0,0,0,0,0,0,0,0v-8.2h8.3v8.2s0,0,0,0c0,0,0,0,0,0,0,0,0,0,0,0,0,0,0,0,0,0,0,0,0,0,0,0,0,0,0,0,0,0h7.5s0,0,.1,0c0,0,0,0,0,0s0,0,0,0c0,0,0,0,0-.1,0-2.7,0-5.5,0-8.2,2.8,0,5.6,0,8.3,0v8.2s0,0,0,0c0,0,0,0,0,0,0,0,0,0,0,0,0,0,0,0,0,0,0,0,0,0,0,0,0,0,0,0,0,0h7.5s0,0,.1,0c0,0,0,0,0,0s0,0,0,0c0,0,0,0,0-.1,0-2.7,0-5.5,0-8.2,2.8,0,5.6,0,8.3,0,0,2.7,0,5.5,0,8.2s0,0,0,.1c0,0,0,0,0,0s0,0,0,0c0,0,0,0,.1,0h7.4s0,0,.1,0c0,0,0,0,0,0s0,0,0,0c0,0,0,0,0-.1v-8.2h8.3v8.2s0,0,0,0c0,0,0,0,0,0,0,0,0,0,0,0,0,0,0,0,0,0,0,0,0,0,0,0,0,0,0,0,0,0h7.6s0,0,0,0c0,0,0,0,0,0,0,0,0,0,0,0,0,0,0,0,0,0,0,0,0,0,0,0,0,0,0,0,0,0,0-2.7,0-5.5,0-8.2,2.8,0,5.6,0,8.3,0,0,2.7,0,5.5,0,8.2s0,0,0,0c0,0,0,0,0,0,0,0,0,0,0,0,0,0,0,0,0,0,0,0,0,0,0,0,0,0,0,0,0,0h7.5s0,0,.1,0c0,0,0,0,0,0s0,0,0,0c0,0,0,0,0-.1v-8.2h8.3v8.2s0,0,0,0c0,0,0,0,0,0,0,0,0,0,0,0,0,0,0,0,0,0,0,0,0,0,0,0,0,0,0,0,0,0h7.5s0,0,.1,0c0,0,0,0,0,0s0,0,0,0c0,0,0,0,0-.1,0-2.7,0-5.5,0-8.2,2.8,0,5.6,0,8.3,0,0,2.7,0,5.5,0,8.2s0,0,0,0c0,0,0,0,0,0,0,0,0,0,0,0,0,0,0,0,0,0,0,0,0,0,0,0,0,0,0,0,0,0h7.5s0,0,.1,0c0,0,0,0,0,0s0,0,0,0c0,0,0,0,0-.1,0-2.7,0-5.5,0-8.2,2.8,0,5.6,0,8.3,0,0,2.7,0,5.5,0,8.2s0,0,0,.1c0,0,0,0,0,0s0,0,0,0c0,0,0,0,.1,0h7.5s0,0,0,0c0,0,0,0,0,0,0,0,0,0,0,0,0,0,0,0,0,0,0,0,0,0,0,0,0,0,0,0,0,0v-8.2h8.3v8.2s0,0,0,0c0,0,0,0,0,0,0,0,0,0,0,0,0,0,0,0,0,0,0,0,0,0,0,0,0,0,0,0,0,0h7.5s0,0,0,0c0,0,0,0,0,0,0,0,0,0,0,0,0,0,0,0,0,0,0,0,0,0,0,0,0,0,0,0,0,0,0-2.7,0-5.5,0-8.2,2.8,0,5.6,0,8.3,0v8.2s0,0,0,0c0,0,0,0,0,0,0,0,0,0,0,0,0,0,0,0,0,0,0,0,0,0,0,0,0,0,0,0,0,0h7.5s0,0,.1,0c0,0,0,0,0,0s0,0,0,0c0,0,0,0,0-.1,0-2.7,0-5.5,0-8.2,2.8,0,5.6,0,8.3,0v8.2s0,0,0,0c0,0,0,0,0,0,0,0,0,0,0,0,0,0,0,0,0,0,0,0,0,0,0,0,0,0,0,0,0,0h7.6s0,0,0,0c0,0,0,0,0,0,0,0,0,0,0,0,0,0,0,0,0,0,0,0,0,0,0,0,0,0,0,0,0,0v-8.2"/>
    <path class="cls-1" d="M169.2,140.8"/>
    <path class="cls-1" d="M169.2,140.8"/>
    <polyline class="cls-1" points="168.3 182.8 169.2 182.8 168.3 182.8"/>
    <polyline class="cls-1" points="445.6 265.4 445.6 240.1 445.6 265.4"/>
    <polyline class="cls-1" points="248.1 415.5 248.1 407.3 248.1 415.5"/>
    <polyline class="cls-1" points="215.4 415.5 215.4 407.3 215.4 415.5"/>
    <polyline class="cls-1" points="191.3 407 198.8 407 191.3 407"/>
    <polyline class="cls-1" points="166.4 415.5 166.4 407.3 166.4 415.5"/>
    <path class="cls-1" d="M158,414.6v1s0,0,0,.1v8.1c-2.8,0-5.6,0-8.4,0s0,0,0,0c0,0,0,0,0,0,0,0,0,0,0,0,0,0,0,0,0,0,0,0,0,0,0,0,0,0,0,0,0,0v7.9s0,0,0,0c0,0,0,0,0,0,0,0,0,0,0,0,0,0,0,0,0,0,0,0,0,0,0,0,0,0,0,0,0,0h8.4v8.7s0,0,0,.1v1.1"/>
    <path class="cls-1" d="M437.2,314.5h8.3"/>
    <path class="cls-1" d="M388.7,382v8.3"/>
    <path class="cls-1" d="M388.7,390.3v-8.3"/>
    <path class="cls-1" d="M289.3,415.5s0,0,0,0"/>
    <path class="cls-1" d="M387.8,406.8s0,0,0,0c0,0,0,0,.1,0h7.5s0,0,.1,0c0,0,0,0,0,0s0,0,0,0c0,0,0,0,0,.1,0,2.7,0,5.5,0,8.2,2.8,0,5.6,0,8.3,0v-8.2s0,0,0,0c0,0,0,0,0,0,0,0,0,0,0,0,0,0,0,0,0,0,0,0,0,0,0,0,0,0,0,0,0,0h7.5s0,0,.1,0c0,0,0,0,0,0s0,0,0,0c0,0,0,0,0,.1v8.2h8.3v-8.2s0,0,0,0c0,0,0,0,0,0,0,0,0,0,0,0,0,0,0,0,0,0,0,0,0,0,0,0,0,0,0,0,0,0h7.6s0,0,0,0c0,0,0,0,0,0,0,0,0,0,0,0,0,0,0,0,0,0,0,0,0,0,0,0,0,0,0,0,0,0v8.2c2.8,0,5.6,0,8.3,0,0-2.7,0-5.5,0-8.2s0,0,0,0c0,0,0,0,0,0,0,0,0,0,0,0,0,0,0,0,0,0,0,0,0,0,0,0,0,0,0,0,0,0h6.9s0,0,0,0c0,0,0,0,0,0,0,0,0,0,0,0,0,0,0,0,0,0,0,0,0,0,0,0,0,0,0,0,0,0v13"/>
    <path class="cls-1" d="M169.2,149h7.5v-8.2s0,0,0,0c0,0,0,0,0,0,0,0,0,0,0,0,0,0,0,0,0,0,0,0,0,0,0,0,0,0,0,0,0,0h7.5s0,0,0,0c0,0,0,0,0,0,0,0,0,0,0,0,0,0,0,0,0,0,0,0,0,0,0,0,0,0,0,0,0,0,0,2.7,0,5.5,0,8.2,2.8,0,5.6,0,8.3,0v-8.2s0,0,0,0c0,0,0,0,0,0,0,0,0,0,0,0,0,0,0,0,0,0,0,0,0,0,0,0,0,0,0,0,0,0h7.4s0,0,0,0c0,0,0,0,0,0,0,0,0,0,0,0,0,0,0,0,0,0,0,0,0,0,0,0,0,0,0,0,0,0,0,2.7,0,5.5,0,8.2,2.8,0,5.6,0,8.3,0v-8.2s0,0,0,0c0,0,0,0,0,0,0,0,0,0,0,0,0,0,0,0,0,0,0,0,0,0,0,0,0,0,0,0,0,0h7.5s0,0,.1,0c0,0,0,0,0,0,0,0,0,0,0,0,0,0,0,0,0,.1,0,2.7,0,5.5,0,8.2,2.8,0,5.6,0,8.3,0v-8.2s0,0,0,0c0,0,0,0,0,0,0,0,0,0,0,0,0,0,0,0,0,0,0,0,0,0,0,0,0,0,0,0,0,0h7.5s0,0,.1,0c0,0,0,0,0,0s0,0,0,0c0,0,0,0,0,.1v8.2h8.3v-8.2s0,0,0,0c0,0,0,0,0,0,0,0,0,0,0,0,0,0,0,0,0,0,0,0,0,0,0,0,0,0,0,0,0,0h7.4s0,0,0,0c0,0,0,0,0,0,0,0,0,0,0,0,0,0,0,0,0,0,0,0,0,0,0,0,0,0,0,0,0,0v8.2c2.8,0,5.6,0,8.3,0,0-2.7,0-5.5,0-8.2s0,0,0,0c0,0,0,0,0,0,0,0,0,0,0,0,0,0,0,0,0,0,0,0,0,0,0,0,0,0,0,0,0,0h7.5s0,0,0,0c0,0,0,0,0,0,0,0,0,0,0,0,0,0,0,0,0,0,0,0,0,0,0,0,0,0,0,0,0,0v8.2c2.8,0,5.6,0,8.3,0v-8.2s0,0,0,0c0,0,0,0,0,0,0,0,0,0,0,0,0,0,0,0,0,0,0,0,0,0,0,0,0,0,0,0,0,0h7.5s0,0,0,0c0,0,0,0,0,0,0,0,0,0,0,0,0,0,0,0,0,0,0,0,0,0,0,0,0,0,0,0,0,0,0,2.7,0,5.5,0,8.2,2.8,0,5.6,0,8.3,0v-8.2s0,0,0,0c0,0,0,0,0,0,0,0,0,0,0,0,0,0,0,0,0,0,0,0,0,0,0,0,0,0,0,0,0,0h7.4s0,0,0,0c0,0,0,0,0,0,0,0,0,0,0,0,0,0,0,0,0,0,0,0,0,0,0,0,0,0,0,0,0,0v8.2h8.3v-8.2s0,0,0,0c0,0,0,0,0,0,0,0,0,0,0,0,0,0,0,0,0,0,0,0,0,0,0,0,0,0,0,0,0,0h7.6s0,0,0,0c0,0,0,0,0,0,0,0,0,0,0,0,0,0,0,0,0,0,0,0,0,0,0,0,0,0,0,0,0,0v8.2h8.3v-8.2s0,0,0,0c0,0,0,0,0,0,0,0,0,0,0,0,0,0,0,0,0,0,0,0,0,0,0,0,0,0,0,0,0,0h7.5s0,0,0,0c0,0,0,0,0,0,0,0,0,0,0,0,0,0,0,0,0,0,0,0,0,0,0,0,0,0,0,0,0,0v8.2h8.3v-8.2s0,0,0,0c0,0,0,0,0,0,0,0,0,0,0,0,0,0,0,0,0,0,0,0,0,0,0,0,0,0,0,0,0,0h7.5s0,0,0,0c0,0,0,0,0,0,0,0,0,0,0,0,0,0,0,0,0,0,0,0,0,0,0,0,0,0,0,0,0,0,0,2.7,0,5.5,0,8.2,2.8,0,5.6,0,8.3,0v-8.2s0,0,0,0c0,0,0,0,0,0,0,0,0,0,0,0,0,0,0,0,0,0,0,0,0,0,0,0,0,0,0,0,0,0h7.5s0,0,0,0c0,0,0,0,0,0,0,0,0,0,0,0,0,0,0,0,0,0,0,0,0,0,0,0,0,0,0,0,0,0,0,2.7,0,5.5,0,8.2,2.8,0,5.6,0,8.3,0,0-2.7,0-5.5,0-8.2s0,0,0,0c0,0,0,0,0,0,0,0,0,0,0,0,0,0,0,0,0,0,0,0,0,0,0,0,0,0,0,0,0,0h7.5s0,0,0,0c0,0,0,0,0,0,0,0,0,0,0,0,0,0,0,0,0,0,0,0,0,0,0,0,0,0,0,0,0,0v8.2h8.3v-8.2s0,0,0,0c0,0,0,0,0,0,0,0,0,0,0,0,0,0,0,0,0,0,0,0,0,0,0,0,0,0,0,0,0,0h7.5s0,0,.1,0c0,0,0,0,0,0s0,0,0,0c0,0,0,0,0,.1,0,2.7,0,5.5,0,8.2,2.8,0,5.6,0,8.3,0v-8.2s0,0,0,0c0,0,0,0,0,0,0,0,0,0,0,0,0,0,0,0,0,0,0,0,0,0,0,0,0,0,0,0,0,0h7.5s0,0,.1,0c0,0,0,0,0,0s0,0,0,0c0,0,0,0,0,.1v8.2c2.8,0,5.6,0,8.3,0v-8.2s0,0,0,0c0,0,0,0,0,0,0,0,0,0,0,0,0,0,0,0,0,0,0,0,0,0,0,0,0,0,0,0,0,0h7.6s0,0,0,0c0,0,0,0,0,0,0,0,0,0,0,0,0,0,0,0,0,0,0,0,0,0,0,0,0,0,0,0,0,0v8.2"/>
    <path class="cls-1" d="M166.4,407.3c0,2.7,0,5.5,0,8.2,2.8,0,5.6,0,8.3,0v-8.2s0,0,0,0c0,0,0,0,0,0,0,0,0,0,0,0,0,0,0,0,0,0,0,0,0,0,0,0,0,0,0,0,0,0h7.5s0,0,0,0c0,0,0,0,0,0,0,0,0,0,0,0,0,0,0,0,0,0,0,0,0,0,0,0,0,0,0,0,0,0v8.2c2.8,0,5.6,0,8.3,0v-8.2s0,0,0,0c0,0,0,0,0,0,0,0,0,0,0,0,0,0,0,0,0,0,0,0,0,0,0,0,0,0,0,0,0,0h7.4s0,0,0,0c0,0,0,0,0,0,0,0,0,0,0,0,0,0,0,0,0,0,0,0,0,0,0,0,0,0,0,0,0,0,0,2.7,0,5.5,0,8.2,2.8,0,5.6,0,8.3,0v-8.2s0,0,0,0c0,0,0,0,0,0,0,0,0,0,0,0,0,0,0,0,0,0,0,0,0,0,0,0,0,0,0,0,0,0h7.5s0,0,.1,0c0,0,0,0,0,0s0,0,0,0c0,0,0,0,0,.1,0,2.7,0,5.5,0,8.2,2.8,0,5.6,0,8.3,0,0-2.7,0-5.5,0-8.2s0,0,0,0c0,0,0,0,0,0,0,0,0,0,0,0,0,0,0,0,0,0,0,0,0,0,0,0,0,0,0,0,0,0h7.5s0,0,.1,0c0,0,0,0,0,0s0,0,0,0c0,0,0,0,0,.1v8.2c2.8,0,5.6,0,8.3,0v-8.2s0,0,0,0c0,0,0,0,0,0,0,0,0,0,0,0,0,0,0,0,0,0,0,0,0,0,0,0,0,0,0,0,0,0h7.4s0,0,0,0c0,0,0,0,0,0,0,0,0,0,0,0,0,0,0,0,0,0,0,0,0,0,0,0,0,0,0,0,0,0,0,2.7,0,5.5,0,8.2,2.8,0,5.6,0,8.3,0,0-2.7,0-5.5,0-8.2s0,0,0,0c0,0,0,0,0,0,0,0,0,0,0,0,0,0,0,0,0,0,0,0,0,0,0,0,0,0,0,0,0,0h7.5s0,0,0,0c0,0,0,0,0,0,0,0,0,0,0,0,0,0,0,0,0,0,0,0,0,0,0,0,0,0,0,0,0,0,0,2.7,0,5.5,0,8.2,2.8,0,5.6,0,8.3,0v-8.2s0,0,0,0c0,0,0,0,0,0,0,0,0,0,0,0,0,0,0,0,0,0,0,0,0,0,0,0,0,0,0,0,0,0h7.5s0,0,0,0c0,0,0,0,0,0,0,0,0,0,0,0,0,0,0,0,0,0,0,0,0,0,0,0,0,0,0,0,0,0,0,2.7,0,5.5,0,8.2,2.8,0,5.6,0,8.3,0v-8.2s0,0,0,0c0,0,0,0,0,0,0,0,0,0,0,0,0,0,0,0,0,0,0,0,0,0,0,0,0,0,0,0,0,0h7.4s0,0,0,0c0,0,0,0,0,0,0,0,0,0,0,0,0,0,0,0,0,0,0,0,0,0,0,0,0,0,0,0,0,0v8.2c2.8,0,5.6,0,8.3,0,0-2.7,0-5.5,0-8.2s0,0,0,0c0,0,0,0,0,0,0,0,0,0,0,0,0,0,0,0,0,0,0,0,0,0,0,0,0,0,0,0,0,0h7.6s0,0,0,0c0,0,0,0,0,0,0,0,0,0,0,0,0,0,0,0,0,0,0,0,0,0,0,0,0,0,0,0,0,0v42.3s0,0,0,0c0,0,0,0,0,0,0,0,0,0,0,0,0,0,0,0,0,0,0,0,0,0,0,0,0,0,0,0,0,0h-7.6s0,0,0,0c0,0,0,0,0,0,0,0,0,0,0,0,0,0,0,0,0,0,0,0,0,0,0,0,0,0,0,0,0,0,0-2.7,0-5.5,0-8.2-2.8,0-5.6,0-8.3,0,0,2.7,0,5.5,0,8.2s0,0,0,.1c0,0,0,0,0,0s0,0,0,0c0,0,0,0-.1,0h-7.4s0,0-.1,0c0,0,0,0,0,0s0,0,0,0c0,0,0,0,0-.1v-8.2h-8.3c0,2.7,0,5.5,0,8.2s0,0,0,.1c0,0,0,0,0,0s0,0,0,0c0,0,0,0-.1,0h-7.5s0,0,0,0c0,0,0,0,0,0,0,0,0,0,0,0,0,0,0,0,0,0,0,0,0,0,0,0,0,0,0,0,0,0v-8.2h-8.3c0,2.7,0,5.5,0,8.2s0,0,0,.1c0,0,0,0,0,0s0,0,0,0c0,0,0,0-.1,0h-7.5s0,0,0,0c0,0,0,0,0,0,0,0,0,0,0,0,0,0,0,0,0,0,0,0,0,0,0,0,0,0,0,0,0,0,0-2.7,0-5.5,0-8.2-2.8,0-5.6,0-8.3,0,0,2.7,0,5.5,0,8.2s0,0,0,0c0,0,0,0,0,0,0,0,0,0,0,0,0,0,0,0,0,0,0,0,0,0,0,0,0,0,0,0,0,0h-7.4s0,0,0,0c0,0,0,0,0,0,0,0,0,0,0,0,0,0,0,0,0,0,0,0,0,0,0,0,0,0,0,0,0,0v-8.2h-8.3c0,2.7,0,5.5,0,8.2s0,0,0,0c0,0,0,0,0,0,0,0,0,0,0,0,0,0,0,0,0,0,0,0,0,0,0,0,0,0,0,0,0,0h-7.5s0,0,0,0c0,0,0,0,0,0,0,0,0,0,0,0,0,0,0,0,0,0,0,0,0,0,0,0,0,0,0,0,0,0,0-2.7,0-5.5,0-8.2-2.8,0-5.6,0-8.3,0v8.2s0,0,0,0c0,0,0,0,0,0,0,0,0,0,0,0,0,0,0,0,0,0,0,0,0,0,0,0,0,0,0,0,0,0h-7.5s0,0-.1,0c0,0,0,0,0,0s0,0,0,0c0,0,0,0,0-.1v-8.2h-8.3v8.2s0,0,0,.1c0,0,0,0,0,0,0,0,0,0,0,0,0,0,0,0-.1,0h-7.4s0,0-.1,0c0,0,0,0,0,0s0,0,0,0c0,0,0,0,0-.1v-8.2h-8.3v8.2s0,0,0,.1c0,0,0,0,0,0s0,0,0,0c0,0,0,0-.1,0h-7.5s0,0,0,0c0,0,0,0,0,0,0,0,0,0,0,0,0,0,0,0,0,0,0,0,0,0,0,0,0,0,0,0,0,0,0-2.7,0-5.5,0-8.2-2.8,0-5.6,0-8.3,0,0,2.7,0,5.5,0,8.2s0,0,0,.1c0,0,0,0,0,0s0,0,0,0c0,0,0,0-.1,0h-7.8"/>
    <path class="cls-1" d="M166.3,407.1"/>
    <path class="cls-1" d="M166.1,407"/>
    <path class="cls-1" d="M437.3,381.2h8.2v-66.7h-8.3"/>
    <polyline class="cls-1" points="414.2 174.9 414.2 183.1 414.2 174.9"/>
    <polyline class="cls-1" points="390 183.4 390 183.4 390 183.4"/>
    <polyline class="cls-1" points="365 174.9 365 183.1 365 174.9"/>
    <polyline class="cls-1" points="357.2 183.4 357.2 183.4 357.2 183.4"/>
    <polyline class="cls-1" points="332.1 174.9 332.1 183.1 332.1 174.9"/>
    <polyline class="cls-1" points="340.5 183.1 340.5 183.1 340.5 183.1"/>
    <polyline class="cls-1" points="283 174.9 283 183.1 283 174.9"/>
    <polyline class="cls-1" points="291.3 183.1 291.3 183.1 291.3 183.1"/>
    <polyline class="cls-1" points="275.2 183.4 275.2 183.4 275.2 183.4"/>
    <polyline class="cls-1" points="250.1 174.9 250.1 183.1 250.1 174.9"/>
    <polyline class="cls-1" points="258.5 183.1 258.5 183.1 258.5 183.1"/>
    <polyline class="cls-1" points="233.8 174.9 233.8 183.1 233.8 174.9"/>
    <polyline class="cls-1" points="217.4 174.9 217.4 183.1 217.4 174.9"/>
    <polyline class="cls-1" points="225.7 183.1 225.7 183.1 225.7 183.1"/>
    <polyline class="cls-1" points="201 174.9 201 183.1 201 174.9"/>
    <polyline class="cls-1" points="176.7 183.1 176.7 183.1 176.7 183.1"/>
    <polyline class="cls-1" points="414.2 149 414.2 140.7 414.2 149"/>
    <polyline class="cls-1" points="422.5 149 414.2 149 422.5 149"/>
    <polyline class="cls-1" points="397.8 149 397.8 140.7 397.8 149"/>
    <polyline class="cls-1" points="406.4 140.5 413.9 140.5 406.4 140.5"/>
    <polyline class="cls-1" points="381.4 149 381.4 140.7 381.4 149"/>
    <polyline class="cls-1" points="390 140.5 397.5 140.5 390 140.5"/>
    <polyline class="cls-1" points="348.6 149 348.6 140.7 348.6 149"/>
    <polyline class="cls-1" points="357.2 140.5 364.7 140.5 357.2 140.5"/>
    <polyline class="cls-1" points="332.1 149 332.1 140.7 332.1 149"/>
    <polyline class="cls-1" points="324.3 140.5 331.8 140.5 324.3 140.5"/>
    <polyline class="cls-1" points="307.9 140.5 315.5 140.5 307.9 140.5"/>
    <polyline class="cls-1" points="283 149 283 140.7 283 149"/>
    <polyline class="cls-1" points="291.3 149 283 149 291.3 149"/>
    <polyline class="cls-1" points="275.2 140.5 282.7 140.5 275.2 140.5"/>
    <polyline class="cls-1" points="250.1 149 250.1 140.7 250.1 149"/>
    <polyline class="cls-1" points="217.4 149 217.4 140.7 217.4 149"/>
    <polyline class="cls-1" points="201 149 201 140.7 201 149"/>
    <polyline class="cls-1" points="209.4 149 201 149 209.4 149"/>
    <polyline class="cls-1" points="184.7 149 184.7 140.7 184.7 149"/>
    <polyline class="cls-1" points="193.3 140.5 200.8 140.5 193.3 140.5"/>
    <polyline class="cls-1" points="438.7 185.9 446 185.9 438.7 185.9"/>
    <polyline class="cls-1" points="446 185.9 446 141.2 446 185.9"/>
    <polyline class="cls-1" points="446 141.2 438.7 141.2 446 141.2"/>
    <polyline class="cls-1" points="438.7 141.2 438.7 149.6 438.7 141.2"/>
    <polyline class="cls-1" points="438.7 174.2 438.7 185.9 438.7 174.2"/>
    <polyline class="cls-1" points="152.5 167.7 160.6 167.7 152.5 167.7"/>
    <polyline class="cls-1" points="152.5 167.7 152.5 182.8 152.5 167.7"/>
    <path class="cls-1" d="M160.6,182.8"/>
    <polyline class="cls-1" points="430.6 149 430.6 149.8 430.6 149"/>
    <polyline class="cls-1" points="430.6 174.3 430.6 174.9 430.6 174.3"/>
    <polyline class="cls-1" points="152.5 140.8 152.5 155.9 152.5 140.8"/>
    <polyline class="cls-1" points="160.6 155.9 152.5 155.9 160.6 155.9"/>
    <polyline class="cls-1" points="160.6 155.9 160.6 167.7 160.6 155.9"/>
    <polyline class="cls-1" points="438.3 174.3 438.3 174.2 438.3 174.3"/>
    <polyline class="cls-1" points="438.3 174.2 438.7 174.2 438.3 174.2"/>
    <path class="cls-1" d="M438.7,149.6"/>
    <path class="cls-1" d="M438.7,149.6"/>
    <polyline class="cls-1" points="438.3 174.3 430.6 174.3 438.3 174.3"/>
    <path class="cls-1" d="M152.5,140.8"/>
    <polyline class="cls-1" points="152.5 182.8 169.2 182.8 169.2 174.9 169.2 182.8"/>
    <path class="cls-1" d="M430.6,149.8"/>
    <polyline class="cls-1" points="365 174.9 365 174.9 365 174.9"/>
    <polyline class="cls-1" points="430.6 140.7 430.6 149 430.6 140.7"/>
    <polyline class="cls-1" points="169.2 149 169.2 140.8 169.2 149"/>
    <polyline class="cls-1" points="375.5 476.1 375.5 467.9 375.5 476.1"/>
    <polyline class="cls-1" points="375.5 467.9 300.8 467.9 375.5 467.9"/>
    <polyline class="cls-1" points="153.8 635 153.8 643 153.8 635"/>
    <polyline class="cls-1" points="424.6 643 416.1 643 424.6 643"/>
    <polyline class="cls-1" points="170.2 635 170.2 643 170.2 635"/>
    <polyline class="cls-1" points="162.2 643 162.2 635 162.2 643"/>
    <polyline class="cls-1" points="162.2 643 153.8 643 162.2 643"/>
    <polyline class="cls-1" points="162.2 635 170.2 635 162.2 635"/>
    <polyline class="cls-1" points="186.5 635 186.5 643 186.5 635"/>
    <polyline class="cls-1" points="178.6 643 178.6 635 178.6 643"/>
    <polyline class="cls-1" points="178.6 643 170.2 643 178.6 643"/>
    <polyline class="cls-1" points="178.6 635 186.5 635 178.6 635"/>
    <polyline class="cls-1" points="202.9 635 202.9 643 202.9 635"/>
    <polyline class="cls-1" points="195 643 195 635 195 643"/>
    <polyline class="cls-1" points="195 643 186.5 643 195 643"/>
    <polyline class="cls-1" points="195 635 202.9 635 195 635"/>
    <polyline class="cls-1" points="219.3 635 219.3 643 219.3 635"/>
    <polyline class="cls-1" points="211.4 643 211.4 635 211.4 643"/>
    <polyline class="cls-1" points="211.4 643 202.9 643 211.4 643"/>
    <polyline class="cls-1" points="211.4 635 219.3 635 211.4 635"/>
    <polyline class="cls-1" points="235.7 635 235.7 643 235.7 635"/>
    <polyline class="cls-1" points="227.8 643 227.8 635 227.8 643"/>
    <polyline class="cls-1" points="227.8 643 219.3 643 227.8 643"/>
    <polyline class="cls-1" points="227.8 635 235.7 635 227.8 635"/>
    <polyline class="cls-1" points="252.1 635 252.1 643 252.1 635"/>
    <polyline class="cls-1" points="244.1 643 244.1 635 244.1 643"/>
    <polyline class="cls-1" points="244.1 643 235.7 643 244.1 643"/>
    <polyline class="cls-1" points="244.1 635 252.1 635 244.1 635"/>
    <polyline class="cls-1" points="268.5 635 268.5 643 268.5 635"/>
    <polyline class="cls-1" points="260.5 643 260.5 635 260.5 643"/>
    <polyline class="cls-1" points="260.5 643 252.1 643 260.5 643"/>
    <polyline class="cls-1" points="260.5 635 268.5 635 260.5 635"/>
    <polyline class="cls-1" points="284.8 635 284.8 643 284.8 635"/>
    <polyline class="cls-1" points="276.9 643 276.9 635 276.9 643"/>
    <polyline class="cls-1" points="276.9 643 268.5 643 276.9 643"/>
    <polyline class="cls-1" points="276.9 635 284.8 635 276.9 635"/>
    <polyline class="cls-1" points="301.2 635 301.2 643 301.2 635"/>
    <polyline class="cls-1" points="293.3 643 293.3 635 293.3 643"/>
    <polyline class="cls-1" points="293.3 643 284.8 643 293.3 643"/>
    <polyline class="cls-1" points="293.3 635 301.2 635 293.3 635"/>
    <polyline class="cls-1" points="334.1 635 334.1 643 334.1 635"/>
    <polyline class="cls-1" points="326.1 643 326.1 635 326.1 643"/>
    <polyline class="cls-1" points="326.1 643 317.7 643 326.1 643"/>
    <polyline class="cls-1" points="326.1 635 334.1 635 326.1 635"/>
    <polyline class="cls-1" points="317.7 635 317.7 643 317.7 635"/>
    <polyline class="cls-1" points="309.7 643 309.7 635 309.7 643"/>
    <polyline class="cls-1" points="309.7 643 301.2 643 309.7 643"/>
    <polyline class="cls-1" points="309.7 635 317.7 635 309.7 635"/>
    <polyline class="cls-1" points="366.9 635 366.9 643 366.9 635"/>
    <polyline class="cls-1" points="359 643 359 635 359 643"/>
    <polyline class="cls-1" points="359 643 350.5 643 359 643"/>
    <polyline class="cls-1" points="359 635 366.9 635 359 635"/>
    <polyline class="cls-1" points="350.5 635 350.5 643 350.5 635"/>
    <polyline class="cls-1" points="342.6 643 342.6 635 342.6 643"/>
    <polyline class="cls-1" points="342.6 643 334.1 643 342.6 643"/>
    <polyline class="cls-1" points="342.6 635 350.5 635 342.6 635"/>
    <polyline class="cls-1" points="399.8 635 399.8 643 399.8 635"/>
    <polyline class="cls-1" points="391.8 643 391.8 635 391.8 643"/>
    <polyline class="cls-1" points="391.8 643 383.4 643 391.8 643"/>
    <polyline class="cls-1" points="391.8 635 399.8 635 391.8 635"/>
    <polyline class="cls-1" points="383.4 635 383.4 643 383.4 635"/>
    <polyline class="cls-1" points="375.4 643 375.4 635 375.4 643"/>
    <polyline class="cls-1" points="375.4 643 366.9 643 375.4 643"/>
    <polyline class="cls-1" points="375.4 635 383.4 635 375.4 635"/>
    <polyline class="cls-1" points="424.6 643 424.6 635 424.6 643"/>
    <polyline class="cls-1" points="424.6 635 432.5 635 424.6 635"/>
    <polyline class="cls-1" points="416.1 635 416.1 643 416.1 635"/>
    <polyline class="cls-1" points="408.2 643 408.2 635 408.2 643"/>
    <polyline class="cls-1" points="408.2 643 399.8 643 408.2 643"/>
    <polyline class="cls-1" points="408.2 635 416.1 635 408.2 635"/>
    <polyline class="cls-1" points="432.5 633.7 432.5 635 432.5 633.7"/>
    <polyline class="cls-1" points="432.5 584.7 423.9 584.7 432.5 584.7"/>
    <polyline class="cls-1" points="423.9 584.7 423.9 576.2 423.9 584.7"/>
    <polyline class="cls-1" points="423.9 576.2 432.5 576.2 423.9 576.2"/>
    <polyline class="cls-1" points="432.5 568.2 423.9 568.2 432.5 568.2"/>
    <polyline class="cls-1" points="432.5 568.2 432.5 576.2 432.5 568.2"/>
    <polyline class="cls-1" points="423.9 568.2 423.9 559.8 423.9 568.2"/>
    <polyline class="cls-1" points="423.9 559.8 432.5 559.8 423.9 559.8"/>
    <polyline class="cls-1" points="146 568.4 137.3 568.4 146 568.4"/>
    <polyline class="cls-1" points="137.3 560 146 560 137.3 560"/>
    <polyline class="cls-1" points="146 560 146 568.4 146 560"/>
    <polyline class="cls-1" points="146 584.8 137.3 584.8 146 584.8"/>
    <polyline class="cls-1" points="137.3 576.4 146 576.4 137.3 576.4"/>
    <polyline class="cls-1" points="137.3 576.4 137.3 568.4 137.3 576.4"/>
    <polyline class="cls-1" points="146 576.4 146 584.8 146 576.4"/>
    <polyline class="cls-1" points="146 601.3 137.3 601.3 146 601.3"/>
    <polyline class="cls-1" points="137.3 592.8 146 592.8 137.3 592.8"/>
    <polyline class="cls-1" points="137.3 592.8 137.3 584.8 137.3 592.8"/>
    <polyline class="cls-1" points="146 592.8 146 601.3 146 592.8"/>
    <polyline class="cls-1" points="146 617.7 137.3 617.7 146 617.7"/>
    <polyline class="cls-1" points="137.3 609.3 146 609.3 137.3 609.3"/>
    <polyline class="cls-1" points="137.3 609.3 137.3 601.3 137.3 609.3"/>
    <polyline class="cls-1" points="146 609.3 146 617.7 146 609.3"/>
    <polyline class="cls-1" points="137.3 625.7 146 625.7 137.3 625.7"/>
    <polyline class="cls-1" points="137.3 625.7 137.3 617.7 137.3 625.7"/>
    <polyline class="cls-1" points="153.8 476.1 153.8 468 153.8 476.1"/>
    <polyline class="cls-1" points="424.6 468 416.1 468 424.6 468"/>
    <polyline class="cls-1" points="170.2 476.1 170.2 468 170.2 476.1"/>
    <polyline class="cls-1" points="162.2 468 162.2 476.1 162.2 468"/>
    <polyline class="cls-1" points="162.2 468 153.8 468 162.2 468"/>
    <polyline class="cls-1" points="162.2 476.1 170.2 476.1 162.2 476.1"/>
    <polyline class="cls-1" points="186.5 476.1 186.5 468 186.5 476.1"/>
    <polyline class="cls-1" points="178.6 468 178.6 476.1 178.6 468"/>
    <polyline class="cls-1" points="178.6 468 170.2 468 178.6 468"/>
    <polyline class="cls-1" points="178.6 476.1 186.5 476.1 178.6 476.1"/>
    <polyline class="cls-1" points="202.9 476.1 202.9 468 202.9 476.1"/>
    <polyline class="cls-1" points="195 468 195 476.1 195 468"/>
    <polyline class="cls-1" points="195 468 186.5 468 195 468"/>
    <polyline class="cls-1" points="195 476.1 202.9 476.1 195 476.1"/>
    <polyline class="cls-1" points="219.3 476.1 219.3 468 219.3 476.1"/>
    <polyline class="cls-1" points="211.4 468 211.4 476.1 211.4 468"/>
    <polyline class="cls-1" points="211.4 468 202.9 468 211.4 468"/>
    <polyline class="cls-1" points="211.4 476.1 219.3 476.1 211.4 476.1"/>
    <polyline class="cls-1" points="235.7 476.1 235.7 468 235.7 476.1"/>
    <polyline class="cls-1" points="227.8 468 227.8 476.1 227.8 468"/>
    <polyline class="cls-1" points="227.8 468 219.3 468 227.8 468"/>
    <polyline class="cls-1" points="227.8 476.1 235.7 476.1 227.8 476.1"/>
    <polyline class="cls-1" points="252.1 476.1 252.1 468 252.1 476.1"/>
    <polyline class="cls-1" points="244.1 468 244.1 476.1 244.1 468"/>
    <polyline class="cls-1" points="244.1 468 235.7 468 244.1 468"/>
    <polyline class="cls-1" points="244.1 476.1 252.1 476.1 244.1 476.1"/>
    <polyline class="cls-1" points="268.5 476.1 268.5 468 268.5 476.1"/>
    <polyline class="cls-1" points="260.5 468 260.5 476.1 260.5 468"/>
    <polyline class="cls-1" points="260.5 468 252.1 468 260.5 468"/>
    <polyline class="cls-1" points="260.5 476.1 268.5 476.1 260.5 476.1"/>
    <polyline class="cls-1" points="284.8 476.1 284.8 468 284.8 476.1"/>
    <polyline class="cls-1" points="276.9 468 276.9 476.1 276.9 468"/>
    <polyline class="cls-1" points="276.9 468 268.5 468 276.9 468"/>
    <polyline class="cls-1" points="276.9 476.1 284.8 476.1 276.9 476.1"/>
    <polyline class="cls-1" points="293.3 468 293.3 476.1 293.3 468"/>
    <polyline class="cls-1" points="293.3 468 284.8 468 293.3 468"/>
    <polyline class="cls-1" points="399.8 476.1 399.8 468 399.8 476.1"/>
    <polyline class="cls-1" points="391.8 468 391.8 476.1 391.8 468"/>
    <polyline class="cls-1" points="391.8 468 383.4 468 391.8 468"/>
    <polyline class="cls-1" points="391.8 476.1 399.8 476.1 391.8 476.1"/>
    <polyline class="cls-1" points="383.4 476.1 383.4 468 383.4 476.1"/>
    <polyline class="cls-1" points="424.6 468 424.6 468.6 424.6 468"/>
    <polyline class="cls-1" points="416.1 476.1 416.1 468 416.1 476.1"/>
    <polyline class="cls-1" points="408.2 468 408.2 476.1 408.2 468"/>
    <polyline class="cls-1" points="408.2 468 399.8 468 408.2 468"/>
    <polyline class="cls-1" points="408.2 476.1 416.1 476.1 408.2 476.1"/>
    <polyline class="cls-1" points="432.3 485.8 432.5 485.8 432.3 485.8"/>
    <polyline class="cls-1" points="432.5 493.5 432.3 493.5 432.5 493.5"/>
    <polyline class="cls-1" points="432.5 493.5 432.5 485.8 432.5 493.5"/>
    <polyline class="cls-1" points="432.3 501.9 432.5 501.9 432.3 501.9"/>
    <polyline class="cls-1" points="432.5 509.9 432.3 509.9 432.5 509.9"/>
    <polyline class="cls-1" points="432.5 509.9 432.5 501.9 432.5 509.9"/>
    <polyline class="cls-1" points="432.3 518.3 432.5 518.3 432.3 518.3"/>
    <polyline class="cls-1" points="432.5 526.3 432.3 526.3 432.5 526.3"/>
    <polyline class="cls-1" points="432.5 526.3 432.5 518.3 432.5 526.3"/>
    <polyline class="cls-1" points="432.3 534.8 432.5 534.8 432.3 534.8"/>
    <polyline class="cls-1" points="432.5 542.8 432.3 542.8 432.5 542.8"/>
    <polyline class="cls-1" points="432.5 542.8 432.5 534.8 432.5 542.8"/>
    <polyline class="cls-1" points="423.9 543.6 423.9 551.2 423.9 543.6"/>
    <polyline class="cls-1" points="423.9 551.2 432.5 551.2 423.9 551.2"/>
    <polyline class="cls-1" points="146 542.6 137.3 542.6 146 542.6"/>
    <polyline class="cls-1" points="137.3 551 146 551 137.3 551"/>
    <polyline class="cls-1" points="146 551 146 542.6 146 551"/>
    <polyline class="cls-1" points="146 526.2 137.3 526.2 146 526.2"/>
    <polyline class="cls-1" points="137.3 534.6 146 534.6 137.3 534.6"/>
    <polyline class="cls-1" points="137.3 534.6 137.3 542.6 137.3 534.6"/>
    <polyline class="cls-1" points="146 534.6 146 526.2 146 534.6"/>
    <polyline class="cls-1" points="146 509.7 137.3 509.7 146 509.7"/>
    <polyline class="cls-1" points="137.3 518.2 146 518.2 137.3 518.2"/>
    <polyline class="cls-1" points="137.3 518.2 137.3 526.2 137.3 518.2"/>
    <polyline class="cls-1" points="146 518.2 146 509.7 146 518.2"/>
    <polyline class="cls-1" points="146 493.3 137.3 493.3 146 493.3"/>
    <polyline class="cls-1" points="137.3 501.8 146 501.8 137.3 501.8"/>
    <polyline class="cls-1" points="137.3 501.8 137.3 509.7 137.3 501.8"/>
    <polyline class="cls-1" points="146 501.8 146 493.3 146 501.8"/>
    <polyline class="cls-1" points="137.3 485.4 146 485.4 137.3 485.4"/>
    <polyline class="cls-1" points="137.3 485.4 137.3 493.3 137.3 485.4"/>
    <polyline class="cls-1" points="424.6 468.6 424.5 468.6 424.6 468.6"/>
    <polyline class="cls-1" points="424.5 468.6 424.5 476.9 424.5 468.6"/>
    <polyline class="cls-1" points="146.1 477.3 146 477.3 146.1 477.3"/>
    <polyline class="cls-1" points="146.1 476.1 146.1 477.3 146.1 476.1"/>
    <polyline class="cls-1" points="146.1 476.1 153.8 476.1 146.1 476.1"/>
    <polyline class="cls-1" points="146 485.4 146 477.3 146 485.4"/>
    <polyline class="cls-1" points="146.1 633.2 146.1 635 146.1 633.2"/>
    <polyline class="cls-1" points="146 633.2 146.1 633.2 146 633.2"/>
    <polyline class="cls-1" points="146.1 635 153.8 635 146.1 635"/>
    <polyline class="cls-1" points="146 625.7 146 633.2 146 625.7"/>
    <polyline class="cls-1" points="300.8 467.9 300.8 476.1 300.8 467.9"/>
    <polyline class="cls-1" points="293.3 476.1 300.8 476.1 293.3 476.1"/>
    <polyline class="cls-1" points="375.5 476.1 383.4 476.1 375.5 476.1"/>
    <polyline class="cls-1" points="432.8 587.6 432.8 633.4 432.8 587.6"/>
    <polyline class="cls-1" points="432.5 584.7 432.5 587.6 432.5 584.7"/>
    <polyline class="cls-1" points="432.3 543.6 432.3 542.8 432.3 543.6"/>
    <polyline class="cls-1" points="432.3 534.8 432.3 526.3 432.3 534.8"/>
    <polyline class="cls-1" points="432.3 518.3 432.3 509.9 432.3 518.3"/>
    <polyline class="cls-1" points="432.3 501.9 432.3 493.5 432.3 501.9"/>
    <polyline class="cls-1" points="432.3 485.8 432.3 476.9 432.3 485.8"/>
    <polyline class="cls-1" points="423.9 543.6 432.3 543.6 423.9 543.6"/>
    <polyline class="cls-1" points="432.3 476.9 424.5 476.9 432.3 476.9"/>
    <polyline class="cls-1" points="137.3 560 137.3 551 137.3 560"/>
    <polyline class="cls-1" points="432.5 559.8 432.5 551.2 432.5 559.8"/>
    <polyline class="cls-1" points="432.5 587.6 432.8 587.6 432.5 587.6"/>
    <polyline class="cls-1" points="167 382.1 159.3 382.1 167 382.1"/>
    <polyline class="cls-1" points="167 390.1 167 382.1 167 390.1"/>
    <polyline class="cls-1" points="167 390.1 175.4 390.1 167 390.1"/>
    <polyline class="cls-1" points="183.4 382.1 175.4 382.1 183.4 382.1"/>
    <polyline class="cls-1" points="183.4 390.1 183.4 382.1 183.4 390.1"/>
    <polyline class="cls-1" points="175.4 382.1 175.4 390.1 175.4 382.1"/>
    <polyline class="cls-1" points="183.4 390.1 191.8 390.1 183.4 390.1"/>
    <polyline class="cls-1" points="199.7 382.1 191.8 382.1 199.7 382.1"/>
    <polyline class="cls-1" points="199.7 390.1 199.7 382.1 199.7 390.1"/>
    <polyline class="cls-1" points="191.8 382.1 191.8 390.1 191.8 382.1"/>
    <polyline class="cls-1" points="199.7 390.1 208.2 390.1 199.7 390.1"/>
    <polyline class="cls-1" points="216.1 382.1 208.2 382.1 216.1 382.1"/>
    <polyline class="cls-1" points="216.1 390.1 216.1 382.1 216.1 390.1"/>
    <polyline class="cls-1" points="208.2 382.1 208.2 390.1 208.2 382.1"/>
    <polyline class="cls-1" points="216.1 390.1 224.6 390.1 216.1 390.1"/>
    <polyline class="cls-1" points="232.5 382.1 224.6 382.1 232.5 382.1"/>
    <polyline class="cls-1" points="232.5 390.1 232.5 382.1 232.5 390.1"/>
    <polyline class="cls-1" points="224.6 382.1 224.6 390.1 224.6 382.1"/>
    <polyline class="cls-1" points="232.5 390.1 241 390.1 232.5 390.1"/>
    <polyline class="cls-1" points="248.9 382.1 241 382.1 248.9 382.1"/>
    <polyline class="cls-1" points="248.9 390.1 248.9 382.1 248.9 390.1"/>
    <polyline class="cls-1" points="241 382.1 241 390.1 241 382.1"/>
    <polyline class="cls-1" points="248.9 390.1 257.3 390.1 248.9 390.1"/>
    <polyline class="cls-1" points="265.3 382.1 257.3 382.1 265.3 382.1"/>
    <polyline class="cls-1" points="265.3 390.1 265.3 382.1 265.3 390.1"/>
    <polyline class="cls-1" points="257.3 382.1 257.3 390.1 257.3 382.1"/>
    <polyline class="cls-1" points="265.3 390.1 273.7 390.1 265.3 390.1"/>
    <polyline class="cls-1" points="281.7 382.1 273.7 382.1 281.7 382.1"/>
    <polyline class="cls-1" points="281.7 390.1 281.7 382.1 281.7 390.1"/>
    <polyline class="cls-1" points="273.7 382.1 273.7 390.1 273.7 382.1"/>
    <polyline class="cls-1" points="281.7 390.1 290.1 390.1 281.7 390.1"/>
    <polyline class="cls-1" points="298 382.1 290.1 382.1 298 382.1"/>
    <polyline class="cls-1" points="298 390.1 298 382.1 298 390.1"/>
    <polyline class="cls-1" points="290.1 382.1 290.1 390.1 290.1 382.1"/>
    <polyline class="cls-1" points="298 390.1 306.5 390.1 298 390.1"/>
    <polyline class="cls-1" points="314.4 382.1 306.5 382.1 314.4 382.1"/>
    <polyline class="cls-1" points="314.4 390.1 314.4 382.1 314.4 390.1"/>
    <polyline class="cls-1" points="306.5 382.1 306.5 390.1 306.5 382.1"/>
    <polyline class="cls-1" points="314.4 390.1 315 390.1 314.4 390.1"/>
    <polyline class="cls-1" points="413 382.1 405 382.1 413 382.1"/>
    <polyline class="cls-1" points="413 390.1 413 382.1 413 390.1"/>
    <polyline class="cls-1" points="405 382.1 405 390.1 405 382.1"/>
    <polyline class="cls-1" points="413 390.1 421.4 390.1 413 390.1"/>
    <polyline class="cls-1" points="396.6 382.1 388.7 382.1 396.6 382.1"/>
    <polyline class="cls-1" points="396.6 390.1 396.6 382.1 396.6 390.1"/>
    <polyline class="cls-1" points="396.6 390.1 405 390.1 396.6 390.1"/>
    <polyline class="cls-1" points="429.3 382.1 421.4 382.1 429.3 382.1"/>
    <polyline class="cls-1" points="429.3 390.1 429.3 382.1 429.3 390.1"/>
    <polyline class="cls-1" points="421.4 382.1 421.4 390.1 421.4 382.1"/>
    <polyline class="cls-1" points="429.3 390.1 437.3 390.1 429.3 390.1"/>
    <path class="cls-1" d="M437.1,314.4v-7.5"/>
    <path class="cls-1" d="M437.1,306.9v7.5"/>
    <polyline class="cls-1" points="445.7 306.9 437.1 306.9 445.7 306.9"/>
    <polyline class="cls-1" points="150.5 315.6 159.2 315.6 150.5 315.6"/>
    <polyline class="cls-1" points="159.2 307.1 150.5 307.1 159.2 307.1"/>
    <polyline class="cls-1" points="159.2 315.6 159.2 307.1 159.2 315.6"/>
    <polyline class="cls-1" points="150.5 315.6 150.5 323.5 150.5 315.6"/>
    <polyline class="cls-1" points="150.5 332 159.2 332 150.5 332"/>
    <polyline class="cls-1" points="159.2 323.5 150.5 323.5 159.2 323.5"/>
    <polyline class="cls-1" points="159.2 332 159.2 323.5 159.2 332"/>
    <polyline class="cls-1" points="150.5 332 150.5 340 150.5 332"/>
    <polyline class="cls-1" points="150.5 348.4 159.2 348.4 150.5 348.4"/>
    <polyline class="cls-1" points="159.2 340 150.5 340 159.2 340"/>
    <polyline class="cls-1" points="159.2 348.4 159.2 340 159.2 348.4"/>
    <polyline class="cls-1" points="150.5 348.4 150.5 356.4 150.5 348.4"/>
    <polyline class="cls-1" points="150.5 364.9 159.2 364.9 150.5 364.9"/>
    <polyline class="cls-1" points="159.2 356.4 150.5 356.4 159.2 356.4"/>
    <polyline class="cls-1" points="159.2 364.9 159.2 356.4 159.2 364.9"/>
    <polyline class="cls-1" points="150.5 364.9 150.5 372.8 150.5 364.9"/>
    <polyline class="cls-1" points="159.2 372.8 150.5 372.8 159.2 372.8"/>
    <polyline class="cls-1" points="167 223.2 159.3 223.2 167 223.2"/>
    <polyline class="cls-1" points="167 215.2 167 223.2 167 215.2"/>
    <polyline class="cls-1" points="167 215.2 175.4 215.2 167 215.2"/>
    <polyline class="cls-1" points="183.4 223.2 175.4 223.2 183.4 223.2"/>
    <polyline class="cls-1" points="183.4 215.2 183.4 223.2 183.4 215.2"/>
    <polyline class="cls-1" points="175.4 223.2 175.4 215.2 175.4 223.2"/>
    <polyline class="cls-1" points="183.4 215.2 191.8 215.2 183.4 215.2"/>
    <polyline class="cls-1" points="199.7 223.2 191.8 223.2 199.7 223.2"/>
    <polyline class="cls-1" points="199.7 215.2 199.7 223.2 199.7 215.2"/>
    <polyline class="cls-1" points="191.8 223.2 191.8 215.2 191.8 223.2"/>
    <polyline class="cls-1" points="199.7 215.2 208.2 215.2 199.7 215.2"/>
    <polyline class="cls-1" points="216.1 223.2 208.2 223.2 216.1 223.2"/>
    <polyline class="cls-1" points="216.1 215.2 216.1 223.2 216.1 215.2"/>
    <polyline class="cls-1" points="208.2 223.2 208.2 215.2 208.2 223.2"/>
    <polyline class="cls-1" points="216.1 215.2 224.6 215.2 216.1 215.2"/>
    <polyline class="cls-1" points="232.5 223.2 224.6 223.2 232.5 223.2"/>
    <polyline class="cls-1" points="232.5 215.2 232.5 223.2 232.5 215.2"/>
    <polyline class="cls-1" points="224.6 223.2 224.6 215.2 224.6 223.2"/>
    <polyline class="cls-1" points="232.5 215.2 241 215.2 232.5 215.2"/>
    <polyline class="cls-1" points="248.9 223.2 241 223.2 248.9 223.2"/>
    <polyline class="cls-1" points="248.9 215.2 248.9 223.2 248.9 215.2"/>
    <polyline class="cls-1" points="241 223.2 241 215.2 241 223.2"/>
    <polyline class="cls-1" points="248.9 215.2 257.3 215.2 248.9 215.2"/>
    <polyline class="cls-1" points="265.3 223.2 257.3 223.2 265.3 223.2"/>
    <polyline class="cls-1" points="265.3 215.2 265.3 223.2 265.3 215.2"/>
    <polyline class="cls-1" points="257.3 223.2 257.3 215.2 257.3 223.2"/>
    <polyline class="cls-1" points="265.3 215.2 273.7 215.2 265.3 215.2"/>
    <polyline class="cls-1" points="281.7 223.2 273.7 223.2 281.7 223.2"/>
    <polyline class="cls-1" points="281.7 215.2 281.7 223.2 281.7 215.2"/>
    <polyline class="cls-1" points="273.7 223.2 273.7 215.2 273.7 223.2"/>
    <polyline class="cls-1" points="281.7 215.2 290.1 215.2 281.7 215.2"/>
    <polyline class="cls-1" points="298 223.2 290.1 223.2 298 223.2"/>
    <polyline class="cls-1" points="298 215.2 298 223.2 298 215.2"/>
    <polyline class="cls-1" points="290.1 223.2 290.1 215.2 290.1 223.2"/>
    <polyline class="cls-1" points="298 215.2 306.5 215.2 298 215.2"/>
    <polyline class="cls-1" points="314.4 223.2 306.5 223.2 314.4 223.2"/>
    <polyline class="cls-1" points="314.4 215.2 314.4 223.2 314.4 215.2"/>
    <polyline class="cls-1" points="306.5 223.2 306.5 215.2 306.5 223.2"/>
    <polyline class="cls-1" points="314.4 215.2 322.9 215.2 314.4 215.2"/>
    <polyline class="cls-1" points="347.3 223.2 339.3 223.2 347.3 223.2"/>
    <polyline class="cls-1" points="347.3 215.2 347.3 223.2 347.3 215.2"/>
    <polyline class="cls-1" points="339.3 223.2 339.3 215.2 339.3 223.2"/>
    <polyline class="cls-1" points="347.3 215.2 355.8 215.2 347.3 215.2"/>
    <polyline class="cls-1" points="330.9 223.2 322.9 223.2 330.9 223.2"/>
    <polyline class="cls-1" points="330.9 215.2 330.9 223.2 330.9 215.2"/>
    <polyline class="cls-1" points="322.9 223.2 322.9 215.2 322.9 223.2"/>
    <polyline class="cls-1" points="330.9 215.2 339.3 215.2 330.9 215.2"/>
    <polyline class="cls-1" points="380.1 223.2 372.2 223.2 380.1 223.2"/>
    <polyline class="cls-1" points="380.1 215.2 380.1 223.2 380.1 215.2"/>
    <polyline class="cls-1" points="150.1 241.6 149.8 232.3 151.1 232.3 159.2 232.5"/>
    <line class="cls-1" x1="152.5" y1="140.8" x2="169.2" y2="140.8"/>
    <line class="cls-1" x1="438.7" y1="149.6" x2="430.6" y2="149.8"/>
  </g>
  <g id="Make2D::Visible::SceneSilhouetteCurves">
    <polyline class="cls-1" points="103.5 258.2 103.5 250.3 103.5 258.2"/>
    <path class="cls-1" d="M112.2,250c0,.2-.1.3-.3.3.2,0,.3-.1.3-.3Z"/>
    <path class="cls-1" d="M111.9,258.2c.2,0,.3.1.3.3,0-.2-.1-.3-.3-.3Z"/>
    <path class="cls-1" d="M112.2,266.3c0,.2-.1.3-.3.3.2,0,.3-.1.3-.3Z"/>
    <path class="cls-1" d="M111.9,274.5c.2,0,.3.1.3.3,0-.2-.1-.3-.3-.3Z"/>
    <path class="cls-1" d="M112.2,282.8c0,.2-.1.3-.3.3.2,0,.3-.1.3-.3Z"/>
    <path class="cls-1" d="M111.9,291c.2,0,.3.1.3.3,0-.2-.1-.3-.3-.3Z"/>
    <path class="cls-1" d="M112.2,299.3c0,.2-.1.3-.3.3.2,0,.3-.1.3-.3Z"/>
    <path class="cls-1" d="M67.9,225.4c-.2,0-.3.1-.3.3,0-.2.1-.3.3-.3Z"/>
    <path class="cls-1" d="M67.6,233.5c0,.2.1.3.3.3-.2,0-.3-.1-.3-.3Z"/>
    <path class="cls-1" d="M67.9,241.6c-.2,0-.3.1-.3.3,0-.2.1-.3.3-.3Z"/>
    <path class="cls-1" d="M67.6,250c0,.2.1.3.3.3-.2,0-.3-.1-.3-.3Z"/>
    <path class="cls-1" d="M67.9,258.2c-.2,0-.3.1-.3.3,0-.2.1-.3.3-.3Z"/>
    <path class="cls-1" d="M67.6,266.3c0,.2.1.3.3.3-.2,0-.3-.1-.3-.3Z"/>
    <path class="cls-1" d="M67.9,274.5c-.2,0-.3.1-.3.3,0-.2.1-.3.3-.3Z"/>
    <path class="cls-1" d="M67.6,282.8c0,.2.1.3.3.3-.2,0-.3-.1-.3-.3Z"/>
    <path class="cls-1" d="M67.9,291c-.2,0-.3.1-.3.3,0-.2.1-.3.3-.3Z"/>
    <path class="cls-1" d="M67.6,299.3c0,.2.1.3.3.3-.2,0-.3-.1-.3-.3Z"/>
    <path class="cls-1" d="M95.2,216c.2,0,.3.1.3.3,0-.2-.1-.3-.3-.3Z"/>
    <path class="cls-1" d="M103.5,223.5c.2,0,.3.1.3.3,0-.2-.1-.3-.3-.3Z"/>
    <path class="cls-1" d="M85.3,216c-.2,0-.3.1-.3.3,0-.2.1-.3.3-.3Z"/>
    <path class="cls-1" d="M76.4,223.5c-.2,0-.3.1-.3.3,0-.2.1-.3.3-.3Z"/>
    <path class="cls-1" d="M103.5,304s0,0,0-.1c0,0,0,0,0,.1Z"/>
    <path class="cls-1" d="M111.9,381.7c.2,0,.3-.1.3-.3,0,.2-.1.3-.3.3Z"/>
    <path class="cls-1" d="M103.4,391.1c.2,0,.3-.1.3-.3,0,.2-.1.3-.3.3Z"/>
    <path class="cls-1" d="M112.2,373.7c0-.2-.1-.3-.3-.3.2,0,.3.1.3.3Z"/>
    <path class="cls-1" d="M111.9,365.5c.2,0,.3-.1.3-.3,0,.2-.1.3-.3.3Z"/>
    <path class="cls-1" d="M112.2,357.1c0-.2-.1-.3-.3-.3.2,0,.3.1.3.3Z"/>
    <path class="cls-1" d="M111.9,348.9c.2,0,.3-.1.3-.3,0,.2-.1.3-.3.3Z"/>
    <path class="cls-1" d="M112.2,340.8c0-.2-.1-.3-.3-.3.2,0,.3.1.3.3Z"/>
    <path class="cls-1" d="M111.9,332.7c.2,0,.3-.1.3-.3,0,.2-.1.3-.3.3Z"/>
    <path class="cls-1" d="M112.2,324.3c0-.2-.1-.3-.3-.3.2,0,.3.1.3.3Z"/>
    <path class="cls-1" d="M111.9,316.2c.2,0,.3-.1.3-.3,0,.2-.1.3-.3.3Z"/>
    <path class="cls-1" d="M112.2,307.8c0-.2-.1-.3-.3-.3.2,0,.3.1.3.3Z"/>
    <path class="cls-1" d="M67.9,381.7c-.2,0-.3-.1-.3-.3,0,.2.1.3.3.3Z"/>
    <path class="cls-1" d="M67.6,373.7c0-.2.1-.3.3-.3-.2,0-.3.1-.3.3Z"/>
    <path class="cls-1" d="M67.9,365.5c-.2,0-.3-.1-.3-.3,0,.2.1.3.3.3Z"/>
    <path class="cls-1" d="M67.6,357.1c0-.2.1-.3.3-.3-.2,0-.3.1-.3.3Z"/>
    <path class="cls-1" d="M67.9,348.9c-.2,0-.3-.1-.3-.3,0,.2.1.3.3.3Z"/>
    <path class="cls-1" d="M67.6,340.8c0-.2.1-.3.3-.3-.2,0-.3.1-.3.3Z"/>
    <path class="cls-1" d="M67.9,332.7c-.2,0-.3-.1-.3-.3,0,.2.1.3.3.3Z"/>
    <path class="cls-1" d="M67.6,324.3c0-.2.1-.3.3-.3-.2,0-.3.1-.3.3Z"/>
    <path class="cls-1" d="M67.9,316.2c-.2,0-.3-.1-.3-.3,0,.2.1.3.3.3Z"/>
    <path class="cls-1" d="M67.6,307.8c0-.2.1-.3.3-.3-.2,0-.3.1-.3.3Z"/>
    <path class="cls-1" d="M94.9,390.8c0,.2.1.3.3.3-.2,0-.3-.1-.3-.3Z"/>
    <path class="cls-1" d="M86.2,390.8c0,.2-.1.3-.3.3.2,0,.3-.1.3-.3Z"/>
    <path class="cls-1" d="M76.3,303.7c0,0,0,0,0-.1,0,0,0,0,0,.1Z"/>
    <line class="cls-1" x1="76.7" y1="390.8" x2="76.7" y2="381.7"/>
    <path class="cls-1" d="M112.2,233.5c0,.2-.1.3-.3.3.2,0,.3-.1.3-.3Z"/>
    <path class="cls-1" d="M111.9,225.4c.2,0,.3.1.3.3,0-.2-.1-.3-.3-.3Z"/>
    <polyline class="cls-1" points="111.9 258.2 103.5 258.2 111.9 258.2"/>
    <polyline class="cls-1" points="103.5 250.3 111.9 250.3 103.5 250.3"/>
    <polyline class="cls-1" points="112.2 250 112.2 241.9 112.2 250"/>
    <polyline class="cls-1" points="103.6 241.6 103.6 233.7 103.6 241.6"/>
    <polyline class="cls-1" points="111.9 241.6 103.6 241.6 111.9 241.6"/>
    <polyline class="cls-1" points="103.6 233.7 111.9 233.7 103.6 233.7"/>
    <polyline class="cls-1" points="112.2 233.5 112.2 225.7 112.2 233.5"/>
    <polyline class="cls-1" points="103.8 225.4 103.8 223.8 103.8 225.4"/>
    <polyline class="cls-1" points="76.7 381.7 67.9 381.7 76.7 381.7"/>
    <polyline class="cls-1" points="111.9 381.7 103.7 381.7 111.9 381.7"/>
    <polyline class="cls-1" points="67.9 225.4 76.1 225.4 67.9 225.4"/>
    <polyline class="cls-1" points="111.9 225.4 103.8 225.4 111.9 225.4"/>
    <polyline class="cls-1" points="95.2 216 85.3 216 95.2 216"/>
    <polyline class="cls-1" points="103.5 299.6 103.5 303.9 103.5 299.6"/>
    <path class="cls-1" d="M77,391.1c-.2,0-.3-.1-.3-.3"/>
    <polyline class="cls-1" points="76.3 303.5 76.3 299.6 76.3 303.5"/>
    <polyline class="cls-1" points="86.2 382.2 86.2 390.8 86.2 382.2"/>
    <polyline class="cls-1" points="94.9 382.2 86.2 382.2 94.9 382.2"/>
    <polyline class="cls-1" points="94.9 390.8 94.9 382.2 94.9 390.8"/>
    <polyline class="cls-1" points="76.3 303.7 76.3 307.5 76.3 303.7"/>
    <polyline class="cls-1" points="76.3 307.5 67.9 307.5 76.3 307.5"/>
    <polyline class="cls-1" points="67.6 307.8 67.6 315.9 67.6 307.8"/>
    <polyline class="cls-1" points="76.3 316.2 76.3 324 76.3 316.2"/>
    <polyline class="cls-1" points="67.9 316.2 76.3 316.2 67.9 316.2"/>
    <polyline class="cls-1" points="76.3 324 67.9 324 76.3 324"/>
    <polyline class="cls-1" points="67.6 324.3 67.6 332.4 67.6 324.3"/>
    <polyline class="cls-1" points="76.3 332.7 76.3 340.6 76.3 332.7"/>
    <polyline class="cls-1" points="67.9 332.7 76.3 332.7 67.9 332.7"/>
    <polyline class="cls-1" points="76.3 340.6 67.9 340.6 76.3 340.6"/>
    <polyline class="cls-1" points="67.6 340.8 67.6 348.7 67.6 340.8"/>
    <polyline class="cls-1" points="76.3 348.9 76.3 356.8 76.3 348.9"/>
    <polyline class="cls-1" points="67.9 348.9 76.3 348.9 67.9 348.9"/>
    <polyline class="cls-1" points="76.3 356.8 67.9 356.8 76.3 356.8"/>
    <polyline class="cls-1" points="67.6 357.1 67.6 365.2 67.6 357.1"/>
    <polyline class="cls-1" points="76.2 365.5 76.2 373.4 76.2 365.5"/>
    <polyline class="cls-1" points="67.9 365.5 76.2 365.5 67.9 365.5"/>
    <polyline class="cls-1" points="76.2 373.4 67.9 373.4 76.2 373.4"/>
    <polyline class="cls-1" points="67.6 373.7 67.6 381.4 67.6 373.7"/>
    <polyline class="cls-1" points="77 391.1 85.9 391.1 77 391.1"/>
    <polyline class="cls-1" points="103.5 304 103.5 307.5 103.5 304"/>
    <polyline class="cls-1" points="103.5 307.5 111.9 307.5 103.5 307.5"/>
    <polyline class="cls-1" points="112.2 307.8 112.2 315.9 112.2 307.8"/>
    <polyline class="cls-1" points="103.5 316.2 103.5 324 103.5 316.2"/>
    <polyline class="cls-1" points="111.9 316.2 103.5 316.2 111.9 316.2"/>
    <polyline class="cls-1" points="103.5 324 111.9 324 103.5 324"/>
    <polyline class="cls-1" points="112.2 324.3 112.2 332.4 112.2 324.3"/>
    <polyline class="cls-1" points="103.5 332.7 103.5 340.6 103.5 332.7"/>
    <polyline class="cls-1" points="111.9 332.7 103.5 332.7 111.9 332.7"/>
    <polyline class="cls-1" points="103.5 340.6 111.9 340.6 103.5 340.6"/>
    <polyline class="cls-1" points="112.2 340.8 112.2 348.7 112.2 340.8"/>
    <polyline class="cls-1" points="103.5 348.9 103.5 356.8 103.5 348.9"/>
    <polyline class="cls-1" points="111.9 348.9 103.5 348.9 111.9 348.9"/>
    <polyline class="cls-1" points="103.5 356.8 111.9 356.8 103.5 356.8"/>
    <polyline class="cls-1" points="112.2 357.1 112.2 365.2 112.2 357.1"/>
    <polyline class="cls-1" points="103.6 365.5 103.6 373.4 103.6 365.5"/>
    <polyline class="cls-1" points="111.9 365.5 103.6 365.5 111.9 365.5"/>
    <polyline class="cls-1" points="103.6 373.4 111.9 373.4 103.6 373.4"/>
    <polyline class="cls-1" points="112.2 373.7 112.2 381.4 112.2 373.7"/>
    <polyline class="cls-1" points="103.7 381.7 103.7 390.8 103.7 381.7"/>
    <polyline class="cls-1" points="103.4 391.1 95.2 391.1 103.4 391.1"/>
    <polyline class="cls-1" points="76.4 223.5 85 223.5 76.4 223.5"/>
    <polyline class="cls-1" points="85 223.5 85 216.3 85 223.5"/>
    <polyline class="cls-1" points="95.5 223.5 103.5 223.5 95.5 223.5"/>
    <polyline class="cls-1" points="95.5 216.3 95.5 223.5 95.5 216.3"/>
    <polyline class="cls-1" points="76.3 299.6 67.9 299.6 76.3 299.6"/>
    <polyline class="cls-1" points="67.6 299.3 67.6 291.3 67.6 299.3"/>
    <polyline class="cls-1" points="76.3 291 76.3 283.1 76.3 291"/>
    <polyline class="cls-1" points="67.9 291 76.3 291 67.9 291"/>
    <polyline class="cls-1" points="76.3 283.1 67.9 283.1 76.3 283.1"/>
    <polyline class="cls-1" points="67.6 282.8 67.6 274.7 67.6 282.8"/>
    <polyline class="cls-1" points="76.3 274.5 76.3 266.6 76.3 274.5"/>
    <polyline class="cls-1" points="67.9 274.5 76.3 274.5 67.9 274.5"/>
    <polyline class="cls-1" points="76.3 266.6 67.9 266.6 76.3 266.6"/>
    <polyline class="cls-1" points="67.6 266.3 67.6 258.5 67.6 266.3"/>
    <polyline class="cls-1" points="76.3 258.2 76.3 250.3 76.3 258.2"/>
    <polyline class="cls-1" points="67.9 258.2 76.3 258.2 67.9 258.2"/>
    <polyline class="cls-1" points="76.3 250.3 67.9 250.3 76.3 250.3"/>
    <polyline class="cls-1" points="67.6 250 67.6 241.9 67.6 250"/>
    <polyline class="cls-1" points="76.2 241.6 76.2 233.7 76.2 241.6"/>
    <polyline class="cls-1" points="67.9 241.6 76.2 241.6 67.9 241.6"/>
    <polyline class="cls-1" points="76.2 233.7 67.9 233.7 76.2 233.7"/>
    <polyline class="cls-1" points="67.6 233.5 67.6 225.7 67.6 233.5"/>
    <polyline class="cls-1" points="76.1 225.4 76.1 223.8 76.1 225.4"/>
    <polyline class="cls-1" points="103.5 299.6 111.9 299.6 103.5 299.6"/>
    <polyline class="cls-1" points="112.2 299.3 112.2 291.3 112.2 299.3"/>
    <polyline class="cls-1" points="103.5 291 103.5 283.1 103.5 291"/>
    <polyline class="cls-1" points="111.9 291 103.5 291 111.9 291"/>
    <polyline class="cls-1" points="103.5 283.1 111.9 283.1 103.5 283.1"/>
    <polyline class="cls-1" points="112.2 282.8 112.2 274.7 112.2 282.8"/>
    <polyline class="cls-1" points="103.5 274.5 103.5 266.6 103.5 274.5"/>
    <polyline class="cls-1" points="111.9 274.5 103.5 274.5 111.9 274.5"/>
    <polyline class="cls-1" points="103.5 266.6 111.9 266.6 103.5 266.6"/>
    <polyline class="cls-1" points="112.2 266.3 112.2 258.5 112.2 266.3"/>
    <path class="cls-1" d="M111.9,241.6c.2,0,.3.1.3.3,0-.2-.1-.3-.3-.3Z"/>
  </g>
</svg>