<?xml version="1.0" encoding="UTF-8"?>
<svg xmlns="http://www.w3.org/2000/svg" viewBox="0 0 439.72 503.52">
  <defs>
    <style>
      .cls-1 {
        fill: none;
        stroke: #000;
        stroke-linecap: round;
        stroke-linejoin: round;
      }
    </style>
  </defs>
  <g id="Default">
    <path class="cls-1" d="M9.61,250.86c0,.16.13.28.28.28"/>
    <line class="cls-1" x1="9.61" y1="241.75" x2="9.61" y2="250.86"/>
  </g>
  <g id="Make2D::Visible::Curves">
    <path class="cls-1" d="M164.71,275.51h0"/>
    <path class="cls-1" d="M123.96,301.42h0"/>
    <path class="cls-1" d="M140.28,301.42s0,0,0,0"/>
    <path class="cls-1" d="M173.04,301.42h0"/>
    <path class="cls-1" d="M339.03,8.99s0,0,0,0"/>
    <path class="cls-1" d="M240.47,34.9s0,0,0,0"/>
    <path class="cls-1" d="M265.03,34.9h0"/>
    <path class="cls-1" d="M109.58,8.99s0,0,0,0"/>
    <path class="cls-1" d="M125.95,8.99s0,0,0,0"/>
    <path class="cls-1" d="M158.63,8.99h0"/>
    <path class="cls-1" d="M232.15,8.99h0"/>
    <path class="cls-1" d="M248.63,8.99h0"/>
    <path class="cls-1" d="M265.03,8.99s0,0,0,0"/>
    <path class="cls-1" d="M289.8,8.99s0,0,0,0"/>
    <path class="cls-1" d="M314.27,8.99h0"/>
    <path class="cls-1" d="M347.07,8.99h0"/>
    <path class="cls-1" d="M109.58,34.9s0,0,0,0"/>
    <path class="cls-1" d="M117.62,34.9s0,0,0,0"/>
    <path class="cls-1" d="M191.35,34.9s0,0,0,0"/>
    <path class="cls-1" d="M207.79,34.9h0"/>
    <path class="cls-1" d="M273.36,34.9s0,0,0,0"/>
    <path class="cls-1" d="M322.6,34.9s0,0,0,0"/>
    <path class="cls-1" d="M339.03,34.9h0"/>
    <path class="cls-1" d="M355.4,34.9h0"/>
    <path class="cls-1" d="M90.85,275.79s0-.07.02-.11c-.01.04-.02.07-.02.11Z"/>
    <path class="cls-1" d="M265,.65s.03.08.03.13c0-.05,0-.09-.03-.13Z"/>
    <path class="cls-1" d="M150.3.77s0,0,0,.01c0,0,0,0,0-.01Z"/>
    <path class="cls-1" d="M99.24,267.17s.03.08.03.13c0-.05,0-.09-.03-.13Z"/>
    <path class="cls-1" d="M148.29,267.17s.03.08.03.13c0-.05,0-.09-.03-.13Z"/>
    <path class="cls-1" d="M164.68,267.17s.03.08.03.13c0-.05,0-.09-.03-.13Z"/>
    <path class="cls-1" d="M131.8,309.88h0s0,0,0,0Z"/>
    <path class="cls-1" d="M115.6,267.17s.03.08.03.13c0-.05,0-.09-.03-.13Z"/>
    <path class="cls-1" d="M181.01,267.17s.03.08.03.13c0-.05,0-.09-.03-.13Z"/>
    <path class="cls-1" d="M197.45,267.17s.03.08.03.13c0-.05,0-.09-.03-.13Z"/>
    <path class="cls-1" d="M230.13,267.17s.03.08.03.13c0-.05,0-.09-.03-.13Z"/>
    <path class="cls-1" d="M246.62,267.17s.03.08.03.13c0-.05,0-.09-.03-.13Z"/>
    <path class="cls-1" d="M131.67,267.02c.11,0,.2.06.25.15-.05-.09-.15-.15-.25-.15Z"/>
    <path class="cls-1" d="M90.96,309.84s.03.03.05.04c.04.02.09.04.14.04-.05,0-.1-.01-.14-.04-.02-.01-.03-.02-.05-.04Z"/>
    <path class="cls-1" d="M197.2,267.02h0,0Z"/>
    <path class="cls-1" d="M403.32,162.48c0-.05.01-.1.04-.14-.03.04-.04.09-.04.14Z"/>
    <path class="cls-1" d="M394.62,166.6c0-.16.13-.28.28-.28-.16,0-.28.13-.28.28Z"/>
    <path class="cls-1" d="M394.62,174.74s0-.05,0-.07c0,.02,0,.05,0,.07Z"/>
    <path class="cls-1" d="M439.18,166.6c0-.16-.13-.28-.28-.28.16,0,.28.13.28.28Z"/>
    <path class="cls-1" d="M439.17,174.74s0-.05,0-.07c0,.02,0,.05,0,.07Z"/>
    <path class="cls-1" d="M430.47,162.8s.04-.09.04-.14c0,.05-.01.09-.04.14Z"/>
    <path class="cls-1" d="M394.65,158.13c0,.16.13.28.28.28-.16,0-.28-.13-.28-.28Z"/>
    <path class="cls-1" d="M394.94,149.78c-.16,0-.28.13-.28.28,0-.16.13-.28.28-.28Z"/>
    <path class="cls-1" d="M394.65,141.61c0,.16.13.28.28.28-.16,0-.28-.13-.28-.28Z"/>
    <path class="cls-1" d="M394.94,133.26c-.16,0-.28.13-.28.28,0-.16.13-.28.28-.28Z"/>
    <path class="cls-1" d="M439.22,158.13c0,.16-.13.28-.28.28.16,0,.28-.13.28-.28Z"/>
    <path class="cls-1" d="M438.93,149.78c.16,0,.28.13.28.28,0-.16-.13-.28-.28-.28Z"/>
    <path class="cls-1" d="M439.22,141.61c0,.16-.13.28-.28.28.16,0,.28-.13.28-.28Z"/>
    <path class="cls-1" d="M438.93,133.26c.16,0,.28.13.28.28,0-.16-.13-.28-.28-.28Z"/>
    <path class="cls-1" d="M344.97,266.89s0,0,0,0c0,0,0,0,0,0Z"/>
    <path class="cls-1" d="M345,267s0,.01,0,.02c0,0,0-.01,0-.02Z"/>
    <path class="cls-1" d="M377.03,266.74h0,0Z"/>
    <path class="cls-1" d="M328.35,266.74h0,0Z"/>
    <path class="cls-1" d="M361.19,266.74h0,0Z"/>
    <path class="cls-1" d="M264.75.5h0,0Z"/>
    <path class="cls-1" d="M117.59.65s.03.08.03.13c0-.05,0-.09-.03-.13Z"/>
    <path class="cls-1" d="M330.64.6c.05.06.07.11.07.18,0-.07-.02-.13-.07-.18Z"/>
    <path class="cls-1" d="M363.51.65s.03.08.03.13c0-.05,0-.09-.03-.13Z"/>
    <path class="cls-1" d="M150.27.65s.01.03.02.04c0-.01-.01-.03-.02-.04Z"/>
    <path class="cls-1" d="M166.65.63s.05.1.05.16c0-.06-.01-.11-.05-.16Z"/>
    <path class="cls-1" d="M346.92,43.37h0s0,0,0,0Z"/>
    <path class="cls-1" d="M133.94.78h0s0,0,0,0Z"/>
    <path class="cls-1" d="M182.99.65s.03.08.03.13c0-.05,0-.09-.03-.13Z"/>
    <path class="cls-1" d="M199.43.65s.03.08.03.13c0-.05,0-.09-.03-.13Z"/>
    <path class="cls-1" d="M232.12.65s.03.08.03.13c0-.05,0-.09-.03-.13Z"/>
    <path class="cls-1" d="M248.6.65s.03.08.03.13c0-.05,0-.09-.03-.13Z"/>
    <path class="cls-1" d="M281.44.65s.03.08.03.13c0-.05,0-.09-.03-.13Z"/>
    <path class="cls-1" d="M297.88.65s.03.08.03.13c0-.05,0-.09-.03-.13Z"/>
    <path class="cls-1" d="M306.24.78h0s0,0,0,0Z"/>
    <path class="cls-1" d="M314.24.65s.03.08.03.13c0-.05,0-.09-.03-.13Z"/>
    <path class="cls-1" d="M363.54,34.9v8.21-8.21Z"/>
    <path class="cls-1" d="M363.26.5h0,0Z"/>
    <path class="cls-1" d="M150.02.5h0,0Z"/>
    <path class="cls-1" d="M346.79.5s.01,0,.02,0c0,0-.01,0-.02,0Z"/>
    <path class="cls-1" d="M224.18,43.11s0,.01,0,.02c0,0,0-.01,0-.02Z"/>
    <path class="cls-1" d="M133.66.5c.11,0,.2.06.25.15-.05-.09-.15-.15-.25-.15Z"/>
    <path class="cls-1" d="M182.74.5h0,0Z"/>
    <path class="cls-1" d="M215.57.5c.11,0,.2.06.25.15-.05-.09-.15-.15-.25-.15Z"/>
    <path class="cls-1" d="M231.86.5h0,0Z"/>
    <path class="cls-1" d="M313.99.5h0,0Z"/>
    <path class="cls-1" d="M370.63,84.41h7.82"/>
    <path class="cls-1" d="M378.45,84.41h-7.82"/>
    <path class="cls-1" d="M222.2,301.42h0"/>
    <polyline class="cls-1" points="305.07 83.23 305.07 75.21 305.07 83.23"/>
    <polyline class="cls-1" points="313.01 75.21 321.52 75.21 313.01 75.21"/>
    <polyline class="cls-1" points="296.6 83.23 288.67 83.23 296.6 83.23"/>
    <polyline class="cls-1" points="296.6 75.21 296.6 83.23 296.6 75.21"/>
    <polyline class="cls-1" points="288.67 83.23 288.67 75.21 288.67 83.23"/>
    <polyline class="cls-1" points="296.6 75.21 305.07 75.21 296.6 75.21"/>
    <polyline class="cls-1" points="345.86 83.23 337.92 83.23 345.86 83.23"/>
    <polyline class="cls-1" points="345.86 75.21 345.86 83.23 345.86 75.21"/>
    <polyline class="cls-1" points="337.92 83.23 337.92 75.21 337.92 83.23"/>
    <polyline class="cls-1" points="345.86 75.21 354.27 75.21 345.86 75.21"/>
    <polyline class="cls-1" points="329.45 83.23 321.52 83.23 329.45 83.23"/>
    <polyline class="cls-1" points="329.45 75.21 329.45 83.23 329.45 75.21"/>
    <polyline class="cls-1" points="321.52 83.23 321.52 75.21 321.52 83.23"/>
    <polyline class="cls-1" points="329.45 75.21 337.92 75.21 329.45 75.21"/>
    <polyline class="cls-1" points="362.2 83.23 354.27 83.23 362.2 83.23"/>
    <polyline class="cls-1" points="362.2 75.21 362.2 83.23 362.2 75.21"/>
    <polyline class="cls-1" points="354.27 83.23 354.27 75.21 354.27 83.23"/>
    <polyline class="cls-1" points="362.2 75.21 370.67 75.21 362.2 75.21"/>
    <polyline class="cls-1" points="378.59 92.94 378.59 100.68 378.59 92.94"/>
    <polyline class="cls-1" points="378.59 109.13 378.59 117.06 378.59 109.13"/>
    <polyline class="cls-1" points="378.59 125.51 378.59 133.52 378.59 125.51"/>
    <polyline class="cls-1" points="370.02 133.52 378.59 133.52 370.02 133.52"/>
    <polyline class="cls-1" points="370.02 141.98 370.02 133.52 370.02 141.98"/>
    <polyline class="cls-1" points="378.59 141.98 370.02 141.98 378.59 141.98"/>
    <polyline class="cls-1" points="378.59 141.98 378.59 149.96 378.59 141.98"/>
    <polyline class="cls-1" points="370.02 149.96 378.59 149.96 370.02 149.96"/>
    <polyline class="cls-1" points="370.02 158.41 370.02 149.96 370.02 158.41"/>
    <polyline class="cls-1" points="378.59 158.41 370.02 158.41 378.59 158.41"/>
    <polyline class="cls-1" points="83.39 149.76 92.12 149.76 83.39 149.76"/>
    <polyline class="cls-1" points="92.12 158.21 83.39 158.21 92.12 158.21"/>
    <polyline class="cls-1" points="92.12 149.76 92.12 158.21 92.12 149.76"/>
    <polyline class="cls-1" points="83.39 149.76 83.39 141.82 83.39 149.76"/>
    <polyline class="cls-1" points="83.39 133.37 92.12 133.37 83.39 133.37"/>
    <polyline class="cls-1" points="92.12 141.82 83.39 141.82 92.12 141.82"/>
    <polyline class="cls-1" points="92.12 133.37 92.12 141.82 92.12 133.37"/>
    <polyline class="cls-1" points="83.39 133.37 83.39 126.06 83.39 133.37"/>
    <polyline class="cls-1" points="92.12 92.55 83.39 92.55 92.12 92.55"/>
    <polyline class="cls-1" points="370.63 75.83 370.67 75.83 370.63 75.83"/>
    <polyline class="cls-1" points="370.67 75.83 370.67 75.21 370.67 75.83"/>
    <polyline class="cls-1" points="92.12 84.47 92.16 84.47 92.12 84.47"/>
    <polyline class="cls-1" points="92.16 84.47 92.16 83.23 92.16 84.47"/>
    <polyline class="cls-1" points="92.12 84.47 92.12 92.55 92.12 84.47"/>
    <polyline class="cls-1" points="92.16 240.35 92.16 242.15 92.16 240.35"/>
    <polyline class="cls-1" points="92.12 240.35 92.16 240.35 92.12 240.35"/>
    <polyline class="cls-1" points="92.12 240.35 92.12 232.83 92.12 240.35"/>
    <polyline class="cls-1" points="151.26 99.16 346.29 99.16 151.26 99.16"/>
    <polyline class="cls-1" points="151.26 227.15 346.29 227.15 151.26 227.15"/>
    <polyline class="cls-1" points="378.54 117.06 378.59 117.06 378.54 117.06"/>
    <polyline class="cls-1" points="370.63 84.41 370.63 75.83 370.63 84.41"/>
    <path class="cls-1" d="M370.22,241.19v8.9-8.14"/>
    <polyline class="cls-1" points="95.15 118.26 95.15 126.06 95.15 118.26"/>
    <polyline class="cls-1" points="94.66 118.26 95.15 118.26 94.66 118.26"/>
    <polyline class="cls-1" points="95.14 109.4 94.66 109.4 95.14 109.4"/>
    <polyline class="cls-1" points="95.14 101.68 95.14 109.4 95.14 101.68"/>
    <polyline class="cls-1" points="94.66 101.68 95.14 101.68 94.66 101.68"/>
    <polyline class="cls-1" points="83.39 167.17 83.39 158.21 83.39 167.17"/>
    <polyline class="cls-1" points="378.59 158.41 378.59 166.97 378.59 158.41"/>
    <polyline class="cls-1" points="151.26 99.16 151.26 227.15 151.26 99.16"/>
    <polyline class="cls-1" points="346.29 227.15 346.29 99.16 346.29 227.15"/>
    <polyline class="cls-1" points="95.15 126.06 83.39 126.06 95.15 126.06"/>
    <polyline class="cls-1" points="82.99 109.4 82.99 118.26 82.99 109.4"/>
    <polyline class="cls-1" points="247.89 250.36 321.63 250.36 247.89 250.36"/>
    <polyline class="cls-1" points="378.54 100.1 378.45 100.1 378.54 100.1"/>
    <polyline class="cls-1" points="82.99 99.92 82.99 101.68 82.99 99.92"/>
    <polyline class="cls-1" points="94.66 118.26 82.99 118.26 94.66 118.26"/>
    <polyline class="cls-1" points="94.66 101.68 82.99 101.68 94.66 101.68"/>
    <polyline class="cls-1" points="82.99 109.4 94.66 109.4 82.99 109.4"/>
    <polyline class="cls-1" points="378.45 100.1 378.45 84.41 378.45 100.1"/>
    <polyline class="cls-1" points="369.8 309.35 369.8 309.35 369.8 309.35"/>
    <polyline class="cls-1" points="328.63 301.14 328.63 309.35 328.63 301.14"/>
    <polyline class="cls-1" points="320.66 309.59 320.66 266.79 320.66 309.59"/>
    <polyline class="cls-1" points="377.35 280.04 377.35 295.28 377.35 280.04"/>
    <polyline class="cls-1" points="320.66 266.79 320.66 266.78 320.66 266.79"/>
    <polyline class="cls-1" points="377.31 280.04 377.35 280.04 377.31 280.04"/>
    <polyline class="cls-1" points="377.35 295.28 377.31 295.28 377.35 295.28"/>
    <polyline class="cls-1" points="438.93 133.26 430.51 133.26 438.93 133.26"/>
    <polyline class="cls-1" points="430.51 133.26 430.51 125.71 430.51 133.26"/>
    <polyline class="cls-1" points="439.22 141.61 439.22 133.54 439.22 141.61"/>
    <polyline class="cls-1" points="430.51 141.89 438.93 141.89 430.51 141.89"/>
    <polyline class="cls-1" points="438.93 149.78 430.51 149.78 438.93 149.78"/>
    <polyline class="cls-1" points="430.51 149.78 430.51 141.89 430.51 149.78"/>
    <polyline class="cls-1" points="439.22 158.13 439.22 150.06 439.22 158.13"/>
    <polyline class="cls-1" points="430.51 158.41 438.93 158.41 430.51 158.41"/>
    <polyline class="cls-1" points="394.94 133.26 403.36 133.26 394.94 133.26"/>
    <polyline class="cls-1" points="403.36 133.26 403.36 125.71 403.36 133.26"/>
    <polyline class="cls-1" points="394.65 141.61 394.65 133.54 394.65 141.61"/>
    <polyline class="cls-1" points="403.36 141.89 394.94 141.89 403.36 141.89"/>
    <polyline class="cls-1" points="394.94 149.78 403.36 149.78 394.94 149.78"/>
    <polyline class="cls-1" points="403.36 149.78 403.36 141.89 403.36 149.78"/>
    <polyline class="cls-1" points="394.65 158.13 394.65 150.06 394.65 158.13"/>
    <polyline class="cls-1" points="403.36 158.41 394.94 158.41 403.36 158.41"/>
    <polyline class="cls-1" points="439.18 166.6 439.18 174.67 439.18 166.6"/>
    <polyline class="cls-1" points="430.47 166.32 438.9 166.32 430.47 166.32"/>
    <polyline class="cls-1" points="430.47 162.8 430.47 166.32 430.47 162.8"/>
    <polyline class="cls-1" points="394.62 166.6 394.62 174.67 394.62 166.6"/>
    <polyline class="cls-1" points="403.32 166.32 394.9 166.32 403.32 166.32"/>
    <polyline class="cls-1" points="403.32 162.48 403.32 166.32 403.32 162.48"/>
    <polyline class="cls-1" points="403.36 162.34 403.36 158.41 403.36 162.34"/>
    <polyline class="cls-1" points="439.17 174.74 394.62 174.74 439.17 174.74"/>
    <polyline class="cls-1" points="403.36 125.71 430.51 125.71 403.36 125.71"/>
    <polyline class="cls-1" points="430.51 158.41 430.51 162.66 430.51 158.41"/>
    <polyline class="cls-1" points="361.47 275.23 361.47 267.02 361.47 275.23"/>
    <polyline class="cls-1" points="361.47 309.35 361.47 309.35 361.47 309.35"/>
    <polyline class="cls-1" points="345 309.35 345 309.35 345 309.35"/>
    <path class="cls-1" d="M320.66,309.59s.1.05.15.05h7.54s.06,0,.09-.01c.03-.01.06-.03.09-.05,0,0,.02-.01.02-.02.02-.02.04-.05.05-.08.01-.02.02-.05.02-.08,0-.01,0-.02,0-.03v-8.21c2.78,0,5.55,0,8.33,0,0,2.74,0,5.47,0,8.21,0,.01,0,.02,0,.03,0,.03.01.05.02.08.01.03.03.06.05.08,0,0,.02.02.02.02.03.02.06.04.09.05.03,0,.06.01.09.01h7.47s.07,0,.11-.02c.03-.01.07-.04.09-.06s.05-.06.06-.09c.01-.03.02-.07.02-.1,0-2.74,0-5.47,0-8.21,2.78,0,5.55,0,8.33,0,0,2.74,0,5.47,0,8.21,0,.01,0,.02,0,.03,0,.03.01.05.02.08.01.03.03.06.05.08,0,0,.02.02.02.02.03.02.06.04.09.05.03,0,.06.01.09.01h7.58s.06,0,.09-.01c.03-.01.06-.03.09-.05,0,0,.02-.01.02-.02.02-.02.04-.05.05-.08.01-.02.02-.05.02-.08,0-.01,0-.02,0-.03,0-2.74,0-5.47,0-8.21h8.33v8.21s0,.02,0,.03c0,.03.01.05.02.08.01.03.03.06.05.08,0,0,.02.02.02.02.03.02.06.04.09.05.03,0,.06.01.09.01h6.95s.07,0,.11-.02c.03-.01.07-.04.09-.06s.05-.06.06-.09c.01-.03.02-.07.02-.1v-14.07"/>
    <polyline class="cls-1" points="164.71 301.42 164.71 309.63 164.71 301.42"/>
    <polyline class="cls-1" points="131.96 301.42 131.96 309.63 131.96 301.42"/>
    <polyline class="cls-1" points="140.28 309.63 140.28 309.63 140.28 309.63"/>
    <polyline class="cls-1" points="230.16 275.51 230.16 267.3 230.16 275.51"/>
    <polyline class="cls-1" points="238.77 267.02 246.37 267.02 238.77 267.02"/>
    <polyline class="cls-1" points="131.96 275.51 131.96 267.3 131.96 275.51"/>
    <polyline class="cls-1" points="140.28 275.51 131.96 275.51 140.28 275.51"/>
    <polyline class="cls-1" points="82.43 283.92 90.85 283.92 82.43 283.92"/>
    <polyline class="cls-1" points="82.15 267.23 82.15 274.68 82.15 267.23 99.18 267.1"/>
    <polyline class="cls-1" points="82.13 302.39 82.13 309.84 82.13 302.39"/>
    <polyline class="cls-1" points="90.87 302.39 82.13 302.39 90.87 302.39"/>
    <polyline class="cls-1" points="213.87 301.42 213.87 309.63 213.87 301.42"/>
    <polyline class="cls-1" points="124.25 309.91 124.25 309.91 124.25 309.91"/>
    <polyline class="cls-1" points="99.27 309.63 99.27 309.63 99.27 309.63"/>
    <polyline class="cls-1" points="82.13 309.84 90.96 309.84 82.13 309.84"/>
    <polyline class="cls-1" points="82.15 274.68 90.87 274.68 82.15 274.68"/>
    <polyline class="cls-1" points="213.87 275.51 213.87 267.3 213.87 275.51"/>
    <polyline class="cls-1" points="232.15 8.99 232.15 .78 232.15 8.99"/>
    <path class="cls-1" d="M102.12,34.9h7.46v8.21s0,.03,0,.04c0,.03.01.05.02.07.01.03.03.06.05.08,0,0,.02.02.03.02.03.02.06.04.09.05.03,0,.06.01.09.01h7.48s.07,0,.1-.02c.04-.01.07-.04.1-.06s.05-.06.06-.1c.01-.03.02-.07.02-.1v-8.21c2.78,0,5.55,0,8.33,0,0,2.74,0,5.47,0,8.21,0,.04,0,.07.02.1.01.03.03.07.06.09s.06.05.09.06c.03.01.07.02.11.02h7.43s.07,0,.11-.02c.03-.01.07-.04.09-.06s.05-.06.06-.09c.01-.03.02-.07.02-.1v-8.21c2.78,0,5.55,0,8.33,0,0,2.74,0,5.47,0,8.21,0,.04,0,.07.02.1.01.04.04.07.06.1.03.03.06.05.1.06.03.01.07.02.1.02h7.47s.06,0,.09-.01c.03-.01.06-.03.09-.05,0,0,.02-.02.03-.02.02-.02.04-.05.05-.08.01-.02.02-.05.02-.07,0-.01,0-.03,0-.04,0-2.74,0-5.47,0-8.21,2.78,0,5.55,0,8.33,0,0,2.74,0,5.47,0,8.21,0,.01,0,.02,0,.03,0,.03.01.05.02.08.01.03.03.06.05.08,0,0,.02.02.02.02.03.02.06.04.09.05.03,0,.06.01.09.01h7.5s.02,0,.03,0c.03,0,.05-.01.08-.02.03-.01.05-.03.08-.05.01,0,.02-.02.03-.03.02-.03.04-.06.05-.09,0-.03.01-.06.01-.09v-8.21h8.33v8.21s0,.06.01.09c.01.03.03.06.05.09,0,0,.01.02.02.02.02.02.05.04.08.05.02.01.05.02.08.02.01,0,.02,0,.03,0h7.44s.02,0,.03,0c.03,0,.05-.01.08-.02.03-.01.06-.03.08-.05,0,0,.02-.02.02-.02.02-.03.04-.06.05-.09,0-.03.01-.06.01-.09v-8.21h8.33v8.21s0,.02,0,.03c0,.03.01.05.02.08.01.03.03.06.05.08,0,0,.02.02.02.02.03.02.06.04.09.05.03,0,.06.01.09.01h7.55s.07,0,.1-.02c.04-.01.07-.04.1-.06s.05-.06.06-.1c.01-.03.02-.07.02-.1,0-2.74,0-5.47,0-8.21,2.78,0,5.55,0,8.33,0v8.21s0,.02,0,.03c0,.03.01.05.02.08.01.03.03.06.05.08,0,0,.02.02.02.02.03.02.06.04.09.05.03,0,.06.01.09.01h7.5s.07,0,.1-.02c.04-.01.07-.04.1-.06s.05-.06.06-.1c.01-.03.02-.07.02-.1,0-2.74,0-5.47,0-8.21,2.78,0,5.55,0,8.33,0,0,2.74,0,5.47,0,8.21,0,.04,0,.07.02.1.01.04.04.07.06.1s.06.05.1.06c.03.01.07.02.1.02h7.4s.07,0,.1-.02c.04-.01.07-.04.1-.06s.05-.06.06-.1c.01-.03.02-.07.02-.1v-8.21h8.33v8.21s0,.02,0,.03c0,.03.01.05.02.08.01.03.03.06.05.08,0,0,.02.02.02.02.03.02.06.04.09.05.03,0,.06.01.09.01h7.59s.06,0,.09-.01c.03-.01.06-.03.09-.05,0,0,.02-.01.02-.02.02-.02.04-.05.05-.08.01-.02.02-.05.02-.08,0-.01,0-.02,0-.03,0-2.74,0-5.47,0-8.21,2.78,0,5.55,0,8.33,0,0,2.74,0,5.47,0,8.21,0,.01,0,.02,0,.03,0,.03.01.05.02.08.01.03.03.06.05.08,0,0,.02.02.02.02.03.02.06.04.09.05.03,0,.06.01.09.01h7.51s.07,0,.1-.02c.04-.01.07-.04.1-.06s.05-.06.06-.1c.01-.03.02-.07.02-.1v-8.21h8.33v8.21s0,.02,0,.03c0,.03.01.05.02.08.01.03.03.06.05.08,0,0,.02.02.02.02.03.02.06.04.09.05.03,0,.06.01.09.01h7.55s.07,0,.1-.02c.04-.01.07-.04.1-.06s.05-.06.06-.1c.01-.03.02-.07.02-.1,0-2.74,0-5.47,0-8.21,2.78,0,5.55,0,8.33,0,0,2.74,0,5.47,0,8.21,0,.01,0,.02,0,.03,0,.03.01.05.02.08.01.03.03.06.05.08,0,0,.02.02.02.02.03.02.06.04.09.05.03,0,.06.01.09.01h7.55s.07,0,.11-.02c.03-.01.07-.04.09-.06s.05-.06.06-.09c.01-.03.02-.07.02-.1,0-2.74,0-5.47,0-8.21,2.78,0,5.55,0,8.33,0,0,2.74,0,5.47,0,8.21,0,.04,0,.07.02.1.01.03.03.07.06.09s.06.05.09.06c.03.01.07.02.11.02h7.46s.06,0,.09-.01c.03-.01.06-.03.09-.05,0,0,.02-.01.02-.02.02-.02.04-.05.05-.08.01-.02.02-.05.02-.08,0-.01,0-.02,0-.03v-8.21h8.33v8.21s0,.02,0,.03c0,.03.01.05.02.08.01.03.03.06.05.08,0,0,.02.02.02.02.03.02.06.04.09.05.03,0,.06.01.09.01h7.54s.06,0,.09-.01c.03-.01.06-.03.09-.05,0,0,.02-.01.02-.02.02-.02.04-.05.05-.08.01-.02.02-.05.02-.08,0-.01,0-.02,0-.03,0-2.74,0-5.47,0-8.21,2.78,0,5.55,0,8.33,0v8.21s0,.02,0,.03c0,.03.01.05.02.08.01.03.03.06.05.08,0,0,.02.02.02.02.03.02.06.04.09.05.03,0,.06.01.09.01h7.47s.07,0,.11-.02c.03-.01.07-.04.09-.06s.05-.06.06-.09c.01-.03.02-.07.02-.1,0-2.74,0-5.47,0-8.21,2.78,0,5.55,0,8.33,0v8.21s0,.02,0,.03c0,.03.01.05.02.08.01.03.03.06.05.08,0,0,.02.02.02.02.03.02.06.04.09.05.03,0,.06.01.09.01h7.58s.06,0,.09-.01c.03-.01.06-.03.09-.05,0,0,.02-.01.02-.02.02-.02.04-.05.05-.08.01-.02.02-.05.02-.08,0-.01,0-.02,0-.03v-8.21"/>
    <polyline class="cls-1" points="101.25 42.8 102.12 42.8 101.25 42.8"/>
    <polyline class="cls-1" points="378.54 125.42 378.54 100.1 378.54 125.42"/>
    <polyline class="cls-1" points="181.04 275.51 181.04 267.3 181.04 275.51"/>
    <polyline class="cls-1" points="148.32 275.51 148.32 267.3 148.32 275.51"/>
    <polyline class="cls-1" points="124.25 267.02 131.67 267.02 124.25 267.02"/>
    <polyline class="cls-1" points="99.27 275.51 99.27 267.3 99.27 275.51"/>
    <path class="cls-1" d="M90.87,274.68v1s-.02.07-.02.11v8.13c-2.81,0-5.62,0-8.42,0-.03,0-.06,0-.09.01-.03.01-.06.03-.09.05,0,0-.02.01-.02.02-.02.02-.04.05-.05.08-.01.02-.02.05-.02.08,0,.01,0,.02,0,.03v7.91s0,.06.01.09c.01.03.03.06.05.09,0,0,.02.02.02.03.02.02.05.04.08.05.02.01.05.02.07.02.01,0,.03,0,.04,0h8.42v8.74s0,.07.02.11v1.15"/>
    <path class="cls-1" d="M370.1,174.5h8.35"/>
    <path class="cls-1" d="M321.63,242.08v8.29"/>
    <path class="cls-1" d="M321.63,250.36v-8.29"/>
    <path class="cls-1" d="M222.2,275.51s0,0,0,0"/>
    <path class="cls-1" d="M320.66,266.79s.03-.02.04-.02c.04-.02.07-.02.11-.02h7.54s.07,0,.1.02c.04.01.07.04.1.06s.05.06.06.1c.01.03.02.07.02.1,0,2.74,0,5.47,0,8.21,2.78,0,5.55,0,8.33,0v-8.21s0-.06.01-.09c.01-.03.03-.06.05-.09,0,0,.01-.02.02-.02.02-.02.05-.04.08-.05.02-.01.05-.02.08-.02.01,0,.02,0,.03,0h7.47s.07,0,.1.02c.04.01.07.04.1.06s.05.06.06.1c.01.03.02.07.02.1v8.21h8.33v-8.21s0-.02,0-.03c0-.03.01-.05.02-.08.01-.03.03-.06.05-.08,0,0,.02-.02.02-.02.03-.02.06-.04.09-.05.03,0,.06-.01.09-.01h7.58s.02,0,.03,0c.03,0,.05.01.08.02.03.01.05.03.08.05.01,0,.02.02.03.03.02.03.04.06.05.09,0,.03.01.06.01.09v8.21c2.78,0,5.55,0,8.33,0,0-2.74,0-5.47,0-8.21,0-.03,0-.06.01-.09.01-.03.03-.06.05-.09,0,0,.01-.02.02-.02.02-.02.05-.04.08-.05.02-.01.05-.02.08-.02.01,0,.02,0,.03,0h6.95s.03,0,.04,0c.03,0,.05.01.07.02.03.01.06.03.08.05,0,0,.02.02.02.03.02.03.04.06.05.09,0,.03.01.06.01.09v13.02"/>
    <path class="cls-1" d="M102.12,8.99h7.46V.78s0-.06.01-.09c.01-.03.03-.06.05-.09,0,0,.02-.02.02-.03.02-.02.05-.04.08-.05.02-.01.05-.02.07-.02.01,0,.03,0,.04,0h7.48s.02,0,.03,0c.03,0,.05.01.08.02.03.01.06.03.08.05,0,0,.02.02.02.02.02.03.04.06.05.09,0,.03.01.06.01.09,0,2.74,0,5.47,0,8.21,2.78,0,5.55,0,8.33,0V.78s0-.06.01-.09c.01-.03.03-.06.05-.09,0,0,.01-.02.02-.02.02-.02.05-.04.08-.05.02-.01.05-.02.08-.02.01,0,.02,0,.03,0h7.43s.02,0,.03,0c.03,0,.05.01.08.02.03.01.06.03.08.05,0,0,.02.02.02.02.02.03.04.06.05.09,0,.03.01.06.01.09,0,2.74,0,5.47,0,8.21,2.78,0,5.55,0,8.33,0V.78s0-.06.01-.09c.01-.03.03-.06.05-.09,0,0,.01-.02.02-.02.02-.02.05-.04.08-.05.02-.01.05-.02.08-.02.01,0,.02,0,.03,0h7.47s.07,0,.1.02c.03.01.07.03.09.06.03.03.05.06.06.09.01.03.02.07.02.11,0,2.74,0,5.47,0,8.21,2.78,0,5.55,0,8.33,0V.78s0-.02,0-.03c0-.03.01-.05.02-.08.01-.03.03-.05.05-.07,0-.01.02-.02.03-.03.03-.02.06-.04.09-.05.03,0,.06-.01.09-.01h7.5s.07,0,.1.02c.04.01.07.04.1.06s.05.06.06.1c.01.03.02.07.02.1v8.21h8.33V.78s0-.06.01-.09c.01-.03.03-.06.05-.09,0,0,.01-.02.02-.02.02-.02.05-.04.08-.05.02-.01.05-.02.08-.02.01,0,.02,0,.03,0h7.44s.02,0,.03,0c.03,0,.05.01.08.02.03.01.06.03.08.05,0,0,.02.02.02.02.02.03.04.06.05.09,0,.03.01.06.01.09v8.21c2.78,0,5.55,0,8.33,0,0-2.74,0-5.47,0-8.21,0-.03,0-.06.01-.09.01-.03.03-.06.05-.09,0,0,.01-.02.02-.02.02-.02.05-.04.08-.05.02-.01.05-.02.08-.02.01,0,.02,0,.03,0h7.55s.02,0,.03,0c.03,0,.05.01.08.02.03.01.06.03.08.05,0,0,.02.02.02.02.02.03.04.06.05.09,0,.03.01.06.01.09v8.21c2.78,0,5.55,0,8.33,0V.78s0-.06.01-.09c.01-.03.03-.06.05-.09,0,0,.01-.02.02-.02.02-.02.05-.04.08-.05.02-.01.05-.02.08-.02.01,0,.02,0,.03,0h7.5s.02,0,.03,0c.03,0,.05.01.08.02.03.01.06.03.08.05,0,0,.02.02.02.02.02.03.04.06.05.09,0,.03.01.06.01.09,0,2.74,0,5.47,0,8.21,2.78,0,5.55,0,8.33,0V.78s0-.06.01-.09c.01-.03.03-.06.05-.09,0,0,.02-.02.02-.03.02-.02.05-.04.08-.05.02-.01.05-.02.07-.02.01,0,.03,0,.04,0h7.4s.03,0,.04,0c.03,0,.05.01.07.02.03.01.06.03.08.05,0,0,.02.02.02.03.02.03.04.06.05.09,0,.03.01.06.01.09v8.21h8.33V.78s0-.06.01-.09c.01-.03.03-.06.05-.09,0,0,.01-.02.02-.02.02-.02.05-.04.08-.05.02-.01.05-.02.08-.02.01,0,.02,0,.03,0h7.59s.02,0,.03,0c.03,0,.05.01.08.02.03.01.06.03.08.05,0,0,.02.02.02.02.02.03.04.06.05.09,0,.03.01.06.01.09v8.21h8.33V.78s0-.06.01-.09c.01-.03.03-.06.05-.09,0-.01.02-.02.03-.03.02-.02.05-.04.07-.05.03-.01.05-.02.08-.02.01,0,.02,0,.03,0h7.51s.02,0,.03,0c.03,0,.05.01.08.02.03.01.06.03.08.05,0,0,.02.02.02.02.02.03.04.06.05.09,0,.03.01.06.01.09v8.21h8.33V.78s0-.06.01-.09c.01-.03.03-.06.05-.09,0-.01.02-.02.03-.03.02-.02.05-.04.08-.05.03-.01.05-.02.08-.02.01,0,.02,0,.03,0h7.55s.02,0,.03,0c.03,0,.05.01.08.02.03.01.06.03.08.05,0,0,.02.02.02.02.02.03.04.06.05.09,0,.03.01.06.01.09,0,2.74,0,5.47,0,8.21,2.78,0,5.55,0,8.33,0V.78s0-.06.01-.09c.01-.03.03-.06.05-.09,0,0,.01-.02.02-.02.02-.02.05-.04.08-.05.02-.01.05-.02.08-.02.01,0,.02,0,.03,0h7.55s.02,0,.03,0c.03,0,.05.01.08.02.03.01.06.03.08.05,0,0,.02.02.02.02.02.03.04.06.05.09,0,.03.01.06.01.09,0,2.74,0,5.47,0,8.21,2.78,0,5.55,0,8.33,0,0-2.74,0-5.47,0-8.21,0-.03,0-.06.01-.09.01-.03.03-.06.05-.09,0,0,.02-.02.02-.03.02-.02.05-.04.08-.05.02-.01.05-.02.07-.02.01,0,.03,0,.04,0h7.46s.02,0,.03,0c.03,0,.05.01.08.02.03.01.06.03.08.05,0,0,.02.02.02.02.02.03.04.06.05.09,0,.03.01.06.01.09v8.21h8.33V.78s0-.06.01-.09c.01-.03.03-.06.05-.09,0-.01.02-.02.03-.03.02-.02.05-.04.08-.05.03-.01.05-.02.08-.02.01,0,.02,0,.03,0h7.54s.07,0,.1.02c.04.01.07.04.1.06s.05.06.06.1c.01.03.02.07.02.1,0,2.74,0,5.47,0,8.21,2.78,0,5.55,0,8.33,0V.78s0-.06.01-.09c.01-.03.03-.06.05-.09,0,0,.01-.02.02-.02.02-.02.05-.04.08-.05.02-.01.05-.02.08-.02.01,0,.02,0,.03,0h7.47s.07,0,.1.02c.04.01.07.04.1.06s.05.06.06.1c.01.03.02.07.02.1v8.21c2.78,0,5.55,0,8.33,0V.78s0-.02,0-.03c0-.03.01-.05.02-.08.01-.03.03-.06.05-.08,0,0,.02-.02.02-.02.03-.02.06-.04.09-.05.03,0,.06-.01.09-.01h7.58s.02,0,.03,0c.03,0,.05.01.08.02.03.01.05.03.08.05.01,0,.02.02.03.03.02.03.04.06.05.09,0,.03.01.06.01.09v8.21"/>
    <path class="cls-1" d="M99.26,267.3c0,2.74,0,5.47,0,8.21,2.78,0,5.55,0,8.33,0v-8.21s0-.06.01-.09c.01-.03.03-.06.05-.09,0,0,.02-.02.02-.03.02-.02.05-.04.08-.05.02-.01.05-.02.07-.02.01,0,.03,0,.04,0h7.48s.02,0,.03,0c.03,0,.05.01.08.02.03.01.06.03.08.05,0,0,.02.02.02.02.02.03.04.06.05.09,0,.03.01.06.01.09v8.21c2.78,0,5.55,0,8.33,0v-8.21s0-.06.01-.09c.01-.03.03-.06.05-.09,0,0,.01-.02.02-.02.02-.02.05-.04.08-.05.02-.01.05-.02.08-.02.01,0,.02,0,.03,0h7.43s.02,0,.03,0c.03,0,.05.01.08.02.03.01.06.03.08.05,0,0,.02.02.02.02.02.03.04.06.05.09,0,.03.01.06.01.09,0,2.74,0,5.47,0,8.21,2.78,0,5.55,0,8.33,0v-8.21s0-.06.01-.09c.01-.03.03-.06.05-.09,0,0,.01-.02.02-.02.02-.02.05-.04.08-.05.02-.01.05-.02.08-.02.01,0,.02,0,.03,0h7.47s.07,0,.1.02c.03.01.07.03.09.06s.05.06.06.09c.01.03.02.07.02.11,0,2.74,0,5.47,0,8.21,2.78,0,5.55,0,8.33,0,0-2.74,0-5.47,0-8.21,0-.01,0-.02,0-.03,0-.03.01-.05.02-.08.01-.03.03-.05.05-.07,0-.01.02-.02.03-.03.03-.02.06-.04.09-.05.03,0,.06-.01.09-.01h7.5s.07,0,.1.02c.04.01.07.04.1.06s.05.06.06.1c.01.03.02.07.02.1v8.21c2.78,0,5.55,0,8.33,0v-8.21s0-.06.01-.09c.01-.03.03-.06.05-.09,0,0,.01-.02.02-.02.02-.02.05-.04.08-.05.02-.01.05-.02.08-.02.01,0,.02,0,.03,0h7.44s.02,0,.03,0c.03,0,.05.01.08.02.03.01.06.03.08.05,0,0,.02.02.02.02.02.03.04.06.05.09,0,.03.01.06.01.09,0,2.74,0,5.47,0,8.21,2.78,0,5.55,0,8.33,0,0-2.74,0-5.47,0-8.21,0-.03,0-.06.01-.09.01-.03.03-.06.05-.09,0,0,.01-.02.02-.02.02-.02.05-.04.08-.05.02-.01.05-.02.08-.02.01,0,.02,0,.03,0h7.55s.02,0,.03,0c.03,0,.05.01.08.02.03.01.06.03.08.05,0,0,.02.02.02.02.02.03.04.06.05.09,0,.03.01.06.01.09,0,2.74,0,5.47,0,8.21,2.78,0,5.55,0,8.33,0v-8.21s0-.06.01-.09c.01-.03.03-.06.05-.09,0,0,.01-.02.02-.02.02-.02.05-.04.08-.05.02-.01.05-.02.08-.02.01,0,.02,0,.03,0h7.5s.02,0,.03,0c.03,0,.05.01.08.02.03.01.06.03.08.05,0,0,.02.02.02.02.02.03.04.06.05.09,0,.03.01.06.01.09,0,2.74,0,5.47,0,8.21,2.78,0,5.55,0,8.33,0v-8.21s0-.06.01-.09c.01-.03.03-.06.05-.09,0,0,.02-.02.02-.03.02-.02.05-.04.08-.05.02-.01.05-.02.07-.02.01,0,.03,0,.04,0h7.4s.03,0,.04,0c.03,0,.05.01.07.02.03.01.06.03.08.05,0,0,.02.02.02.03.02.03.04.06.05.09,0,.03.01.06.01.09v8.21c2.78,0,5.55,0,8.33,0,0-2.74,0-5.47,0-8.21,0-.03,0-.06.01-.09.01-.03.03-.06.05-.09,0,0,.01-.02.02-.02.02-.02.05-.04.08-.05.02-.01.05-.02.08-.02.01,0,.02,0,.03,0h7.59s.02,0,.03,0c.03,0,.05.01.08.02.03.01.06.03.08.05,0,0,.02.02.02.02.02.03.04.06.05.09,0,.03.01.06.01.09v42.33s0,.02,0,.03c0,.03-.01.05-.02.08-.01.03-.03.06-.05.08,0,0-.02.02-.02.02-.03.02-.06.04-.09.05-.03,0-.06.01-.09.01h-7.59s-.06,0-.09-.01c-.03-.01-.06-.03-.09-.05,0,0-.02-.01-.02-.02-.02-.02-.04-.05-.05-.08-.01-.02-.02-.05-.02-.08,0-.01,0-.02,0-.03,0-2.74,0-5.47,0-8.21-2.78,0-5.55,0-8.33,0,0,2.74,0,5.47,0,8.21,0,.04,0,.07-.02.1-.01.04-.04.07-.06.1s-.06.05-.1.06c-.03.01-.07.02-.1.02h-7.4s-.07,0-.1-.02c-.04-.01-.07-.04-.1-.06s-.05-.06-.06-.1c-.01-.03-.02-.07-.02-.1v-8.21h-8.33c0,2.74,0,5.47,0,8.21,0,.04,0,.07-.02.1-.01.04-.04.07-.06.1s-.06.05-.1.06c-.03.01-.07.02-.1.02h-7.5s-.06,0-.09-.01c-.03-.01-.06-.03-.09-.05,0,0-.02-.01-.02-.02-.02-.02-.04-.05-.05-.08-.01-.02-.02-.05-.02-.08,0-.01,0-.02,0-.03v-8.21h-8.33c0,2.74,0,5.47,0,8.21,0,.04,0,.07-.02.1-.01.04-.04.07-.06.1s-.06.05-.1.06c-.03.01-.07.02-.1.02h-7.55s-.06,0-.09-.01c-.03-.01-.06-.03-.09-.05,0,0-.02-.01-.02-.02-.02-.02-.04-.05-.05-.08-.01-.02-.02-.05-.02-.08,0-.01,0-.02,0-.03,0-2.74,0-5.47,0-8.21-2.78,0-5.55,0-8.33,0,0,2.74,0,5.47,0,8.21,0,.03,0,.06-.01.09-.01.03-.03.06-.05.09,0,0-.01.02-.02.02-.02.02-.05.04-.08.05-.02.01-.05.02-.08.02-.01,0-.02,0-.03,0h-7.44s-.02,0-.03,0c-.03,0-.05-.01-.08-.02-.03-.01-.06-.03-.08-.05,0,0-.02-.02-.02-.02-.02-.03-.04-.06-.05-.09,0-.03-.01-.06-.01-.09v-8.21h-8.33c0,2.74,0,5.47,0,8.21,0,.03,0,.06-.01.09-.01.03-.03.06-.05.09,0,.01-.02.02-.03.03-.02.02-.05.04-.08.05-.03.01-.05.02-.08.02-.01,0-.02,0-.03,0h-7.5s-.06,0-.09-.01c-.03-.01-.06-.03-.09-.05,0,0-.02-.01-.02-.02-.02-.02-.04-.05-.05-.08-.01-.02-.02-.05-.02-.08,0-.01,0-.02,0-.03,0-2.74,0-5.47,0-8.21-2.78,0-5.55,0-8.33,0v8.21s0,.03,0,.04c0,.03-.01.05-.02.07-.01.03-.03.06-.05.08,0,0-.02.02-.03.02-.03.02-.06.04-.09.05-.03,0-.06.01-.09.01h-7.47s-.07,0-.1-.02c-.04-.01-.07-.04-.1-.06s-.05-.06-.06-.1c-.01-.03-.02-.07-.02-.1v-8.21h-8.33v8.21s0,.07-.02.1c-.01.03-.03.07-.06.09-.03.03-.06.05-.09.06-.03.01-.07.02-.11.02h-7.43s-.07,0-.11-.02c-.03-.01-.07-.04-.09-.06s-.05-.06-.06-.09c-.01-.03-.02-.07-.02-.1v-8.21h-8.33v8.21s0,.07-.02.1c-.01.04-.04.07-.06.1s-.06.05-.1.06c-.03.01-.07.02-.1.02h-7.48s-.06,0-.09-.01c-.03-.01-.06-.03-.09-.05,0,0-.02-.02-.03-.02-.02-.02-.04-.05-.05-.08-.01-.02-.02-.05-.02-.07,0-.01,0-.03,0-.04,0-2.74,0-5.47,0-8.21-2.78,0-5.55,0-8.33,0,0,2.74,0,5.47,0,8.21,0,.04,0,.07-.02.1-.01.04-.04.07-.06.1s-.06.05-.1.06c-.03.01-.07.02-.1.02h-7.83"/>
    <path class="cls-1" d="M370.22,241.19h8.23v-66.7h-8.35"/>
    <polyline class="cls-1" points="347.07 34.9 347.07 43.11 347.07 34.9"/>
    <polyline class="cls-1" points="322.88 43.4 322.88 43.4 322.88 43.4"/>
    <polyline class="cls-1" points="297.91 34.9 297.91 43.11 297.91 34.9"/>
    <polyline class="cls-1" points="290.08 43.4 290.08 43.4 290.08 43.4"/>
    <polyline class="cls-1" points="265.03 34.9 265.03 43.11 265.03 34.9"/>
    <polyline class="cls-1" points="273.36 43.11 273.36 43.11 273.36 43.11"/>
    <polyline class="cls-1" points="215.86 34.9 215.86 43.11 215.86 34.9"/>
    <polyline class="cls-1" points="224.18 43.11 224.18 43.11 224.18 43.11"/>
    <polyline class="cls-1" points="208.07 43.4 208.08 43.4 208.07 43.4"/>
    <polyline class="cls-1" points="183.03 34.9 183.03 43.11 183.03 34.9"/>
    <polyline class="cls-1" points="191.35 43.11 191.35 43.11 191.35 43.11"/>
    <polyline class="cls-1" points="166.7 34.9 166.7 43.11 166.7 34.9"/>
    <polyline class="cls-1" points="150.3 34.9 150.3 43.11 150.3 34.9"/>
    <polyline class="cls-1" points="158.63 43.11 158.63 43.11 158.63 43.11"/>
    <polyline class="cls-1" points="133.94 34.9 133.94 43.11 133.94 34.9"/>
    <polyline class="cls-1" points="109.58 43.11 109.58 43.11 109.58 43.11"/>
    <polyline class="cls-1" points="347.07 8.99 347.07 .78 347.07 8.99"/>
    <polyline class="cls-1" points="355.4 8.99 347.07 8.99 355.4 8.99"/>
    <polyline class="cls-1" points="330.7 8.99 330.7 .78 330.7 8.99"/>
    <polyline class="cls-1" points="339.31 .5 346.79 .5 339.31 .5"/>
    <polyline class="cls-1" points="314.27 8.99 314.27 .78 314.27 8.99"/>
    <polyline class="cls-1" points="322.88 .5 330.42 .5 322.88 .5"/>
    <polyline class="cls-1" points="281.47 8.99 281.47 .78 281.47 8.99"/>
    <polyline class="cls-1" points="290.08 .5 297.63 .5 290.08 .5"/>
    <polyline class="cls-1" points="265.03 8.99 265.03 .78 265.03 8.99"/>
    <polyline class="cls-1" points="257.24 .5 264.75 .5 257.24 .5"/>
    <polyline class="cls-1" points="240.76 .5 248.35 .5 240.76 .5"/>
    <polyline class="cls-1" points="215.86 8.99 215.86 .78 215.86 8.99"/>
    <polyline class="cls-1" points="224.18 8.99 215.86 8.99 224.18 8.99"/>
    <polyline class="cls-1" points="208.07 .5 215.57 .5 208.07 .5"/>
    <polyline class="cls-1" points="183.03 8.99 183.03 .78 183.03 8.99"/>
    <polyline class="cls-1" points="150.3 8.99 150.3 .78 150.3 8.99"/>
    <polyline class="cls-1" points="133.94 8.99 133.94 .78 133.94 8.99"/>
    <polyline class="cls-1" points="142.27 8.99 133.94 8.99 142.27 8.99"/>
    <polyline class="cls-1" points="117.62 8.99 117.62 .78 117.62 8.99"/>
    <polyline class="cls-1" points="126.23 .5 133.66 .5 126.23 .5"/>
    <polyline class="cls-1" points="371.63 45.89 378.86 45.89 371.63 45.89"/>
    <polyline class="cls-1" points="378.86 45.89 378.86 1.25 378.86 45.89"/>
    <polyline class="cls-1" points="378.86 1.25 371.63 1.25 378.86 1.25"/>
    <polyline class="cls-1" points="371.63 1.25 371.63 9.64 371.63 1.25"/>
    <polyline class="cls-1" points="371.63 34.28 371.63 45.89 371.63 34.28"/>
    <polyline class="cls-1" points="85.41 27.7 93.49 27.7 85.41 27.7"/>
    <polyline class="cls-1" points="85.41 27.7 85.41 42.8 85.41 27.7"/>
    <polyline class="cls-1" points="363.54 8.99 363.54 9.8 363.54 8.99"/>
    <polyline class="cls-1" points="363.54 34.3 363.54 34.9 363.54 34.3"/>
    <polyline class="cls-1" points="85.41 .8 85.41 15.9 85.41 .8"/>
    <polyline class="cls-1" points="93.49 15.9 85.41 15.9 93.49 15.9"/>
    <polyline class="cls-1" points="93.49 15.9 93.49 27.7 93.49 15.9"/>
    <polyline class="cls-1" points="371.23 34.3 371.23 34.28 371.23 34.3"/>
    <polyline class="cls-1" points="371.23 34.28 371.63 34.28 371.23 34.28"/>
    <polyline class="cls-1" points="371.23 34.3 363.54 34.3 371.23 34.3"/>
    <polyline class="cls-1" points="85.41 42.8 102.12 42.8 102.12 34.9 102.12 42.8"/>
    <polyline class="cls-1" points="297.92 34.9 297.91 34.9 297.92 34.9"/>
    <polyline class="cls-1" points="363.54 .78 363.54 8.99 363.54 .78"/>
    <polyline class="cls-1" points="102.12 8.99 102.12 .8 102.12 8.99"/>
    <polyline class="cls-1" points="308.39 336.09 308.39 327.89 308.39 336.09"/>
    <polyline class="cls-1" points="308.39 327.89 233.72 327.89 308.39 327.89"/>
    <polyline class="cls-1" points="86.67 495 86.67 503.02 86.67 495"/>
    <polyline class="cls-1" points="357.47 503.02 349 503.02 357.47 503.02"/>
    <polyline class="cls-1" points="103.07 495 103.07 503.02 103.07 495"/>
    <polyline class="cls-1" points="95.13 503.02 95.13 495 95.13 503.02"/>
    <polyline class="cls-1" points="95.13 503.02 86.67 503.02 95.13 503.02"/>
    <polyline class="cls-1" points="95.13 495 103.07 495 95.13 495"/>
    <polyline class="cls-1" points="119.43 495 119.43 503.02 119.43 495"/>
    <polyline class="cls-1" points="111.5 503.02 111.5 495 111.5 503.02"/>
    <polyline class="cls-1" points="111.5 503.02 103.07 503.02 111.5 503.02"/>
    <polyline class="cls-1" points="111.5 495 119.43 495 111.5 495"/>
    <polyline class="cls-1" points="135.84 495 135.84 503.02 135.84 495"/>
    <polyline class="cls-1" points="127.9 503.02 127.9 495 127.9 503.02"/>
    <polyline class="cls-1" points="127.9 503.02 119.43 503.02 127.9 503.02"/>
    <polyline class="cls-1" points="127.9 495 135.84 495 127.9 495"/>
    <polyline class="cls-1" points="152.2 495 152.2 503.02 152.2 495"/>
    <polyline class="cls-1" points="144.27 503.02 144.27 495 144.27 503.02"/>
    <polyline class="cls-1" points="144.27 503.02 135.84 503.02 144.27 503.02"/>
    <polyline class="cls-1" points="144.27 495 152.2 495 144.27 495"/>
    <polyline class="cls-1" points="168.61 495 168.61 503.02 168.61 495"/>
    <polyline class="cls-1" points="160.67 503.02 160.67 495 160.67 503.02"/>
    <polyline class="cls-1" points="160.67 503.02 152.2 503.02 160.67 503.02"/>
    <polyline class="cls-1" points="160.67 495 168.61 495 160.67 495"/>
    <polyline class="cls-1" points="184.97 495 184.97 503.02 184.97 495"/>
    <polyline class="cls-1" points="177.03 503.02 177.03 495 177.03 503.02"/>
    <polyline class="cls-1" points="177.03 503.02 168.61 503.02 177.03 503.02"/>
    <polyline class="cls-1" points="177.03 495 184.97 495 177.03 495"/>
    <polyline class="cls-1" points="201.38 495 201.38 503.02 201.38 495"/>
    <polyline class="cls-1" points="193.44 503.02 193.44 495 193.44 503.02"/>
    <polyline class="cls-1" points="193.44 503.02 184.97 503.02 193.44 503.02"/>
    <polyline class="cls-1" points="193.44 495 201.38 495 193.44 495"/>
    <polyline class="cls-1" points="217.74 495 217.74 503.02 217.74 495"/>
    <polyline class="cls-1" points="209.8 503.02 209.8 495 209.8 503.02"/>
    <polyline class="cls-1" points="209.8 503.02 201.38 503.02 209.8 503.02"/>
    <polyline class="cls-1" points="209.8 495 217.74 495 209.8 495"/>
    <polyline class="cls-1" points="234.15 495 234.15 503.02 234.15 495"/>
    <polyline class="cls-1" points="226.21 503.02 226.21 495 226.21 503.02"/>
    <polyline class="cls-1" points="226.21 503.02 217.74 503.02 226.21 503.02"/>
    <polyline class="cls-1" points="226.21 495 234.15 495 226.21 495"/>
    <polyline class="cls-1" points="266.96 495 266.96 503.02 266.96 495"/>
    <polyline class="cls-1" points="259.02 503.02 259.02 495 259.02 503.02"/>
    <polyline class="cls-1" points="259.02 503.02 250.55 503.02 259.02 503.02"/>
    <polyline class="cls-1" points="259.02 495 266.96 495 259.02 495"/>
    <polyline class="cls-1" points="250.55 495 250.55 503.02 250.55 495"/>
    <polyline class="cls-1" points="242.61 503.02 242.61 495 242.61 503.02"/>
    <polyline class="cls-1" points="242.61 503.02 234.15 503.02 242.61 503.02"/>
    <polyline class="cls-1" points="242.61 495 250.55 495 242.61 495"/>
    <polyline class="cls-1" points="299.81 495 299.81 503.02 299.81 495"/>
    <polyline class="cls-1" points="291.87 503.02 291.87 495 291.87 503.02"/>
    <polyline class="cls-1" points="291.87 503.02 283.4 503.02 291.87 503.02"/>
    <polyline class="cls-1" points="291.87 495 299.81 495 291.87 495"/>
    <polyline class="cls-1" points="283.4 495 283.4 503.02 283.4 495"/>
    <polyline class="cls-1" points="275.46 503.02 275.46 495 275.46 503.02"/>
    <polyline class="cls-1" points="275.46 503.02 266.96 503.02 275.46 503.02"/>
    <polyline class="cls-1" points="275.46 495 283.4 495 275.46 495"/>
    <polyline class="cls-1" points="332.66 495 332.66 503.02 332.66 495"/>
    <polyline class="cls-1" points="324.72 503.02 324.72 495 324.72 503.02"/>
    <polyline class="cls-1" points="324.72 503.02 316.25 503.02 324.72 503.02"/>
    <polyline class="cls-1" points="324.72 495 332.66 495 324.72 495"/>
    <polyline class="cls-1" points="316.25 495 316.25 503.02 316.25 495"/>
    <polyline class="cls-1" points="308.32 503.02 308.32 495 308.32 503.02"/>
    <polyline class="cls-1" points="308.32 503.02 299.81 503.02 308.32 503.02"/>
    <polyline class="cls-1" points="308.32 495 316.25 495 308.32 495"/>
    <polyline class="cls-1" points="357.47 503.02 357.47 495 357.47 503.02"/>
    <polyline class="cls-1" points="357.47 495 365.39 495 357.47 495"/>
    <polyline class="cls-1" points="349 495 349 503.02 349 495"/>
    <polyline class="cls-1" points="341.07 503.02 341.07 495 341.07 503.02"/>
    <polyline class="cls-1" points="341.07 503.02 332.66 503.02 341.07 503.02"/>
    <polyline class="cls-1" points="341.07 495 349 495 341.07 495"/>
    <polyline class="cls-1" points="365.39 493.75 365.39 495 365.39 493.75"/>
    <polyline class="cls-1" points="365.39 444.71 356.82 444.71 365.39 444.71"/>
    <polyline class="cls-1" points="356.82 444.71 356.82 436.26 356.82 444.71"/>
    <polyline class="cls-1" points="356.82 436.26 365.39 436.26 356.82 436.26"/>
    <polyline class="cls-1" points="365.39 428.27 356.82 428.27 365.39 428.27"/>
    <polyline class="cls-1" points="365.39 428.27 365.39 436.26 365.39 428.27"/>
    <polyline class="cls-1" points="356.82 428.27 356.82 419.82 356.82 428.27"/>
    <polyline class="cls-1" points="356.82 419.82 365.39 419.82 356.82 419.82"/>
    <polyline class="cls-1" points="78.92 428.47 70.19 428.47 78.92 428.47"/>
    <polyline class="cls-1" points="70.19 420.02 78.92 420.02 70.19 420.02"/>
    <polyline class="cls-1" points="78.92 420.02 78.92 428.47 78.92 420.02"/>
    <polyline class="cls-1" points="78.92 444.86 70.19 444.86 78.92 444.86"/>
    <polyline class="cls-1" points="70.19 436.41 78.92 436.41 70.19 436.41"/>
    <polyline class="cls-1" points="70.19 436.41 70.19 428.47 70.19 436.41"/>
    <polyline class="cls-1" points="78.92 436.41 78.92 444.86 78.92 436.41"/>
    <polyline class="cls-1" points="78.92 461.31 70.19 461.31 78.92 461.31"/>
    <polyline class="cls-1" points="70.19 452.85 78.92 452.85 70.19 452.85"/>
    <polyline class="cls-1" points="70.19 452.85 70.19 444.86 70.19 452.85"/>
    <polyline class="cls-1" points="78.92 452.85 78.92 461.31 78.92 452.85"/>
    <polyline class="cls-1" points="78.92 477.75 70.19 477.75 78.92 477.75"/>
    <polyline class="cls-1" points="70.19 469.3 78.92 469.3 70.19 469.3"/>
    <polyline class="cls-1" points="70.19 469.3 70.19 461.31 70.19 469.3"/>
    <polyline class="cls-1" points="78.92 469.3 78.92 477.75 78.92 469.3"/>
    <polyline class="cls-1" points="70.19 485.69 78.92 485.69 70.19 485.69"/>
    <polyline class="cls-1" points="70.19 485.69 70.19 477.75 70.19 485.69"/>
    <polyline class="cls-1" points="86.67 336.09 86.67 328.07 86.67 336.09"/>
    <polyline class="cls-1" points="357.47 328.07 349 328.07 357.47 328.07"/>
    <polyline class="cls-1" points="103.07 336.09 103.07 328.07 103.07 336.09"/>
    <polyline class="cls-1" points="95.13 328.07 95.13 336.09 95.13 328.07"/>
    <polyline class="cls-1" points="95.13 328.07 86.67 328.07 95.13 328.07"/>
    <polyline class="cls-1" points="95.13 336.09 103.07 336.09 95.13 336.09"/>
    <polyline class="cls-1" points="119.43 336.09 119.43 328.07 119.43 336.09"/>
    <polyline class="cls-1" points="111.5 328.07 111.5 336.09 111.5 328.07"/>
    <polyline class="cls-1" points="111.5 328.07 103.07 328.07 111.5 328.07"/>
    <polyline class="cls-1" points="111.5 336.09 119.43 336.09 111.5 336.09"/>
    <polyline class="cls-1" points="135.84 336.09 135.84 328.07 135.84 336.09"/>
    <polyline class="cls-1" points="127.9 328.07 127.9 336.09 127.9 328.07"/>
    <polyline class="cls-1" points="127.9 328.07 119.43 328.07 127.9 328.07"/>
    <polyline class="cls-1" points="127.9 336.09 135.84 336.09 127.9 336.09"/>
    <polyline class="cls-1" points="152.2 336.09 152.2 328.07 152.2 336.09"/>
    <polyline class="cls-1" points="144.27 328.07 144.27 336.09 144.27 328.07"/>
    <polyline class="cls-1" points="144.27 328.07 135.84 328.07 144.27 328.07"/>
    <polyline class="cls-1" points="144.27 336.09 152.2 336.09 144.27 336.09"/>
    <polyline class="cls-1" points="168.61 336.09 168.61 328.07 168.61 336.09"/>
    <polyline class="cls-1" points="160.67 328.07 160.67 336.09 160.67 328.07"/>
    <polyline class="cls-1" points="160.67 328.07 152.2 328.07 160.67 328.07"/>
    <polyline class="cls-1" points="160.67 336.09 168.61 336.09 160.67 336.09"/>
    <polyline class="cls-1" points="184.97 336.09 184.97 328.07 184.97 336.09"/>
    <polyline class="cls-1" points="177.03 328.07 177.03 336.09 177.03 328.07"/>
    <polyline class="cls-1" points="177.03 328.07 168.61 328.07 177.03 328.07"/>
    <polyline class="cls-1" points="177.03 336.09 184.97 336.09 177.03 336.09"/>
    <polyline class="cls-1" points="201.38 336.09 201.38 328.07 201.38 336.09"/>
    <polyline class="cls-1" points="193.44 328.07 193.44 336.09 193.44 328.07"/>
    <polyline class="cls-1" points="193.44 328.07 184.97 328.07 193.44 328.07"/>
    <polyline class="cls-1" points="193.44 336.09 201.38 336.09 193.44 336.09"/>
    <polyline class="cls-1" points="217.74 336.09 217.74 328.07 217.74 336.09"/>
    <polyline class="cls-1" points="209.8 328.07 209.8 336.09 209.8 328.07"/>
    <polyline class="cls-1" points="209.8 328.07 201.38 328.07 209.8 328.07"/>
    <polyline class="cls-1" points="209.8 336.09 217.74 336.09 209.8 336.09"/>
    <polyline class="cls-1" points="226.21 328.07 226.21 336.09 226.21 328.07"/>
    <polyline class="cls-1" points="226.21 328.07 217.74 328.07 226.21 328.07"/>
    <polyline class="cls-1" points="332.66 336.09 332.66 328.07 332.66 336.09"/>
    <polyline class="cls-1" points="324.72 328.07 324.72 336.09 324.72 328.07"/>
    <polyline class="cls-1" points="324.72 328.07 316.25 328.07 324.72 328.07"/>
    <polyline class="cls-1" points="324.72 336.09 332.66 336.09 324.72 336.09"/>
    <polyline class="cls-1" points="316.25 336.09 316.25 328.07 316.25 336.09"/>
    <polyline class="cls-1" points="357.47 328.07 357.47 328.68 357.47 328.07"/>
    <polyline class="cls-1" points="349 336.09 349 328.07 349 336.09"/>
    <polyline class="cls-1" points="341.07 328.07 341.07 336.09 341.07 328.07"/>
    <polyline class="cls-1" points="341.07 328.07 332.66 328.07 341.07 328.07"/>
    <polyline class="cls-1" points="341.07 336.09 349 336.09 341.07 336.09"/>
    <polyline class="cls-1" points="365.19 345.79 365.39 345.79 365.19 345.79"/>
    <polyline class="cls-1" points="365.39 353.53 365.19 353.53 365.39 353.53"/>
    <polyline class="cls-1" points="365.39 353.53 365.39 345.79 365.39 353.53"/>
    <polyline class="cls-1" points="365.19 361.98 365.39 361.98 365.19 361.98"/>
    <polyline class="cls-1" points="365.39 369.91 365.19 369.91 365.39 369.91"/>
    <polyline class="cls-1" points="365.39 369.91 365.39 361.98 365.39 369.91"/>
    <polyline class="cls-1" points="365.19 378.36 365.39 378.36 365.19 378.36"/>
    <polyline class="cls-1" points="365.39 386.38 365.19 386.38 365.39 386.38"/>
    <polyline class="cls-1" points="365.39 386.38 365.39 378.36 365.39 386.38"/>
    <polyline class="cls-1" points="365.19 394.83 365.39 394.83 365.19 394.83"/>
    <polyline class="cls-1" points="365.39 402.81 365.19 402.81 365.39 402.81"/>
    <polyline class="cls-1" points="365.39 402.81 365.39 394.83 365.39 402.81"/>
    <polyline class="cls-1" points="356.82 403.62 356.82 411.26 356.82 403.62"/>
    <polyline class="cls-1" points="356.82 411.26 365.39 411.26 356.82 411.26"/>
    <polyline class="cls-1" points="78.92 402.61 70.19 402.61 78.92 402.61"/>
    <polyline class="cls-1" points="70.19 411.06 78.92 411.06 70.19 411.06"/>
    <polyline class="cls-1" points="78.92 411.06 78.92 402.61 78.92 411.06"/>
    <polyline class="cls-1" points="78.92 386.22 70.19 386.22 78.92 386.22"/>
    <polyline class="cls-1" points="70.19 394.68 78.92 394.68 70.19 394.68"/>
    <polyline class="cls-1" points="70.19 394.68 70.19 402.61 70.19 394.68"/>
    <polyline class="cls-1" points="78.92 394.68 78.92 386.22 78.92 394.68"/>
    <polyline class="cls-1" points="78.92 369.78 70.19 369.78 78.92 369.78"/>
    <polyline class="cls-1" points="70.19 378.23 78.92 378.23 70.19 378.23"/>
    <polyline class="cls-1" points="70.19 378.23 70.19 386.22 70.19 378.23"/>
    <polyline class="cls-1" points="78.92 378.23 78.92 369.78 78.92 378.23"/>
    <polyline class="cls-1" points="78.92 353.34 70.19 353.34 78.92 353.34"/>
    <polyline class="cls-1" points="70.19 361.79 78.92 361.79 70.19 361.79"/>
    <polyline class="cls-1" points="70.19 361.79 70.19 369.78 70.19 361.79"/>
    <polyline class="cls-1" points="78.92 361.79 78.92 353.34 78.92 361.79"/>
    <polyline class="cls-1" points="70.19 345.4 78.92 345.4 70.19 345.4"/>
    <polyline class="cls-1" points="70.19 345.4 70.19 353.34 70.19 345.4"/>
    <polyline class="cls-1" points="357.47 328.68 357.43 328.68 357.47 328.68"/>
    <polyline class="cls-1" points="357.43 328.68 357.43 336.93 357.43 328.68"/>
    <polyline class="cls-1" points="78.96 337.32 78.92 337.32 78.96 337.32"/>
    <polyline class="cls-1" points="78.96 336.09 78.96 337.32 78.96 336.09"/>
    <polyline class="cls-1" points="78.96 336.09 86.67 336.09 78.96 336.09"/>
    <polyline class="cls-1" points="78.92 345.4 78.92 337.32 78.92 345.4"/>
    <polyline class="cls-1" points="78.96 493.21 78.96 495 78.96 493.21"/>
    <polyline class="cls-1" points="78.92 493.21 78.96 493.21 78.92 493.21"/>
    <polyline class="cls-1" points="78.96 495 86.67 495 78.96 495"/>
    <polyline class="cls-1" points="78.92 485.69 78.92 493.21 78.92 485.69"/>
    <polyline class="cls-1" points="233.72 327.89 233.72 336.09 233.72 327.89"/>
    <polyline class="cls-1" points="226.21 336.09 233.72 336.09 226.21 336.09"/>
    <polyline class="cls-1" points="308.39 336.09 316.25 336.09 308.39 336.09"/>
    <polyline class="cls-1" points="365.75 447.62 365.75 493.48 365.75 447.62"/>
    <polyline class="cls-1" points="365.39 444.71 365.39 447.62 365.39 444.71"/>
    <polyline class="cls-1" points="365.19 403.62 365.19 402.81 365.19 403.62"/>
    <polyline class="cls-1" points="365.19 394.83 365.19 386.38 365.19 394.83"/>
    <polyline class="cls-1" points="365.19 378.36 365.19 369.91 365.19 378.36"/>
    <polyline class="cls-1" points="365.19 361.98 365.19 353.53 365.19 361.98"/>
    <polyline class="cls-1" points="365.19 345.79 365.19 336.93 365.19 345.79"/>
    <polyline class="cls-1" points="356.82 403.62 365.19 403.62 356.82 403.62"/>
    <polyline class="cls-1" points="365.19 336.93 357.43 336.93 365.19 336.93"/>
    <polyline class="cls-1" points="70.19 420.02 70.19 411.06 70.19 420.02"/>
    <polyline class="cls-1" points="365.39 419.82 365.39 411.26 365.39 419.82"/>
    <polyline class="cls-1" points="365.39 447.62 365.75 447.62 365.39 447.62"/>
    <polyline class="cls-1" points="99.87 242.15 92.16 242.15 99.87 242.15"/>
    <polyline class="cls-1" points="99.87 250.16 99.87 242.15 99.87 250.16"/>
    <polyline class="cls-1" points="99.87 250.16 108.34 250.16 99.87 250.16"/>
    <polyline class="cls-1" points="116.27 242.15 108.34 242.15 116.27 242.15"/>
    <polyline class="cls-1" points="116.27 250.16 116.27 242.15 116.27 250.16"/>
    <polyline class="cls-1" points="108.34 242.15 108.34 250.16 108.34 242.15"/>
    <polyline class="cls-1" points="116.27 250.16 124.7 250.16 116.27 250.16"/>
    <polyline class="cls-1" points="132.64 242.15 124.7 242.15 132.64 242.15"/>
    <polyline class="cls-1" points="132.64 250.16 132.64 242.15 132.64 250.16"/>
    <polyline class="cls-1" points="124.7 242.15 124.7 250.16 124.7 242.15"/>
    <polyline class="cls-1" points="132.64 250.16 141.1 250.16 132.64 250.16"/>
    <polyline class="cls-1" points="149.04 242.15 141.1 242.15 149.04 242.15"/>
    <polyline class="cls-1" points="149.04 250.16 149.04 242.15 149.04 250.16"/>
    <polyline class="cls-1" points="141.1 242.15 141.1 250.16 141.1 242.15"/>
    <polyline class="cls-1" points="149.04 250.16 157.47 250.16 149.04 250.16"/>
    <polyline class="cls-1" points="165.4 242.15 157.47 242.15 165.4 242.15"/>
    <polyline class="cls-1" points="165.4 250.16 165.4 242.15 165.4 250.16"/>
    <polyline class="cls-1" points="157.47 242.15 157.47 250.16 157.47 242.15"/>
    <polyline class="cls-1" points="165.4 250.16 173.87 250.16 165.4 250.16"/>
    <polyline class="cls-1" points="181.81 242.15 173.87 242.15 181.81 242.15"/>
    <polyline class="cls-1" points="181.81 250.16 181.81 242.15 181.81 250.16"/>
    <polyline class="cls-1" points="173.87 242.15 173.87 250.16 173.87 242.15"/>
    <polyline class="cls-1" points="181.81 250.16 190.24 250.16 181.81 250.16"/>
    <polyline class="cls-1" points="198.17 242.15 190.24 242.15 198.17 242.15"/>
    <polyline class="cls-1" points="198.17 250.16 198.17 242.15 198.17 250.16"/>
    <polyline class="cls-1" points="190.24 242.15 190.24 250.16 190.24 242.15"/>
    <polyline class="cls-1" points="198.17 250.16 206.64 250.16 198.17 250.16"/>
    <polyline class="cls-1" points="214.58 242.15 206.64 242.15 214.58 242.15"/>
    <polyline class="cls-1" points="214.58 250.16 214.58 242.15 214.58 250.16"/>
    <polyline class="cls-1" points="206.64 242.15 206.64 250.16 206.64 242.15"/>
    <polyline class="cls-1" points="214.58 250.16 223 250.16 214.58 250.16"/>
    <polyline class="cls-1" points="230.94 242.15 223 242.15 230.94 242.15"/>
    <polyline class="cls-1" points="230.94 250.16 230.94 242.15 230.94 250.16"/>
    <polyline class="cls-1" points="223 242.15 223 250.16 223 242.15"/>
    <polyline class="cls-1" points="230.94 250.16 239.41 250.16 230.94 250.16"/>
    <polyline class="cls-1" points="247.35 242.15 239.41 242.15 247.35 242.15"/>
    <polyline class="cls-1" points="247.35 250.16 247.35 242.15 247.35 250.16"/>
    <polyline class="cls-1" points="239.41 242.15 239.41 250.16 239.41 242.15"/>
    <polyline class="cls-1" points="247.35 250.16 247.89 250.16 247.35 250.16"/>
    <polyline class="cls-1" points="345.86 242.15 337.92 242.15 345.86 242.15"/>
    <polyline class="cls-1" points="345.86 250.16 345.86 242.15 345.86 250.16"/>
    <polyline class="cls-1" points="337.92 242.15 337.92 250.16 337.92 242.15"/>
    <polyline class="cls-1" points="345.86 250.16 354.27 250.16 345.86 250.16"/>
    <polyline class="cls-1" points="329.45 242.15 321.63 242.15 329.45 242.15"/>
    <polyline class="cls-1" points="329.45 250.16 329.45 242.15 329.45 250.16"/>
    <polyline class="cls-1" points="329.45 250.16 337.92 250.16 329.45 250.16"/>
    <polyline class="cls-1" points="362.2 242.15 354.27 242.15 362.2 242.15"/>
    <polyline class="cls-1" points="362.2 250.16 362.2 242.15 362.2 250.16"/>
    <polyline class="cls-1" points="354.27 242.15 354.27 250.16 354.27 242.15"/>
    <polyline class="cls-1" points="362.2 250.16 370.22 250.16 362.2 250.16"/>
    <path class="cls-1" d="M370.02,174.42v-7.45"/>
    <path class="cls-1" d="M370.02,166.97v7.45"/>
    <polyline class="cls-1" points="378.59 166.97 370.02 166.97 378.59 166.97"/>
    <polyline class="cls-1" points="83.39 175.62 92.12 175.62 83.39 175.62"/>
    <polyline class="cls-1" points="92.12 167.17 83.39 167.17 92.12 167.17"/>
    <polyline class="cls-1" points="92.12 175.62 92.12 167.17 92.12 175.62"/>
    <polyline class="cls-1" points="83.39 175.62 83.39 183.56 83.39 175.62"/>
    <polyline class="cls-1" points="83.39 192.01 92.12 192.01 83.39 192.01"/>
    <polyline class="cls-1" points="92.12 183.56 83.39 183.56 92.12 183.56"/>
    <polyline class="cls-1" points="92.12 192.01 92.12 183.56 92.12 192.01"/>
    <polyline class="cls-1" points="83.39 192.01 83.39 200 83.39 192.01"/>
    <polyline class="cls-1" points="83.39 208.45 92.12 208.45 83.39 208.45"/>
    <polyline class="cls-1" points="92.12 200 83.39 200 92.12 200"/>
    <polyline class="cls-1" points="92.12 208.45 92.12 200 92.12 208.45"/>
    <polyline class="cls-1" points="83.39 208.45 83.39 216.44 83.39 208.45"/>
    <polyline class="cls-1" points="83.39 224.89 92.12 224.89 83.39 224.89"/>
    <polyline class="cls-1" points="92.12 216.44 83.39 216.44 92.12 216.44"/>
    <polyline class="cls-1" points="92.12 224.89 92.12 216.44 92.12 224.89"/>
    <polyline class="cls-1" points="83.39 224.89 83.39 232.83 83.39 224.89"/>
    <polyline class="cls-1" points="92.12 232.83 83.39 232.83 92.12 232.83"/>
    <polyline class="cls-1" points="99.87 83.23 92.16 83.23 99.87 83.23"/>
    <polyline class="cls-1" points="99.87 75.21 99.87 83.23 99.87 75.21"/>
    <polyline class="cls-1" points="99.87 75.21 108.34 75.21 99.87 75.21"/>
    <polyline class="cls-1" points="116.27 83.23 108.34 83.23 116.27 83.23"/>
    <polyline class="cls-1" points="116.27 75.21 116.27 83.23 116.27 75.21"/>
    <polyline class="cls-1" points="108.34 83.23 108.34 75.21 108.34 83.23"/>
    <polyline class="cls-1" points="116.27 75.21 124.7 75.21 116.27 75.21"/>
    <polyline class="cls-1" points="132.64 83.23 124.7 83.23 132.64 83.23"/>
    <polyline class="cls-1" points="132.64 75.21 132.64 83.23 132.64 75.21"/>
    <polyline class="cls-1" points="124.7 83.23 124.7 75.21 124.7 83.23"/>
    <polyline class="cls-1" points="132.64 75.21 141.1 75.21 132.64 75.21"/>
    <polyline class="cls-1" points="149.04 83.23 141.1 83.23 149.04 83.23"/>
    <polyline class="cls-1" points="149.04 75.21 149.04 83.23 149.04 75.21"/>
    <polyline class="cls-1" points="141.1 83.23 141.1 75.21 141.1 83.23"/>
    <polyline class="cls-1" points="149.04 75.21 157.47 75.21 149.04 75.21"/>
    <polyline class="cls-1" points="165.4 83.23 157.47 83.23 165.4 83.23"/>
    <polyline class="cls-1" points="165.4 75.21 165.4 83.23 165.4 75.21"/>
    <polyline class="cls-1" points="157.47 83.23 157.47 75.21 157.47 83.23"/>
    <polyline class="cls-1" points="165.4 75.21 173.87 75.21 165.4 75.21"/>
    <polyline class="cls-1" points="181.81 83.23 173.87 83.23 181.81 83.23"/>
    <polyline class="cls-1" points="181.81 75.21 181.81 83.23 181.81 75.21"/>
    <polyline class="cls-1" points="173.87 83.23 173.87 75.21 173.87 83.23"/>
    <polyline class="cls-1" points="181.81 75.21 190.24 75.21 181.81 75.21"/>
    <polyline class="cls-1" points="198.17 83.23 190.24 83.23 198.17 83.23"/>
    <polyline class="cls-1" points="198.17 75.21 198.17 83.23 198.17 75.21"/>
    <polyline class="cls-1" points="190.24 83.23 190.24 75.21 190.24 83.23"/>
    <polyline class="cls-1" points="198.17 75.21 206.64 75.21 198.17 75.21"/>
    <polyline class="cls-1" points="214.58 83.23 206.64 83.23 214.58 83.23"/>
    <polyline class="cls-1" points="214.58 75.21 214.58 83.23 214.58 75.21"/>
    <polyline class="cls-1" points="206.64 83.23 206.64 75.21 206.64 83.23"/>
    <polyline class="cls-1" points="214.58 75.21 223 75.21 214.58 75.21"/>
    <polyline class="cls-1" points="230.94 83.23 223 83.23 230.94 83.23"/>
    <polyline class="cls-1" points="230.94 75.21 230.94 83.23 230.94 75.21"/>
    <polyline class="cls-1" points="223 83.23 223 75.21 223 83.23"/>
    <polyline class="cls-1" points="230.94 75.21 239.41 75.21 230.94 75.21"/>
    <polyline class="cls-1" points="247.35 83.23 239.41 83.23 247.35 83.23"/>
    <polyline class="cls-1" points="247.35 75.21 247.35 83.23 247.35 75.21"/>
    <polyline class="cls-1" points="239.41 83.23 239.41 75.21 239.41 83.23"/>
    <polyline class="cls-1" points="247.35 75.21 255.81 75.21 247.35 75.21"/>
    <polyline class="cls-1" points="280.16 83.23 272.22 83.23 280.16 83.23"/>
    <polyline class="cls-1" points="280.16 75.21 280.16 83.23 280.16 75.21"/>
    <polyline class="cls-1" points="272.22 83.23 272.22 75.21 272.22 83.23"/>
    <polyline class="cls-1" points="280.16 75.21 288.67 75.21 280.16 75.21"/>
    <polyline class="cls-1" points="263.75 83.23 255.81 83.23 263.75 83.23"/>
    <polyline class="cls-1" points="263.75 75.21 263.75 83.23 263.75 75.21"/>
    <polyline class="cls-1" points="255.81 83.23 255.81 75.21 255.81 83.23"/>
    <polyline class="cls-1" points="263.75 75.21 272.22 75.21 263.75 75.21"/>
    <polyline class="cls-1" points="313.01 83.23 305.07 83.23 313.01 83.23"/>
    <polyline class="cls-1" points="313.01 75.21 313.01 83.23 313.01 75.21"/>
    <polyline class="cls-1" points="82.99 101.68 82.73 92.36 83.95 92.36 92.12 92.55"/>
    <line class="cls-1" x1="85.41" y1=".8" x2="102.12" y2=".8"/>
    <line class="cls-1" x1="371.63" y1="9.64" x2="363.54" y2="9.8"/>
  </g>
  <g id="Make2D::Visible::SceneSilhouetteCurves">
    <polyline class="cls-1" points="36.39 118.23 36.39 110.35 36.39 118.23"/>
    <path class="cls-1" d="M45.1,110.06c0,.16-.13.28-.28.28.16,0,.28-.13.28-.28Z"/>
    <path class="cls-1" d="M44.82,118.23c.16,0,.28.13.28.28,0-.16-.13-.28-.28-.28Z"/>
    <path class="cls-1" d="M45.1,126.33c0,.16-.13.28-.28.28.16,0,.28-.13.28-.28Z"/>
    <path class="cls-1" d="M44.82,134.5c.16,0,.28.13.28.28,0-.16-.13-.28-.28-.28Z"/>
    <path class="cls-1" d="M45.1,142.85c0,.16-.13.28-.28.28.16,0,.28-.13.28-.28Z"/>
    <path class="cls-1" d="M44.82,151.02c.16,0,.28.13.28.28,0-.16-.13-.28-.28-.28Z"/>
    <path class="cls-1" d="M45.1,159.37c0,.16-.13.28-.28.28.16,0,.28-.13.28-.28Z"/>
    <path class="cls-1" d="M.82,85.46c-.16,0-.28.13-.28.28,0-.16.13-.28.28-.28Z"/>
    <path class="cls-1" d="M.54,93.5c0,.16.13.28.28.28-.16,0-.28-.13-.28-.28Z"/>
    <path class="cls-1" d="M.82,101.67c-.16,0-.28.13-.28.28,0-.16.13-.28.28-.28Z"/>
    <path class="cls-1" d="M.54,110.06c0,.16.13.28.28.28-.16,0-.28-.13-.28-.28Z"/>
    <path class="cls-1" d="M.82,118.23c-.16,0-.28.13-.28.28,0-.16.13-.28.28-.28Z"/>
    <path class="cls-1" d="M.54,126.33c0,.16.13.28.28.28-.16,0-.28-.13-.28-.28Z"/>
    <path class="cls-1" d="M.82,134.5c-.16,0-.28.13-.28.28,0-.16.13-.28.28-.28Z"/>
    <path class="cls-1" d="M.54,142.85c0,.16.13.28.28.28-.16,0-.28-.13-.28-.28Z"/>
    <path class="cls-1" d="M.82,151.02c-.16,0-.28.13-.28.28,0-.16.13-.28.28-.28Z"/>
    <path class="cls-1" d="M.54,159.37c0,.16.13.28.28.28-.16,0-.28-.13-.28-.28Z"/>
    <path class="cls-1" d="M28.12,76.07c.16,0,.28.13.28.28,0-.16-.13-.28-.28-.28Z"/>
    <path class="cls-1" d="M36.38,83.56c.16,0,.28.13.28.28,0-.16-.13-.28-.28-.28Z"/>
    <path class="cls-1" d="M18.22,76.07c-.16,0-.28.13-.28.28,0-.16.13-.28.28-.28Z"/>
    <path class="cls-1" d="M9.26,83.56c-.16,0-.28.13-.28.28,0-.16.13-.28.28-.28Z"/>
    <path class="cls-1" d="M36.36,164.04s.04-.09.04-.14c0,.05-.01.09-.04.14Z"/>
    <path class="cls-1" d="M44.78,241.75c.16,0,.28-.13.28-.28,0,.16-.13.28-.28.28Z"/>
    <path class="cls-1" d="M36.34,251.14c.16,0,.28-.13.28-.28,0,.16-.13.28-.28.28Z"/>
    <path class="cls-1" d="M45.06,233.71c0-.16-.13-.28-.28-.28.16,0,.28.13.28.28Z"/>
    <path class="cls-1" d="M44.78,225.55c.16,0,.28-.13.28-.28,0,.16-.13.28-.28.28Z"/>
    <path class="cls-1" d="M45.06,217.15c0-.16-.13-.28-.28-.28.16,0,.28.13.28.28Z"/>
    <path class="cls-1" d="M44.78,208.98c.16,0,.28-.13.28-.28,0,.16-.13.28-.28.28Z"/>
    <path class="cls-1" d="M45.06,200.88c0-.16-.13-.28-.28-.28.16,0,.28.13.28.28Z"/>
    <path class="cls-1" d="M44.78,192.72c.16,0,.28-.13.28-.28,0,.16-.13.28-.28.28Z"/>
    <path class="cls-1" d="M45.06,184.36c0-.16-.13-.28-.28-.28.16,0,.28.13.28.28Z"/>
    <path class="cls-1" d="M44.78,176.2c.16,0,.28-.13.28-.28,0,.16-.13.28-.28.28Z"/>
    <path class="cls-1" d="M45.06,167.84c0-.16-.13-.28-.28-.28.16,0,.28.13.28.28Z"/>
    <path class="cls-1" d="M.78,241.75c-.16,0-.28-.13-.28-.28,0,.16.13.28.28.28Z"/>
    <path class="cls-1" d="M.5,233.71c0-.16.13-.28.28-.28-.16,0-.28.13-.28.28Z"/>
    <path class="cls-1" d="M.78,225.55c-.16,0-.28-.13-.28-.28,0,.16.13.28.28.28Z"/>
    <path class="cls-1" d="M.5,217.15c0-.16.13-.28.28-.28-.16,0-.28.13-.28.28Z"/>
    <path class="cls-1" d="M.78,208.98c-.16,0-.28-.13-.28-.28,0,.16.13.28.28.28Z"/>
    <path class="cls-1" d="M.5,200.88c0-.16.13-.28.28-.28-.16,0-.28.13-.28.28Z"/>
    <path class="cls-1" d="M.78,192.72c-.16,0-.28-.13-.28-.28,0,.16.13.28.28.28Z"/>
    <path class="cls-1" d="M.5,184.36c0-.16.13-.28.28-.28-.16,0-.28.13-.28.28Z"/>
    <path class="cls-1" d="M.78,176.2c-.16,0-.28-.13-.28-.28,0,.16.13.28.28.28Z"/>
    <path class="cls-1" d="M.5,167.84c0-.16.13-.28.28-.28-.16,0-.28.13-.28.28Z"/>
    <path class="cls-1" d="M27.81,250.86c0,.16.13.28.28.28-.16,0-.28-.13-.28-.28Z"/>
    <path class="cls-1" d="M19.1,250.86c0,.16-.13.28-.28.28.16,0,.28-.13.28-.28Z"/>
    <path class="cls-1" d="M9.21,163.72c0-.05.01-.1.04-.14-.03.04-.04.09-.04.14Z"/>
    <line class="cls-1" x1="9.61" y1="250.86" x2="9.61" y2="241.75"/>
    <path class="cls-1" d="M45.1,93.5c0,.16-.13.28-.28.28.16,0,.28-.13.28-.28Z"/>
    <path class="cls-1" d="M44.82,85.46c.16,0,.28.13.28.28,0-.16-.13-.28-.28-.28Z"/>
    <polyline class="cls-1" points="44.82 118.23 36.39 118.23 44.82 118.23"/>
    <polyline class="cls-1" points="36.39 110.35 44.82 110.35 36.39 110.35"/>
    <polyline class="cls-1" points="45.1 110.06 45.1 101.95 45.1 110.06"/>
    <polyline class="cls-1" points="36.49 101.67 36.49 93.78 36.49 101.67"/>
    <polyline class="cls-1" points="44.82 101.67 36.49 101.67 44.82 101.67"/>
    <polyline class="cls-1" points="36.49 93.78 44.82 93.78 36.49 93.78"/>
    <polyline class="cls-1" points="45.1 93.5 45.1 85.75 45.1 93.5"/>
    <polyline class="cls-1" points="36.66 85.46 36.66 83.84 36.66 85.46"/>
    <polyline class="cls-1" points="9.61 241.75 .78 241.75 9.61 241.75"/>
    <polyline class="cls-1" points="44.78 241.75 36.62 241.75 44.78 241.75"/>
    <polyline class="cls-1" points=".82 85.46 8.98 85.46 .82 85.46"/>
    <polyline class="cls-1" points="44.82 85.46 36.66 85.46 44.82 85.46"/>
    <polyline class="cls-1" points="28.12 76.07 18.22 76.07 28.12 76.07"/>
    <polyline class="cls-1" points="36.39 159.65 36.39 163.9 36.39 159.65"/>
    <path class="cls-1" d="M9.89,251.14c-.16,0-.28-.13-.28-.28"/>
    <polyline class="cls-1" points="9.24 163.58 9.24 159.65 9.24 163.58"/>
    <polyline class="cls-1" points="19.1 242.2 19.1 250.86 19.1 242.2"/>
    <polyline class="cls-1" points="27.81 242.2 19.1 242.2 27.81 242.2"/>
    <polyline class="cls-1" points="27.81 250.86 27.81 242.2 27.81 250.86"/>
    <polyline class="cls-1" points="9.21 163.72 9.21 167.56 9.21 163.72"/>
    <polyline class="cls-1" points="9.21 167.56 .78 167.56 9.21 167.56"/>
    <polyline class="cls-1" points=".5 167.84 .5 175.91 .5 167.84"/>
    <polyline class="cls-1" points="9.21 176.2 9.21 184.08 9.21 176.2"/>
    <polyline class="cls-1" points=".78 176.2 9.21 176.2 .78 176.2"/>
    <polyline class="cls-1" points="9.21 184.08 .78 184.08 9.21 184.08"/>
    <polyline class="cls-1" points=".5 184.36 .5 192.43 .5 184.36"/>
    <polyline class="cls-1" points="9.21 192.72 9.21 200.6 9.21 192.72"/>
    <polyline class="cls-1" points=".78 192.72 9.21 192.72 .78 192.72"/>
    <polyline class="cls-1" points="9.21 200.6 .78 200.6 9.21 200.6"/>
    <polyline class="cls-1" points=".5 200.88 .5 208.7 .5 200.88"/>
    <polyline class="cls-1" points="9.21 208.98 9.21 216.87 9.21 208.98"/>
    <polyline class="cls-1" points=".78 208.98 9.21 208.98 .78 208.98"/>
    <polyline class="cls-1" points="9.21 216.87 .78 216.87 9.21 216.87"/>
    <polyline class="cls-1" points=".5 217.15 .5 225.26 .5 217.15"/>
    <polyline class="cls-1" points="9.11 225.55 9.11 233.43 9.11 225.55"/>
    <polyline class="cls-1" points=".78 225.55 9.11 225.55 .78 225.55"/>
    <polyline class="cls-1" points="9.11 233.43 .78 233.43 9.11 233.43"/>
    <polyline class="cls-1" points=".5 233.71 .5 241.46 .5 233.71"/>
    <polyline class="cls-1" points="9.89 251.14 18.81 251.14 9.89 251.14"/>
    <polyline class="cls-1" points="36.36 164.04 36.36 167.56 36.36 164.04"/>
    <polyline class="cls-1" points="36.36 167.56 44.78 167.56 36.36 167.56"/>
    <polyline class="cls-1" points="45.06 167.84 45.06 175.91 45.06 167.84"/>
    <polyline class="cls-1" points="36.36 176.2 36.36 184.08 36.36 176.2"/>
    <polyline class="cls-1" points="44.78 176.2 36.36 176.2 44.78 176.2"/>
    <polyline class="cls-1" points="36.36 184.08 44.78 184.08 36.36 184.08"/>
    <polyline class="cls-1" points="45.06 184.36 45.06 192.43 45.06 184.36"/>
    <polyline class="cls-1" points="36.36 192.72 36.36 200.6 36.36 192.72"/>
    <polyline class="cls-1" points="44.78 192.72 36.36 192.72 44.78 192.72"/>
    <polyline class="cls-1" points="36.36 200.6 44.78 200.6 36.36 200.6"/>
    <polyline class="cls-1" points="45.06 200.88 45.06 208.7 45.06 200.88"/>
    <polyline class="cls-1" points="36.36 208.98 36.36 216.87 36.36 208.98"/>
    <polyline class="cls-1" points="44.78 208.98 36.36 208.98 44.78 208.98"/>
    <polyline class="cls-1" points="36.36 216.87 44.78 216.87 36.36 216.87"/>
    <polyline class="cls-1" points="45.06 217.15 45.06 225.26 45.06 217.15"/>
    <polyline class="cls-1" points="36.45 225.55 36.45 233.43 36.45 225.55"/>
    <polyline class="cls-1" points="44.78 225.55 36.45 225.55 44.78 225.55"/>
    <polyline class="cls-1" points="36.45 233.43 44.78 233.43 36.45 233.43"/>
    <polyline class="cls-1" points="45.06 233.71 45.06 241.46 45.06 233.71"/>
    <polyline class="cls-1" points="36.62 241.75 36.62 250.86 36.62 241.75"/>
    <polyline class="cls-1" points="36.34 251.14 28.09 251.14 36.34 251.14"/>
    <polyline class="cls-1" points="9.26 83.56 17.93 83.56 9.26 83.56"/>
    <polyline class="cls-1" points="17.93 83.56 17.93 76.36 17.93 83.56"/>
    <polyline class="cls-1" points="28.4 83.56 36.38 83.56 28.4 83.56"/>
    <polyline class="cls-1" points="28.4 76.36 28.4 83.56 28.4 76.36"/>
    <polyline class="cls-1" points="9.24 159.65 .82 159.65 9.24 159.65"/>
    <polyline class="cls-1" points=".54 159.37 .54 151.3 .54 159.37"/>
    <polyline class="cls-1" points="9.24 151.02 9.24 143.13 9.24 151.02"/>
    <polyline class="cls-1" points=".82 151.02 9.24 151.02 .82 151.02"/>
    <polyline class="cls-1" points="9.24 143.13 .82 143.13 9.24 143.13"/>
    <polyline class="cls-1" points=".54 142.85 .54 134.78 .54 142.85"/>
    <polyline class="cls-1" points="9.24 134.5 9.24 126.61 9.24 134.5"/>
    <polyline class="cls-1" points=".82 134.5 9.24 134.5 .82 134.5"/>
    <polyline class="cls-1" points="9.24 126.61 .82 126.61 9.24 126.61"/>
    <polyline class="cls-1" points=".54 126.33 .54 118.51 .54 126.33"/>
    <polyline class="cls-1" points="9.24 118.23 9.24 110.35 9.24 118.23"/>
    <polyline class="cls-1" points=".82 118.23 9.24 118.23 .82 118.23"/>
    <polyline class="cls-1" points="9.24 110.35 .82 110.35 9.24 110.35"/>
    <polyline class="cls-1" points=".54 110.06 .54 101.95 .54 110.06"/>
    <polyline class="cls-1" points="9.14 101.67 9.14 93.78 9.14 101.67"/>
    <polyline class="cls-1" points=".82 101.67 9.14 101.67 .82 101.67"/>
    <polyline class="cls-1" points="9.14 93.78 .82 93.78 9.14 93.78"/>
    <polyline class="cls-1" points=".54 93.5 .54 85.75 .54 93.5"/>
    <polyline class="cls-1" points="8.98 85.46 8.98 83.84 8.98 85.46"/>
    <polyline class="cls-1" points="36.39 159.65 44.82 159.65 36.39 159.65"/>
    <polyline class="cls-1" points="45.1 159.37 45.1 151.3 45.1 159.37"/>
    <polyline class="cls-1" points="36.39 151.02 36.39 143.13 36.39 151.02"/>
    <polyline class="cls-1" points="44.82 151.02 36.39 151.02 44.82 151.02"/>
    <polyline class="cls-1" points="36.39 143.13 44.82 143.13 36.39 143.13"/>
    <polyline class="cls-1" points="45.1 142.85 45.1 134.78 45.1 142.85"/>
    <polyline class="cls-1" points="36.39 134.5 36.39 126.61 36.39 134.5"/>
    <polyline class="cls-1" points="44.82 134.5 36.39 134.5 44.82 134.5"/>
    <polyline class="cls-1" points="36.39 126.61 44.82 126.61 36.39 126.61"/>
    <polyline class="cls-1" points="45.1 126.33 45.1 118.51 45.1 126.33"/>
    <path class="cls-1" d="M44.82,101.67c.16,0,.28.13.28.28,0-.16-.13-.28-.28-.28Z"/>
  </g>
</svg>