<?xml version="1.0" encoding="utf-8" standalone="no"?>
<!DOCTYPE svg PUBLIC "-//W3C//DTD SVG 1.1//EN" "http://www.w3.org/Graphics/SVG/1.1/DTD/svg11.dtd">
<svg version="1.1" width="2384pt" height="3370pt" viewBox="0 0 2383.92 3370.32" xmlns="http://www.w3.org/2000/svg">
  <defs />
  <g id="Layer_01">
    <path d="M1026.6871,1638.1791 L1035.956,1638.2064 L1035.9417,1647.9327 L1026.7345,1647.9733 L1027.0297,1670.6781 L1036.1989,1670.6549 L1036.2081,1680.679 L1027.1395,1680.6927 L1027.281,1704.4595 L1036.3813,1704.5653 L1036.4677,1714.3728 L1027.1636,1714.3801 L1027.3579,1738.3798 L1036.1578,1738.2369 L1036.205,1748.5201 L1027.3258,1748.5201 L1020.09973,1758.084 L998.8321,1758.2231 L998.85046,1747.6804 L987.9864,1747.6504 L987.9783,1767.0356 L1015.21954,1767.0166 L1041.2388,1752.0787 L1041.2202,1601.5758 L1020.16736,1590.5431 L988.0245,1590.5564 L987.9896,1608.2406 L998.64374,1608.2621 L998.59595,1598.0515 L1019.21545,1598.0009 L1026.6108,1608.6233 L1035.869,1608.7052 L1035.8181,1617.8396 L1026.5441,1617.9807 z" stroke="#C80000" stroke-width="0.24" stroke-linecap="round" stroke-linejoin="round" fill="none" />
    <path d="M985.3227,1629.5814 L926.0927,1629.5857 L926.1721,1597.3091 L905.12897,1586.4296 L872.7306,1586.4429 L872.69574,1603.742 L883.5712,1603.7633 L883.69336,1593.9015 L904.17706,1593.8274 L911.43976,1604.3306 L920.64905,1604.3717 L920.56683,1613.4824 L911.43976,1613.4824 L911.60425,1634.0281 L978.3189,1634.2261 L978.2891,1643.343 L911.8398,1643.4508 L911.97174,1666.6393 L978.51965,1666.5808 L978.5031,1675.8392 L912.09576,1675.8495 L912.22516,1700.5548 L978.30634,1700.5092 L978.33826,1709.558 L912.12524,1709.5646 L912.4968,1733.9167 L921.3251,1734.1265 L921.1778,1744.0122 L912.13153,1744.2356 L905.1867,1753.7284 L883.8376,1753.8062 L883.8559,1743.2349 L872.91364,1743.2764 L872.8782,1762.6511 L900.1812,1762.6136 L926.12836,1747.6426 L926.12836,1713.5728 L985.61755,1713.7886 z" stroke="#C80000" stroke-width="0.24" stroke-linecap="round" stroke-linejoin="round" fill="none" />
    <path d="M1354.2407,1638.7322 L1363.453,1638.8538 L1363.4387,1647.8667 L1354.288,1647.9149 L1354.4341,1670.6924 L1363.7905,1670.8291 L1363.7977,1680.5277 L1354.5211,1680.5597 L1354.6505,1704.9916 L1364.0175,1705.0249 L1363.9718,1714.4181 L1354.717,1714.4254 L1354.9049,1738.9427 L1363.9412,1738.73 L1363.9702,1748.5771 L1354.9839,1748.5647 L1347.6531,1758.3208 L1326.5765,1758.46 L1326.595,1746.0742 L1315.5397,1746.0441 L1315.5316,1767.2726 L1342.7731,1767.2534 L1368.7922,1752.3156 L1368.7736,1601.8127 L1361.8546,1598.2424 L1346.7688,1598.2378 L1353.9396,1608.9343 L1363.352,1608.8833 L1363.3788,1617.7241 L1354.0975,1617.8174 z" stroke="#C80000" stroke-width="0.24" stroke-linecap="round" stroke-linejoin="round" fill="none" />
    <path d="M1118.2802,1638.7322 L1127.4924,1638.8538 L1127.4781,1647.8667 L1118.3275,1647.9149 L1118.4735,1670.6924 L1127.83,1670.8291 L1127.8373,1680.5277 L1118.5605,1680.5597 L1118.69,1704.9916 L1128.057,1705.0249 L1128.0112,1714.4181 L1118.7565,1714.4254 L1118.9443,1738.9427 L1127.9807,1738.73 L1128.0096,1748.5771 L1119.0233,1748.5647 L1111.6925,1758.3208 L1090.616,1758.46 L1090.6344,1746.0742 L1079.5792,1746.0441 L1079.571,1767.2726 L1106.8125,1767.2534 L1132.8317,1752.3156 L1132.813,1601.8127 L1125.894,1598.2424 L1110.8082,1598.2378 L1117.979,1608.9343 L1127.3916,1608.8833 L1127.4183,1617.7241 L1118.1371,1617.8174 z" stroke="#C80000" stroke-width="0.24" stroke-linecap="round" stroke-linejoin="round" fill="none" />
    <path d="M1406.6925,1454.2583 L1415.9613,1454.2856 L1415.9469,1464.012 L1406.74,1464.0525 L1407.0349,1486.7573 L1416.2042,1486.7341 L1416.2134,1496.7583 L1407.1449,1496.772 L1407.2863,1520.5387 L1416.3866,1520.6445 L1416.473,1530.4521 L1407.169,1530.4594 L1407.3633,1554.459 L1416.1631,1554.3162 L1416.2102,1564.5994 L1407.3312,1564.5994 L1400.105,1574.1633 L1378.8374,1574.3024 L1378.8558,1563.7598 L1367.9917,1563.7296 L1367.9836,1583.1149 L1395.2249,1583.096 L1421.2441,1568.158 L1421.2255,1417.655 L1400.1726,1406.6223 L1368.0298,1406.6356 L1367.995,1424.3198 L1378.649,1424.3413 L1378.6012,1414.1307 L1399.2207,1414.0801 L1406.6162,1424.7026 L1415.8744,1424.7845 L1415.8234,1433.919 L1406.5494,1434.06 z" stroke="#C80000" stroke-width="0.24" stroke-linecap="round" stroke-linejoin="round" fill="none" />
    <path d="M1445.679,1638.1791 L1454.9478,1638.2064 L1454.9335,1647.9327 L1445.7263,1647.9733 L1446.0215,1670.6781 L1455.1907,1670.6549 L1455.1998,1680.679 L1446.1312,1680.6927 L1446.2728,1704.4595 L1455.373,1704.5653 L1455.4594,1714.3728 L1446.1554,1714.3801 L1446.3497,1738.3798 L1455.1495,1738.2369 L1455.1967,1748.5201 L1446.3177,1748.5201 L1439.0914,1758.084 L1417.8237,1758.2231 L1417.8422,1747.6804 L1406.978,1747.6504 L1406.97,1767.0356 L1434.2113,1767.0166 L1460.2306,1752.0787 L1460.2119,1601.5758 L1439.159,1590.5431 L1407.0161,1590.5564 L1406.9813,1608.2406 L1417.6355,1608.2621 L1417.5876,1598.0515 L1438.2072,1598.0009 L1445.6027,1608.6233 L1454.8608,1608.7052 L1454.8098,1617.8396 L1445.5358,1617.9807 z" stroke="#C80000" stroke-width="0.24" stroke-linecap="round" stroke-linejoin="round" fill="none" />
    <path d="M1273.2596,1638.7322 L1282.4722,1638.8538 L1282.4576,1647.8667 L1273.307,1647.9149 L1273.4531,1670.6924 L1282.8094,1670.8291 L1282.8168,1680.5277 L1273.54,1680.5597 L1273.6696,1704.9916 L1283.0366,1705.0249 L1282.9908,1714.4181 L1273.736,1714.4254 L1273.9238,1738.9427 L1282.9602,1738.73 L1282.9893,1748.5771 L1274.0029,1748.5647 L1266.6722,1758.3208 L1245.5956,1758.46 L1245.6139,1746.0742 L1234.5588,1746.0441 L1234.5508,1767.2726 L1261.792,1767.2534 L1287.8113,1752.3156 L1287.7925,1601.8127 L1280.8735,1598.2424 L1265.7878,1598.2378 L1272.9587,1608.9343 L1282.3712,1608.8833 L1282.398,1617.7241 L1273.1166,1617.8174 z" stroke="#C80000" stroke-width="0.24" stroke-linecap="round" stroke-linejoin="round" fill="none" />
    <path d="M1197.5596,1638.7322 L1206.772,1638.8538 L1206.7576,1647.8667 L1197.6069,1647.9149 L1197.7529,1670.6924 L1207.1094,1670.8291 L1207.1167,1680.5277 L1197.84,1680.5597 L1197.9694,1704.9916 L1207.3364,1705.0249 L1207.2906,1714.4181 L1198.0359,1714.4254 L1198.2238,1738.9427 L1207.2601,1738.73 L1207.2891,1748.5771 L1198.3027,1748.5647 L1190.972,1758.3208 L1169.8955,1758.46 L1169.9138,1746.0742 L1158.8586,1746.0441 L1158.8506,1767.2726 L1186.0919,1767.2534 L1212.1111,1752.3156 L1212.0924,1601.8127 L1205.1735,1598.2424 L1190.0876,1598.2378 L1197.2585,1608.9343 L1206.671,1608.8833 L1206.6978,1617.7241 L1197.4165,1617.8174 z" stroke="#C80000" stroke-width="0.24" stroke-linecap="round" stroke-linejoin="round" fill="none" />
    <path d="M1376.9077,1447.2527 L1317.6777,1447.2571 L1317.7571,1414.9805 L1296.7139,1404.101 L1264.3156,1404.1143 L1264.2808,1421.4133 L1275.1562,1421.4348 L1275.2783,1411.5729 L1295.762,1411.4988 L1303.0248,1422.0021 L1312.234,1422.0432 L1312.1517,1431.1538 L1303.0248,1431.1538 L1303.1892,1451.6996 L1369.9038,1451.8975 L1369.874,1461.0145 L1303.4248,1461.1223 L1303.5568,1484.3108 L1370.1047,1484.2523 L1370.088,1493.5107 L1303.6807,1493.521 L1303.81,1518.2262 L1369.8912,1518.1804 L1369.9232,1527.2294 L1303.7102,1527.2358 L1304.0818,1551.5883 L1312.91,1551.7979 L1312.7627,1561.6836 L1303.7164,1561.907 L1296.7717,1571.3999 L1275.4225,1571.4775 L1275.4409,1560.9062 L1264.4985,1560.9478 L1264.4633,1580.3226 L1291.7661,1580.285 L1317.7134,1565.314 L1317.7134,1531.2441 L1377.2024,1531.46 z" stroke="#C80000" stroke-width="0.24" stroke-linecap="round" stroke-linejoin="round" fill="none" />
    <path d="M1257.6096,1447.2527 L1198.3796,1447.2571 L1198.4591,1414.9805 L1177.4159,1404.101 L1145.0175,1404.1143 L1144.9827,1421.4133 L1155.8582,1421.4348 L1155.9802,1411.5729 L1176.464,1411.4988 L1183.7268,1422.0021 L1192.9359,1422.0432 L1192.8536,1431.1538 L1183.7268,1431.1538 L1183.8911,1451.6996 L1250.6058,1451.8975 L1250.576,1461.0145 L1184.1267,1461.1223 L1184.2587,1484.3108 L1250.8066,1484.2523 L1250.79,1493.5107 L1184.3827,1493.521 L1184.5121,1518.2262 L1250.5933,1518.1804 L1250.6251,1527.2294 L1184.4122,1527.2358 L1184.7838,1551.5883 L1193.6119,1551.7979 L1193.4647,1561.6836 L1184.4185,1561.907 L1177.4736,1571.3999 L1156.1244,1571.4775 L1156.1428,1560.9062 L1145.2006,1560.9478 L1145.1652,1580.3226 L1172.4681,1580.285 L1198.4153,1565.314 L1198.4153,1531.2441 L1257.9044,1531.46 z" stroke="#C80000" stroke-width="0.24" stroke-linecap="round" stroke-linejoin="round" fill="none" />
    <path d="M1154.6608,1447.2527 L1095.4308,1447.2571 L1095.5103,1414.9805 L1074.467,1404.101 L1042.0686,1404.1143 L1042.0338,1421.4133 L1052.9093,1421.4348 L1053.0314,1411.5729 L1073.5151,1411.4988 L1080.7778,1422.0021 L1089.987,1422.0432 L1089.9049,1431.1538 L1080.7778,1431.1538 L1080.9423,1451.6996 L1147.657,1451.8975 L1147.6272,1461.0145 L1081.1779,1461.1223 L1081.3098,1484.3108 L1147.8578,1484.2523 L1147.8412,1493.5107 L1081.4338,1493.521 L1081.5632,1518.2262 L1147.6444,1518.1804 L1147.6764,1527.2294 L1081.4634,1527.2358 L1081.835,1551.5883 L1090.6631,1551.7979 L1090.5159,1561.6836 L1081.4696,1561.907 L1074.5248,1571.3999 L1053.1757,1571.4775 L1053.194,1560.9062 L1042.2517,1560.9478 L1042.2163,1580.3226 L1069.5193,1580.285 L1095.4664,1565.314 L1095.4664,1531.2441 L1154.9556,1531.46 z" stroke="#C80000" stroke-width="0.24" stroke-linecap="round" stroke-linejoin="round" fill="none" />
    <path d="M931.45935,1860.1189 L931.4656,1875.7865 L877.14966,1875.781 L877.1638,1897.9263 L893.5401,1903.1073 L1128.3713,1903.1456 L1149.8439,1897.8733 L1149.7815,1875.7448 L1095.0961,1875.7407 L1094.9861,1859.9628 L1163.8618,1860.0247 L1163.5116,1897.1512 L1127.8683,1912.8507 L1026.0686,1912.8096 L1026.048,1971.1781 L939.20605,1971.3842 L939.1237,1912.4387 L895.19794,1912.48 L868.04315,1900.5714 L867.9813,1860.0864 z" stroke="#C80000" stroke-width="0.24" stroke-linecap="round" stroke-linejoin="round" fill="none" />
    <path d="M1223.7847,1790.8766 L1223.7085,1806.6266 L1169.467,1806.609 L1169.4037,1828.5476 L1181.0022,1832.764 L1426.7834,1832.8246 L1442.1965,1828.5245 L1442.0571,1806.3661 L1387.4114,1806.362 L1387.1349,1790.9198 L1456.2565,1790.6976 L1455.9818,1828.0051 L1422.9685,1842.5188 L1185.9824,1842.9701 L1160.2568,1831.5686 L1160.1367,1790.8973 z" stroke="#C80000" stroke-width="0.24" stroke-linecap="round" stroke-linejoin="round" fill="none" />
    <path d="M954.6179,1771.2426 L954.6242,1786.9099 L900.30835,1786.9045 L900.3224,1809.0497 L916.69867,1813.8636 L1148.733,1813.4253 L1148.7067,1823.7211 L1049.2272,1823.9331 L1049.2065,1882.3016 L962.3647,1882.5076 L962.2823,1823.5621 L918.35657,1823.6034 L891.2017,1811.6948 L891.1399,1771.2098 z" stroke="#C80000" stroke-width="0.24" stroke-linecap="round" stroke-linejoin="round" fill="none" />
    <path d="M1237.835,1860.3823 L1237.8413,1876.0498 L1183.5253,1876.0444 L1183.5394,1898.1896 L1199.9158,1903.1259 L1434.747,1903.1642 L1456.2195,1898.1366 L1456.1571,1876.008 L1442.2205,1876.004 L1442.1105,1860.2261 L1470.2374,1860.288 L1469.8872,1897.4146 L1434.2439,1913.1141 L1332.4442,1913.0729 L1332.4236,1971.4413 L1245.5817,1971.6473 L1245.4994,1912.702 L1201.5736,1912.7433 L1174.4188,1900.8347 L1174.3569,1860.3497 z" stroke="#C80000" stroke-width="0.24" stroke-linecap="round" stroke-linejoin="round" fill="none" />
    <path d="M921.6258,1447.7522 L930.89453,1447.7795 L930.8802,1457.5059 L921.6731,1457.5465 L921.9682,1480.2512 L931.13745,1480.228 L931.1466,1490.2521 L922.07806,1490.2659 L922.21954,1514.0326 L931.3199,1514.1384 L931.40625,1523.946 L922.1022,1523.9534 L922.2965,1547.9529 L931.09644,1547.81 L931.14343,1558.0933 L922.26447,1558.0933 L915.03827,1567.6572 L893.7707,1567.7964 L893.789,1557.2535 L882.9249,1557.2235 L882.9168,1576.6089 L910.15814,1576.5897 L936.17737,1561.6519 L936.15875,1411.149 L915.1059,1400.1163 L882.9631,1400.1296 L882.92816,1417.8138 L893.5823,1417.8352 L893.53455,1407.6248 L914.154,1407.5741 L921.5494,1418.1965 L930.8076,1418.2783 L930.75665,1427.4128 L921.48267,1427.554 z" stroke="#C80000" stroke-width="0.24" stroke-linecap="round" stroke-linejoin="round" fill="none" />
    <path d="M1001.7259,1448.0818 L1010.9946,1448.1091 L1010.9803,1457.8354 L1001.77325,1457.8761 L1002.0683,1480.5809 L1011.23755,1480.5577 L1011.2467,1490.5818 L1002.1781,1490.5955 L1002.3197,1514.3623 L1011.42,1514.4681 L1011.50635,1524.2758 L1002.2023,1524.283 L1002.39655,1548.2826 L1011.19653,1548.1396 L1011.2435,1558.423 L1002.36456,1558.423 L995.1383,1567.9869 L973.8707,1568.126 L973.88904,1557.5834 L963.025,1557.5531 L963.0169,1576.9385 L990.2583,1576.9194 L1016.2774,1561.9817 L1016.2588,1411.4786 L995.20593,1400.4459 L963.0631,1400.4594 L963.02826,1418.1434 L973.6824,1418.1648 L973.6346,1407.9543 L994.254,1407.9038 L1001.6495,1418.5262 L1010.90765,1418.608 L1010.8568,1427.7426 L1001.5828,1427.8837 z" stroke="#C80000" stroke-width="0.24" stroke-linecap="round" stroke-linejoin="round" fill="none" />
  </g>
</svg>